<?xml version="1.0" encoding="utf-8"?>
<!-- Generator: Adobe Illustrator 26.0.1, SVG Export Plug-In . SVG Version: 6.00 Build 0)  -->
<svg version="1.1" id="Layer_1" xmlns:svg="http://www.w3.org/2000/svg"
	 xmlns="http://www.w3.org/2000/svg" xmlns:xlink="http://www.w3.org/1999/xlink" x="0px" y="0px" viewBox="0 0 1224 792"
	 style="enable-background:new 0 0 1224 792;" xml:space="preserve">
<style type="text/css">
	.st0{fill-opacity:0;stroke:#000000;stroke-width:0.4252;stroke-linecap:round;stroke-linejoin:round;stroke-miterlimit:10;}
	.st1{fill:none;stroke:#000000;stroke-width:0.4252;stroke-linecap:round;stroke-linejoin:round;stroke-miterlimit:10;}
</style>
<desc>Picture generated by PCBNEW</desc>
<g transform="translate(0 0) scale(1 1)">
</g>
<g>
	<g>
		<desc></desc>
	</g>
</g>
<circle class="st0" cx="7.8" cy="162.3" r="6.2"/>
<circle class="st0" cx="7.8" cy="7.8" r="6.2"/>
<circle class="st0" cx="501.7" cy="7.8" r="6.2"/>
<circle class="st0" cx="526.5" cy="162.3" r="6.2"/>
<g>
	<path class="st0" d="M0,0h534.3"/>
	<path class="st0" d="M534.3,0v170.1"/>
	<path class="st0" d="M534.3,170.1H0"/>
	<path class="st0" d="M0,170.1V0"/>
</g>
<line class="st1" x1="501.7" y1="1.6" x2="501.7" y2="14"/>
<line class="st1" x1="495.5" y1="7.8" x2="508" y2="7.8"/>
<line class="st1" x1="526.5" y1="156" x2="526.5" y2="168.5"/>
<line class="st1" x1="520.3" y1="162.3" x2="532.8" y2="162.3"/>
<line class="st1" x1="7.8" y1="156" x2="7.8" y2="168.5"/>
<line class="st1" x1="14" y1="162.3" x2="1.6" y2="162.3"/>
<line class="st1" x1="7.8" y1="1.6" x2="7.8" y2="14"/>
<line class="st1" x1="14" y1="7.8" x2="1.6" y2="7.8"/>
<line class="st1" x1="16" y1="0" x2="16" y2="7.8"/>
</svg>
