%TF.GenerationSoftware,KiCad,Pcbnew,(6.0.0)*%
%TF.CreationDate,2022-05-16T10:26:12-07:00*%
%TF.ProjectId,Raptor Gerber,52617074-6f72-4204-9765-726265722e6b,rev?*%
%TF.SameCoordinates,Original*%
%TF.FileFunction,Profile,NP*%
%FSLAX46Y46*%
G04 Gerber Fmt 4.6, Leading zero omitted, Abs format (unit mm)*
G04 Created by KiCad (PCBNEW (6.0.0)) date 2022-05-16 10:26:12*
%MOMM*%
%LPD*%
G01*
G04 APERTURE LIST*
%ADD10C,0.200000*%
G04 APERTURE END LIST*
D10*
X64438009Y-15625657D02*
X15162012Y-15625634D01*
X40050006Y-24459695D02*
X40050135Y-24459695D01*
X46401363Y-24460651D02*
X46401470Y-24460651D01*
X39049744Y-26083386D02*
X39049918Y-25867992D01*
X39049964Y-25662420D01*
X39049989Y-25448323D01*
X39050001Y-25240058D01*
X39050003Y-25154300D01*
X34600705Y-26614188D02*
X34630354Y-26617405D01*
X34201461Y-26083898D02*
X34239580Y-26291544D01*
X34358680Y-26477942D01*
X34538210Y-26595667D01*
X34600705Y-26614188D01*
X46901461Y-25155279D02*
X46901461Y-26084341D01*
X44901110Y-26625634D02*
X45117880Y-26572258D01*
X45286930Y-26428657D01*
X45378623Y-26245308D01*
X45401101Y-26084341D01*
X39550123Y-24459695D02*
X40050006Y-24459695D01*
X65200000Y-16450591D02*
X65176010Y-16244425D01*
X65089684Y-16022830D01*
X64950356Y-15839958D01*
X64768365Y-15707003D01*
X64554053Y-15635161D01*
X64438009Y-15625657D01*
X45901458Y-24460651D02*
X46401363Y-24460651D01*
X14400000Y-25111246D02*
X14400129Y-25112505D01*
X47401474Y-26625634D02*
X64438031Y-26624934D01*
X14400129Y-25112505D02*
X14400129Y-25799977D01*
X41049988Y-26624678D02*
X44901110Y-26625634D01*
X40050135Y-24459695D02*
X40244757Y-24514280D01*
X40403685Y-24663140D01*
X40500822Y-24853159D01*
X40544365Y-25048518D01*
X40550126Y-25154300D01*
X15162120Y-26624911D02*
X32201110Y-26625167D01*
X45401101Y-26084341D02*
X45401275Y-25868963D01*
X45401320Y-25663395D01*
X45401345Y-25449301D01*
X45401357Y-25241037D01*
X45401359Y-25155279D01*
X34630354Y-26617405D02*
X34701496Y-26625167D01*
X34201461Y-25154790D02*
X34201461Y-26083898D01*
X40550126Y-26083246D02*
X40589417Y-26293967D01*
X40696569Y-26466053D01*
X40878210Y-26591791D01*
X41050139Y-26624678D01*
X15162012Y-15625634D02*
X14959188Y-15657279D01*
X14797263Y-15730507D01*
X14400129Y-16450498D02*
X14400129Y-17000462D01*
X34701496Y-26625167D02*
X38549753Y-26624678D01*
X38549753Y-26624678D02*
X38766523Y-26571298D01*
X38935573Y-26427692D01*
X39027266Y-26244344D01*
X39049744Y-26083386D01*
X14797263Y-15730507D02*
X14635825Y-15858369D01*
X14510353Y-16026244D01*
X14429052Y-16226247D01*
X14400129Y-16450498D01*
X14400129Y-25799977D02*
X14424118Y-26006142D01*
X14510444Y-26227737D01*
X14649772Y-26410609D01*
X14831763Y-26543564D01*
X15046075Y-26615406D01*
X15162120Y-26624911D01*
X65200000Y-25800000D02*
X65200000Y-16450591D01*
X33701363Y-24460184D02*
X33701470Y-24460184D01*
X45401359Y-25155279D02*
X45423838Y-24948722D01*
X45500693Y-24739677D01*
X45621806Y-24579285D01*
X45800588Y-24474763D01*
X45901350Y-24460651D01*
X14400129Y-17000462D02*
X14400000Y-17001860D01*
X32701101Y-26083852D02*
X32701275Y-25868474D01*
X32701320Y-25662906D01*
X32701345Y-25448812D01*
X32701357Y-25240548D01*
X32701359Y-25154790D01*
X45901350Y-24460651D02*
X45901458Y-24460651D01*
X33201350Y-24460184D02*
X33201458Y-24460184D01*
X40550126Y-25154300D02*
X40550126Y-26083246D01*
X32701359Y-25154790D02*
X32723838Y-24948235D01*
X32800693Y-24739195D01*
X32921806Y-24578811D01*
X33100588Y-24474295D01*
X33201350Y-24460184D01*
X46901461Y-26084341D02*
X46940755Y-26295040D01*
X47047912Y-26467096D01*
X47229554Y-26592789D01*
X47401474Y-26625634D01*
X64438031Y-26624934D02*
X64664623Y-26587846D01*
X64864062Y-26484049D01*
X65026008Y-26324736D01*
X65140122Y-26121103D01*
X65191220Y-25925630D01*
X65200000Y-25800000D01*
X33201458Y-24460184D02*
X33701363Y-24460184D01*
X41050139Y-26624678D02*
X41049988Y-26624678D01*
X33701470Y-24460184D02*
X33896092Y-24514769D01*
X34055020Y-24663629D01*
X34152157Y-24853649D01*
X34195700Y-25049008D01*
X34201461Y-25154790D01*
X14400000Y-17001860D02*
X14400000Y-25111246D01*
X39050003Y-25154300D02*
X39072482Y-24947745D01*
X39149337Y-24738706D01*
X39270449Y-24578322D01*
X39449231Y-24473806D01*
X39549994Y-24459695D01*
X46401470Y-24460651D02*
X46596092Y-24515240D01*
X46755020Y-24664107D01*
X46852157Y-24854134D01*
X46895700Y-25049496D01*
X46901461Y-25155279D01*
X32201110Y-26625167D02*
X32417880Y-26571786D01*
X32586930Y-26428176D01*
X32678623Y-26244821D01*
X32701101Y-26083852D01*
X39549994Y-24459695D02*
X39550123Y-24459695D01*
M02*
