%TF.GenerationSoftware,KiCad,Pcbnew,(6.0.0)*%
%TF.CreationDate,2022-05-12T01:22:01-07:00*%
%TF.ProjectId,Raptor Gerber,52617074-6f72-4204-9765-726265722e6b,rev?*%
%TF.SameCoordinates,Original*%
%TF.FileFunction,Profile,NP*%
%FSLAX46Y46*%
G04 Gerber Fmt 4.6, Leading zero omitted, Abs format (unit mm)*
G04 Created by KiCad (PCBNEW (6.0.0)) date 2022-05-12 01:22:01*
%MOMM*%
%LPD*%
G01*
G04 APERTURE LIST*
%ADD10C,0.200000*%
G04 APERTURE END LIST*
D10*
X15011969Y-24286312D02*
X15012098Y-24287571D01*
X35242323Y-25792471D02*
X35313465Y-25800233D01*
X46513427Y-23635717D02*
X47013332Y-23635717D01*
X33313070Y-25258918D02*
X33313244Y-25043540D01*
X33313289Y-24837972D01*
X33313314Y-24623878D01*
X33313326Y-24415614D01*
X33313328Y-24329856D01*
X35212674Y-25789254D02*
X35242323Y-25792471D01*
X40661975Y-23634761D02*
X40662104Y-23634761D01*
X48013443Y-25800700D02*
X65050000Y-25800000D01*
X32813079Y-25800233D02*
X33029849Y-25746852D01*
X33198899Y-25603242D01*
X33290592Y-25419887D01*
X33313070Y-25258918D01*
X47013332Y-23635717D02*
X47013439Y-23635717D01*
X15011969Y-16176926D02*
X15011969Y-24286312D01*
X46513319Y-23635717D02*
X46513427Y-23635717D01*
X15012098Y-16175528D02*
X15011969Y-16176926D01*
X41162095Y-24329366D02*
X41162095Y-25258312D01*
X15012098Y-15625564D02*
X15012098Y-16175528D01*
X35313465Y-25800233D02*
X39161722Y-25799744D01*
X39661972Y-24329366D02*
X39684451Y-24122811D01*
X39761306Y-23913772D01*
X39882418Y-23753388D01*
X40061200Y-23648872D01*
X40161963Y-23634761D01*
X40161963Y-23634761D02*
X40162092Y-23634761D01*
X47513430Y-24330345D02*
X47513430Y-25259407D01*
X33313328Y-24329856D02*
X33335807Y-24123301D01*
X33412662Y-23914261D01*
X33533775Y-23753877D01*
X33712557Y-23649361D01*
X33813319Y-23635250D01*
X41662108Y-25799744D02*
X41661957Y-25799744D01*
X34313439Y-23635250D02*
X34508061Y-23689835D01*
X34666989Y-23838695D01*
X34764126Y-24028715D01*
X34807669Y-24224074D01*
X34813430Y-24329856D01*
X15409232Y-14905573D02*
X15247794Y-15033435D01*
X15122322Y-15201310D01*
X15041021Y-15401313D01*
X15012098Y-15625564D01*
X40662104Y-23634761D02*
X40856726Y-23689346D01*
X41015654Y-23838206D01*
X41112791Y-24028225D01*
X41156334Y-24223584D01*
X41162095Y-24329366D01*
X65050000Y-25800000D02*
X65276592Y-25762912D01*
X65476031Y-25659115D01*
X65637977Y-25499802D01*
X65752091Y-25296169D01*
X65803189Y-25100696D01*
X65811969Y-24975066D01*
X34313332Y-23635250D02*
X34313439Y-23635250D01*
X65049978Y-14800723D02*
X15773981Y-14800700D01*
X15012098Y-24975043D02*
X15036087Y-25181208D01*
X15122413Y-25402803D01*
X15261741Y-25585675D01*
X15443732Y-25718630D01*
X15658044Y-25790472D01*
X15774089Y-25799977D01*
X47013439Y-23635717D02*
X47208061Y-23690306D01*
X47366989Y-23839173D01*
X47464126Y-24029200D01*
X47507669Y-24224562D01*
X47513430Y-24330345D01*
X41661957Y-25799744D02*
X45513079Y-25800700D01*
X15012098Y-24287571D02*
X15012098Y-24975043D01*
X39661713Y-25258452D02*
X39661887Y-25043058D01*
X39661933Y-24837486D01*
X39661958Y-24623389D01*
X39661970Y-24415124D01*
X39661972Y-24329366D01*
X34813430Y-24329856D02*
X34813430Y-25258964D01*
X39161722Y-25799744D02*
X39378492Y-25746364D01*
X39547542Y-25602758D01*
X39639235Y-25419410D01*
X39661713Y-25258452D01*
X33813427Y-23635250D02*
X34313332Y-23635250D01*
X65811969Y-15625657D02*
X65787979Y-15419491D01*
X65701653Y-15197896D01*
X65562325Y-15015024D01*
X65380334Y-14882069D01*
X65166022Y-14810227D01*
X65049978Y-14800723D01*
X40162092Y-23634761D02*
X40661975Y-23634761D01*
X65811969Y-24975066D02*
X65811969Y-15625657D01*
X15773981Y-14800700D02*
X15571157Y-14832345D01*
X15409232Y-14905573D01*
X33813319Y-23635250D02*
X33813427Y-23635250D01*
X47513430Y-25259407D02*
X47552724Y-25470106D01*
X47659881Y-25642162D01*
X47841523Y-25767855D01*
X48013443Y-25800700D01*
X34813430Y-25258964D02*
X34851549Y-25466610D01*
X34970649Y-25653008D01*
X35150179Y-25770733D01*
X35212674Y-25789254D01*
X45513079Y-25800700D02*
X45729849Y-25747324D01*
X45898899Y-25603723D01*
X45990592Y-25420374D01*
X46013070Y-25259407D01*
X46013070Y-25259407D02*
X46013244Y-25044029D01*
X46013289Y-24838461D01*
X46013314Y-24624367D01*
X46013326Y-24416103D01*
X46013328Y-24330345D01*
X41162095Y-25258312D02*
X41201386Y-25469033D01*
X41308538Y-25641119D01*
X41490179Y-25766857D01*
X41662108Y-25799744D01*
X15774089Y-25799977D02*
X32813079Y-25800233D01*
X46013328Y-24330345D02*
X46035807Y-24123788D01*
X46112662Y-23914743D01*
X46233775Y-23754351D01*
X46412557Y-23649829D01*
X46513319Y-23635717D01*
M02*
