%TF.GenerationSoftware,KiCad,Pcbnew,(6.0.0)*%
%TF.CreationDate,2022-05-16T10:26:12-07:00*%
%TF.ProjectId,Raptor Gerber,52617074-6f72-4204-9765-726265722e6b,rev?*%
%TF.SameCoordinates,Original*%
%TF.FileFunction,Legend,Top*%
%TF.FilePolarity,Positive*%
%FSLAX46Y46*%
G04 Gerber Fmt 4.6, Leading zero omitted, Abs format (unit mm)*
G04 Created by KiCad (PCBNEW (6.0.0)) date 2022-05-16 10:26:12*
%MOMM*%
%LPD*%
G01*
G04 APERTURE LIST*
G04 Aperture macros list*
%AMRoundRect*
0 Rectangle with rounded corners*
0 $1 Rounding radius*
0 $2 $3 $4 $5 $6 $7 $8 $9 X,Y pos of 4 corners*
0 Add a 4 corners polygon primitive as box body*
4,1,4,$2,$3,$4,$5,$6,$7,$8,$9,$2,$3,0*
0 Add four circle primitives for the rounded corners*
1,1,$1+$1,$2,$3*
1,1,$1+$1,$4,$5*
1,1,$1+$1,$6,$7*
1,1,$1+$1,$8,$9*
0 Add four rect primitives between the rounded corners*
20,1,$1+$1,$2,$3,$4,$5,0*
20,1,$1+$1,$4,$5,$6,$7,0*
20,1,$1+$1,$6,$7,$8,$9,0*
20,1,$1+$1,$8,$9,$2,$3,0*%
G04 Aperture macros list end*
%ADD10C,0.150000*%
%ADD11C,0.120000*%
%ADD12R,1.700000X1.900000*%
%ADD13R,1.700000X1.100000*%
%ADD14RoundRect,0.250000X0.162353X-0.679649X0.641131X-0.277907X-0.162353X0.679649X-0.641131X0.277907X0*%
%ADD15RoundRect,0.425000X-1.275000X-0.425000X1.275000X-0.425000X1.275000X0.425000X-1.275000X0.425000X0*%
%ADD16RoundRect,0.250000X0.312500X0.625000X-0.312500X0.625000X-0.312500X-0.625000X0.312500X-0.625000X0*%
%ADD17RoundRect,0.250000X-0.312500X-0.625000X0.312500X-0.625000X0.312500X0.625000X-0.312500X0.625000X0*%
%ADD18C,2.700000*%
G04 APERTURE END LIST*
D10*
X16147515Y-25784003D02*
X15671325Y-26084003D01*
X16147515Y-26298288D02*
X15147515Y-26298288D01*
X15147515Y-25955431D01*
X15195135Y-25869717D01*
X15242754Y-25826860D01*
X15337992Y-25784003D01*
X15480849Y-25784003D01*
X15576087Y-25826860D01*
X15623706Y-25869717D01*
X15671325Y-25955431D01*
X15671325Y-26298288D01*
X16147515Y-25269717D02*
X16099896Y-25355431D01*
X16052277Y-25398288D01*
X15957039Y-25441146D01*
X15671325Y-25441146D01*
X15576087Y-25398288D01*
X15528468Y-25355431D01*
X15480849Y-25269717D01*
X15480849Y-25141146D01*
X15528468Y-25055431D01*
X15576087Y-25012574D01*
X15671325Y-24969717D01*
X15957039Y-24969717D01*
X16052277Y-25012574D01*
X16099896Y-25055431D01*
X16147515Y-25141146D01*
X16147515Y-25269717D01*
X16147515Y-24584003D02*
X15480849Y-24584003D01*
X15576087Y-24584003D02*
X15528468Y-24541146D01*
X15480849Y-24455431D01*
X15480849Y-24326860D01*
X15528468Y-24241146D01*
X15623706Y-24198288D01*
X16147515Y-24198288D01*
X15623706Y-24198288D02*
X15528468Y-24155431D01*
X15480849Y-24069717D01*
X15480849Y-23941146D01*
X15528468Y-23855431D01*
X15623706Y-23812574D01*
X16147515Y-23812574D01*
X16147515Y-22998288D02*
X15623706Y-22998288D01*
X15528468Y-23041146D01*
X15480849Y-23126860D01*
X15480849Y-23298288D01*
X15528468Y-23384003D01*
X16099896Y-22998288D02*
X16147515Y-23084003D01*
X16147515Y-23298288D01*
X16099896Y-23384003D01*
X16004658Y-23426860D01*
X15909420Y-23426860D01*
X15814182Y-23384003D01*
X15766563Y-23298288D01*
X15766563Y-23084003D01*
X15718944Y-22998288D01*
X15480849Y-22569717D02*
X16147515Y-22569717D01*
X15576087Y-22569717D02*
X15528468Y-22526860D01*
X15480849Y-22441146D01*
X15480849Y-22312574D01*
X15528468Y-22226860D01*
X15623706Y-22184003D01*
X16147515Y-22184003D01*
X16099896Y-21798288D02*
X16147515Y-21712574D01*
X16147515Y-21541146D01*
X16099896Y-21455431D01*
X16004658Y-21412574D01*
X15957039Y-21412574D01*
X15861801Y-21455431D01*
X15814182Y-21541146D01*
X15814182Y-21669717D01*
X15766563Y-21755431D01*
X15671325Y-21798288D01*
X15623706Y-21798288D01*
X15528468Y-21755431D01*
X15480849Y-21669717D01*
X15480849Y-21541146D01*
X15528468Y-21455431D01*
X17186087Y-23898288D02*
X17138468Y-23984003D01*
X17090849Y-24026860D01*
X16995611Y-24069717D01*
X16947992Y-24069717D01*
X16852754Y-24026860D01*
X16805135Y-23984003D01*
X16757515Y-23898288D01*
X16757515Y-23726860D01*
X16805135Y-23641146D01*
X16852754Y-23598288D01*
X16947992Y-23555431D01*
X16995611Y-23555431D01*
X17090849Y-23598288D01*
X17138468Y-23641146D01*
X17186087Y-23726860D01*
X17186087Y-23898288D01*
X17233706Y-23984003D01*
X17281325Y-24026860D01*
X17376563Y-24069717D01*
X17567039Y-24069717D01*
X17662277Y-24026860D01*
X17709896Y-23984003D01*
X17757515Y-23898288D01*
X17757515Y-23726860D01*
X17709896Y-23641146D01*
X17662277Y-23598288D01*
X17567039Y-23555431D01*
X17376563Y-23555431D01*
X17281325Y-23598288D01*
X17233706Y-23641146D01*
X17186087Y-23726860D01*
X17662277Y-23169717D02*
X17709896Y-23126860D01*
X17757515Y-23169717D01*
X17709896Y-23212574D01*
X17662277Y-23169717D01*
X17757515Y-23169717D01*
X17138468Y-23169717D02*
X17186087Y-23126860D01*
X17233706Y-23169717D01*
X17186087Y-23212574D01*
X17138468Y-23169717D01*
X17233706Y-23169717D01*
X16757515Y-22826860D02*
X16757515Y-22269717D01*
X17138468Y-22569717D01*
X17138468Y-22441146D01*
X17186087Y-22355431D01*
X17233706Y-22312574D01*
X17328944Y-22269717D01*
X17567039Y-22269717D01*
X17662277Y-22312574D01*
X17709896Y-22355431D01*
X17757515Y-22441146D01*
X17757515Y-22698288D01*
X17709896Y-22784003D01*
X17662277Y-22826860D01*
X17757515Y-21412574D02*
X17757515Y-21926860D01*
X17757515Y-21669717D02*
X16757515Y-21669717D01*
X16900373Y-21755431D01*
X16995611Y-21841146D01*
X17043230Y-21926860D01*
X15094896Y-16876026D02*
X15094896Y-15876026D01*
X15332992Y-15876026D01*
X15475849Y-15923646D01*
X15571087Y-16018884D01*
X15618706Y-16114122D01*
X15666325Y-16304598D01*
X15666325Y-16447455D01*
X15618706Y-16637931D01*
X15571087Y-16733169D01*
X15475849Y-16828407D01*
X15332992Y-16876026D01*
X15094896Y-16876026D01*
X16523468Y-16876026D02*
X16523468Y-16352217D01*
X16475849Y-16256979D01*
X16380611Y-16209360D01*
X16190135Y-16209360D01*
X16094896Y-16256979D01*
X16523468Y-16828407D02*
X16428230Y-16876026D01*
X16190135Y-16876026D01*
X16094896Y-16828407D01*
X16047277Y-16733169D01*
X16047277Y-16637931D01*
X16094896Y-16542693D01*
X16190135Y-16495074D01*
X16428230Y-16495074D01*
X16523468Y-16447455D01*
X16999658Y-16209360D02*
X16999658Y-16876026D01*
X16999658Y-16304598D02*
X17047277Y-16256979D01*
X17142515Y-16209360D01*
X17285373Y-16209360D01*
X17380611Y-16256979D01*
X17428230Y-16352217D01*
X17428230Y-16876026D01*
X17904420Y-16876026D02*
X17904420Y-16209360D01*
X17904420Y-15876026D02*
X17856801Y-15923646D01*
X17904420Y-15971265D01*
X17952039Y-15923646D01*
X17904420Y-15876026D01*
X17904420Y-15971265D01*
X18761563Y-16828407D02*
X18666325Y-16876026D01*
X18475849Y-16876026D01*
X18380611Y-16828407D01*
X18332992Y-16733169D01*
X18332992Y-16352217D01*
X18380611Y-16256979D01*
X18475849Y-16209360D01*
X18666325Y-16209360D01*
X18761563Y-16256979D01*
X18809182Y-16352217D01*
X18809182Y-16447455D01*
X18332992Y-16542693D01*
X19380611Y-16876026D02*
X19285373Y-16828407D01*
X19237754Y-16733169D01*
X19237754Y-15876026D01*
X60351479Y-17086026D02*
X60351479Y-16086026D01*
X60351479Y-16562217D02*
X60922908Y-16562217D01*
X60922908Y-17086026D02*
X60922908Y-16086026D01*
X61541956Y-17086026D02*
X61446717Y-17038407D01*
X61399098Y-16990788D01*
X61351479Y-16895550D01*
X61351479Y-16609836D01*
X61399098Y-16514598D01*
X61446717Y-16466979D01*
X61541956Y-16419360D01*
X61684813Y-16419360D01*
X61780051Y-16466979D01*
X61827670Y-16514598D01*
X61875289Y-16609836D01*
X61875289Y-16895550D01*
X61827670Y-16990788D01*
X61780051Y-17038407D01*
X61684813Y-17086026D01*
X61541956Y-17086026D01*
X62684813Y-17038407D02*
X62589575Y-17086026D01*
X62399098Y-17086026D01*
X62303860Y-17038407D01*
X62256241Y-16943169D01*
X62256241Y-16562217D01*
X62303860Y-16466979D01*
X62399098Y-16419360D01*
X62589575Y-16419360D01*
X62684813Y-16466979D01*
X62732432Y-16562217D01*
X62732432Y-16657455D01*
X62256241Y-16752693D01*
X63018146Y-16419360D02*
X63399098Y-16419360D01*
X63161003Y-17086026D02*
X63161003Y-16228884D01*
X63208622Y-16133646D01*
X63303860Y-16086026D01*
X63399098Y-16086026D01*
X64113384Y-17038407D02*
X64018146Y-17086026D01*
X63827670Y-17086026D01*
X63732432Y-17038407D01*
X63684813Y-16943169D01*
X63684813Y-16562217D01*
X63732432Y-16466979D01*
X63827670Y-16419360D01*
X64018146Y-16419360D01*
X64113384Y-16466979D01*
X64161003Y-16562217D01*
X64161003Y-16657455D01*
X63684813Y-16752693D01*
X64589575Y-17086026D02*
X64589575Y-16419360D01*
X64589575Y-16609836D02*
X64637194Y-16514598D01*
X64684813Y-16466979D01*
X64780051Y-16419360D01*
X64875289Y-16419360D01*
%TO.C,D191*%
X57924936Y-21151643D02*
X56924936Y-21151643D01*
X56924936Y-20913547D01*
X56972556Y-20770690D01*
X57067794Y-20675452D01*
X57163032Y-20627833D01*
X57353508Y-20580214D01*
X57496365Y-20580214D01*
X57686841Y-20627833D01*
X57782079Y-20675452D01*
X57877317Y-20770690D01*
X57924936Y-20913547D01*
X57924936Y-21151643D01*
X57924936Y-19627833D02*
X57924936Y-20199262D01*
X57924936Y-19913547D02*
X56924936Y-19913547D01*
X57067794Y-20008786D01*
X57163032Y-20104024D01*
X57210651Y-20199262D01*
X57924936Y-19151643D02*
X57924936Y-18961167D01*
X57877317Y-18865928D01*
X57829698Y-18818309D01*
X57686841Y-18723071D01*
X57496365Y-18675452D01*
X57115413Y-18675452D01*
X57020175Y-18723071D01*
X56972556Y-18770690D01*
X56924936Y-18865928D01*
X56924936Y-19056405D01*
X56972556Y-19151643D01*
X57020175Y-19199262D01*
X57115413Y-19246881D01*
X57353508Y-19246881D01*
X57448746Y-19199262D01*
X57496365Y-19151643D01*
X57543984Y-19056405D01*
X57543984Y-18865928D01*
X57496365Y-18770690D01*
X57448746Y-18723071D01*
X57353508Y-18675452D01*
X57924936Y-17723071D02*
X57924936Y-18294500D01*
X57924936Y-18008786D02*
X56924936Y-18008786D01*
X57067794Y-18104024D01*
X57163032Y-18199262D01*
X57210651Y-18294500D01*
X58795889Y-17797591D02*
X58795889Y-18273782D01*
X58510175Y-17702353D02*
X59510175Y-18035687D01*
X58510175Y-18369020D01*
X59179222Y-21573782D02*
X59179222Y-21097591D01*
X59464936Y-21669020D02*
X58464936Y-21335687D01*
X59464936Y-21002353D01*
%TO.C,R96*%
X62224164Y-24676209D02*
X62374685Y-24114772D01*
X61856857Y-24238470D02*
X62622901Y-23595682D01*
X62867773Y-23887508D01*
X62892512Y-23991074D01*
X62886643Y-24058161D01*
X62844295Y-24155857D01*
X62734860Y-24247684D01*
X62631295Y-24272424D01*
X62564207Y-24266554D01*
X62466511Y-24224207D01*
X62221640Y-23932380D01*
X62530253Y-25040992D02*
X62652689Y-25186906D01*
X62750385Y-25229253D01*
X62817472Y-25235123D01*
X62988125Y-25216252D01*
X63164647Y-25130295D01*
X63456474Y-24885423D01*
X63498822Y-24787727D01*
X63504691Y-24720640D01*
X63479951Y-24617075D01*
X63357516Y-24471161D01*
X63259819Y-24428814D01*
X63192732Y-24422944D01*
X63089167Y-24447684D01*
X62906775Y-24600728D01*
X62864427Y-24698425D01*
X62858558Y-24765512D01*
X62883298Y-24869077D01*
X63005733Y-25014991D01*
X63103430Y-25057338D01*
X63170517Y-25063208D01*
X63274082Y-25038468D01*
X64153348Y-25419597D02*
X64030912Y-25273684D01*
X63933216Y-25231336D01*
X63866129Y-25225467D01*
X63695476Y-25244337D01*
X63518954Y-25330295D01*
X63227127Y-25575166D01*
X63184780Y-25672862D01*
X63178910Y-25739949D01*
X63203650Y-25843515D01*
X63326086Y-25989428D01*
X63423782Y-26031776D01*
X63490869Y-26037645D01*
X63594435Y-26012906D01*
X63776826Y-25859861D01*
X63819174Y-25762165D01*
X63825043Y-25695078D01*
X63800304Y-25591512D01*
X63677868Y-25445599D01*
X63580172Y-25403251D01*
X63513084Y-25397382D01*
X63409519Y-25422121D01*
%TO.C,amb-*%
X35263746Y-23948467D02*
X35263746Y-23424658D01*
X35216127Y-23329420D01*
X35120889Y-23281801D01*
X34930413Y-23281801D01*
X34835175Y-23329420D01*
X35263746Y-23900848D02*
X35168508Y-23948467D01*
X34930413Y-23948467D01*
X34835175Y-23900848D01*
X34787556Y-23805610D01*
X34787556Y-23710372D01*
X34835175Y-23615134D01*
X34930413Y-23567515D01*
X35168508Y-23567515D01*
X35263746Y-23519896D01*
X35739936Y-23948467D02*
X35739936Y-23281801D01*
X35739936Y-23377039D02*
X35787556Y-23329420D01*
X35882794Y-23281801D01*
X36025651Y-23281801D01*
X36120889Y-23329420D01*
X36168508Y-23424658D01*
X36168508Y-23948467D01*
X36168508Y-23424658D02*
X36216127Y-23329420D01*
X36311365Y-23281801D01*
X36454222Y-23281801D01*
X36549460Y-23329420D01*
X36597079Y-23424658D01*
X36597079Y-23948467D01*
X37073270Y-23948467D02*
X37073270Y-22948467D01*
X37073270Y-23329420D02*
X37168508Y-23281801D01*
X37358984Y-23281801D01*
X37454222Y-23329420D01*
X37501841Y-23377039D01*
X37549460Y-23472277D01*
X37549460Y-23757991D01*
X37501841Y-23853229D01*
X37454222Y-23900848D01*
X37358984Y-23948467D01*
X37168508Y-23948467D01*
X37073270Y-23900848D01*
X37978032Y-23567515D02*
X38739936Y-23567515D01*
%TO.C,D189*%
X43874936Y-21432043D02*
X42874936Y-21432043D01*
X42874936Y-21193947D01*
X42922556Y-21051090D01*
X43017794Y-20955852D01*
X43113032Y-20908233D01*
X43303508Y-20860614D01*
X43446365Y-20860614D01*
X43636841Y-20908233D01*
X43732079Y-20955852D01*
X43827317Y-21051090D01*
X43874936Y-21193947D01*
X43874936Y-21432043D01*
X43874936Y-19908233D02*
X43874936Y-20479662D01*
X43874936Y-20193947D02*
X42874936Y-20193947D01*
X43017794Y-20289186D01*
X43113032Y-20384424D01*
X43160651Y-20479662D01*
X43303508Y-19336805D02*
X43255889Y-19432043D01*
X43208270Y-19479662D01*
X43113032Y-19527281D01*
X43065413Y-19527281D01*
X42970175Y-19479662D01*
X42922556Y-19432043D01*
X42874936Y-19336805D01*
X42874936Y-19146328D01*
X42922556Y-19051090D01*
X42970175Y-19003471D01*
X43065413Y-18955852D01*
X43113032Y-18955852D01*
X43208270Y-19003471D01*
X43255889Y-19051090D01*
X43303508Y-19146328D01*
X43303508Y-19336805D01*
X43351127Y-19432043D01*
X43398746Y-19479662D01*
X43493984Y-19527281D01*
X43684460Y-19527281D01*
X43779698Y-19479662D01*
X43827317Y-19432043D01*
X43874936Y-19336805D01*
X43874936Y-19146328D01*
X43827317Y-19051090D01*
X43779698Y-19003471D01*
X43684460Y-18955852D01*
X43493984Y-18955852D01*
X43398746Y-19003471D01*
X43351127Y-19051090D01*
X43303508Y-19146328D01*
X43874936Y-18479662D02*
X43874936Y-18289186D01*
X43827317Y-18193947D01*
X43779698Y-18146328D01*
X43636841Y-18051090D01*
X43446365Y-18003471D01*
X43065413Y-18003471D01*
X42970175Y-18051090D01*
X42922556Y-18098709D01*
X42874936Y-18193947D01*
X42874936Y-18384424D01*
X42922556Y-18479662D01*
X42970175Y-18527281D01*
X43065413Y-18574900D01*
X43303508Y-18574900D01*
X43398746Y-18527281D01*
X43446365Y-18479662D01*
X43493984Y-18384424D01*
X43493984Y-18193947D01*
X43446365Y-18098709D01*
X43398746Y-18051090D01*
X43303508Y-18003471D01*
X44795889Y-17807991D02*
X44795889Y-18284182D01*
X44510175Y-17712753D02*
X45510175Y-18046087D01*
X44510175Y-18379420D01*
X45179222Y-21584182D02*
X45179222Y-21107991D01*
X45464936Y-21679420D02*
X44464936Y-21346087D01*
X45464936Y-21012753D01*
%TO.C,D188*%
X22964936Y-21186563D02*
X21964936Y-21186563D01*
X21964936Y-20948467D01*
X22012556Y-20805610D01*
X22107794Y-20710372D01*
X22203032Y-20662753D01*
X22393508Y-20615134D01*
X22536365Y-20615134D01*
X22726841Y-20662753D01*
X22822079Y-20710372D01*
X22917317Y-20805610D01*
X22964936Y-20948467D01*
X22964936Y-21186563D01*
X22964936Y-19662753D02*
X22964936Y-20234182D01*
X22964936Y-19948467D02*
X21964936Y-19948467D01*
X22107794Y-20043706D01*
X22203032Y-20138944D01*
X22250651Y-20234182D01*
X22393508Y-19091325D02*
X22345889Y-19186563D01*
X22298270Y-19234182D01*
X22203032Y-19281801D01*
X22155413Y-19281801D01*
X22060175Y-19234182D01*
X22012556Y-19186563D01*
X21964936Y-19091325D01*
X21964936Y-18900848D01*
X22012556Y-18805610D01*
X22060175Y-18757991D01*
X22155413Y-18710372D01*
X22203032Y-18710372D01*
X22298270Y-18757991D01*
X22345889Y-18805610D01*
X22393508Y-18900848D01*
X22393508Y-19091325D01*
X22441127Y-19186563D01*
X22488746Y-19234182D01*
X22583984Y-19281801D01*
X22774460Y-19281801D01*
X22869698Y-19234182D01*
X22917317Y-19186563D01*
X22964936Y-19091325D01*
X22964936Y-18900848D01*
X22917317Y-18805610D01*
X22869698Y-18757991D01*
X22774460Y-18710372D01*
X22583984Y-18710372D01*
X22488746Y-18757991D01*
X22441127Y-18805610D01*
X22393508Y-18900848D01*
X22393508Y-18138944D02*
X22345889Y-18234182D01*
X22298270Y-18281801D01*
X22203032Y-18329420D01*
X22155413Y-18329420D01*
X22060175Y-18281801D01*
X22012556Y-18234182D01*
X21964936Y-18138944D01*
X21964936Y-17948467D01*
X22012556Y-17853229D01*
X22060175Y-17805610D01*
X22155413Y-17757991D01*
X22203032Y-17757991D01*
X22298270Y-17805610D01*
X22345889Y-17853229D01*
X22393508Y-17948467D01*
X22393508Y-18138944D01*
X22441127Y-18234182D01*
X22488746Y-18281801D01*
X22583984Y-18329420D01*
X22774460Y-18329420D01*
X22869698Y-18281801D01*
X22917317Y-18234182D01*
X22964936Y-18138944D01*
X22964936Y-17948467D01*
X22917317Y-17853229D01*
X22869698Y-17805610D01*
X22774460Y-17757991D01*
X22583984Y-17757991D01*
X22488746Y-17805610D01*
X22441127Y-17853229D01*
X22393508Y-17948467D01*
X24229222Y-21484182D02*
X24229222Y-21007991D01*
X24514936Y-21579420D02*
X23514936Y-21246087D01*
X24514936Y-20912753D01*
X23845889Y-17707991D02*
X23845889Y-18184182D01*
X23560175Y-17612753D02*
X24560175Y-17946087D01*
X23560175Y-18279420D01*
%TO.C,R94*%
X25322436Y-25598944D02*
X24846246Y-25932277D01*
X25322436Y-26170372D02*
X24322436Y-26170372D01*
X24322436Y-25789420D01*
X24370056Y-25694182D01*
X24417675Y-25646563D01*
X24512913Y-25598944D01*
X24655770Y-25598944D01*
X24751008Y-25646563D01*
X24798627Y-25694182D01*
X24846246Y-25789420D01*
X24846246Y-26170372D01*
X25322436Y-25122753D02*
X25322436Y-24932277D01*
X25274817Y-24837039D01*
X25227198Y-24789420D01*
X25084341Y-24694182D01*
X24893865Y-24646563D01*
X24512913Y-24646563D01*
X24417675Y-24694182D01*
X24370056Y-24741801D01*
X24322436Y-24837039D01*
X24322436Y-25027515D01*
X24370056Y-25122753D01*
X24417675Y-25170372D01*
X24512913Y-25217991D01*
X24751008Y-25217991D01*
X24846246Y-25170372D01*
X24893865Y-25122753D01*
X24941484Y-25027515D01*
X24941484Y-24837039D01*
X24893865Y-24741801D01*
X24846246Y-24694182D01*
X24751008Y-24646563D01*
X24655770Y-23789420D02*
X25322436Y-23789420D01*
X24274817Y-24027515D02*
X24989103Y-24265610D01*
X24989103Y-23646563D01*
%TO.C,D182*%
X26214936Y-21442043D02*
X25214936Y-21442043D01*
X25214936Y-21203947D01*
X25262556Y-21061090D01*
X25357794Y-20965852D01*
X25453032Y-20918233D01*
X25643508Y-20870614D01*
X25786365Y-20870614D01*
X25976841Y-20918233D01*
X26072079Y-20965852D01*
X26167317Y-21061090D01*
X26214936Y-21203947D01*
X26214936Y-21442043D01*
X26214936Y-19918233D02*
X26214936Y-20489662D01*
X26214936Y-20203947D02*
X25214936Y-20203947D01*
X25357794Y-20299186D01*
X25453032Y-20394424D01*
X25500651Y-20489662D01*
X25643508Y-19346805D02*
X25595889Y-19442043D01*
X25548270Y-19489662D01*
X25453032Y-19537281D01*
X25405413Y-19537281D01*
X25310175Y-19489662D01*
X25262556Y-19442043D01*
X25214936Y-19346805D01*
X25214936Y-19156328D01*
X25262556Y-19061090D01*
X25310175Y-19013471D01*
X25405413Y-18965852D01*
X25453032Y-18965852D01*
X25548270Y-19013471D01*
X25595889Y-19061090D01*
X25643508Y-19156328D01*
X25643508Y-19346805D01*
X25691127Y-19442043D01*
X25738746Y-19489662D01*
X25833984Y-19537281D01*
X26024460Y-19537281D01*
X26119698Y-19489662D01*
X26167317Y-19442043D01*
X26214936Y-19346805D01*
X26214936Y-19156328D01*
X26167317Y-19061090D01*
X26119698Y-19013471D01*
X26024460Y-18965852D01*
X25833984Y-18965852D01*
X25738746Y-19013471D01*
X25691127Y-19061090D01*
X25643508Y-19156328D01*
X25310175Y-18584900D02*
X25262556Y-18537281D01*
X25214936Y-18442043D01*
X25214936Y-18203947D01*
X25262556Y-18108709D01*
X25310175Y-18061090D01*
X25405413Y-18013471D01*
X25500651Y-18013471D01*
X25643508Y-18061090D01*
X26214936Y-18632519D01*
X26214936Y-18013471D01*
X28060175Y-17617515D02*
X27060175Y-17855610D01*
X27774460Y-18046087D01*
X27060175Y-18236563D01*
X28060175Y-18474658D01*
X26964936Y-21724658D02*
X27964936Y-21486563D01*
X27250651Y-21296087D01*
X27964936Y-21105610D01*
X26964936Y-20867515D01*
%TO.C,R92*%
X29200175Y-24228709D02*
X29676365Y-23895376D01*
X29200175Y-23657281D02*
X30200175Y-23657281D01*
X30200175Y-24038233D01*
X30152556Y-24133471D01*
X30104936Y-24181090D01*
X30009698Y-24228709D01*
X29866841Y-24228709D01*
X29771603Y-24181090D01*
X29723984Y-24133471D01*
X29676365Y-24038233D01*
X29676365Y-23657281D01*
X29200175Y-24704900D02*
X29200175Y-24895376D01*
X29247794Y-24990614D01*
X29295413Y-25038233D01*
X29438270Y-25133471D01*
X29628746Y-25181090D01*
X30009698Y-25181090D01*
X30104936Y-25133471D01*
X30152556Y-25085852D01*
X30200175Y-24990614D01*
X30200175Y-24800138D01*
X30152556Y-24704900D01*
X30104936Y-24657281D01*
X30009698Y-24609662D01*
X29771603Y-24609662D01*
X29676365Y-24657281D01*
X29628746Y-24704900D01*
X29581127Y-24800138D01*
X29581127Y-24990614D01*
X29628746Y-25085852D01*
X29676365Y-25133471D01*
X29771603Y-25181090D01*
X30104936Y-25562043D02*
X30152556Y-25609662D01*
X30200175Y-25704900D01*
X30200175Y-25942995D01*
X30152556Y-26038233D01*
X30104936Y-26085852D01*
X30009698Y-26133471D01*
X29914460Y-26133471D01*
X29771603Y-26085852D01*
X29200175Y-25514424D01*
X29200175Y-26133471D01*
%TO.C,R93*%
X58594336Y-25618944D02*
X58118146Y-25952277D01*
X58594336Y-26190372D02*
X57594336Y-26190372D01*
X57594336Y-25809420D01*
X57641956Y-25714182D01*
X57689575Y-25666563D01*
X57784813Y-25618944D01*
X57927670Y-25618944D01*
X58022908Y-25666563D01*
X58070527Y-25714182D01*
X58118146Y-25809420D01*
X58118146Y-26190372D01*
X58594336Y-25142753D02*
X58594336Y-24952277D01*
X58546717Y-24857039D01*
X58499098Y-24809420D01*
X58356241Y-24714182D01*
X58165765Y-24666563D01*
X57784813Y-24666563D01*
X57689575Y-24714182D01*
X57641956Y-24761801D01*
X57594336Y-24857039D01*
X57594336Y-25047515D01*
X57641956Y-25142753D01*
X57689575Y-25190372D01*
X57784813Y-25237991D01*
X58022908Y-25237991D01*
X58118146Y-25190372D01*
X58165765Y-25142753D01*
X58213384Y-25047515D01*
X58213384Y-24857039D01*
X58165765Y-24761801D01*
X58118146Y-24714182D01*
X58022908Y-24666563D01*
X57594336Y-24333229D02*
X57594336Y-23714182D01*
X57975289Y-24047515D01*
X57975289Y-23904658D01*
X58022908Y-23809420D01*
X58070527Y-23761801D01*
X58165765Y-23714182D01*
X58403860Y-23714182D01*
X58499098Y-23761801D01*
X58546717Y-23809420D01*
X58594336Y-23904658D01*
X58594336Y-24190372D01*
X58546717Y-24285610D01*
X58499098Y-24333229D01*
%TO.C,D183*%
X40214936Y-21382043D02*
X39214936Y-21382043D01*
X39214936Y-21143947D01*
X39262556Y-21001090D01*
X39357794Y-20905852D01*
X39453032Y-20858233D01*
X39643508Y-20810614D01*
X39786365Y-20810614D01*
X39976841Y-20858233D01*
X40072079Y-20905852D01*
X40167317Y-21001090D01*
X40214936Y-21143947D01*
X40214936Y-21382043D01*
X40214936Y-19858233D02*
X40214936Y-20429662D01*
X40214936Y-20143947D02*
X39214936Y-20143947D01*
X39357794Y-20239186D01*
X39453032Y-20334424D01*
X39500651Y-20429662D01*
X39643508Y-19286805D02*
X39595889Y-19382043D01*
X39548270Y-19429662D01*
X39453032Y-19477281D01*
X39405413Y-19477281D01*
X39310175Y-19429662D01*
X39262556Y-19382043D01*
X39214936Y-19286805D01*
X39214936Y-19096328D01*
X39262556Y-19001090D01*
X39310175Y-18953471D01*
X39405413Y-18905852D01*
X39453032Y-18905852D01*
X39548270Y-18953471D01*
X39595889Y-19001090D01*
X39643508Y-19096328D01*
X39643508Y-19286805D01*
X39691127Y-19382043D01*
X39738746Y-19429662D01*
X39833984Y-19477281D01*
X40024460Y-19477281D01*
X40119698Y-19429662D01*
X40167317Y-19382043D01*
X40214936Y-19286805D01*
X40214936Y-19096328D01*
X40167317Y-19001090D01*
X40119698Y-18953471D01*
X40024460Y-18905852D01*
X39833984Y-18905852D01*
X39738746Y-18953471D01*
X39691127Y-19001090D01*
X39643508Y-19096328D01*
X39214936Y-18572519D02*
X39214936Y-17953471D01*
X39595889Y-18286805D01*
X39595889Y-18143947D01*
X39643508Y-18048709D01*
X39691127Y-18001090D01*
X39786365Y-17953471D01*
X40024460Y-17953471D01*
X40119698Y-18001090D01*
X40167317Y-18048709D01*
X40214936Y-18143947D01*
X40214936Y-18429662D01*
X40167317Y-18524900D01*
X40119698Y-18572519D01*
X42060175Y-17567515D02*
X41060175Y-17805610D01*
X41774460Y-17996087D01*
X41060175Y-18186563D01*
X42060175Y-18424658D01*
X40964936Y-21674658D02*
X41964936Y-21436563D01*
X41250651Y-21246087D01*
X41964936Y-21055610D01*
X40964936Y-20817515D01*
%TO.C,7V+*%
X41721603Y-23188067D02*
X42388270Y-23188067D01*
X41959698Y-24188067D01*
X42626365Y-23188067D02*
X42959698Y-24188067D01*
X43293032Y-23188067D01*
X43626365Y-23807115D02*
X44388270Y-23807115D01*
X44007317Y-24188067D02*
X44007317Y-23426163D01*
%TO.C,D192*%
X50964936Y-21186563D02*
X49964936Y-21186563D01*
X49964936Y-20948467D01*
X50012556Y-20805610D01*
X50107794Y-20710372D01*
X50203032Y-20662753D01*
X50393508Y-20615134D01*
X50536365Y-20615134D01*
X50726841Y-20662753D01*
X50822079Y-20710372D01*
X50917317Y-20805610D01*
X50964936Y-20948467D01*
X50964936Y-21186563D01*
X50964936Y-19662753D02*
X50964936Y-20234182D01*
X50964936Y-19948467D02*
X49964936Y-19948467D01*
X50107794Y-20043706D01*
X50203032Y-20138944D01*
X50250651Y-20234182D01*
X50964936Y-19186563D02*
X50964936Y-18996087D01*
X50917317Y-18900848D01*
X50869698Y-18853229D01*
X50726841Y-18757991D01*
X50536365Y-18710372D01*
X50155413Y-18710372D01*
X50060175Y-18757991D01*
X50012556Y-18805610D01*
X49964936Y-18900848D01*
X49964936Y-19091325D01*
X50012556Y-19186563D01*
X50060175Y-19234182D01*
X50155413Y-19281801D01*
X50393508Y-19281801D01*
X50488746Y-19234182D01*
X50536365Y-19186563D01*
X50583984Y-19091325D01*
X50583984Y-18900848D01*
X50536365Y-18805610D01*
X50488746Y-18757991D01*
X50393508Y-18710372D01*
X50060175Y-18329420D02*
X50012556Y-18281801D01*
X49964936Y-18186563D01*
X49964936Y-17948467D01*
X50012556Y-17853229D01*
X50060175Y-17805610D01*
X50155413Y-17757991D01*
X50250651Y-17757991D01*
X50393508Y-17805610D01*
X50964936Y-18377039D01*
X50964936Y-17757991D01*
X51845889Y-17707991D02*
X51845889Y-18184182D01*
X51560175Y-17612753D02*
X52560175Y-17946087D01*
X51560175Y-18279420D01*
X52229222Y-21484182D02*
X52229222Y-21007991D01*
X52514936Y-21579420D02*
X51514936Y-21246087D01*
X52514936Y-20912753D01*
%TO.C,R95*%
X54034336Y-25484424D02*
X53558146Y-25817757D01*
X54034336Y-26055852D02*
X53034336Y-26055852D01*
X53034336Y-25674900D01*
X53081956Y-25579662D01*
X53129575Y-25532043D01*
X53224813Y-25484424D01*
X53367670Y-25484424D01*
X53462908Y-25532043D01*
X53510527Y-25579662D01*
X53558146Y-25674900D01*
X53558146Y-26055852D01*
X54034336Y-25008233D02*
X54034336Y-24817757D01*
X53986717Y-24722519D01*
X53939098Y-24674900D01*
X53796241Y-24579662D01*
X53605765Y-24532043D01*
X53224813Y-24532043D01*
X53129575Y-24579662D01*
X53081956Y-24627281D01*
X53034336Y-24722519D01*
X53034336Y-24912995D01*
X53081956Y-25008233D01*
X53129575Y-25055852D01*
X53224813Y-25103471D01*
X53462908Y-25103471D01*
X53558146Y-25055852D01*
X53605765Y-25008233D01*
X53653384Y-24912995D01*
X53653384Y-24722519D01*
X53605765Y-24627281D01*
X53558146Y-24579662D01*
X53462908Y-24532043D01*
X53034336Y-23627281D02*
X53034336Y-24103471D01*
X53510527Y-24151090D01*
X53462908Y-24103471D01*
X53415289Y-24008233D01*
X53415289Y-23770138D01*
X53462908Y-23674900D01*
X53510527Y-23627281D01*
X53605765Y-23579662D01*
X53843860Y-23579662D01*
X53939098Y-23627281D01*
X53986717Y-23674900D01*
X54034336Y-23770138D01*
X54034336Y-24008233D01*
X53986717Y-24103471D01*
X53939098Y-24151090D01*
%TO.C,wht-*%
X47774460Y-23387601D02*
X47964936Y-24054267D01*
X48155413Y-23578077D01*
X48345889Y-24054267D01*
X48536365Y-23387601D01*
X48917317Y-24054267D02*
X48917317Y-23054267D01*
X49345889Y-24054267D02*
X49345889Y-23530458D01*
X49298270Y-23435220D01*
X49203032Y-23387601D01*
X49060175Y-23387601D01*
X48964936Y-23435220D01*
X48917317Y-23482839D01*
X49679222Y-23387601D02*
X50060175Y-23387601D01*
X49822079Y-23054267D02*
X49822079Y-23911410D01*
X49869698Y-24006648D01*
X49964936Y-24054267D01*
X50060175Y-24054267D01*
X50393508Y-23673315D02*
X51155413Y-23673315D01*
%TO.C,D186*%
X54364936Y-21372043D02*
X53364936Y-21372043D01*
X53364936Y-21133947D01*
X53412556Y-20991090D01*
X53507794Y-20895852D01*
X53603032Y-20848233D01*
X53793508Y-20800614D01*
X53936365Y-20800614D01*
X54126841Y-20848233D01*
X54222079Y-20895852D01*
X54317317Y-20991090D01*
X54364936Y-21133947D01*
X54364936Y-21372043D01*
X54364936Y-19848233D02*
X54364936Y-20419662D01*
X54364936Y-20133947D02*
X53364936Y-20133947D01*
X53507794Y-20229186D01*
X53603032Y-20324424D01*
X53650651Y-20419662D01*
X53793508Y-19276805D02*
X53745889Y-19372043D01*
X53698270Y-19419662D01*
X53603032Y-19467281D01*
X53555413Y-19467281D01*
X53460175Y-19419662D01*
X53412556Y-19372043D01*
X53364936Y-19276805D01*
X53364936Y-19086328D01*
X53412556Y-18991090D01*
X53460175Y-18943471D01*
X53555413Y-18895852D01*
X53603032Y-18895852D01*
X53698270Y-18943471D01*
X53745889Y-18991090D01*
X53793508Y-19086328D01*
X53793508Y-19276805D01*
X53841127Y-19372043D01*
X53888746Y-19419662D01*
X53983984Y-19467281D01*
X54174460Y-19467281D01*
X54269698Y-19419662D01*
X54317317Y-19372043D01*
X54364936Y-19276805D01*
X54364936Y-19086328D01*
X54317317Y-18991090D01*
X54269698Y-18943471D01*
X54174460Y-18895852D01*
X53983984Y-18895852D01*
X53888746Y-18943471D01*
X53841127Y-18991090D01*
X53793508Y-19086328D01*
X53364936Y-18038709D02*
X53364936Y-18229186D01*
X53412556Y-18324424D01*
X53460175Y-18372043D01*
X53603032Y-18467281D01*
X53793508Y-18514900D01*
X54174460Y-18514900D01*
X54269698Y-18467281D01*
X54317317Y-18419662D01*
X54364936Y-18324424D01*
X54364936Y-18133947D01*
X54317317Y-18038709D01*
X54269698Y-17991090D01*
X54174460Y-17943471D01*
X53936365Y-17943471D01*
X53841127Y-17991090D01*
X53793508Y-18038709D01*
X53745889Y-18133947D01*
X53745889Y-18324424D01*
X53793508Y-18419662D01*
X53841127Y-18467281D01*
X53936365Y-18514900D01*
X56060175Y-17617515D02*
X55060175Y-17855610D01*
X55774460Y-18046087D01*
X55060175Y-18236563D01*
X56060175Y-18474658D01*
X54964936Y-21724658D02*
X55964936Y-21486563D01*
X55250651Y-21296087D01*
X55964936Y-21105610D01*
X54964936Y-20867515D01*
%TO.C,D184*%
X33334936Y-21362043D02*
X32334936Y-21362043D01*
X32334936Y-21123947D01*
X32382556Y-20981090D01*
X32477794Y-20885852D01*
X32573032Y-20838233D01*
X32763508Y-20790614D01*
X32906365Y-20790614D01*
X33096841Y-20838233D01*
X33192079Y-20885852D01*
X33287317Y-20981090D01*
X33334936Y-21123947D01*
X33334936Y-21362043D01*
X33334936Y-19838233D02*
X33334936Y-20409662D01*
X33334936Y-20123947D02*
X32334936Y-20123947D01*
X32477794Y-20219186D01*
X32573032Y-20314424D01*
X32620651Y-20409662D01*
X32763508Y-19266805D02*
X32715889Y-19362043D01*
X32668270Y-19409662D01*
X32573032Y-19457281D01*
X32525413Y-19457281D01*
X32430175Y-19409662D01*
X32382556Y-19362043D01*
X32334936Y-19266805D01*
X32334936Y-19076328D01*
X32382556Y-18981090D01*
X32430175Y-18933471D01*
X32525413Y-18885852D01*
X32573032Y-18885852D01*
X32668270Y-18933471D01*
X32715889Y-18981090D01*
X32763508Y-19076328D01*
X32763508Y-19266805D01*
X32811127Y-19362043D01*
X32858746Y-19409662D01*
X32953984Y-19457281D01*
X33144460Y-19457281D01*
X33239698Y-19409662D01*
X33287317Y-19362043D01*
X33334936Y-19266805D01*
X33334936Y-19076328D01*
X33287317Y-18981090D01*
X33239698Y-18933471D01*
X33144460Y-18885852D01*
X32953984Y-18885852D01*
X32858746Y-18933471D01*
X32811127Y-18981090D01*
X32763508Y-19076328D01*
X32668270Y-18028709D02*
X33334936Y-18028709D01*
X32287317Y-18266805D02*
X33001603Y-18504900D01*
X33001603Y-17885852D01*
X35060175Y-17617515D02*
X34060175Y-17855610D01*
X34774460Y-18046087D01*
X34060175Y-18236563D01*
X35060175Y-18474658D01*
X33964936Y-21724658D02*
X34964936Y-21486563D01*
X34250651Y-21296087D01*
X34964936Y-21105610D01*
X33964936Y-20867515D01*
%TO.C,D187*%
X29844936Y-21342043D02*
X28844936Y-21342043D01*
X28844936Y-21103947D01*
X28892556Y-20961090D01*
X28987794Y-20865852D01*
X29083032Y-20818233D01*
X29273508Y-20770614D01*
X29416365Y-20770614D01*
X29606841Y-20818233D01*
X29702079Y-20865852D01*
X29797317Y-20961090D01*
X29844936Y-21103947D01*
X29844936Y-21342043D01*
X29844936Y-19818233D02*
X29844936Y-20389662D01*
X29844936Y-20103947D02*
X28844936Y-20103947D01*
X28987794Y-20199186D01*
X29083032Y-20294424D01*
X29130651Y-20389662D01*
X29273508Y-19246805D02*
X29225889Y-19342043D01*
X29178270Y-19389662D01*
X29083032Y-19437281D01*
X29035413Y-19437281D01*
X28940175Y-19389662D01*
X28892556Y-19342043D01*
X28844936Y-19246805D01*
X28844936Y-19056328D01*
X28892556Y-18961090D01*
X28940175Y-18913471D01*
X29035413Y-18865852D01*
X29083032Y-18865852D01*
X29178270Y-18913471D01*
X29225889Y-18961090D01*
X29273508Y-19056328D01*
X29273508Y-19246805D01*
X29321127Y-19342043D01*
X29368746Y-19389662D01*
X29463984Y-19437281D01*
X29654460Y-19437281D01*
X29749698Y-19389662D01*
X29797317Y-19342043D01*
X29844936Y-19246805D01*
X29844936Y-19056328D01*
X29797317Y-18961090D01*
X29749698Y-18913471D01*
X29654460Y-18865852D01*
X29463984Y-18865852D01*
X29368746Y-18913471D01*
X29321127Y-18961090D01*
X29273508Y-19056328D01*
X28844936Y-18532519D02*
X28844936Y-17865852D01*
X29844936Y-18294424D01*
X30795889Y-17807991D02*
X30795889Y-18284182D01*
X30510175Y-17712753D02*
X31510175Y-18046087D01*
X30510175Y-18379420D01*
X31179222Y-21584182D02*
X31179222Y-21107991D01*
X31464936Y-21679420D02*
X30464936Y-21346087D01*
X31464936Y-21012753D01*
%TO.C,R91*%
X20464936Y-25618944D02*
X19988746Y-25952277D01*
X20464936Y-26190372D02*
X19464936Y-26190372D01*
X19464936Y-25809420D01*
X19512556Y-25714182D01*
X19560175Y-25666563D01*
X19655413Y-25618944D01*
X19798270Y-25618944D01*
X19893508Y-25666563D01*
X19941127Y-25714182D01*
X19988746Y-25809420D01*
X19988746Y-26190372D01*
X20464936Y-25142753D02*
X20464936Y-24952277D01*
X20417317Y-24857039D01*
X20369698Y-24809420D01*
X20226841Y-24714182D01*
X20036365Y-24666563D01*
X19655413Y-24666563D01*
X19560175Y-24714182D01*
X19512556Y-24761801D01*
X19464936Y-24857039D01*
X19464936Y-25047515D01*
X19512556Y-25142753D01*
X19560175Y-25190372D01*
X19655413Y-25237991D01*
X19893508Y-25237991D01*
X19988746Y-25190372D01*
X20036365Y-25142753D01*
X20083984Y-25047515D01*
X20083984Y-24857039D01*
X20036365Y-24761801D01*
X19988746Y-24714182D01*
X19893508Y-24666563D01*
X20464936Y-23714182D02*
X20464936Y-24285610D01*
X20464936Y-23999896D02*
X19464936Y-23999896D01*
X19607794Y-24095134D01*
X19703032Y-24190372D01*
X19750651Y-24285610D01*
%TO.C,D181*%
X19464936Y-21186563D02*
X18464936Y-21186563D01*
X18464936Y-20948467D01*
X18512556Y-20805610D01*
X18607794Y-20710372D01*
X18703032Y-20662753D01*
X18893508Y-20615134D01*
X19036365Y-20615134D01*
X19226841Y-20662753D01*
X19322079Y-20710372D01*
X19417317Y-20805610D01*
X19464936Y-20948467D01*
X19464936Y-21186563D01*
X19464936Y-19662753D02*
X19464936Y-20234182D01*
X19464936Y-19948467D02*
X18464936Y-19948467D01*
X18607794Y-20043706D01*
X18703032Y-20138944D01*
X18750651Y-20234182D01*
X18893508Y-19091325D02*
X18845889Y-19186563D01*
X18798270Y-19234182D01*
X18703032Y-19281801D01*
X18655413Y-19281801D01*
X18560175Y-19234182D01*
X18512556Y-19186563D01*
X18464936Y-19091325D01*
X18464936Y-18900848D01*
X18512556Y-18805610D01*
X18560175Y-18757991D01*
X18655413Y-18710372D01*
X18703032Y-18710372D01*
X18798270Y-18757991D01*
X18845889Y-18805610D01*
X18893508Y-18900848D01*
X18893508Y-19091325D01*
X18941127Y-19186563D01*
X18988746Y-19234182D01*
X19083984Y-19281801D01*
X19274460Y-19281801D01*
X19369698Y-19234182D01*
X19417317Y-19186563D01*
X19464936Y-19091325D01*
X19464936Y-18900848D01*
X19417317Y-18805610D01*
X19369698Y-18757991D01*
X19274460Y-18710372D01*
X19083984Y-18710372D01*
X18988746Y-18757991D01*
X18941127Y-18805610D01*
X18893508Y-18900848D01*
X19464936Y-17757991D02*
X19464936Y-18329420D01*
X19464936Y-18043706D02*
X18464936Y-18043706D01*
X18607794Y-18138944D01*
X18703032Y-18234182D01*
X18750651Y-18329420D01*
X19964936Y-21674658D02*
X20964936Y-21436563D01*
X20250651Y-21246087D01*
X20964936Y-21055610D01*
X19964936Y-20817515D01*
X21060175Y-17567515D02*
X20060175Y-17805610D01*
X20774460Y-17996087D01*
X20060175Y-18186563D01*
X21060175Y-18424658D01*
%TO.C,D185*%
X47284936Y-21362043D02*
X46284936Y-21362043D01*
X46284936Y-21123947D01*
X46332556Y-20981090D01*
X46427794Y-20885852D01*
X46523032Y-20838233D01*
X46713508Y-20790614D01*
X46856365Y-20790614D01*
X47046841Y-20838233D01*
X47142079Y-20885852D01*
X47237317Y-20981090D01*
X47284936Y-21123947D01*
X47284936Y-21362043D01*
X47284936Y-19838233D02*
X47284936Y-20409662D01*
X47284936Y-20123947D02*
X46284936Y-20123947D01*
X46427794Y-20219186D01*
X46523032Y-20314424D01*
X46570651Y-20409662D01*
X46713508Y-19266805D02*
X46665889Y-19362043D01*
X46618270Y-19409662D01*
X46523032Y-19457281D01*
X46475413Y-19457281D01*
X46380175Y-19409662D01*
X46332556Y-19362043D01*
X46284936Y-19266805D01*
X46284936Y-19076328D01*
X46332556Y-18981090D01*
X46380175Y-18933471D01*
X46475413Y-18885852D01*
X46523032Y-18885852D01*
X46618270Y-18933471D01*
X46665889Y-18981090D01*
X46713508Y-19076328D01*
X46713508Y-19266805D01*
X46761127Y-19362043D01*
X46808746Y-19409662D01*
X46903984Y-19457281D01*
X47094460Y-19457281D01*
X47189698Y-19409662D01*
X47237317Y-19362043D01*
X47284936Y-19266805D01*
X47284936Y-19076328D01*
X47237317Y-18981090D01*
X47189698Y-18933471D01*
X47094460Y-18885852D01*
X46903984Y-18885852D01*
X46808746Y-18933471D01*
X46761127Y-18981090D01*
X46713508Y-19076328D01*
X46284936Y-17981090D02*
X46284936Y-18457281D01*
X46761127Y-18504900D01*
X46713508Y-18457281D01*
X46665889Y-18362043D01*
X46665889Y-18123947D01*
X46713508Y-18028709D01*
X46761127Y-17981090D01*
X46856365Y-17933471D01*
X47094460Y-17933471D01*
X47189698Y-17981090D01*
X47237317Y-18028709D01*
X47284936Y-18123947D01*
X47284936Y-18362043D01*
X47237317Y-18457281D01*
X47189698Y-18504900D01*
X47964936Y-21674658D02*
X48964936Y-21436563D01*
X48250651Y-21246087D01*
X48964936Y-21055610D01*
X47964936Y-20817515D01*
X49060175Y-17567515D02*
X48060175Y-17805610D01*
X48774460Y-17996087D01*
X48060175Y-18186563D01*
X49060175Y-18424658D01*
%TO.C,D190*%
X36704936Y-21342043D02*
X35704936Y-21342043D01*
X35704936Y-21103947D01*
X35752556Y-20961090D01*
X35847794Y-20865852D01*
X35943032Y-20818233D01*
X36133508Y-20770614D01*
X36276365Y-20770614D01*
X36466841Y-20818233D01*
X36562079Y-20865852D01*
X36657317Y-20961090D01*
X36704936Y-21103947D01*
X36704936Y-21342043D01*
X36704936Y-19818233D02*
X36704936Y-20389662D01*
X36704936Y-20103947D02*
X35704936Y-20103947D01*
X35847794Y-20199186D01*
X35943032Y-20294424D01*
X35990651Y-20389662D01*
X36704936Y-19342043D02*
X36704936Y-19151567D01*
X36657317Y-19056328D01*
X36609698Y-19008709D01*
X36466841Y-18913471D01*
X36276365Y-18865852D01*
X35895413Y-18865852D01*
X35800175Y-18913471D01*
X35752556Y-18961090D01*
X35704936Y-19056328D01*
X35704936Y-19246805D01*
X35752556Y-19342043D01*
X35800175Y-19389662D01*
X35895413Y-19437281D01*
X36133508Y-19437281D01*
X36228746Y-19389662D01*
X36276365Y-19342043D01*
X36323984Y-19246805D01*
X36323984Y-19056328D01*
X36276365Y-18961090D01*
X36228746Y-18913471D01*
X36133508Y-18865852D01*
X35704936Y-18246805D02*
X35704936Y-18151567D01*
X35752556Y-18056328D01*
X35800175Y-18008709D01*
X35895413Y-17961090D01*
X36085889Y-17913471D01*
X36323984Y-17913471D01*
X36514460Y-17961090D01*
X36609698Y-18008709D01*
X36657317Y-18056328D01*
X36704936Y-18151567D01*
X36704936Y-18246805D01*
X36657317Y-18342043D01*
X36609698Y-18389662D01*
X36514460Y-18437281D01*
X36323984Y-18484900D01*
X36085889Y-18484900D01*
X35895413Y-18437281D01*
X35800175Y-18389662D01*
X35752556Y-18342043D01*
X35704936Y-18246805D01*
X38229222Y-21484182D02*
X38229222Y-21007991D01*
X38514936Y-21579420D02*
X37514936Y-21246087D01*
X38514936Y-20912753D01*
X37845889Y-17707991D02*
X37845889Y-18184182D01*
X37560175Y-17612753D02*
X38560175Y-17946087D01*
X37560175Y-18279420D01*
D11*
%TO.C,D191*%
X60512556Y-17235687D02*
X57512556Y-17235687D01*
X57512556Y-22035687D02*
X60512556Y-22035687D01*
X60512556Y-22035687D02*
X60512556Y-21635687D01*
X60512556Y-17235687D02*
X60512556Y-17885687D01*
X57512556Y-17235687D02*
X57512556Y-17635687D01*
X57512556Y-22035687D02*
X57512556Y-21635687D01*
X60512556Y-17735687D02*
X60012556Y-17235687D01*
%TO.C,D189*%
X46512556Y-22046087D02*
X46512556Y-21646087D01*
X46512556Y-17246087D02*
X46512556Y-17896087D01*
X46512556Y-17746087D02*
X46012556Y-17246087D01*
X43512556Y-22046087D02*
X46512556Y-22046087D01*
X43512556Y-17246087D02*
X43512556Y-17646087D01*
X43512556Y-22046087D02*
X43512556Y-21646087D01*
X46512556Y-17246087D02*
X43512556Y-17246087D01*
%TO.C,D188*%
X22512556Y-22046087D02*
X22512556Y-21396087D01*
X25512556Y-17246087D02*
X25512556Y-17646087D01*
X25512556Y-22046087D02*
X25512556Y-21646087D01*
X25512556Y-17246087D02*
X22512556Y-17246087D01*
X22512556Y-22046087D02*
X25512556Y-22046087D01*
X22512556Y-17246087D02*
X22512556Y-17646087D01*
X22512556Y-21546087D02*
X23012556Y-22046087D01*
%TO.C,D182*%
X29012556Y-17246087D02*
X29012556Y-17896087D01*
X26012556Y-17246087D02*
X26012556Y-17646087D01*
X29012556Y-17246087D02*
X26012556Y-17246087D01*
X29012556Y-17746087D02*
X28512556Y-17246087D01*
X26012556Y-22046087D02*
X29012556Y-22046087D01*
X29012556Y-22046087D02*
X29012556Y-21646087D01*
X26012556Y-22046087D02*
X26012556Y-21646087D01*
%TO.C,D183*%
X43012556Y-22046087D02*
X43012556Y-21646087D01*
X40012556Y-22046087D02*
X43012556Y-22046087D01*
X40012556Y-21546087D02*
X40512556Y-22046087D01*
X40012556Y-17246087D02*
X40012556Y-17646087D01*
X43012556Y-17246087D02*
X43012556Y-17646087D01*
X43012556Y-17246087D02*
X40012556Y-17246087D01*
X40012556Y-22046087D02*
X40012556Y-21396087D01*
%TO.C,D192*%
X53512556Y-17246087D02*
X50512556Y-17246087D01*
X50512556Y-21546087D02*
X51012556Y-22046087D01*
X50512556Y-22046087D02*
X53512556Y-22046087D01*
X50512556Y-22046087D02*
X50512556Y-21396087D01*
X53512556Y-17246087D02*
X53512556Y-17646087D01*
X50512556Y-17246087D02*
X50512556Y-17646087D01*
X53512556Y-22046087D02*
X53512556Y-21646087D01*
%TO.C,D186*%
X54012556Y-17246087D02*
X54012556Y-17646087D01*
X57012556Y-22046087D02*
X57012556Y-21646087D01*
X57012556Y-17246087D02*
X54012556Y-17246087D01*
X54012556Y-22046087D02*
X54012556Y-21646087D01*
X57012556Y-17246087D02*
X57012556Y-17896087D01*
X54012556Y-22046087D02*
X57012556Y-22046087D01*
X57012556Y-17746087D02*
X56512556Y-17246087D01*
%TO.C,D184*%
X36012556Y-22046087D02*
X36012556Y-21646087D01*
X33012556Y-22046087D02*
X33012556Y-21646087D01*
X36012556Y-17746087D02*
X35512556Y-17246087D01*
X33012556Y-22046087D02*
X36012556Y-22046087D01*
X33012556Y-17246087D02*
X33012556Y-17646087D01*
X36012556Y-17246087D02*
X36012556Y-17896087D01*
X36012556Y-17246087D02*
X33012556Y-17246087D01*
%TO.C,D187*%
X32512556Y-22046087D02*
X32512556Y-21646087D01*
X32512556Y-17246087D02*
X32512556Y-17896087D01*
X29512556Y-22046087D02*
X32512556Y-22046087D01*
X29512556Y-17246087D02*
X29512556Y-17646087D01*
X32512556Y-17746087D02*
X32012556Y-17246087D01*
X32512556Y-17246087D02*
X29512556Y-17246087D01*
X29512556Y-22046087D02*
X29512556Y-21646087D01*
%TO.C,D181*%
X19012556Y-21546087D02*
X19512556Y-22046087D01*
X19012556Y-22046087D02*
X22012556Y-22046087D01*
X19012556Y-17246087D02*
X19012556Y-17646087D01*
X22012556Y-22046087D02*
X22012556Y-21646087D01*
X22012556Y-17246087D02*
X19012556Y-17246087D01*
X19012556Y-22046087D02*
X19012556Y-21396087D01*
X22012556Y-17246087D02*
X22012556Y-17646087D01*
%TO.C,D185*%
X50012556Y-17246087D02*
X50012556Y-17646087D01*
X47012556Y-21546087D02*
X47512556Y-22046087D01*
X47012556Y-17246087D02*
X47012556Y-17646087D01*
X47012556Y-22046087D02*
X50012556Y-22046087D01*
X47012556Y-22046087D02*
X47012556Y-21396087D01*
X50012556Y-22046087D02*
X50012556Y-21646087D01*
X50012556Y-17246087D02*
X47012556Y-17246087D01*
%TO.C,D190*%
X36512556Y-22046087D02*
X36512556Y-21396087D01*
X39512556Y-22046087D02*
X39512556Y-21646087D01*
X36512556Y-21546087D02*
X37012556Y-22046087D01*
X39512556Y-17246087D02*
X36512556Y-17246087D01*
X36512556Y-22046087D02*
X39512556Y-22046087D01*
X39512556Y-17246087D02*
X39512556Y-17646087D01*
X36512556Y-17246087D02*
X36512556Y-17646087D01*
%TD*%
%LPC*%
D12*
%TO.C,D191*%
X59012556Y-19635687D03*
D13*
X59012556Y-16785687D03*
X59012556Y-22485687D03*
%TD*%
D14*
%TO.C,R96*%
X61724081Y-25347587D03*
X63964761Y-23467433D03*
%TD*%
D15*
%TO.C,amb-*%
X36587556Y-24996087D03*
%TD*%
D12*
%TO.C,D189*%
X45012556Y-19646087D03*
D13*
X45012556Y-16796087D03*
X45012556Y-22496087D03*
%TD*%
D12*
%TO.C,D188*%
X24012556Y-19646087D03*
D13*
X24012556Y-22496087D03*
X24012556Y-16796087D03*
%TD*%
D16*
%TO.C,R94*%
X26312556Y-25076087D03*
X23387556Y-25076087D03*
%TD*%
D12*
%TO.C,D182*%
X27512556Y-19646087D03*
D13*
X27512556Y-16796087D03*
X27512556Y-22496087D03*
%TD*%
D17*
%TO.C,R92*%
X28270056Y-25056087D03*
X31195056Y-25056087D03*
%TD*%
D16*
%TO.C,R93*%
X59584456Y-25096087D03*
X56659456Y-25096087D03*
%TD*%
D12*
%TO.C,D183*%
X41512556Y-19646087D03*
D13*
X41512556Y-22496087D03*
X41512556Y-16796087D03*
%TD*%
D15*
%TO.C,7V+*%
X42902556Y-25031567D03*
%TD*%
D12*
%TO.C,D192*%
X52012556Y-19646087D03*
D13*
X52012556Y-22496087D03*
X52012556Y-16796087D03*
%TD*%
D16*
%TO.C,R95*%
X54984456Y-24416087D03*
X52059456Y-24416087D03*
%TD*%
D15*
%TO.C,wht-*%
X49312556Y-25101887D03*
%TD*%
D18*
%TO.C,REF\u002A\u002A*%
X16391956Y-19735687D03*
%TD*%
D12*
%TO.C,D186*%
X55512556Y-19646087D03*
D13*
X55512556Y-16796087D03*
X55512556Y-22496087D03*
%TD*%
D12*
%TO.C,D184*%
X34512556Y-19646087D03*
D13*
X34512556Y-16796087D03*
X34512556Y-22496087D03*
%TD*%
D12*
%TO.C,D187*%
X31012556Y-19646087D03*
D13*
X31012556Y-16796087D03*
X31012556Y-22496087D03*
%TD*%
D18*
%TO.C,REF\u002A\u002A*%
X63191956Y-19735687D03*
%TD*%
D16*
%TO.C,R91*%
X21455056Y-25096087D03*
X18530056Y-25096087D03*
%TD*%
D12*
%TO.C,D181*%
X20512556Y-19646087D03*
D13*
X20512556Y-22496087D03*
X20512556Y-16796087D03*
%TD*%
D12*
%TO.C,D185*%
X48512556Y-19646087D03*
D13*
X48512556Y-22496087D03*
X48512556Y-16796087D03*
%TD*%
D12*
%TO.C,D190*%
X38012556Y-19646087D03*
D13*
X38012556Y-22496087D03*
X38012556Y-16796087D03*
%TD*%
M02*
