%TF.GenerationSoftware,KiCad,Pcbnew,(6.0.0)*%
%TF.CreationDate,2022-05-12T01:22:01-07:00*%
%TF.ProjectId,Raptor Gerber,52617074-6f72-4204-9765-726265722e6b,rev?*%
%TF.SameCoordinates,Original*%
%TF.FileFunction,Copper,L1,Top*%
%TF.FilePolarity,Positive*%
%FSLAX46Y46*%
G04 Gerber Fmt 4.6, Leading zero omitted, Abs format (unit mm)*
G04 Created by KiCad (PCBNEW (6.0.0)) date 2022-05-12 01:22:01*
%MOMM*%
%LPD*%
G01*
G04 APERTURE LIST*
G04 Aperture macros list*
%AMRoundRect*
0 Rectangle with rounded corners*
0 $1 Rounding radius*
0 $2 $3 $4 $5 $6 $7 $8 $9 X,Y pos of 4 corners*
0 Add a 4 corners polygon primitive as box body*
4,1,4,$2,$3,$4,$5,$6,$7,$8,$9,$2,$3,0*
0 Add four circle primitives for the rounded corners*
1,1,$1+$1,$2,$3*
1,1,$1+$1,$4,$5*
1,1,$1+$1,$6,$7*
1,1,$1+$1,$8,$9*
0 Add four rect primitives between the rounded corners*
20,1,$1+$1,$2,$3,$4,$5,0*
20,1,$1+$1,$4,$5,$6,$7,0*
20,1,$1+$1,$6,$7,$8,$9,0*
20,1,$1+$1,$8,$9,$2,$3,0*%
G04 Aperture macros list end*
%TA.AperFunction,SMDPad,CuDef*%
%ADD10RoundRect,0.425000X-1.275000X-0.425000X1.275000X-0.425000X1.275000X0.425000X-1.275000X0.425000X0*%
%TD*%
%TA.AperFunction,SMDPad,CuDef*%
%ADD11R,1.700000X1.900000*%
%TD*%
%TA.AperFunction,SMDPad,CuDef*%
%ADD12R,1.700000X1.100000*%
%TD*%
%TA.AperFunction,SMDPad,CuDef*%
%ADD13RoundRect,0.250000X0.625000X-0.312500X0.625000X0.312500X-0.625000X0.312500X-0.625000X-0.312500X0*%
%TD*%
%TA.AperFunction,SMDPad,CuDef*%
%ADD14RoundRect,0.250000X0.312500X0.625000X-0.312500X0.625000X-0.312500X-0.625000X0.312500X-0.625000X0*%
%TD*%
%TA.AperFunction,SMDPad,CuDef*%
%ADD15RoundRect,0.250000X-0.312500X-0.625000X0.312500X-0.625000X0.312500X0.625000X-0.312500X0.625000X0*%
%TD*%
%TA.AperFunction,Conductor*%
%ADD16C,0.250000*%
%TD*%
%TA.AperFunction,Conductor*%
%ADD17C,0.203200*%
%TD*%
G04 APERTURE END LIST*
D10*
%TO.P,amb-,1*%
%TO.N,N/C*%
X37199525Y-24171153D03*
%TD*%
D11*
%TO.P,D190,*%
%TO.N,*%
X38624525Y-18821153D03*
D12*
%TO.P,D190,1,K*%
%TO.N,N/C*%
X38624525Y-21671153D03*
%TO.P,D190,2,A*%
X38624525Y-15971153D03*
%TD*%
D13*
%TO.P,R96,1*%
%TO.N,N/C*%
X62785925Y-24881253D03*
%TO.P,R96,2*%
X62785925Y-21956253D03*
%TD*%
D10*
%TO.P,wht-,1*%
%TO.N,N/C*%
X49924525Y-24276953D03*
%TD*%
D11*
%TO.P,D181,*%
%TO.N,*%
X21124525Y-18821153D03*
D12*
%TO.P,D181,1,K*%
%TO.N,N/C*%
X21124525Y-21671153D03*
%TO.P,D181,2,A*%
X21124525Y-15971153D03*
%TD*%
D14*
%TO.P,R91,1*%
%TO.N,N/C*%
X22067025Y-24271153D03*
%TO.P,R91,2*%
X19142025Y-24271153D03*
%TD*%
D11*
%TO.P,D182,*%
%TO.N,*%
X28124525Y-18821153D03*
D12*
%TO.P,D182,1,K*%
%TO.N,N/C*%
X28124525Y-15971153D03*
%TO.P,D182,2,A*%
X28124525Y-21671153D03*
%TD*%
D10*
%TO.P,7V+,1*%
%TO.N,N/C*%
X43514525Y-24206633D03*
%TD*%
D11*
%TO.P,D183,*%
%TO.N,*%
X42124525Y-18821153D03*
D12*
%TO.P,D183,1,K*%
%TO.N,N/C*%
X42124525Y-21671153D03*
%TO.P,D183,2,A*%
X42124525Y-15971153D03*
%TD*%
D11*
%TO.P,D187,*%
%TO.N,*%
X31624525Y-18821153D03*
D12*
%TO.P,D187,1,K*%
%TO.N,N/C*%
X31624525Y-15971153D03*
%TO.P,D187,2,A*%
X31624525Y-21671153D03*
%TD*%
D14*
%TO.P,R94,1*%
%TO.N,N/C*%
X26924525Y-24251153D03*
%TO.P,R94,2*%
X23999525Y-24251153D03*
%TD*%
D11*
%TO.P,D184,*%
%TO.N,*%
X35124525Y-18821153D03*
D12*
%TO.P,D184,1,K*%
%TO.N,N/C*%
X35124525Y-15971153D03*
%TO.P,D184,2,A*%
X35124525Y-21671153D03*
%TD*%
D14*
%TO.P,R95,1*%
%TO.N,N/C*%
X56067025Y-23591153D03*
%TO.P,R95,2*%
X53142025Y-23591153D03*
%TD*%
D11*
%TO.P,D191,*%
%TO.N,*%
X59624525Y-18810753D03*
D12*
%TO.P,D191,1,K*%
%TO.N,N/C*%
X59624525Y-15960753D03*
%TO.P,D191,2,A*%
X59624525Y-21660753D03*
%TD*%
D11*
%TO.P,D189,*%
%TO.N,*%
X45624525Y-18821153D03*
D12*
%TO.P,D189,1,K*%
%TO.N,N/C*%
X45624525Y-15971153D03*
%TO.P,D189,2,A*%
X45624525Y-21671153D03*
%TD*%
D11*
%TO.P,D188,*%
%TO.N,*%
X24624525Y-18821153D03*
D12*
%TO.P,D188,1,K*%
%TO.N,N/C*%
X24624525Y-21671153D03*
%TO.P,D188,2,A*%
X24624525Y-15971153D03*
%TD*%
D15*
%TO.P,R92,1*%
%TO.N,N/C*%
X28882025Y-24231153D03*
%TO.P,R92,2*%
X31807025Y-24231153D03*
%TD*%
D11*
%TO.P,D192,*%
%TO.N,*%
X52624525Y-18821153D03*
D12*
%TO.P,D192,1,K*%
%TO.N,N/C*%
X52624525Y-21671153D03*
%TO.P,D192,2,A*%
X52624525Y-15971153D03*
%TD*%
D11*
%TO.P,D186,*%
%TO.N,*%
X56124525Y-18821153D03*
D12*
%TO.P,D186,1,K*%
%TO.N,N/C*%
X56124525Y-15971153D03*
%TO.P,D186,2,A*%
X56124525Y-21671153D03*
%TD*%
D11*
%TO.P,D185,*%
%TO.N,*%
X49124525Y-18821153D03*
D12*
%TO.P,D185,1,K*%
%TO.N,N/C*%
X49124525Y-21671153D03*
%TO.P,D185,2,A*%
X49124525Y-15971153D03*
%TD*%
D14*
%TO.P,R93,1*%
%TO.N,N/C*%
X60749525Y-24271153D03*
%TO.P,R93,2*%
X57824525Y-24271153D03*
%TD*%
D16*
%TO.N,*%
X47124525Y-20971153D02*
X46924525Y-20771153D01*
D17*
X41273414Y-15120042D02*
X35975636Y-15120042D01*
D16*
X25624525Y-17471153D02*
X26224525Y-18071153D01*
X22100014Y-20695664D02*
X22299036Y-20695664D01*
X21124525Y-21671153D02*
X22100014Y-20695664D01*
X36300014Y-20095664D02*
X37450014Y-18945664D01*
X26224525Y-18071153D02*
X26224525Y-19671153D01*
X44624525Y-20771153D02*
X43924525Y-21471153D01*
X22824525Y-21171153D02*
X23199036Y-20796642D01*
X39499036Y-16845664D02*
X44750014Y-16845664D01*
X62804525Y-21988653D02*
X62687025Y-21871153D01*
X37450014Y-17546642D02*
X43299036Y-17546642D01*
X43514525Y-24206633D02*
X42554525Y-23246633D01*
X54324525Y-21322131D02*
X54324525Y-24471153D01*
D17*
X49975636Y-15120042D02*
X55273414Y-15120042D01*
D16*
X30264045Y-23031633D02*
X25219045Y-23031633D01*
X27250014Y-20796642D02*
X28124525Y-21671153D01*
X48824525Y-21671153D02*
X47249036Y-20095664D01*
X37450014Y-18945664D02*
X37450014Y-17546642D01*
X37424525Y-21671153D02*
X36324525Y-20571153D01*
X47900005Y-23644028D02*
X47110530Y-22854553D01*
X47249036Y-20095664D02*
X43849036Y-20095664D01*
X61392025Y-24913653D02*
X60749525Y-24271153D01*
X33524525Y-21671153D02*
X35124525Y-21671153D01*
X59550005Y-25470673D02*
X57249045Y-25470673D01*
X43299036Y-17546642D02*
X43849036Y-18096642D01*
X25499036Y-22545664D02*
X24624525Y-21671153D01*
X23124525Y-17471153D02*
X25624525Y-17471153D01*
X31807025Y-23771153D02*
X31807025Y-23388653D01*
X52624525Y-21671153D02*
X51750014Y-22545664D01*
X43824525Y-20170175D02*
X42323547Y-21671153D01*
X38624525Y-22746153D02*
X37199525Y-24171153D01*
X50569045Y-24971153D02*
X49924525Y-24326633D01*
X34803925Y-22910753D02*
X33303925Y-22910753D01*
X42323547Y-21671153D02*
X42124525Y-21671153D01*
X30081545Y-25430673D02*
X28882025Y-24231153D01*
X38902605Y-25345673D02*
X35614064Y-25345673D01*
X33303925Y-22910753D02*
X32824525Y-23390153D01*
X47623556Y-22731861D02*
X46562848Y-21671153D01*
X53799036Y-20796642D02*
X54324525Y-21322131D01*
X29724525Y-21971153D02*
X29150014Y-22545664D01*
X35175005Y-23281833D02*
X34803925Y-22910753D01*
X53979923Y-25451473D02*
X54774045Y-24657351D01*
X25600014Y-16946642D02*
X30649036Y-16946642D01*
X58649036Y-16946642D02*
X59624525Y-15971153D01*
X47900005Y-25062094D02*
X47900005Y-23644028D01*
X54324525Y-24471153D02*
X53824525Y-24971153D01*
X49124525Y-21671153D02*
X49999036Y-20796642D01*
X46562848Y-21671153D02*
X45624525Y-21671153D01*
X43849036Y-18096642D02*
X43849036Y-20095664D01*
X26224525Y-19671153D02*
X26649036Y-20095664D01*
X54774045Y-24657351D02*
X54774045Y-24076633D01*
D17*
X55273414Y-15120042D02*
X56124525Y-15971153D01*
D16*
X53600014Y-16946642D02*
X58649036Y-16946642D01*
X38624525Y-21671153D02*
X38624525Y-22746153D01*
X39234725Y-25013553D02*
X38902605Y-25345673D01*
X48296406Y-25451473D02*
X53979923Y-25451473D01*
D17*
X42124525Y-15971153D02*
X41273414Y-15120042D01*
D16*
X55259525Y-23591153D02*
X56067025Y-23591153D01*
X43924525Y-22671153D02*
X39624525Y-22671153D01*
X39234725Y-23667353D02*
X39234725Y-25013553D01*
D17*
X35975636Y-15120042D02*
X35124525Y-15971153D01*
D16*
X32824525Y-25071153D02*
X32465005Y-25430673D01*
X39624525Y-22671153D02*
X38624525Y-21671153D01*
X57249045Y-25470673D02*
X56049525Y-24271153D01*
D17*
X21975636Y-15120042D02*
X21124525Y-15971153D01*
D16*
X57824525Y-24271153D02*
X57824525Y-22771153D01*
X49124525Y-21671153D02*
X48824525Y-21671153D01*
X25725005Y-25450673D02*
X26924525Y-24251153D01*
X56724525Y-21671153D02*
X56124525Y-21671153D01*
D17*
X49124525Y-15971153D02*
X49975636Y-15120042D01*
D16*
X22067025Y-24271153D02*
X23246545Y-25450673D01*
X35175005Y-24906614D02*
X35175005Y-23281833D01*
X20487514Y-22545664D02*
X22150014Y-22545664D01*
X39655445Y-23246633D02*
X39234725Y-23667353D01*
X23199036Y-20796642D02*
X27250014Y-20796642D01*
X49999036Y-20796642D02*
X53799036Y-20796642D01*
X19142025Y-23811153D02*
X19222025Y-23811153D01*
X48292895Y-25454984D02*
X47900005Y-25062094D01*
X52624525Y-15971153D02*
X53600014Y-16946642D01*
X25219045Y-23031633D02*
X23999525Y-24251153D01*
X60749525Y-24271153D02*
X59550005Y-25470673D01*
X32465005Y-25430673D02*
X30081545Y-25430673D01*
X36324525Y-20571153D02*
X30675503Y-20571153D01*
X42554525Y-23246633D02*
X39655445Y-23246633D01*
X22299036Y-20695664D02*
X22824525Y-20170175D01*
D17*
X28124525Y-15971153D02*
X27273414Y-15120042D01*
D16*
X29724525Y-21522131D02*
X29724525Y-21971153D01*
X43824525Y-20071153D02*
X43824525Y-20170175D01*
X53824525Y-24971153D02*
X50569045Y-24971153D01*
X38624525Y-15971153D02*
X39499036Y-16845664D01*
X62804525Y-24913653D02*
X61392025Y-24913653D01*
X22150014Y-22545664D02*
X22824525Y-21871153D01*
X22824525Y-20170175D02*
X22824525Y-17771153D01*
X26944525Y-24231153D02*
X26924525Y-24251153D01*
X28882025Y-24231153D02*
X26944525Y-24231153D01*
X24624525Y-15971153D02*
X25600014Y-16946642D01*
X53142025Y-23591153D02*
X52546056Y-22995184D01*
X62687025Y-21871153D02*
X59624525Y-21871153D01*
X30675503Y-20571153D02*
X29724525Y-21522131D01*
X47110530Y-22854553D02*
X44866605Y-22854553D01*
X31624525Y-21671153D02*
X30264045Y-23031633D01*
X46924525Y-20771153D02*
X44624525Y-20771153D01*
X32824525Y-23390153D02*
X32824525Y-25071153D01*
X23246545Y-25450673D02*
X25725005Y-25450673D01*
X47886878Y-22995184D02*
X47623556Y-22731861D01*
X30649036Y-16946642D02*
X31624525Y-15971153D01*
X57824525Y-22771153D02*
X56724525Y-21671153D01*
X29150014Y-22545664D02*
X25499036Y-22545664D01*
X48073076Y-22545664D02*
X47124525Y-21597113D01*
X22824525Y-21871153D02*
X22824525Y-21171153D01*
X44866605Y-22854553D02*
X43514525Y-24206633D01*
X22824525Y-17771153D02*
X23124525Y-17471153D01*
X43924525Y-21471153D02*
X43924525Y-22671153D01*
X31807025Y-23388653D02*
X33524525Y-21671153D01*
X38624525Y-21671153D02*
X37424525Y-21671153D01*
X19222025Y-23811153D02*
X20487514Y-22545664D01*
X44750014Y-16845664D02*
X45624525Y-15971153D01*
X35614064Y-25345673D02*
X35175005Y-24906614D01*
X43849036Y-20095664D02*
X43824525Y-20071153D01*
X52546056Y-22995184D02*
X47886878Y-22995184D01*
X47124525Y-21597113D02*
X47124525Y-20971153D01*
X54774045Y-24076633D02*
X55259525Y-23591153D01*
X51750014Y-22545664D02*
X48073076Y-22545664D01*
D17*
X27273414Y-15120042D02*
X21975636Y-15120042D01*
D16*
X26649036Y-20095664D02*
X36300014Y-20095664D01*
%TD*%
M02*
