%TF.GenerationSoftware,KiCad,Pcbnew,(6.0.0)*%
%TF.CreationDate,2022-05-12T01:22:01-07:00*%
%TF.ProjectId,Raptor Gerber,52617074-6f72-4204-9765-726265722e6b,rev?*%
%TF.SameCoordinates,Original*%
%TF.FileFunction,Legend,Top*%
%TF.FilePolarity,Positive*%
%FSLAX46Y46*%
G04 Gerber Fmt 4.6, Leading zero omitted, Abs format (unit mm)*
G04 Created by KiCad (PCBNEW (6.0.0)) date 2022-05-12 01:22:01*
%MOMM*%
%LPD*%
G01*
G04 APERTURE LIST*
G04 Aperture macros list*
%AMRoundRect*
0 Rectangle with rounded corners*
0 $1 Rounding radius*
0 $2 $3 $4 $5 $6 $7 $8 $9 X,Y pos of 4 corners*
0 Add a 4 corners polygon primitive as box body*
4,1,4,$2,$3,$4,$5,$6,$7,$8,$9,$2,$3,0*
0 Add four circle primitives for the rounded corners*
1,1,$1+$1,$2,$3*
1,1,$1+$1,$4,$5*
1,1,$1+$1,$6,$7*
1,1,$1+$1,$8,$9*
0 Add four rect primitives between the rounded corners*
20,1,$1+$1,$2,$3,$4,$5,0*
20,1,$1+$1,$4,$5,$6,$7,0*
20,1,$1+$1,$6,$7,$8,$9,0*
20,1,$1+$1,$8,$9,$2,$3,0*%
G04 Aperture macros list end*
%ADD10C,0.125000*%
%ADD11C,0.150000*%
%ADD12C,0.120000*%
%ADD13RoundRect,0.425000X-1.275000X-0.425000X1.275000X-0.425000X1.275000X0.425000X-1.275000X0.425000X0*%
%ADD14R,1.700000X1.900000*%
%ADD15R,1.700000X1.100000*%
%ADD16RoundRect,0.250000X0.625000X-0.312500X0.625000X0.312500X-0.625000X0.312500X-0.625000X-0.312500X0*%
%ADD17C,2.700000*%
%ADD18RoundRect,0.250000X0.312500X0.625000X-0.312500X0.625000X-0.312500X-0.625000X0.312500X-0.625000X0*%
%ADD19RoundRect,0.250000X-0.312500X-0.625000X0.312500X-0.625000X0.312500X0.625000X-0.312500X0.625000X0*%
G04 APERTURE END LIST*
D10*
X64202380Y-25259523D02*
X64916666Y-25259523D01*
X65059523Y-25283333D01*
X65154761Y-25330952D01*
X65202380Y-25402380D01*
X65202380Y-25450000D01*
X65202380Y-24783333D02*
X65202380Y-25021428D01*
X64202380Y-25021428D01*
X65107142Y-24330952D02*
X65154761Y-24354761D01*
X65202380Y-24426190D01*
X65202380Y-24473809D01*
X65154761Y-24545238D01*
X65059523Y-24592857D01*
X64964285Y-24616666D01*
X64773809Y-24640476D01*
X64630952Y-24640476D01*
X64440476Y-24616666D01*
X64345238Y-24592857D01*
X64250000Y-24545238D01*
X64202380Y-24473809D01*
X64202380Y-24426190D01*
X64250000Y-24354761D01*
X64297619Y-24330952D01*
X64202380Y-23973809D02*
X64916666Y-23973809D01*
X65059523Y-23997619D01*
X65154761Y-24045238D01*
X65202380Y-24116666D01*
X65202380Y-24164285D01*
X65202380Y-23497619D02*
X65202380Y-23735714D01*
X64202380Y-23735714D01*
X65107142Y-23045238D02*
X65154761Y-23069047D01*
X65202380Y-23140476D01*
X65202380Y-23188095D01*
X65154761Y-23259523D01*
X65059523Y-23307142D01*
X64964285Y-23330952D01*
X64773809Y-23354761D01*
X64630952Y-23354761D01*
X64440476Y-23330952D01*
X64345238Y-23307142D01*
X64250000Y-23259523D01*
X64202380Y-23188095D01*
X64202380Y-23140476D01*
X64250000Y-23069047D01*
X64297619Y-23045238D01*
X64202380Y-22688095D02*
X64916666Y-22688095D01*
X65059523Y-22711904D01*
X65154761Y-22759523D01*
X65202380Y-22830952D01*
X65202380Y-22878571D01*
X65202380Y-22211904D02*
X65202380Y-22450000D01*
X64202380Y-22450000D01*
X65107142Y-21759523D02*
X65154761Y-21783333D01*
X65202380Y-21854761D01*
X65202380Y-21902380D01*
X65154761Y-21973809D01*
X65059523Y-22021428D01*
X64964285Y-22045238D01*
X64773809Y-22069047D01*
X64630952Y-22069047D01*
X64440476Y-22045238D01*
X64345238Y-22021428D01*
X64250000Y-21973809D01*
X64202380Y-21902380D01*
X64202380Y-21854761D01*
X64250000Y-21783333D01*
X64297619Y-21759523D01*
X64202380Y-21402380D02*
X64916666Y-21402380D01*
X65059523Y-21426190D01*
X65154761Y-21473809D01*
X65202380Y-21545238D01*
X65202380Y-21592857D01*
X65202380Y-20926190D02*
X65202380Y-21164285D01*
X64202380Y-21164285D01*
X65107142Y-20473809D02*
X65154761Y-20497619D01*
X65202380Y-20569047D01*
X65202380Y-20616666D01*
X65154761Y-20688095D01*
X65059523Y-20735714D01*
X64964285Y-20759523D01*
X64773809Y-20783333D01*
X64630952Y-20783333D01*
X64440476Y-20759523D01*
X64345238Y-20735714D01*
X64250000Y-20688095D01*
X64202380Y-20616666D01*
X64202380Y-20569047D01*
X64250000Y-20497619D01*
X64297619Y-20473809D01*
D11*
X62250000Y-22550000D02*
X62250000Y-24250000D01*
X63350000Y-22550000D02*
X63350000Y-24250000D01*
X60100000Y-23700000D02*
X58400000Y-23700000D01*
X60100000Y-24800000D02*
X58400000Y-24800000D01*
X55450000Y-23000000D02*
X53750000Y-23000000D01*
X55450000Y-24100000D02*
X53750000Y-24100000D01*
X31200000Y-23700000D02*
X29500000Y-23700000D01*
X31200000Y-24800000D02*
X29500000Y-24800000D01*
X26300000Y-23700000D02*
X24600000Y-23700000D01*
X26300000Y-24800000D02*
X24600000Y-24800000D01*
X21450000Y-23750000D02*
X19750000Y-23750000D01*
X21450000Y-24850000D02*
X19750000Y-24850000D01*
X16759484Y-24959069D02*
X16283294Y-25259069D01*
X16759484Y-25473354D02*
X15759484Y-25473354D01*
X15759484Y-25130497D01*
X15807104Y-25044783D01*
X15854723Y-25001926D01*
X15949961Y-24959069D01*
X16092818Y-24959069D01*
X16188056Y-25001926D01*
X16235675Y-25044783D01*
X16283294Y-25130497D01*
X16283294Y-25473354D01*
X16759484Y-24444783D02*
X16711865Y-24530497D01*
X16664246Y-24573354D01*
X16569008Y-24616212D01*
X16283294Y-24616212D01*
X16188056Y-24573354D01*
X16140437Y-24530497D01*
X16092818Y-24444783D01*
X16092818Y-24316212D01*
X16140437Y-24230497D01*
X16188056Y-24187640D01*
X16283294Y-24144783D01*
X16569008Y-24144783D01*
X16664246Y-24187640D01*
X16711865Y-24230497D01*
X16759484Y-24316212D01*
X16759484Y-24444783D01*
X16759484Y-23759069D02*
X16092818Y-23759069D01*
X16188056Y-23759069D02*
X16140437Y-23716212D01*
X16092818Y-23630497D01*
X16092818Y-23501926D01*
X16140437Y-23416212D01*
X16235675Y-23373354D01*
X16759484Y-23373354D01*
X16235675Y-23373354D02*
X16140437Y-23330497D01*
X16092818Y-23244783D01*
X16092818Y-23116212D01*
X16140437Y-23030497D01*
X16235675Y-22987640D01*
X16759484Y-22987640D01*
X16759484Y-22173354D02*
X16235675Y-22173354D01*
X16140437Y-22216212D01*
X16092818Y-22301926D01*
X16092818Y-22473354D01*
X16140437Y-22559069D01*
X16711865Y-22173354D02*
X16759484Y-22259069D01*
X16759484Y-22473354D01*
X16711865Y-22559069D01*
X16616627Y-22601926D01*
X16521389Y-22601926D01*
X16426151Y-22559069D01*
X16378532Y-22473354D01*
X16378532Y-22259069D01*
X16330913Y-22173354D01*
X16092818Y-21744783D02*
X16759484Y-21744783D01*
X16188056Y-21744783D02*
X16140437Y-21701926D01*
X16092818Y-21616212D01*
X16092818Y-21487640D01*
X16140437Y-21401926D01*
X16235675Y-21359069D01*
X16759484Y-21359069D01*
X16711865Y-20973354D02*
X16759484Y-20887640D01*
X16759484Y-20716212D01*
X16711865Y-20630497D01*
X16616627Y-20587640D01*
X16569008Y-20587640D01*
X16473770Y-20630497D01*
X16426151Y-20716212D01*
X16426151Y-20844783D01*
X16378532Y-20930497D01*
X16283294Y-20973354D01*
X16235675Y-20973354D01*
X16140437Y-20930497D01*
X16092818Y-20844783D01*
X16092818Y-20716212D01*
X16140437Y-20630497D01*
X17798056Y-23073354D02*
X17750437Y-23159069D01*
X17702818Y-23201926D01*
X17607580Y-23244783D01*
X17559961Y-23244783D01*
X17464723Y-23201926D01*
X17417104Y-23159069D01*
X17369484Y-23073354D01*
X17369484Y-22901926D01*
X17417104Y-22816212D01*
X17464723Y-22773354D01*
X17559961Y-22730497D01*
X17607580Y-22730497D01*
X17702818Y-22773354D01*
X17750437Y-22816212D01*
X17798056Y-22901926D01*
X17798056Y-23073354D01*
X17845675Y-23159069D01*
X17893294Y-23201926D01*
X17988532Y-23244783D01*
X18179008Y-23244783D01*
X18274246Y-23201926D01*
X18321865Y-23159069D01*
X18369484Y-23073354D01*
X18369484Y-22901926D01*
X18321865Y-22816212D01*
X18274246Y-22773354D01*
X18179008Y-22730497D01*
X17988532Y-22730497D01*
X17893294Y-22773354D01*
X17845675Y-22816212D01*
X17798056Y-22901926D01*
X18274246Y-22344783D02*
X18321865Y-22301926D01*
X18369484Y-22344783D01*
X18321865Y-22387640D01*
X18274246Y-22344783D01*
X18369484Y-22344783D01*
X17750437Y-22344783D02*
X17798056Y-22301926D01*
X17845675Y-22344783D01*
X17798056Y-22387640D01*
X17750437Y-22344783D01*
X17845675Y-22344783D01*
X17369484Y-22001926D02*
X17369484Y-21444783D01*
X17750437Y-21744783D01*
X17750437Y-21616212D01*
X17798056Y-21530497D01*
X17845675Y-21487640D01*
X17940913Y-21444783D01*
X18179008Y-21444783D01*
X18274246Y-21487640D01*
X18321865Y-21530497D01*
X18369484Y-21616212D01*
X18369484Y-21873354D01*
X18321865Y-21959069D01*
X18274246Y-22001926D01*
X18369484Y-20587640D02*
X18369484Y-21101926D01*
X18369484Y-20844783D02*
X17369484Y-20844783D01*
X17512342Y-20930497D01*
X17607580Y-21016212D01*
X17655199Y-21101926D01*
X15706865Y-16051092D02*
X15706865Y-15051092D01*
X15944961Y-15051092D01*
X16087818Y-15098712D01*
X16183056Y-15193950D01*
X16230675Y-15289188D01*
X16278294Y-15479664D01*
X16278294Y-15622521D01*
X16230675Y-15812997D01*
X16183056Y-15908235D01*
X16087818Y-16003473D01*
X15944961Y-16051092D01*
X15706865Y-16051092D01*
X17135437Y-16051092D02*
X17135437Y-15527283D01*
X17087818Y-15432045D01*
X16992580Y-15384426D01*
X16802104Y-15384426D01*
X16706865Y-15432045D01*
X17135437Y-16003473D02*
X17040199Y-16051092D01*
X16802104Y-16051092D01*
X16706865Y-16003473D01*
X16659246Y-15908235D01*
X16659246Y-15812997D01*
X16706865Y-15717759D01*
X16802104Y-15670140D01*
X17040199Y-15670140D01*
X17135437Y-15622521D01*
X17611627Y-15384426D02*
X17611627Y-16051092D01*
X17611627Y-15479664D02*
X17659246Y-15432045D01*
X17754484Y-15384426D01*
X17897342Y-15384426D01*
X17992580Y-15432045D01*
X18040199Y-15527283D01*
X18040199Y-16051092D01*
X18516389Y-16051092D02*
X18516389Y-15384426D01*
X18516389Y-15051092D02*
X18468770Y-15098712D01*
X18516389Y-15146331D01*
X18564008Y-15098712D01*
X18516389Y-15051092D01*
X18516389Y-15146331D01*
X19373532Y-16003473D02*
X19278294Y-16051092D01*
X19087818Y-16051092D01*
X18992580Y-16003473D01*
X18944961Y-15908235D01*
X18944961Y-15527283D01*
X18992580Y-15432045D01*
X19087818Y-15384426D01*
X19278294Y-15384426D01*
X19373532Y-15432045D01*
X19421151Y-15527283D01*
X19421151Y-15622521D01*
X18944961Y-15717759D01*
X19992580Y-16051092D02*
X19897342Y-16003473D01*
X19849723Y-15908235D01*
X19849723Y-15051092D01*
X60963448Y-16261092D02*
X60963448Y-15261092D01*
X60963448Y-15737283D02*
X61534877Y-15737283D01*
X61534877Y-16261092D02*
X61534877Y-15261092D01*
X62153925Y-16261092D02*
X62058686Y-16213473D01*
X62011067Y-16165854D01*
X61963448Y-16070616D01*
X61963448Y-15784902D01*
X62011067Y-15689664D01*
X62058686Y-15642045D01*
X62153925Y-15594426D01*
X62296782Y-15594426D01*
X62392020Y-15642045D01*
X62439639Y-15689664D01*
X62487258Y-15784902D01*
X62487258Y-16070616D01*
X62439639Y-16165854D01*
X62392020Y-16213473D01*
X62296782Y-16261092D01*
X62153925Y-16261092D01*
X63296782Y-16213473D02*
X63201544Y-16261092D01*
X63011067Y-16261092D01*
X62915829Y-16213473D01*
X62868210Y-16118235D01*
X62868210Y-15737283D01*
X62915829Y-15642045D01*
X63011067Y-15594426D01*
X63201544Y-15594426D01*
X63296782Y-15642045D01*
X63344401Y-15737283D01*
X63344401Y-15832521D01*
X62868210Y-15927759D01*
X63630115Y-15594426D02*
X64011067Y-15594426D01*
X63772972Y-16261092D02*
X63772972Y-15403950D01*
X63820591Y-15308712D01*
X63915829Y-15261092D01*
X64011067Y-15261092D01*
X64725353Y-16213473D02*
X64630115Y-16261092D01*
X64439639Y-16261092D01*
X64344401Y-16213473D01*
X64296782Y-16118235D01*
X64296782Y-15737283D01*
X64344401Y-15642045D01*
X64439639Y-15594426D01*
X64630115Y-15594426D01*
X64725353Y-15642045D01*
X64772972Y-15737283D01*
X64772972Y-15832521D01*
X64296782Y-15927759D01*
X65201544Y-16261092D02*
X65201544Y-15594426D01*
X65201544Y-15784902D02*
X65249163Y-15689664D01*
X65296782Y-15642045D01*
X65392020Y-15594426D01*
X65487258Y-15594426D01*
%TO.C,amb-*%
X35875715Y-23123533D02*
X35875715Y-22599724D01*
X35828096Y-22504486D01*
X35732858Y-22456867D01*
X35542382Y-22456867D01*
X35447144Y-22504486D01*
X35875715Y-23075914D02*
X35780477Y-23123533D01*
X35542382Y-23123533D01*
X35447144Y-23075914D01*
X35399525Y-22980676D01*
X35399525Y-22885438D01*
X35447144Y-22790200D01*
X35542382Y-22742581D01*
X35780477Y-22742581D01*
X35875715Y-22694962D01*
X36351905Y-23123533D02*
X36351905Y-22456867D01*
X36351905Y-22552105D02*
X36399525Y-22504486D01*
X36494763Y-22456867D01*
X36637620Y-22456867D01*
X36732858Y-22504486D01*
X36780477Y-22599724D01*
X36780477Y-23123533D01*
X36780477Y-22599724D02*
X36828096Y-22504486D01*
X36923334Y-22456867D01*
X37066191Y-22456867D01*
X37161429Y-22504486D01*
X37209048Y-22599724D01*
X37209048Y-23123533D01*
X37685239Y-23123533D02*
X37685239Y-22123533D01*
X37685239Y-22504486D02*
X37780477Y-22456867D01*
X37970953Y-22456867D01*
X38066191Y-22504486D01*
X38113810Y-22552105D01*
X38161429Y-22647343D01*
X38161429Y-22933057D01*
X38113810Y-23028295D01*
X38066191Y-23075914D01*
X37970953Y-23123533D01*
X37780477Y-23123533D01*
X37685239Y-23075914D01*
X38590001Y-22742581D02*
X39351905Y-22742581D01*
%TO.C,D190*%
X38841191Y-20659248D02*
X38841191Y-20183057D01*
X39126905Y-20754486D02*
X38126905Y-20421153D01*
X39126905Y-20087819D01*
X38457858Y-16883057D02*
X38457858Y-17359248D01*
X38172144Y-16787819D02*
X39172144Y-17121153D01*
X38172144Y-17454486D01*
%TO.C,wht-*%
X48386429Y-22562667D02*
X48576905Y-23229333D01*
X48767382Y-22753143D01*
X48957858Y-23229333D01*
X49148334Y-22562667D01*
X49529286Y-23229333D02*
X49529286Y-22229333D01*
X49957858Y-23229333D02*
X49957858Y-22705524D01*
X49910239Y-22610286D01*
X49815001Y-22562667D01*
X49672144Y-22562667D01*
X49576905Y-22610286D01*
X49529286Y-22657905D01*
X50291191Y-22562667D02*
X50672144Y-22562667D01*
X50434048Y-22229333D02*
X50434048Y-23086476D01*
X50481667Y-23181714D01*
X50576905Y-23229333D01*
X50672144Y-23229333D01*
X51005477Y-22848381D02*
X51767382Y-22848381D01*
%TO.C,D181*%
X20576905Y-20849724D02*
X21576905Y-20611629D01*
X20862620Y-20421153D01*
X21576905Y-20230676D01*
X20576905Y-19992581D01*
X21672144Y-16742581D02*
X20672144Y-16980676D01*
X21386429Y-17171153D01*
X20672144Y-17361629D01*
X21672144Y-17599724D01*
%TO.C,D182*%
X28672144Y-16792581D02*
X27672144Y-17030676D01*
X28386429Y-17221153D01*
X27672144Y-17411629D01*
X28672144Y-17649724D01*
X27576905Y-20899724D02*
X28576905Y-20661629D01*
X27862620Y-20471153D01*
X28576905Y-20280676D01*
X27576905Y-20042581D01*
%TO.C,7V+*%
X42333572Y-22363133D02*
X43000239Y-22363133D01*
X42571667Y-23363133D01*
X43238334Y-22363133D02*
X43571667Y-23363133D01*
X43905001Y-22363133D01*
X44238334Y-22982181D02*
X45000239Y-22982181D01*
X44619286Y-23363133D02*
X44619286Y-22601229D01*
%TO.C,D183*%
X42672144Y-16742581D02*
X41672144Y-16980676D01*
X42386429Y-17171153D01*
X41672144Y-17361629D01*
X42672144Y-17599724D01*
X41576905Y-20849724D02*
X42576905Y-20611629D01*
X41862620Y-20421153D01*
X42576905Y-20230676D01*
X41576905Y-19992581D01*
%TO.C,D187*%
X31407858Y-16983057D02*
X31407858Y-17459248D01*
X31122144Y-16887819D02*
X32122144Y-17221153D01*
X31122144Y-17554486D01*
X31791191Y-20759248D02*
X31791191Y-20283057D01*
X32076905Y-20854486D02*
X31076905Y-20521153D01*
X32076905Y-20187819D01*
%TO.C,D184*%
X35672144Y-16792581D02*
X34672144Y-17030676D01*
X35386429Y-17221153D01*
X34672144Y-17411629D01*
X35672144Y-17649724D01*
X34576905Y-20899724D02*
X35576905Y-20661629D01*
X34862620Y-20471153D01*
X35576905Y-20280676D01*
X34576905Y-20042581D01*
%TO.C,D191*%
X59407858Y-16972657D02*
X59407858Y-17448848D01*
X59122144Y-16877419D02*
X60122144Y-17210753D01*
X59122144Y-17544086D01*
X59791191Y-20748848D02*
X59791191Y-20272657D01*
X60076905Y-20844086D02*
X59076905Y-20510753D01*
X60076905Y-20177419D01*
%TO.C,D189*%
X45407858Y-16983057D02*
X45407858Y-17459248D01*
X45122144Y-16887819D02*
X46122144Y-17221153D01*
X45122144Y-17554486D01*
X45791191Y-20759248D02*
X45791191Y-20283057D01*
X46076905Y-20854486D02*
X45076905Y-20521153D01*
X46076905Y-20187819D01*
%TO.C,D188*%
X24841191Y-20659248D02*
X24841191Y-20183057D01*
X25126905Y-20754486D02*
X24126905Y-20421153D01*
X25126905Y-20087819D01*
X24457858Y-16883057D02*
X24457858Y-17359248D01*
X24172144Y-16787819D02*
X25172144Y-17121153D01*
X24172144Y-17454486D01*
%TO.C,D192*%
X52457858Y-16883057D02*
X52457858Y-17359248D01*
X52172144Y-16787819D02*
X53172144Y-17121153D01*
X52172144Y-17454486D01*
X52841191Y-20659248D02*
X52841191Y-20183057D01*
X53126905Y-20754486D02*
X52126905Y-20421153D01*
X53126905Y-20087819D01*
%TO.C,D186*%
X56672144Y-16792581D02*
X55672144Y-17030676D01*
X56386429Y-17221153D01*
X55672144Y-17411629D01*
X56672144Y-17649724D01*
X55576905Y-20899724D02*
X56576905Y-20661629D01*
X55862620Y-20471153D01*
X56576905Y-20280676D01*
X55576905Y-20042581D01*
%TO.C,D185*%
X48576905Y-20849724D02*
X49576905Y-20611629D01*
X48862620Y-20421153D01*
X49576905Y-20230676D01*
X48576905Y-19992581D01*
X49672144Y-16742581D02*
X48672144Y-16980676D01*
X49386429Y-17171153D01*
X48672144Y-17361629D01*
X49672144Y-17599724D01*
D12*
%TO.C,D190*%
X37124525Y-21221153D02*
X37124525Y-20571153D01*
X40124525Y-21221153D02*
X40124525Y-20821153D01*
X37124525Y-20721153D02*
X37624525Y-21221153D01*
X40124525Y-16421153D02*
X37124525Y-16421153D01*
X37124525Y-21221153D02*
X40124525Y-21221153D01*
X40124525Y-16421153D02*
X40124525Y-16821153D01*
X37124525Y-16421153D02*
X37124525Y-16821153D01*
%TO.C,D181*%
X19624525Y-20721153D02*
X20124525Y-21221153D01*
X19624525Y-21221153D02*
X22624525Y-21221153D01*
X19624525Y-16421153D02*
X19624525Y-16821153D01*
X22624525Y-21221153D02*
X22624525Y-20821153D01*
X22624525Y-16421153D02*
X19624525Y-16421153D01*
X19624525Y-21221153D02*
X19624525Y-20571153D01*
X22624525Y-16421153D02*
X22624525Y-16821153D01*
%TO.C,D182*%
X29624525Y-16421153D02*
X29624525Y-17071153D01*
X26624525Y-16421153D02*
X26624525Y-16821153D01*
X29624525Y-16421153D02*
X26624525Y-16421153D01*
X29624525Y-16921153D02*
X29124525Y-16421153D01*
X26624525Y-21221153D02*
X29624525Y-21221153D01*
X29624525Y-21221153D02*
X29624525Y-20821153D01*
X26624525Y-21221153D02*
X26624525Y-20821153D01*
%TO.C,D183*%
X43624525Y-21221153D02*
X43624525Y-20821153D01*
X40624525Y-21221153D02*
X43624525Y-21221153D01*
X40624525Y-20721153D02*
X41124525Y-21221153D01*
X40624525Y-16421153D02*
X40624525Y-16821153D01*
X43624525Y-16421153D02*
X43624525Y-16821153D01*
X43624525Y-16421153D02*
X40624525Y-16421153D01*
X40624525Y-21221153D02*
X40624525Y-20571153D01*
%TO.C,D187*%
X33124525Y-21221153D02*
X33124525Y-20821153D01*
X33124525Y-16421153D02*
X33124525Y-17071153D01*
X30124525Y-21221153D02*
X33124525Y-21221153D01*
X30124525Y-16421153D02*
X30124525Y-16821153D01*
X33124525Y-16921153D02*
X32624525Y-16421153D01*
X33124525Y-16421153D02*
X30124525Y-16421153D01*
X30124525Y-21221153D02*
X30124525Y-20821153D01*
%TO.C,D184*%
X36624525Y-21221153D02*
X36624525Y-20821153D01*
X33624525Y-21221153D02*
X33624525Y-20821153D01*
X36624525Y-16921153D02*
X36124525Y-16421153D01*
X33624525Y-21221153D02*
X36624525Y-21221153D01*
X33624525Y-16421153D02*
X33624525Y-16821153D01*
X36624525Y-16421153D02*
X36624525Y-17071153D01*
X36624525Y-16421153D02*
X33624525Y-16421153D01*
%TO.C,D191*%
X61124525Y-16410753D02*
X58124525Y-16410753D01*
X58124525Y-21210753D02*
X61124525Y-21210753D01*
X61124525Y-21210753D02*
X61124525Y-20810753D01*
X61124525Y-16410753D02*
X61124525Y-17060753D01*
X58124525Y-16410753D02*
X58124525Y-16810753D01*
X58124525Y-21210753D02*
X58124525Y-20810753D01*
X61124525Y-16910753D02*
X60624525Y-16410753D01*
%TO.C,D189*%
X47124525Y-21221153D02*
X47124525Y-20821153D01*
X47124525Y-16421153D02*
X47124525Y-17071153D01*
X47124525Y-16921153D02*
X46624525Y-16421153D01*
X44124525Y-21221153D02*
X47124525Y-21221153D01*
X44124525Y-16421153D02*
X44124525Y-16821153D01*
X44124525Y-21221153D02*
X44124525Y-20821153D01*
X47124525Y-16421153D02*
X44124525Y-16421153D01*
%TO.C,D188*%
X23124525Y-21221153D02*
X23124525Y-20571153D01*
X26124525Y-16421153D02*
X26124525Y-16821153D01*
X26124525Y-21221153D02*
X26124525Y-20821153D01*
X26124525Y-16421153D02*
X23124525Y-16421153D01*
X23124525Y-21221153D02*
X26124525Y-21221153D01*
X23124525Y-16421153D02*
X23124525Y-16821153D01*
X23124525Y-20721153D02*
X23624525Y-21221153D01*
%TO.C,D192*%
X54124525Y-16421153D02*
X51124525Y-16421153D01*
X51124525Y-20721153D02*
X51624525Y-21221153D01*
X51124525Y-21221153D02*
X54124525Y-21221153D01*
X51124525Y-21221153D02*
X51124525Y-20571153D01*
X54124525Y-16421153D02*
X54124525Y-16821153D01*
X51124525Y-16421153D02*
X51124525Y-16821153D01*
X54124525Y-21221153D02*
X54124525Y-20821153D01*
%TO.C,D186*%
X54624525Y-16421153D02*
X54624525Y-16821153D01*
X57624525Y-21221153D02*
X57624525Y-20821153D01*
X57624525Y-16421153D02*
X54624525Y-16421153D01*
X54624525Y-21221153D02*
X54624525Y-20821153D01*
X57624525Y-16421153D02*
X57624525Y-17071153D01*
X54624525Y-21221153D02*
X57624525Y-21221153D01*
X57624525Y-16921153D02*
X57124525Y-16421153D01*
%TO.C,D185*%
X50624525Y-16421153D02*
X50624525Y-16821153D01*
X47624525Y-20721153D02*
X48124525Y-21221153D01*
X47624525Y-16421153D02*
X47624525Y-16821153D01*
X47624525Y-21221153D02*
X50624525Y-21221153D01*
X47624525Y-21221153D02*
X47624525Y-20571153D01*
X50624525Y-21221153D02*
X50624525Y-20821153D01*
X50624525Y-16421153D02*
X47624525Y-16421153D01*
%TD*%
%LPC*%
D13*
%TO.C,amb-*%
X37199525Y-24171153D03*
%TD*%
D14*
%TO.C,D190*%
X38624525Y-18821153D03*
D15*
X38624525Y-21671153D03*
X38624525Y-15971153D03*
%TD*%
D16*
%TO.C,R96*%
X62785925Y-24881253D03*
X62785925Y-21956253D03*
%TD*%
D13*
%TO.C,wht-*%
X49924525Y-24276953D03*
%TD*%
D14*
%TO.C,D181*%
X21124525Y-18821153D03*
D15*
X21124525Y-21671153D03*
X21124525Y-15971153D03*
%TD*%
D17*
%TO.C,REF\u002A\u002A*%
X17003925Y-18910753D03*
%TD*%
D18*
%TO.C,R91*%
X22067025Y-24271153D03*
X19142025Y-24271153D03*
%TD*%
D14*
%TO.C,D182*%
X28124525Y-18821153D03*
D15*
X28124525Y-15971153D03*
X28124525Y-21671153D03*
%TD*%
D13*
%TO.C,7V+*%
X43514525Y-24206633D03*
%TD*%
D14*
%TO.C,D183*%
X42124525Y-18821153D03*
D15*
X42124525Y-21671153D03*
X42124525Y-15971153D03*
%TD*%
D14*
%TO.C,D187*%
X31624525Y-18821153D03*
D15*
X31624525Y-15971153D03*
X31624525Y-21671153D03*
%TD*%
D18*
%TO.C,R94*%
X26924525Y-24251153D03*
X23999525Y-24251153D03*
%TD*%
D14*
%TO.C,D184*%
X35124525Y-18821153D03*
D15*
X35124525Y-15971153D03*
X35124525Y-21671153D03*
%TD*%
D18*
%TO.C,R95*%
X56067025Y-23591153D03*
X53142025Y-23591153D03*
%TD*%
D14*
%TO.C,D191*%
X59624525Y-18810753D03*
D15*
X59624525Y-15960753D03*
X59624525Y-21660753D03*
%TD*%
D14*
%TO.C,D189*%
X45624525Y-18821153D03*
D15*
X45624525Y-15971153D03*
X45624525Y-21671153D03*
%TD*%
D17*
%TO.C,REF\u002A\u002A*%
X63803925Y-18910753D03*
%TD*%
D14*
%TO.C,D188*%
X24624525Y-18821153D03*
D15*
X24624525Y-21671153D03*
X24624525Y-15971153D03*
%TD*%
D19*
%TO.C,R92*%
X28882025Y-24231153D03*
X31807025Y-24231153D03*
%TD*%
D14*
%TO.C,D192*%
X52624525Y-18821153D03*
D15*
X52624525Y-21671153D03*
X52624525Y-15971153D03*
%TD*%
D14*
%TO.C,D186*%
X56124525Y-18821153D03*
D15*
X56124525Y-15971153D03*
X56124525Y-21671153D03*
%TD*%
D14*
%TO.C,D185*%
X49124525Y-18821153D03*
D15*
X49124525Y-21671153D03*
X49124525Y-15971153D03*
%TD*%
D18*
%TO.C,R93*%
X60749525Y-24271153D03*
X57824525Y-24271153D03*
%TD*%
M02*
