M48
; DRILL file {KiCad (6.0.0)} date Sun May 15 11:53:27 2022
; FORMAT={-:-/ absolute / metric / decimal}
; #@! TF.CreationDate,2022-05-15T11:53:27-07:00
; #@! TF.GenerationSoftware,Kicad,Pcbnew,(6.0.0)
; #@! TF.FileFunction,Plated,1,2,PTH
FMAT,2
METRIC
; #@! TA.AperFunction,Plated,PTH,ViaDrill
T1C0.400
; #@! TA.AperFunction,Plated,PTH,ComponentDrill
T2C0.600
; #@! TA.AperFunction,Plated,PTH,ComponentDrill
T3C0.750
; #@! TA.AperFunction,Plated,PTH,ComponentDrill
T4C0.800
; #@! TA.AperFunction,Plated,PTH,ComponentDrill
T5C1.000
; #@! TA.AperFunction,Plated,PTH,ComponentDrill
T6C1.100
; #@! TA.AperFunction,Plated,PTH,ComponentDrill
T7C1.300
; #@! TA.AperFunction,Plated,PTH,ComponentDrill
T8C1.600
%
G90
G05
T1
X39.935Y-96.72
X45.635Y-99.12
X45.635Y-100.27
X48.435Y-96.72
X52.635Y-98.02
X54.035Y-98.02
X56.935Y-123.22
X56.935Y-124.22
X57.435Y-140.22
X58.935Y-140.22
X67.435Y-94.22
X68.935Y-94.22
X73.435Y-131.72
X73.935Y-130.22
X80.935Y-137.72
X80.935Y-139.22
X84.935Y-94.72
X85.235Y-129.92
X85.235Y-130.92
X85.935Y-94.72
X90.935Y-127.22
X91.685Y-127.97
X95.935Y-122.47
X96.185Y-107.72
X96.685Y-121.72
X97.185Y-107.72
X101.185Y-125.22
X101.185Y-126.22
X103.935Y-97.22
X105.435Y-96.72
X105.935Y-140.47
X108.435Y-140.47
X118.935Y-100.72
X119.685Y-98.72
X119.935Y-96.72
X119.935Y-107.47
X120.88Y-94.865
X120.935Y-90.22
X121.435Y-107.22
X127.185Y-112.72
X127.185Y-115.22
X127.935Y-97.72
X127.935Y-100.22
X127.935Y-102.72
X127.935Y-105.22
X127.935Y-107.72
X127.935Y-110.22
X127.935Y-117.72
X130.185Y-127.72
X132.935Y-127.22
X133.435Y-129.97
X133.685Y-94.22
X134.685Y-94.22
X135.935Y-93.22
X136.935Y-89.72
X137.834Y-94.663
X138.685Y-95.47
X141.385Y-133.92
X144.685Y-112.47
X145.21Y-122.695
X146.085Y-121.82
X146.785Y-129.17
X146.935Y-105.72
X147.935Y-103.72
X147.935Y-129.07
X148.435Y-90.72
X148.435Y-92.22
X148.435Y-93.72
X148.435Y-96.22
X148.435Y-98.72
X148.435Y-101.22
X150.935Y-112.72
X151.435Y-88.72
X151.435Y-91.22
X151.435Y-93.72
X151.435Y-96.22
X151.435Y-98.72
X151.435Y-101.22
X151.435Y-105.72
X151.435Y-137.22
X151.455Y-103.7
X151.685Y-127.47
X154.335Y-134.52
X163.935Y-89.88
X163.935Y-92.88
X163.935Y-95.88
X163.935Y-98.88
X163.935Y-101.88
X163.935Y-104.88
X167.385Y-103.37
X177.935Y-140.22
X178.435Y-115.72
X178.954Y-140.201
X179.935Y-140.22
X180.435Y-138.72
X188.935Y-105.22
X188.935Y-109.72
X190.935Y-109.72
X192.435Y-105.22
X192.435Y-109.72
X192.435Y-111.22
X192.435Y-112.72
X192.435Y-114.22
X192.435Y-115.72
X192.435Y-117.22
X192.435Y-118.72
X192.435Y-120.22
X192.435Y-121.72
X192.435Y-123.22
X193.935Y-105.22
X193.935Y-106.72
X193.935Y-108.22
X193.935Y-114.22
X193.935Y-115.72
X193.935Y-117.22
X193.935Y-118.72
X193.935Y-123.22
X195.435Y-88.72
X195.435Y-90.22
X195.435Y-91.72
X195.435Y-93.22
X195.435Y-108.22
X195.435Y-114.22
X195.435Y-118.72
X196.931Y-88.714
X196.935Y-90.22
X196.935Y-91.72
X196.935Y-93.22
X196.935Y-108.22
X196.935Y-109.72
X196.935Y-111.22
X196.935Y-112.72
X196.935Y-114.22
X196.935Y-118.72
X196.935Y-123.22
X198.457Y-93.219
X199.535Y-117.92
X199.585Y-115.62
X199.735Y-112.87
X199.935Y-93.22
X200.235Y-114.22
X201.235Y-118.22
X201.29Y-112.717
X201.435Y-93.22
X201.835Y-114.02
X202.372Y-111.863
X202.935Y-93.22
X203.435Y-108.22
X203.435Y-114.22
X203.435Y-117.22
X203.935Y-109.72
X203.935Y-111.22
X203.935Y-112.72
X203.935Y-118.72
X203.935Y-120.22
X203.935Y-121.72
X203.935Y-123.22
X203.935Y-124.72
X203.935Y-127.72
X203.935Y-129.22
X203.935Y-130.72
X203.935Y-132.22
X203.935Y-133.72
X203.935Y-135.22
X203.935Y-136.72
X203.935Y-138.22
X203.935Y-139.72
X204.435Y-93.22
X205.435Y-109.72
X205.435Y-111.22
X205.435Y-112.72
X205.435Y-115.72
X205.435Y-118.72
X205.435Y-120.22
X205.435Y-121.72
X205.435Y-123.22
X205.435Y-124.72
X205.435Y-127.72
X205.435Y-129.22
X205.435Y-130.72
X205.435Y-132.22
X205.435Y-133.72
X205.435Y-135.22
X205.435Y-136.72
X205.435Y-138.22
X205.435Y-139.72
X205.935Y-93.22
X206.935Y-120.22
X206.935Y-127.72
X206.935Y-129.22
X206.935Y-138.22
X206.935Y-139.72
X207.435Y-93.22
X208.435Y-120.22
X208.435Y-129.72
X208.935Y-88.72
X208.935Y-93.22
X209.935Y-107.22
X209.935Y-120.22
X209.935Y-129.72
X210.435Y-88.72
X210.435Y-93.22
X211.435Y-107.22
X211.435Y-120.22
X211.435Y-121.72
X211.435Y-123.22
X211.435Y-124.72
X211.935Y-88.72
X211.935Y-93.22
X212.935Y-107.22
X212.935Y-108.72
X212.935Y-110.22
X212.935Y-111.72
X212.935Y-113.22
X212.935Y-114.72
X212.935Y-116.22
X212.935Y-117.72
X212.935Y-120.22
X212.935Y-121.72
X212.935Y-123.22
X212.935Y-124.72
X212.935Y-126.22
X212.935Y-127.72
X212.935Y-129.22
X212.935Y-130.72
X212.935Y-132.22
X212.935Y-133.72
X212.935Y-135.22
X212.935Y-136.72
X212.935Y-138.22
X212.935Y-139.72
X213.435Y-88.72
X213.435Y-93.22
X214.435Y-107.22
X214.435Y-108.72
X214.435Y-110.22
X214.435Y-111.72
X214.435Y-113.22
X214.435Y-114.72
X214.435Y-116.22
X214.435Y-117.72
X214.435Y-120.22
X214.435Y-121.72
X214.435Y-123.22
X214.435Y-124.72
X214.435Y-126.22
X214.435Y-127.72
X214.435Y-129.22
X214.435Y-130.72
X214.435Y-132.22
X214.435Y-133.72
X214.435Y-135.22
X214.435Y-136.72
X214.435Y-138.22
X214.435Y-139.72
X214.935Y-88.72
X214.935Y-93.22
X215.935Y-107.22
X215.935Y-108.72
X215.935Y-110.22
X215.935Y-111.72
X215.935Y-113.22
X215.935Y-114.72
X215.935Y-116.22
X215.935Y-117.72
X215.935Y-120.22
X215.935Y-121.72
X215.935Y-123.22
X215.935Y-124.72
X215.935Y-126.22
X215.935Y-127.72
X215.935Y-129.22
X215.935Y-130.72
X215.935Y-132.22
X215.935Y-133.72
X215.935Y-135.22
X215.935Y-136.72
X215.935Y-138.22
X215.935Y-139.72
T2
X181.435Y-129.72
X182.935Y-129.72
T3
X188.165Y-115.72
X188.165Y-120.22
X189.435Y-115.72
X189.435Y-120.22
X190.705Y-115.72
X190.705Y-120.22
T4
X35.935Y-105.22
X35.935Y-144.22
X52.935Y-105.22
X52.935Y-144.22
X57.935Y-105.22
X57.935Y-144.22
X74.935Y-105.22
X74.935Y-144.22
X79.935Y-105.22
X79.935Y-144.22
X96.935Y-105.22
X96.935Y-144.22
X101.935Y-105.22
X101.935Y-144.22
X118.935Y-105.22
X118.935Y-144.22
X123.33Y-88.62
X123.33Y-91.16
X123.33Y-93.7
X123.33Y-96.24
X123.33Y-98.78
X123.33Y-101.32
X123.33Y-103.86
X123.33Y-106.4
X123.33Y-108.94
X123.33Y-111.48
X123.33Y-114.02
X123.33Y-116.56
X123.33Y-119.1
X123.33Y-121.64
X123.33Y-124.18
X123.33Y-126.72
X125.87Y-88.62
X125.87Y-91.16
X125.87Y-93.7
X125.87Y-96.24
X125.87Y-98.78
X125.87Y-101.32
X125.87Y-103.86
X125.87Y-106.4
X125.87Y-108.94
X125.87Y-111.48
X125.87Y-114.02
X125.87Y-116.56
X125.87Y-119.1
X125.87Y-121.64
X125.87Y-124.18
X125.87Y-126.72
X128.41Y-88.62
X128.41Y-91.16
X130.95Y-88.62
X130.95Y-91.16
X133.49Y-88.62
X133.49Y-91.16
X134.815Y-96.305
X134.815Y-98.845
X134.815Y-101.385
X134.815Y-103.925
X134.815Y-106.465
X134.815Y-109.005
X134.815Y-111.545
X134.815Y-114.085
X134.815Y-116.625
X134.815Y-119.165
X141.11Y-88.62
X141.11Y-91.16
X142.435Y-96.305
X142.435Y-98.845
X142.435Y-101.385
X142.435Y-103.925
X142.435Y-106.465
X142.435Y-109.005
X142.435Y-111.545
X142.435Y-114.085
X142.435Y-116.625
X142.435Y-119.165
X143.65Y-88.62
X143.65Y-91.16
X146.19Y-88.62
X146.19Y-91.16
X156.35Y-88.62
X156.35Y-91.16
X156.35Y-93.7
X156.35Y-96.24
X156.35Y-98.78
X156.35Y-101.32
X156.35Y-103.86
X156.35Y-106.4
X156.35Y-108.94
X156.35Y-111.48
X156.35Y-114.02
X156.35Y-116.56
X156.35Y-119.1
X156.35Y-121.64
X156.35Y-124.18
X156.35Y-126.72
X156.35Y-129.26
X156.35Y-131.8
X156.35Y-134.34
X156.35Y-136.88
X156.35Y-139.42
X158.89Y-88.62
X158.89Y-91.16
X158.89Y-93.7
X158.89Y-96.24
X158.89Y-98.78
X158.89Y-101.32
X158.89Y-103.86
X158.89Y-106.4
X158.89Y-108.94
X158.89Y-111.48
X158.89Y-114.02
X158.89Y-116.56
X158.89Y-119.1
X158.89Y-121.64
X158.89Y-124.18
X158.89Y-126.72
X158.89Y-129.26
X158.89Y-131.8
X158.89Y-134.34
X158.89Y-136.88
X158.89Y-139.42
X186.435Y-133.72
X186.435Y-142.72
X188.435Y-126.22
X189.935Y-133.72
X189.935Y-142.72
X190.435Y-126.22
T5
X137.23Y-125.57
X137.23Y-128.11
X139.77Y-125.57
X139.77Y-128.11
X142.31Y-125.57
X142.31Y-128.11
X196.435Y-116.22
X201.435Y-116.22
T6
X146.895Y-139.45
X149.435Y-139.45
X151.975Y-139.45
X162.435Y-108.38
X162.435Y-118.54
X162.435Y-121.72
X162.435Y-131.88
X162.435Y-134.72
X162.435Y-144.88
X165.935Y-108.36
X165.935Y-118.52
X165.935Y-121.72
X165.935Y-131.88
X165.935Y-134.72
X165.935Y-144.88
X180.935Y-89.22
X180.935Y-99.38
X180.935Y-102.22
X180.935Y-112.38
X180.935Y-115.56
X180.935Y-125.72
X181.935Y-134.14
X181.935Y-144.3
X184.435Y-115.56
X184.435Y-125.72
X184.855Y-111.22
X185.435Y-107.22
X190.515Y-107.22
X195.015Y-111.22
X195.455Y-121.22
X200.535Y-121.22
T7
X37.435Y-94.225
X37.435Y-125.415
X42.435Y-94.225
X42.435Y-125.415
X47.435Y-94.225
X47.435Y-125.415
X54.35Y-94.22
X54.435Y-125.415
X59.43Y-94.22
X59.435Y-125.415
X64.435Y-125.415
X64.51Y-94.22
X71.35Y-94.22
X71.435Y-125.415
X76.43Y-94.22
X76.435Y-125.415
X81.435Y-125.415
X81.51Y-94.22
X88.35Y-94.22
X88.435Y-125.42
X93.43Y-94.22
X93.435Y-125.42
X98.435Y-125.42
X98.51Y-94.22
X105.355Y-94.22
X105.385Y-125.42
X110.385Y-125.42
X110.435Y-94.22
X115.385Y-125.42
X115.515Y-94.22
X129.935Y-138.415
X134.935Y-138.415
X139.935Y-138.415
X173.935Y-90.72
X173.935Y-95.72
X173.935Y-101.72
X173.935Y-106.72
X173.935Y-112.72
X173.935Y-117.72
X173.935Y-123.72
X173.935Y-128.72
X173.935Y-134.72
X173.935Y-139.72
X209.035Y-111.72
X209.035Y-116.72
X209.035Y-122.72
X209.035Y-127.72
X209.035Y-133.72
X209.035Y-138.72
T8
X200.435Y-89.72
X200.435Y-109.72
T4
X210.34Y-90.515G85X210.34Y-91.715
G05
X210.34Y-104.015G85X210.34Y-105.015
G05
X214.34Y-90.515G85X214.34Y-91.715
G05
X214.34Y-103.915G85X214.34Y-105.115
G05
T0
M30
