%TF.GenerationSoftware,KiCad,Pcbnew,(6.0.0)*%
%TF.CreationDate,2022-05-15T11:53:32-07:00*%
%TF.ProjectId,Stencil,5374656e-6369-46c2-9e6b-696361645f70,rev?*%
%TF.SameCoordinates,Original*%
%TF.FileFunction,Copper,L2,Bot*%
%TF.FilePolarity,Positive*%
%FSLAX46Y46*%
G04 Gerber Fmt 4.6, Leading zero omitted, Abs format (unit mm)*
G04 Created by KiCad (PCBNEW (6.0.0)) date 2022-05-15 11:53:32*
%MOMM*%
%LPD*%
G01*
G04 APERTURE LIST*
G04 Aperture macros list*
%AMRoundRect*
0 Rectangle with rounded corners*
0 $1 Rounding radius*
0 $2 $3 $4 $5 $6 $7 $8 $9 X,Y pos of 4 corners*
0 Add a 4 corners polygon primitive as box body*
4,1,4,$2,$3,$4,$5,$6,$7,$8,$9,$2,$3,0*
0 Add four circle primitives for the rounded corners*
1,1,$1+$1,$2,$3*
1,1,$1+$1,$4,$5*
1,1,$1+$1,$6,$7*
1,1,$1+$1,$8,$9*
0 Add four rect primitives between the rounded corners*
20,1,$1+$1,$2,$3,$4,$5,0*
20,1,$1+$1,$4,$5,$6,$7,0*
20,1,$1+$1,$6,$7,$8,$9,0*
20,1,$1+$1,$8,$9,$2,$3,0*%
G04 Aperture macros list end*
%TA.AperFunction,ComponentPad*%
%ADD10C,2.500000*%
%TD*%
%TA.AperFunction,ComponentPad*%
%ADD11R,2.600000X2.600000*%
%TD*%
%TA.AperFunction,ComponentPad*%
%ADD12C,2.600000*%
%TD*%
%TA.AperFunction,ComponentPad*%
%ADD13R,1.600000X1.600000*%
%TD*%
%TA.AperFunction,ComponentPad*%
%ADD14O,1.600000X1.600000*%
%TD*%
%TA.AperFunction,ComponentPad*%
%ADD15C,1.600000*%
%TD*%
%TA.AperFunction,ComponentPad*%
%ADD16R,2.200000X2.200000*%
%TD*%
%TA.AperFunction,ComponentPad*%
%ADD17O,2.200000X2.200000*%
%TD*%
%TA.AperFunction,ComponentPad*%
%ADD18R,1.050000X1.500000*%
%TD*%
%TA.AperFunction,ComponentPad*%
%ADD19O,1.050000X1.500000*%
%TD*%
%TA.AperFunction,ComponentPad*%
%ADD20C,1.200000*%
%TD*%
%TA.AperFunction,ComponentPad*%
%ADD21C,1.676400*%
%TD*%
%TA.AperFunction,ComponentPad*%
%ADD22R,3.000000X3.000000*%
%TD*%
%TA.AperFunction,ComponentPad*%
%ADD23O,3.000000X3.000000*%
%TD*%
%TA.AperFunction,ComponentPad*%
%ADD24R,1.905000X2.000000*%
%TD*%
%TA.AperFunction,ComponentPad*%
%ADD25O,1.905000X2.000000*%
%TD*%
%TA.AperFunction,ComponentPad*%
%ADD26R,1.700000X1.700000*%
%TD*%
%TA.AperFunction,ComponentPad*%
%ADD27O,1.700000X1.700000*%
%TD*%
%TA.AperFunction,ComponentPad*%
%ADD28R,3.200000X3.200000*%
%TD*%
%TA.AperFunction,ComponentPad*%
%ADD29O,3.200000X3.200000*%
%TD*%
%TA.AperFunction,ComponentPad*%
%ADD30R,2.000000X2.500000*%
%TD*%
%TA.AperFunction,ComponentPad*%
%ADD31C,2.000000*%
%TD*%
%TA.AperFunction,SMDPad,CuDef*%
%ADD32R,1.200000X2.200000*%
%TD*%
%TA.AperFunction,SMDPad,CuDef*%
%ADD33R,5.800000X6.400000*%
%TD*%
%TA.AperFunction,SMDPad,CuDef*%
%ADD34RoundRect,0.250000X-0.312500X-0.625000X0.312500X-0.625000X0.312500X0.625000X-0.312500X0.625000X0*%
%TD*%
%TA.AperFunction,SMDPad,CuDef*%
%ADD35R,2.200000X1.200000*%
%TD*%
%TA.AperFunction,SMDPad,CuDef*%
%ADD36R,6.400000X5.800000*%
%TD*%
%TA.AperFunction,SMDPad,CuDef*%
%ADD37RoundRect,0.250000X0.625000X-0.312500X0.625000X0.312500X-0.625000X0.312500X-0.625000X-0.312500X0*%
%TD*%
%TA.AperFunction,SMDPad,CuDef*%
%ADD38RoundRect,0.150000X0.587500X0.150000X-0.587500X0.150000X-0.587500X-0.150000X0.587500X-0.150000X0*%
%TD*%
%TA.AperFunction,SMDPad,CuDef*%
%ADD39RoundRect,0.250000X0.312500X0.625000X-0.312500X0.625000X-0.312500X-0.625000X0.312500X-0.625000X0*%
%TD*%
%TA.AperFunction,SMDPad,CuDef*%
%ADD40RoundRect,0.150000X-0.587500X-0.150000X0.587500X-0.150000X0.587500X0.150000X-0.587500X0.150000X0*%
%TD*%
%TA.AperFunction,SMDPad,CuDef*%
%ADD41RoundRect,0.250000X-0.625000X0.312500X-0.625000X-0.312500X0.625000X-0.312500X0.625000X0.312500X0*%
%TD*%
%TA.AperFunction,SMDPad,CuDef*%
%ADD42RoundRect,0.150000X0.150000X-0.587500X0.150000X0.587500X-0.150000X0.587500X-0.150000X-0.587500X0*%
%TD*%
%TA.AperFunction,ViaPad*%
%ADD43C,0.800000*%
%TD*%
%TA.AperFunction,Conductor*%
%ADD44C,0.508000*%
%TD*%
%TA.AperFunction,Conductor*%
%ADD45C,0.254000*%
%TD*%
%TA.AperFunction,Conductor*%
%ADD46C,0.762000*%
%TD*%
%TA.AperFunction,Conductor*%
%ADD47C,0.300000*%
%TD*%
%TA.AperFunction,Conductor*%
%ADD48C,1.500000*%
%TD*%
%TA.AperFunction,Conductor*%
%ADD49C,1.000000*%
%TD*%
%TA.AperFunction,Conductor*%
%ADD50C,2.000000*%
%TD*%
G04 APERTURE END LIST*
D10*
%TO.P,A1,1,Vin*%
%TO.N,N/C*%
X35935000Y-144220000D03*
%TO.P,A1,2,Vout*%
X35935000Y-105220000D03*
%TO.P,A1,3,GND*%
X52935000Y-144220000D03*
%TO.P,A1,4,GND*%
X52935000Y-105220000D03*
%TD*%
D11*
%TO.P,J11,1,Pin_1*%
%TO.N,N/C*%
X37435000Y-94225000D03*
D12*
%TO.P,J11,2,Pin_2*%
X42435000Y-94225000D03*
%TO.P,J11,3,Pin_3*%
X47435000Y-94225000D03*
%TD*%
D13*
%TO.P,SW1,1*%
%TO.N,N/C*%
X142435000Y-119165000D03*
D14*
%TO.P,SW1,2*%
X142435000Y-116625000D03*
%TO.P,SW1,3*%
X142435000Y-114085000D03*
%TO.P,SW1,4*%
X142435000Y-111545000D03*
%TO.P,SW1,5*%
X142435000Y-109005000D03*
%TO.P,SW1,6*%
X142435000Y-106465000D03*
%TO.P,SW1,7*%
X142435000Y-103925000D03*
%TO.P,SW1,8*%
X142435000Y-101385000D03*
%TO.P,SW1,9*%
X142435000Y-98845000D03*
%TO.P,SW1,10*%
X142435000Y-96305000D03*
%TO.P,SW1,11*%
X134815000Y-96305000D03*
%TO.P,SW1,12*%
X134815000Y-98845000D03*
%TO.P,SW1,13*%
X134815000Y-101385000D03*
%TO.P,SW1,14*%
X134815000Y-103925000D03*
%TO.P,SW1,15*%
X134815000Y-106465000D03*
%TO.P,SW1,16*%
X134815000Y-109005000D03*
%TO.P,SW1,17*%
X134815000Y-111545000D03*
%TO.P,SW1,18*%
X134815000Y-114085000D03*
%TO.P,SW1,19*%
X134815000Y-116625000D03*
%TO.P,SW1,20*%
X134815000Y-119165000D03*
%TD*%
D15*
%TO.P,C2,1*%
%TO.N,N/C*%
X190435000Y-126220000D03*
%TO.P,C2,2*%
X188435000Y-126220000D03*
%TD*%
D11*
%TO.P,J20,1,Pin_1*%
%TO.N,N/C*%
X71350000Y-94220000D03*
D12*
%TO.P,J20,2,Pin_2*%
X76430000Y-94220000D03*
%TO.P,J20,3,Pin_3*%
X81510000Y-94220000D03*
%TD*%
D16*
%TO.P,D197,1,K*%
%TO.N,N/C*%
X162435000Y-134720000D03*
D17*
%TO.P,D197,2,A*%
X162435000Y-144880000D03*
%TD*%
D18*
%TO.P,Q44,1,C*%
%TO.N,N/C*%
X188165000Y-115720000D03*
D19*
%TO.P,Q44,2,B*%
X189435000Y-115720000D03*
%TO.P,Q44,3,E*%
X190705000Y-115720000D03*
%TD*%
D16*
%TO.P,D205,1,K*%
%TO.N,N/C*%
X184435000Y-125720000D03*
D17*
%TO.P,D205,2,A*%
X184435000Y-115560000D03*
%TD*%
D16*
%TO.P,D193,1,K*%
%TO.N,N/C*%
X162435000Y-108380000D03*
D17*
%TO.P,D193,2,A*%
X162435000Y-118540000D03*
%TD*%
D16*
%TO.P,D204,1,K*%
%TO.N,N/C*%
X181935000Y-134140000D03*
D17*
%TO.P,D204,2,A*%
X181935000Y-144300000D03*
%TD*%
D20*
%TO.P,C3,1*%
%TO.N,N/C*%
X181435000Y-129720000D03*
%TO.P,C3,2*%
X182935000Y-129720000D03*
%TD*%
D16*
%TO.P,D196,1,K*%
%TO.N,N/C*%
X165935000Y-134720000D03*
D17*
%TO.P,D196,2,A*%
X165935000Y-144880000D03*
%TD*%
D16*
%TO.P,D203,1,K*%
%TO.N,N/C*%
X180935000Y-115560000D03*
D17*
%TO.P,D203,2,A*%
X180935000Y-125720000D03*
%TD*%
D11*
%TO.P,J17,1,Pin_1*%
%TO.N,N/C*%
X209035000Y-138720000D03*
D12*
%TO.P,J17,2,Pin_2*%
X209035000Y-133720000D03*
%TD*%
D18*
%TO.P,Q43,1,C*%
%TO.N,N/C*%
X190705000Y-120220000D03*
D19*
%TO.P,Q43,2,B*%
X189435000Y-120220000D03*
%TO.P,Q43,3,E*%
X188165000Y-120220000D03*
%TD*%
D11*
%TO.P,J19,1,Pin_1*%
%TO.N,N/C*%
X54350000Y-94220000D03*
D12*
%TO.P,J19,2,Pin_2*%
X59430000Y-94220000D03*
%TO.P,J19,3,Pin_3*%
X64510000Y-94220000D03*
%TD*%
D11*
%TO.P,J18,1,Pin_1*%
%TO.N,N/C*%
X209035000Y-127720000D03*
D12*
%TO.P,J18,2,Pin_2*%
X209035000Y-122720000D03*
%TD*%
D11*
%TO.P,J23,1,Pin_1*%
%TO.N,N/C*%
X88350000Y-94220000D03*
D12*
%TO.P,J23,2,Pin_2*%
X93430000Y-94220000D03*
%TO.P,J23,3,Pin_3*%
X98510000Y-94220000D03*
%TD*%
D21*
%TO.P,U1,3V3_1,3V3*%
%TO.N,N/C*%
X158890000Y-131800000D03*
%TO.P,U1,3V3_2,3V3*%
X156350000Y-131800000D03*
%TO.P,U1,5V_1,5V*%
X158890000Y-134340000D03*
%TO.P,U1,5V_2,5V*%
X156350000Y-134340000D03*
%TO.P,U1,5V_3,5V*%
X141110000Y-88620000D03*
%TO.P,U1,A0,A0*%
X123330000Y-126720000D03*
%TO.P,U1,A1,A1*%
X125870000Y-126720000D03*
%TO.P,U1,A2,A2*%
X123330000Y-124180000D03*
%TO.P,U1,A3,A3*%
X125870000Y-124180000D03*
%TO.P,U1,A4,A4*%
X123330000Y-121640000D03*
%TO.P,U1,A5,A5*%
X125870000Y-121640000D03*
%TO.P,U1,A6,A6*%
X123330000Y-119100000D03*
%TO.P,U1,A7,A7*%
X125870000Y-119100000D03*
%TO.P,U1,A8,A8*%
X123330000Y-116560000D03*
%TO.P,U1,A9,A9*%
X125870000Y-116560000D03*
%TO.P,U1,A10,A10*%
X123330000Y-114020000D03*
%TO.P,U1,A11,A11*%
X125870000Y-114020000D03*
%TO.P,U1,A12,A12*%
X123330000Y-111480000D03*
%TO.P,U1,A13,A13*%
X125870000Y-111480000D03*
%TO.P,U1,A14,A14*%
X123330000Y-108940000D03*
%TO.P,U1,A15,A15*%
X125870000Y-108940000D03*
%TO.P,U1,AREF,AREF*%
X156350000Y-129260000D03*
%TO.P,U1,D2,D2*%
X156350000Y-124180000D03*
%TO.P,U1,D3,D3*%
X158890000Y-124180000D03*
%TO.P,U1,D4,D4*%
X156350000Y-121640000D03*
%TO.P,U1,D5,D5*%
X158890000Y-121640000D03*
%TO.P,U1,D6,D6*%
X156350000Y-119100000D03*
%TO.P,U1,D7,D7*%
X158890000Y-119100000D03*
%TO.P,U1,D8,D8*%
X156350000Y-116560000D03*
%TO.P,U1,D9,D9*%
X158890000Y-116560000D03*
%TO.P,U1,D10,D10*%
X156350000Y-114020000D03*
%TO.P,U1,D11,D11*%
X158890000Y-114020000D03*
%TO.P,U1,D12,D12*%
X156350000Y-111480000D03*
%TO.P,U1,D13,D13*%
X158890000Y-111480000D03*
%TO.P,U1,D14,D14*%
X156350000Y-108940000D03*
%TO.P,U1,D15,D15*%
X158890000Y-108940000D03*
%TO.P,U1,D16,D16*%
X156350000Y-106400000D03*
%TO.P,U1,D17,D17*%
X158890000Y-106400000D03*
%TO.P,U1,D18,D18*%
X156350000Y-103860000D03*
%TO.P,U1,D19,D19*%
X158890000Y-103860000D03*
%TO.P,U1,D20,D20*%
X156350000Y-101320000D03*
%TO.P,U1,D21,D21*%
X158890000Y-101320000D03*
%TO.P,U1,D22,D22*%
X156350000Y-98780000D03*
%TO.P,U1,D23,D23*%
X158890000Y-98780000D03*
%TO.P,U1,D24,D24*%
X156350000Y-96240000D03*
%TO.P,U1,D25,D25*%
X158890000Y-96240000D03*
%TO.P,U1,D26,D26*%
X156350000Y-93700000D03*
%TO.P,U1,D27,D27*%
X158890000Y-93700000D03*
%TO.P,U1,D28,D28*%
X156350000Y-91160000D03*
%TO.P,U1,D29,D29*%
X158890000Y-91160000D03*
%TO.P,U1,D30,D30*%
X156350000Y-88620000D03*
%TO.P,U1,D31,D31*%
X158890000Y-88620000D03*
%TO.P,U1,D32,D32*%
X123330000Y-106400000D03*
%TO.P,U1,D33,D33*%
X125870000Y-106400000D03*
%TO.P,U1,D34,D34*%
X123330000Y-103860000D03*
%TO.P,U1,D35,D35*%
X125870000Y-103860000D03*
%TO.P,U1,D36,D36*%
X123330000Y-101320000D03*
%TO.P,U1,D37,D37*%
X125870000Y-101320000D03*
%TO.P,U1,D38,D38*%
X123330000Y-98780000D03*
%TO.P,U1,D39,D39*%
X125870000Y-98780000D03*
%TO.P,U1,D40,D40*%
X123330000Y-96240000D03*
%TO.P,U1,D41,D41*%
X125870000Y-96240000D03*
%TO.P,U1,D42,D42*%
X123330000Y-93700000D03*
%TO.P,U1,D43,D43*%
X125870000Y-93700000D03*
%TO.P,U1,D44,D44*%
X123330000Y-91160000D03*
%TO.P,U1,D45,D45*%
X125870000Y-91160000D03*
%TO.P,U1,D46,D46*%
X123330000Y-88620000D03*
%TO.P,U1,D47,D47*%
X125870000Y-88620000D03*
%TO.P,U1,D48,D48*%
X128410000Y-88620000D03*
%TO.P,U1,D49,D49*%
X128410000Y-91160000D03*
%TO.P,U1,D50,D50*%
X130950000Y-88620000D03*
%TO.P,U1,D51,D51*%
X130950000Y-91160000D03*
%TO.P,U1,D52,D52*%
X133490000Y-88620000D03*
%TO.P,U1,D53,D53*%
X133490000Y-91160000D03*
%TO.P,U1,GND_1,GND*%
X158890000Y-136880000D03*
%TO.P,U1,GND_2,GND*%
X156350000Y-136880000D03*
%TO.P,U1,GND_3,GND*%
X146190000Y-88620000D03*
%TO.P,U1,MISO,MISO*%
X141110000Y-91160000D03*
%TO.P,U1,MOSI,MOSI*%
X143650000Y-88620000D03*
%TO.P,U1,RESET,RESET*%
X146190000Y-91160000D03*
%TO.P,U1,RST,RST*%
X158890000Y-129260000D03*
%TO.P,U1,RX,RX*%
X156350000Y-126720000D03*
%TO.P,U1,SCK,SCK*%
X143650000Y-91160000D03*
%TO.P,U1,TX,TX*%
X158890000Y-126720000D03*
%TO.P,U1,VIN_1,VIN*%
X158890000Y-139420000D03*
%TO.P,U1,VIN_2,VIN*%
X156350000Y-139420000D03*
%TD*%
D22*
%TO.P,Q41,1,G*%
%TO.N,N/C*%
X185435000Y-107220000D03*
D23*
%TO.P,Q41,3,S*%
X190515000Y-107220000D03*
%TD*%
D16*
%TO.P,D202,1,K*%
%TO.N,N/C*%
X195015000Y-111220000D03*
D17*
%TO.P,D202,2,A*%
X184855000Y-111220000D03*
%TD*%
D15*
%TO.P,C5,1*%
%TO.N,N/C*%
X189935000Y-142720000D03*
%TO.P,C5,2*%
X186435000Y-142720000D03*
%TD*%
D16*
%TO.P,D198,1,K*%
%TO.N,N/C*%
X165935000Y-108360000D03*
D17*
%TO.P,D198,2,A*%
X165935000Y-118520000D03*
%TD*%
D15*
%TO.P,C4,1*%
%TO.N,N/C*%
X189935000Y-133720000D03*
%TO.P,C4,2*%
X186435000Y-133720000D03*
%TD*%
D24*
%TO.P,U2,1,IN*%
%TO.N,N/C*%
X146895000Y-139450000D03*
D25*
%TO.P,U2,2,GND*%
X149435000Y-139450000D03*
%TO.P,U2,3,OUT*%
X151975000Y-139450000D03*
%TD*%
D10*
%TO.P,A4,1,Vin*%
%TO.N,N/C*%
X101935000Y-144220000D03*
%TO.P,A4,2,Vout*%
X101935000Y-105220000D03*
%TO.P,A4,3,GND*%
X118935000Y-144220000D03*
%TO.P,A4,4,GND*%
X118935000Y-105220000D03*
%TD*%
%TO.P,A3,1,Vin*%
%TO.N,N/C*%
X79935000Y-144220000D03*
%TO.P,A3,2,Vout*%
X79935000Y-105220000D03*
%TO.P,A3,3,GND*%
X96935000Y-144220000D03*
%TO.P,A3,4,GND*%
X96935000Y-105220000D03*
%TD*%
D22*
%TO.P,Q42,1,G*%
%TO.N,N/C*%
X200535000Y-121220000D03*
D23*
%TO.P,Q42,3,S*%
X195455000Y-121220000D03*
%TD*%
D16*
%TO.P,D195,1,K*%
%TO.N,N/C*%
X165935000Y-131880000D03*
D17*
%TO.P,D195,2,A*%
X165935000Y-121720000D03*
%TD*%
D11*
%TO.P,J29,1,Pin_1*%
%TO.N,N/C*%
X209035000Y-116720000D03*
D12*
%TO.P,J29,2,Pin_2*%
X209035000Y-111720000D03*
%TD*%
D16*
%TO.P,D194,1,K*%
%TO.N,N/C*%
X162435000Y-131880000D03*
D17*
%TO.P,D194,2,A*%
X162435000Y-121720000D03*
%TD*%
D16*
%TO.P,D200,1,K*%
%TO.N,N/C*%
X180935000Y-112380000D03*
D17*
%TO.P,D200,2,A*%
X180935000Y-102220000D03*
%TD*%
D16*
%TO.P,D199,1,K*%
%TO.N,N/C*%
X180935000Y-89220000D03*
D17*
%TO.P,D199,2,A*%
X180935000Y-99380000D03*
%TD*%
D26*
%TO.P,J31,1,Pin_1*%
%TO.N,N/C*%
X142310000Y-125570000D03*
D27*
%TO.P,J31,2,Pin_2*%
X142310000Y-128110000D03*
%TO.P,J31,3,Pin_3*%
X139770000Y-125570000D03*
%TO.P,J31,4,Pin_4*%
X139770000Y-128110000D03*
%TO.P,J31,5,Pin_5*%
X137230000Y-125570000D03*
%TO.P,J31,6,Pin_6*%
X137230000Y-128110000D03*
%TD*%
D11*
%TO.P,J25,1,Pin_1*%
%TO.N,N/C*%
X105355000Y-94220000D03*
D12*
%TO.P,J25,2,Pin_2*%
X110435000Y-94220000D03*
%TO.P,J25,3,Pin_3*%
X115515000Y-94220000D03*
%TD*%
D10*
%TO.P,A2,1,Vin*%
%TO.N,N/C*%
X57935000Y-144220000D03*
%TO.P,A2,2,Vout*%
X57935000Y-105220000D03*
%TO.P,A2,3,GND*%
X74935000Y-144220000D03*
%TO.P,A2,4,GND*%
X74935000Y-105220000D03*
%TD*%
D28*
%TO.P,D201,1,A1*%
%TO.N,N/C*%
X200435000Y-89720000D03*
D29*
%TO.P,D201,2,A2*%
X200435000Y-109720000D03*
%TD*%
D30*
%TO.P,F1,1*%
%TO.N,N/C*%
X210340000Y-91115000D03*
X214340000Y-91115000D03*
%TO.P,F1,2*%
X214340000Y-104515000D03*
X210340000Y-104515000D03*
%TD*%
D31*
%TO.P,C1,1*%
%TO.N,N/C*%
X196435000Y-116220000D03*
%TO.P,C1,2*%
X201435000Y-116220000D03*
%TD*%
D32*
%TO.P,Q13,1,G*%
%TO.N,N/C*%
X45155000Y-109020000D03*
D33*
%TO.P,Q13,2,D*%
X47435000Y-115320000D03*
D32*
%TO.P,Q13,3,S*%
X49715000Y-109020000D03*
%TD*%
D34*
%TO.P,R106,1*%
%TO.N,N/C*%
X78492500Y-110740000D03*
%TO.P,R106,2*%
X81417500Y-110740000D03*
%TD*%
D35*
%TO.P,Q7,1,G*%
%TO.N,N/C*%
X58210000Y-133940000D03*
D36*
%TO.P,Q7,2,D*%
X51910000Y-136220000D03*
D35*
%TO.P,Q7,3,S*%
X58210000Y-138500000D03*
%TD*%
D11*
%TO.P,J15,1,Pin_1*%
%TO.N,N/C*%
X88435000Y-125420000D03*
D12*
%TO.P,J15,2,Pin_2*%
X93435000Y-125420000D03*
%TO.P,J15,3,Pin_3*%
X98435000Y-125420000D03*
%TD*%
D37*
%TO.P,R145,1*%
%TO.N,N/C*%
X182455000Y-139662500D03*
%TO.P,R145,2*%
X182455000Y-136737500D03*
%TD*%
D38*
%TO.P,Q30,1,B*%
%TO.N,N/C*%
X96972500Y-99570000D03*
%TO.P,Q30,2,E*%
X96972500Y-101470000D03*
%TO.P,Q30,3,C*%
X95097500Y-100520000D03*
%TD*%
D34*
%TO.P,R160,1*%
%TO.N,N/C*%
X137167500Y-106740000D03*
%TO.P,R160,2*%
X140092500Y-106740000D03*
%TD*%
D37*
%TO.P,R122,1*%
%TO.N,N/C*%
X99705000Y-102412500D03*
%TO.P,R122,2*%
X99705000Y-99487500D03*
%TD*%
D34*
%TO.P,R110,1*%
%TO.N,N/C*%
X45492500Y-105740000D03*
%TO.P,R110,2*%
X48417500Y-105740000D03*
%TD*%
%TO.P,R158,1*%
%TO.N,N/C*%
X137167500Y-109240000D03*
%TO.P,R158,2*%
X140092500Y-109240000D03*
%TD*%
%TO.P,R168,1*%
%TO.N,N/C*%
X137167500Y-96740000D03*
%TO.P,R168,2*%
X140092500Y-96740000D03*
%TD*%
D11*
%TO.P,J22,1,Pin_1*%
%TO.N,N/C*%
X173935000Y-101720000D03*
D12*
%TO.P,J22,2,Pin_2*%
X173935000Y-106720000D03*
%TD*%
D35*
%TO.P,Q9,1,G*%
%TO.N,N/C*%
X70135000Y-113440000D03*
D36*
%TO.P,Q9,2,D*%
X63835000Y-115720000D03*
D35*
%TO.P,Q9,3,S*%
X70135000Y-118000000D03*
%TD*%
D34*
%TO.P,R151,1*%
%TO.N,N/C*%
X129667500Y-119240000D03*
%TO.P,R151,2*%
X132592500Y-119240000D03*
%TD*%
D38*
%TO.P,Q22,1,B*%
%TO.N,N/C*%
X93172500Y-107620000D03*
%TO.P,Q22,2,E*%
X93172500Y-109520000D03*
%TO.P,Q22,3,C*%
X91297500Y-108570000D03*
%TD*%
D34*
%TO.P,R133,1*%
%TO.N,N/C*%
X162992500Y-124740000D03*
%TO.P,R133,2*%
X165917500Y-124740000D03*
%TD*%
%TO.P,R156,1*%
%TO.N,N/C*%
X137110000Y-111720000D03*
%TO.P,R156,2*%
X140035000Y-111720000D03*
%TD*%
D11*
%TO.P,J27,1,Pin_1*%
%TO.N,N/C*%
X173935000Y-123720000D03*
D12*
%TO.P,J27,2,Pin_2*%
X173935000Y-128720000D03*
%TD*%
D32*
%TO.P,Q14,1,G*%
%TO.N,N/C*%
X52630000Y-109095000D03*
D33*
%TO.P,Q14,2,D*%
X54910000Y-115395000D03*
D32*
%TO.P,Q14,3,S*%
X57190000Y-109095000D03*
%TD*%
D34*
%TO.P,R152,1*%
%TO.N,N/C*%
X137167500Y-116740000D03*
%TO.P,R152,2*%
X140092500Y-116740000D03*
%TD*%
D39*
%TO.P,R102,1*%
%TO.N,N/C*%
X76177500Y-138200000D03*
%TO.P,R102,2*%
X73252500Y-138200000D03*
%TD*%
D32*
%TO.P,Q15,1,G*%
%TO.N,N/C*%
X37655000Y-109020000D03*
D33*
%TO.P,Q15,2,D*%
X39935000Y-115320000D03*
D32*
%TO.P,Q15,3,S*%
X42215000Y-109020000D03*
%TD*%
D34*
%TO.P,R157,1*%
%TO.N,N/C*%
X129667500Y-111720000D03*
%TO.P,R157,2*%
X132592500Y-111720000D03*
%TD*%
D40*
%TO.P,Q12,1,B*%
%TO.N,N/C*%
X73647500Y-110670000D03*
%TO.P,Q12,2,E*%
X73647500Y-108770000D03*
%TO.P,Q12,3,C*%
X75522500Y-109720000D03*
%TD*%
D11*
%TO.P,J14,1,Pin_1*%
%TO.N,N/C*%
X54435000Y-125415000D03*
D12*
%TO.P,J14,2,Pin_2*%
X59435000Y-125415000D03*
%TO.P,J14,3,Pin_3*%
X64435000Y-125415000D03*
%TD*%
D34*
%TO.P,R164,1*%
%TO.N,N/C*%
X137167500Y-101740000D03*
%TO.P,R164,2*%
X140092500Y-101740000D03*
%TD*%
D35*
%TO.P,Q6,1,G*%
%TO.N,N/C*%
X70210000Y-134465000D03*
D36*
%TO.P,Q6,2,D*%
X63910000Y-136745000D03*
D35*
%TO.P,Q6,3,S*%
X70210000Y-139025000D03*
%TD*%
D32*
%TO.P,Q19,1,G*%
%TO.N,N/C*%
X100655000Y-109270000D03*
D33*
%TO.P,Q19,2,D*%
X102935000Y-115570000D03*
D32*
%TO.P,Q19,3,S*%
X105215000Y-109270000D03*
%TD*%
D34*
%TO.P,R167,1*%
%TO.N,N/C*%
X129667500Y-99240000D03*
%TO.P,R167,2*%
X132592500Y-99240000D03*
%TD*%
D11*
%TO.P,J24,1,Pin_1*%
%TO.N,N/C*%
X173935000Y-90720000D03*
D12*
%TO.P,J24,2,Pin_2*%
X173935000Y-95720000D03*
%TD*%
D34*
%TO.P,R134,1*%
%TO.N,N/C*%
X162992500Y-140740000D03*
%TO.P,R134,2*%
X165917500Y-140740000D03*
%TD*%
D39*
%TO.P,R111,1*%
%TO.N,N/C*%
X165360000Y-98880000D03*
%TO.P,R111,2*%
X162435000Y-98880000D03*
%TD*%
D35*
%TO.P,Q10,1,G*%
%TO.N,N/C*%
X81635000Y-113440000D03*
D36*
%TO.P,Q10,2,D*%
X75335000Y-115720000D03*
D35*
%TO.P,Q10,3,S*%
X81635000Y-118000000D03*
%TD*%
D34*
%TO.P,R135,1*%
%TO.N,N/C*%
X162992500Y-138240000D03*
%TO.P,R135,2*%
X165917500Y-138240000D03*
%TD*%
%TO.P,R166,1*%
%TO.N,N/C*%
X137167500Y-99240000D03*
%TO.P,R166,2*%
X140092500Y-99240000D03*
%TD*%
D32*
%TO.P,Q18,1,G*%
%TO.N,N/C*%
X108155000Y-109170000D03*
D33*
%TO.P,Q18,2,D*%
X110435000Y-115470000D03*
D32*
%TO.P,Q18,3,S*%
X112715000Y-109170000D03*
%TD*%
D34*
%TO.P,R155,1*%
%TO.N,N/C*%
X129667500Y-114240000D03*
%TO.P,R155,2*%
X132592500Y-114240000D03*
%TD*%
%TO.P,R154,1*%
%TO.N,N/C*%
X137167500Y-114240000D03*
%TO.P,R154,2*%
X140092500Y-114240000D03*
%TD*%
%TO.P,R114,1*%
%TO.N,N/C*%
X95492500Y-109440000D03*
%TO.P,R114,2*%
X98417500Y-109440000D03*
%TD*%
D11*
%TO.P,J30,1,Pin_1*%
%TO.N,N/C*%
X129935000Y-138415000D03*
D12*
%TO.P,J30,2,Pin_2*%
X134935000Y-138415000D03*
%TO.P,J30,3,Pin_3*%
X139935000Y-138415000D03*
%TD*%
D39*
%TO.P,R99,1*%
%TO.N,N/C*%
X165360000Y-89880000D03*
%TO.P,R99,2*%
X162435000Y-89880000D03*
%TD*%
D41*
%TO.P,R121,1*%
%TO.N,N/C*%
X85915000Y-104777500D03*
%TO.P,R121,2*%
X85915000Y-107702500D03*
%TD*%
D34*
%TO.P,R150,1*%
%TO.N,N/C*%
X137167500Y-119240000D03*
%TO.P,R150,2*%
X140092500Y-119240000D03*
%TD*%
D35*
%TO.P,Q26,1,G*%
%TO.N,N/C*%
X79135000Y-97440000D03*
D36*
%TO.P,Q26,2,D*%
X72835000Y-99720000D03*
D35*
%TO.P,Q26,3,S*%
X79135000Y-102000000D03*
%TD*%
D34*
%TO.P,R153,1*%
%TO.N,N/C*%
X129667500Y-116740000D03*
%TO.P,R153,2*%
X132592500Y-116740000D03*
%TD*%
D39*
%TO.P,R107,1*%
%TO.N,N/C*%
X165360000Y-95880000D03*
%TO.P,R107,2*%
X162435000Y-95880000D03*
%TD*%
D11*
%TO.P,J12,1,Pin_1*%
%TO.N,N/C*%
X37435000Y-125415000D03*
D12*
%TO.P,J12,2,Pin_2*%
X42435000Y-125415000D03*
%TO.P,J12,3,Pin_3*%
X47435000Y-125415000D03*
%TD*%
D11*
%TO.P,J16,1,Pin_1*%
%TO.N,N/C*%
X105385000Y-125420000D03*
D12*
%TO.P,J16,2,Pin_2*%
X110385000Y-125420000D03*
%TO.P,J16,3,Pin_3*%
X115385000Y-125420000D03*
%TD*%
D34*
%TO.P,R165,1*%
%TO.N,N/C*%
X129667500Y-101740000D03*
%TO.P,R165,2*%
X132592500Y-101740000D03*
%TD*%
D35*
%TO.P,Q27,1,G*%
%TO.N,N/C*%
X113385000Y-98690000D03*
D36*
%TO.P,Q27,2,D*%
X107085000Y-100970000D03*
D35*
%TO.P,Q27,3,S*%
X113385000Y-103250000D03*
%TD*%
D34*
%TO.P,R162,1*%
%TO.N,N/C*%
X137167500Y-104240000D03*
%TO.P,R162,2*%
X140092500Y-104240000D03*
%TD*%
D11*
%TO.P,J21,1,Pin_1*%
%TO.N,N/C*%
X173935000Y-112720000D03*
D12*
%TO.P,J21,2,Pin_2*%
X173935000Y-117720000D03*
%TD*%
D39*
%TO.P,R105,1*%
%TO.N,N/C*%
X63877500Y-103200000D03*
%TO.P,R105,2*%
X60952500Y-103200000D03*
%TD*%
D35*
%TO.P,Q5,1,G*%
%TO.N,N/C*%
X43935000Y-134440000D03*
D36*
%TO.P,Q5,2,D*%
X37635000Y-136720000D03*
D35*
%TO.P,Q5,3,S*%
X43935000Y-139000000D03*
%TD*%
D39*
%TO.P,R113,1*%
%TO.N,N/C*%
X89127500Y-109950000D03*
%TO.P,R113,2*%
X86202500Y-109950000D03*
%TD*%
D11*
%TO.P,J26,1,Pin_1*%
%TO.N,N/C*%
X173935000Y-134720000D03*
D12*
%TO.P,J26,2,Pin_2*%
X173935000Y-139720000D03*
%TD*%
D35*
%TO.P,Q25,1,G*%
%TO.N,N/C*%
X83485000Y-102500000D03*
D36*
%TO.P,Q25,2,D*%
X89785000Y-100220000D03*
D35*
%TO.P,Q25,3,S*%
X83485000Y-97940000D03*
%TD*%
%TO.P,Q17,1,G*%
%TO.N,N/C*%
X97560000Y-112940000D03*
D36*
%TO.P,Q17,2,D*%
X91260000Y-115220000D03*
D35*
%TO.P,Q17,3,S*%
X97560000Y-117500000D03*
%TD*%
D37*
%TO.P,R149,1*%
%TO.N,N/C*%
X180955000Y-122082500D03*
%TO.P,R149,2*%
X180955000Y-119157500D03*
%TD*%
D34*
%TO.P,R132,1*%
%TO.N,N/C*%
X162992500Y-127240000D03*
%TO.P,R132,2*%
X165917500Y-127240000D03*
%TD*%
D37*
%TO.P,R101,1*%
%TO.N,N/C*%
X46755000Y-136662500D03*
%TO.P,R101,2*%
X46755000Y-133737500D03*
%TD*%
D34*
%TO.P,R163,1*%
%TO.N,N/C*%
X129667500Y-104240000D03*
%TO.P,R163,2*%
X132592500Y-104240000D03*
%TD*%
D39*
%TO.P,R116,1*%
%TO.N,N/C*%
X165360000Y-101880000D03*
%TO.P,R116,2*%
X162435000Y-101880000D03*
%TD*%
%TO.P,R103,1*%
%TO.N,N/C*%
X165360000Y-92880000D03*
%TO.P,R103,2*%
X162435000Y-92880000D03*
%TD*%
D42*
%TO.P,Q16,1,B*%
%TO.N,N/C*%
X42135000Y-105757500D03*
%TO.P,Q16,2,E*%
X40235000Y-105757500D03*
%TO.P,Q16,3,C*%
X41185000Y-103882500D03*
%TD*%
D11*
%TO.P,J13,1,Pin_1*%
%TO.N,N/C*%
X71435000Y-125415000D03*
D12*
%TO.P,J13,2,Pin_2*%
X76435000Y-125415000D03*
%TO.P,J13,3,Pin_3*%
X81435000Y-125415000D03*
%TD*%
D34*
%TO.P,R161,1*%
%TO.N,N/C*%
X129667500Y-106740000D03*
%TO.P,R161,2*%
X132592500Y-106740000D03*
%TD*%
D35*
%TO.P,Q11,1,G*%
%TO.N,N/C*%
X70135000Y-105940000D03*
D36*
%TO.P,Q11,2,D*%
X63835000Y-108220000D03*
D35*
%TO.P,Q11,3,S*%
X70135000Y-110500000D03*
%TD*%
D40*
%TO.P,Q8,1,B*%
%TO.N,N/C*%
X75097500Y-135720000D03*
%TO.P,Q8,2,E*%
X75097500Y-133820000D03*
%TO.P,Q8,3,C*%
X76972500Y-134770000D03*
%TD*%
D34*
%TO.P,R169,1*%
%TO.N,N/C*%
X129667500Y-96740000D03*
%TO.P,R169,2*%
X132592500Y-96740000D03*
%TD*%
D39*
%TO.P,R118,1*%
%TO.N,N/C*%
X165360000Y-104880000D03*
%TO.P,R118,2*%
X162435000Y-104880000D03*
%TD*%
D37*
%TO.P,R147,1*%
%TO.N,N/C*%
X184435000Y-122065000D03*
%TO.P,R147,2*%
X184435000Y-119140000D03*
%TD*%
D34*
%TO.P,R109,1*%
%TO.N,N/C*%
X45510000Y-103220000D03*
%TO.P,R109,2*%
X48435000Y-103220000D03*
%TD*%
%TO.P,R159,1*%
%TO.N,N/C*%
X129667500Y-109220000D03*
%TO.P,R159,2*%
X132592500Y-109220000D03*
%TD*%
D43*
%TO.N,*%
X205435000Y-112720000D03*
X85235000Y-129920000D03*
X196935000Y-108220000D03*
X151435000Y-101220000D03*
X136935000Y-89720000D03*
X214435000Y-135220000D03*
X203935000Y-139720000D03*
X127935000Y-97720000D03*
X211935000Y-88720000D03*
X215935000Y-113220000D03*
X202935000Y-93220000D03*
X214935000Y-88720000D03*
X193935000Y-108220000D03*
X208435000Y-129720000D03*
X148435000Y-101220000D03*
X90935000Y-127220000D03*
X193935000Y-114220000D03*
X200235000Y-114220000D03*
X80935000Y-139220000D03*
X148435000Y-93720000D03*
X146085000Y-121820000D03*
X96685000Y-121720000D03*
X133685000Y-94220000D03*
X215935000Y-129220000D03*
X203935000Y-123220000D03*
X214435000Y-127720000D03*
X144685000Y-112470000D03*
X45635000Y-99120000D03*
X206935000Y-129220000D03*
X195435000Y-91720000D03*
X203435000Y-108220000D03*
X211435000Y-123220000D03*
X127935000Y-110220000D03*
X206935000Y-138220000D03*
X205435000Y-129220000D03*
X196935000Y-111220000D03*
X214435000Y-108720000D03*
X196935000Y-93220000D03*
X127185000Y-112720000D03*
X203935000Y-138220000D03*
X214935000Y-93220000D03*
X196930757Y-88713820D03*
X151435000Y-91220000D03*
X118935000Y-100720000D03*
X214435000Y-130720000D03*
X205435000Y-130720000D03*
X203935000Y-118720000D03*
X68935000Y-94220000D03*
X212935000Y-113220000D03*
X151435000Y-105720000D03*
X215935000Y-138220000D03*
X198456582Y-93219260D03*
X212935000Y-111720000D03*
X205435000Y-111220000D03*
X45635000Y-100270000D03*
X215935000Y-107220000D03*
X214435000Y-121720000D03*
X101185000Y-126220000D03*
X215935000Y-108720000D03*
X95935000Y-122470000D03*
X192435000Y-109720000D03*
X84935000Y-94720000D03*
X101185000Y-125220000D03*
X214435000Y-117720000D03*
X215935000Y-110220000D03*
X212935000Y-121720000D03*
X214435000Y-126220000D03*
X214435000Y-113220000D03*
X127935000Y-105220000D03*
X146935000Y-105720000D03*
X214435000Y-129220000D03*
X212935000Y-130720000D03*
X147935000Y-103720000D03*
X163935000Y-89880000D03*
X120935000Y-90220000D03*
X57435000Y-140220000D03*
X67435000Y-94220000D03*
X195435000Y-88720000D03*
X52635000Y-98020000D03*
X192435000Y-105220000D03*
X203935000Y-136720000D03*
X85935000Y-94720000D03*
X214435000Y-123220000D03*
X203935000Y-109720000D03*
X39935000Y-96720000D03*
X199535000Y-117920000D03*
X85235000Y-130920000D03*
X151435000Y-98720000D03*
X119935000Y-96720000D03*
X211435000Y-120220000D03*
X196935000Y-112720000D03*
X151435000Y-137219999D03*
X212935000Y-110220000D03*
X201435000Y-93220000D03*
X203435000Y-114220000D03*
X163935000Y-104880000D03*
X193935000Y-106720000D03*
X196935000Y-109720000D03*
X205435000Y-124720000D03*
X214435000Y-124720000D03*
X215935000Y-123220000D03*
X205435000Y-115720000D03*
X205435000Y-138220000D03*
X201289975Y-112716816D03*
X203935000Y-120220000D03*
X215935000Y-139720000D03*
X196935000Y-90220000D03*
X120879711Y-94864711D03*
X147935000Y-129070000D03*
X211435000Y-121720000D03*
X192435000Y-118720000D03*
X211435000Y-107220000D03*
X205435000Y-118720000D03*
X105435000Y-96720000D03*
X148435000Y-98720000D03*
X56935000Y-124220000D03*
X212935000Y-114720000D03*
X192435000Y-120220000D03*
X215935000Y-126220000D03*
X192435000Y-114220000D03*
X214435000Y-139720000D03*
X214435000Y-136720000D03*
X205435000Y-127720000D03*
X214435000Y-114720000D03*
X119935000Y-107470000D03*
X195435000Y-114220000D03*
X127935000Y-100220000D03*
X199735000Y-112870000D03*
X190935000Y-109720000D03*
X212935000Y-132220000D03*
X192435000Y-121720000D03*
X212935000Y-139720000D03*
X215935000Y-127720000D03*
X97185000Y-107720000D03*
X154335000Y-134520000D03*
X212935000Y-136720000D03*
X203935000Y-133720000D03*
X214435000Y-116220000D03*
X205435000Y-139720000D03*
X141385000Y-133920000D03*
X167385000Y-103370000D03*
X196935000Y-123220000D03*
X205435000Y-133720000D03*
X203935000Y-129220000D03*
X213435000Y-88720000D03*
X212935000Y-117720000D03*
X204435000Y-93220000D03*
X188935000Y-109720000D03*
X203435000Y-117220000D03*
X151435000Y-93720000D03*
X193935000Y-105220000D03*
X214435000Y-111720000D03*
X215935000Y-120220000D03*
X163935000Y-95880000D03*
X133435000Y-129970000D03*
X195435000Y-118720000D03*
X205435000Y-135220000D03*
X127935000Y-102720000D03*
X196935000Y-118720000D03*
X54035000Y-98020000D03*
X212935000Y-126220000D03*
X214435000Y-107220000D03*
X212935000Y-116220000D03*
X215935000Y-114720000D03*
X138685000Y-95470000D03*
X206935000Y-127720000D03*
X193935000Y-115720000D03*
X215935000Y-130720000D03*
X137834400Y-94663000D03*
X212935000Y-107220000D03*
X212935000Y-120220000D03*
X201835000Y-114020000D03*
X163935000Y-92880000D03*
X103935000Y-97220000D03*
X205435000Y-132220000D03*
X215935000Y-117720000D03*
X210435000Y-93220000D03*
X215935000Y-133720000D03*
X192435000Y-112720000D03*
X203935000Y-112720000D03*
X203935000Y-124720000D03*
X146785000Y-129170000D03*
X214435000Y-110220000D03*
X203935000Y-135220000D03*
X195435000Y-90220000D03*
X213435000Y-93220000D03*
X205935000Y-93220000D03*
X48435000Y-96720000D03*
X208935000Y-93220000D03*
X212935000Y-129220000D03*
X210435000Y-88720000D03*
X192435000Y-115720000D03*
X212935000Y-123220000D03*
X180435000Y-138720000D03*
X199935000Y-93220000D03*
X214435000Y-138220000D03*
X193935000Y-118720000D03*
X193935000Y-123220000D03*
X214435000Y-120220000D03*
X192435000Y-111220000D03*
X151435000Y-96220000D03*
X193935000Y-117220000D03*
X203935000Y-130720000D03*
X192435000Y-123220000D03*
X199585000Y-115620000D03*
X130185000Y-127720000D03*
X212935000Y-135220000D03*
X208435000Y-120220000D03*
X73935000Y-130220000D03*
X212935000Y-138220000D03*
X105935000Y-140470000D03*
X211935000Y-93220000D03*
X195435000Y-93220000D03*
X205435000Y-123220000D03*
X215935000Y-135220000D03*
X205435000Y-136720000D03*
X145210000Y-122695000D03*
X215935000Y-111720000D03*
X188935000Y-105220000D03*
X203935000Y-127720000D03*
X212935000Y-108720000D03*
X215935000Y-136720000D03*
X151685000Y-127470000D03*
X108435000Y-140470000D03*
X215935000Y-124720000D03*
X135935000Y-93220000D03*
X203935000Y-132220000D03*
X178954489Y-140200511D03*
X212935000Y-133720000D03*
X203935000Y-111220000D03*
X179935000Y-140220000D03*
X56935000Y-123220000D03*
X212935000Y-127720000D03*
X201235000Y-118220000D03*
X96185000Y-107720000D03*
X91685000Y-127970000D03*
X212935000Y-124720000D03*
X148435000Y-96220000D03*
X214435000Y-133720000D03*
X205435000Y-120220000D03*
X132935000Y-127220000D03*
X205435000Y-121720000D03*
X206935000Y-139720000D03*
X196935000Y-91720000D03*
X148435000Y-90720000D03*
X177935000Y-140220000D03*
X121435000Y-107220000D03*
X163935000Y-98880000D03*
X196935000Y-114220000D03*
X151435000Y-88720000D03*
X215935000Y-116220000D03*
X192435000Y-117220000D03*
X163935000Y-101880000D03*
X127935000Y-107720000D03*
X151455000Y-103700000D03*
X134685000Y-94220000D03*
X208935000Y-88720000D03*
X207435000Y-93220000D03*
X80935000Y-137720000D03*
X119685000Y-98720000D03*
X150935000Y-112720000D03*
X127935000Y-117720000D03*
X73435000Y-131720000D03*
X148435000Y-92220000D03*
X209935000Y-120220000D03*
X195435000Y-108220000D03*
X214435000Y-132220000D03*
X203935000Y-121720000D03*
X215935000Y-132220000D03*
X202371978Y-111862603D03*
X178435000Y-115720000D03*
X127185000Y-115220000D03*
X215935000Y-121720000D03*
X209935000Y-129720000D03*
X211435000Y-124720000D03*
X205435000Y-109720000D03*
X58935000Y-140220000D03*
X206935000Y-120220000D03*
X209935000Y-107220000D03*
%TD*%
D44*
%TO.N,*%
X85235000Y-129920000D02*
X85235000Y-130920000D01*
D45*
X83185000Y-114220000D02*
X84469040Y-115504040D01*
X158890000Y-108940000D02*
X161875000Y-108940000D01*
D44*
X55935000Y-103220000D02*
X57935000Y-105220000D01*
X68602000Y-137917000D02*
X68602000Y-134429978D01*
D46*
X146785000Y-129170000D02*
X146895000Y-129280000D01*
D44*
X83850040Y-128720000D02*
X78935000Y-128720000D01*
D45*
X119435000Y-93915643D02*
X119435000Y-96220000D01*
D44*
X87435000Y-120719416D02*
X87435000Y-120970000D01*
X162992500Y-127240000D02*
X162992500Y-131322500D01*
D45*
X144888520Y-103838520D02*
X144888520Y-107173520D01*
X124262812Y-137109440D02*
X132935000Y-128437252D01*
D44*
X181377500Y-139662500D02*
X180435000Y-138720000D01*
X45635000Y-99770000D02*
X45635000Y-99120000D01*
D45*
X119935000Y-115767849D02*
X122935000Y-112767849D01*
D46*
X160308711Y-122193711D02*
X160308711Y-114946289D01*
D44*
X43935000Y-139000000D02*
X49130000Y-139000000D01*
D45*
X151435000Y-103720000D02*
X147935000Y-103720000D01*
D46*
X146895000Y-139450000D02*
X146895000Y-142180000D01*
D44*
X96972500Y-101470000D02*
X96972500Y-101757500D01*
D45*
X142435000Y-96305000D02*
X145795560Y-99665560D01*
D46*
X182935000Y-129720000D02*
X182935000Y-129889496D01*
D44*
X83637500Y-102500000D02*
X85915000Y-104777500D01*
D45*
X111685000Y-102970000D02*
X111685000Y-101720000D01*
D46*
X87479489Y-119464489D02*
X87479489Y-111226989D01*
D44*
X36935000Y-107220000D02*
X35873969Y-108281031D01*
D46*
X83685000Y-105220000D02*
X79935000Y-105220000D01*
D45*
X43935000Y-96220000D02*
X44935000Y-95220000D01*
D44*
X41435000Y-123220000D02*
X40435000Y-124220000D01*
D45*
X154935000Y-112720000D02*
X154749080Y-112534080D01*
D44*
X93292022Y-96720000D02*
X94792022Y-98220000D01*
D46*
X166885000Y-111670000D02*
X168885000Y-109670000D01*
D44*
X54917022Y-140220000D02*
X55935000Y-139202022D01*
D45*
X157725289Y-115395289D02*
X158890000Y-116560000D01*
X127910289Y-102695289D02*
X122410289Y-102695289D01*
X144435000Y-116085000D02*
X142435000Y-114085000D01*
D44*
X96685000Y-121720000D02*
X95935000Y-122470000D01*
D45*
X155867560Y-117724711D02*
X152935000Y-114792151D01*
D44*
X91297500Y-108570000D02*
X91297500Y-109420000D01*
X39935000Y-115320000D02*
X43827480Y-111427520D01*
X92185000Y-115220000D02*
X91260000Y-115220000D01*
X164008520Y-129953520D02*
X165935000Y-131880000D01*
X72435000Y-120720000D02*
X70135000Y-118420000D01*
D45*
X151435000Y-105720000D02*
X146935000Y-105720000D01*
D44*
X110165000Y-111720000D02*
X112715000Y-109170000D01*
X41185000Y-106770000D02*
X41527500Y-107112500D01*
X44785000Y-101570000D02*
X46485000Y-101570000D01*
D45*
X133027500Y-96305000D02*
X132592500Y-96740000D01*
D44*
X41835000Y-109020000D02*
X40235000Y-107420000D01*
X52228648Y-130512480D02*
X73642520Y-130512480D01*
X51435000Y-129718832D02*
X52228648Y-130512480D01*
X93172500Y-107620000D02*
X93672500Y-107620000D01*
X82462022Y-116220000D02*
X83435000Y-117192978D01*
D45*
X142635000Y-134020000D02*
X141435000Y-135220000D01*
D44*
X45155000Y-109020000D02*
X43792500Y-107657500D01*
D45*
X132867500Y-106465000D02*
X132592500Y-106740000D01*
X158890000Y-114020000D02*
X157590000Y-112720000D01*
X82481480Y-139266480D02*
X103247146Y-139266480D01*
D44*
X49130000Y-139000000D02*
X51910000Y-136220000D01*
D45*
X158890000Y-119100000D02*
X157514711Y-117724711D01*
D44*
X72035000Y-111570000D02*
X70165000Y-113440000D01*
D45*
X150435000Y-92220000D02*
X148435000Y-92220000D01*
X131326374Y-134328626D02*
X134935000Y-130720000D01*
D44*
X39327978Y-121720000D02*
X49436168Y-121720000D01*
X81435000Y-116220000D02*
X82462022Y-116220000D01*
D45*
X156350000Y-106400000D02*
X157530000Y-105220000D01*
D46*
X147685000Y-120220000D02*
X150435000Y-120220000D01*
D45*
X134935000Y-130720000D02*
X134935000Y-126220000D01*
X68935000Y-88591840D02*
X68960360Y-88566480D01*
D44*
X99705000Y-101940000D02*
X99705000Y-102412500D01*
X98435000Y-125420000D02*
X100635000Y-123220000D01*
X98417500Y-110952500D02*
X98417500Y-109740000D01*
D45*
X151455000Y-103700000D02*
X151435000Y-103720000D01*
D44*
X83435000Y-117192978D02*
X83435000Y-121720000D01*
X112885000Y-103250000D02*
X111435000Y-104700000D01*
D45*
X127208489Y-123134863D02*
X127208489Y-115243489D01*
X151335000Y-119165000D02*
X156350000Y-124180000D01*
X66935000Y-88138320D02*
X66960360Y-88112960D01*
X118935000Y-94057017D02*
X118935000Y-97220000D01*
X54035000Y-98020000D02*
X56535000Y-95520000D01*
X140207500Y-116625000D02*
X140092500Y-116740000D01*
D44*
X51691449Y-131976449D02*
X49935000Y-130220000D01*
D45*
X145359440Y-107644440D02*
X151783562Y-107644440D01*
X103435000Y-139720000D02*
X105138520Y-138016480D01*
D47*
X157023901Y-121640000D02*
X156350000Y-121640000D01*
D44*
X189435000Y-123220000D02*
X189435000Y-120220000D01*
X63727480Y-136927520D02*
X63910000Y-136745000D01*
D48*
X188435000Y-126220000D02*
X188435000Y-131720000D01*
D46*
X158890000Y-134340000D02*
X160308711Y-132921289D01*
D45*
X136935000Y-89720000D02*
X136870289Y-89784711D01*
D44*
X162992500Y-135277500D02*
X162435000Y-134720000D01*
D45*
X161285000Y-96170000D02*
X161285000Y-94030000D01*
D44*
X107185000Y-123220000D02*
X110435000Y-119970000D01*
X163935000Y-92880000D02*
X165360000Y-92880000D01*
D46*
X179935000Y-132889496D02*
X179935000Y-137720000D01*
D44*
X45380073Y-137220000D02*
X42935000Y-137220000D01*
X49935000Y-124220000D02*
X48935000Y-123220000D01*
D45*
X160831480Y-95920000D02*
X160831480Y-93773520D01*
D44*
X179435000Y-120720000D02*
X181935000Y-120720000D01*
D46*
X146085000Y-121820000D02*
X147685000Y-120220000D01*
D44*
X163935000Y-89880000D02*
X165360000Y-89880000D01*
X100635000Y-123220000D02*
X107185000Y-123220000D01*
D47*
X160385000Y-124820000D02*
X160385000Y-123570000D01*
D45*
X119935000Y-97720000D02*
X122159711Y-99944711D01*
X87935000Y-129720000D02*
X87935000Y-137220000D01*
D44*
X78935000Y-126720000D02*
X78935000Y-123915584D01*
D45*
X110185000Y-104470000D02*
X111685000Y-102970000D01*
X112935000Y-93220000D02*
X112935000Y-96220000D01*
D44*
X70135000Y-118420000D02*
X70135000Y-118000000D01*
X57175458Y-136927520D02*
X63727480Y-136927520D01*
X84935000Y-110220000D02*
X84935000Y-112970000D01*
X83185000Y-100220000D02*
X81185000Y-102220000D01*
D45*
X128778480Y-111063480D02*
X127935000Y-110220000D01*
X128997146Y-124923520D02*
X127208489Y-123134863D01*
X140167500Y-119165000D02*
X140092500Y-119240000D01*
D46*
X95240000Y-127720000D02*
X107130000Y-127720000D01*
D45*
X142435000Y-114085000D02*
X140247500Y-114085000D01*
D44*
X84892520Y-129762480D02*
X85050040Y-129920000D01*
X85685000Y-98470000D02*
X85685000Y-96970000D01*
X83485000Y-97940000D02*
X81765000Y-96220000D01*
D46*
X137167500Y-120702500D02*
X139185000Y-122720000D01*
D45*
X103185000Y-103970000D02*
X103685000Y-104470000D01*
X161535000Y-106520000D02*
X161535000Y-102780000D01*
D44*
X88005980Y-128970000D02*
X111835000Y-128970000D01*
D46*
X161485000Y-126167422D02*
X160308711Y-127343711D01*
D44*
X96589000Y-97374000D02*
X99781000Y-97374000D01*
D45*
X61056120Y-89498880D02*
X115659611Y-89498880D01*
D44*
X184435000Y-125720000D02*
X184435000Y-122065000D01*
D46*
X92935000Y-125415000D02*
X95240000Y-127720000D01*
D45*
X117935000Y-101244626D02*
X119660374Y-102970000D01*
D44*
X68435000Y-105812978D02*
X68435000Y-111740000D01*
X184435000Y-134757500D02*
X184435000Y-131720000D01*
X105215000Y-109270000D02*
X103607000Y-110878000D01*
D45*
X127935000Y-111470000D02*
X126685000Y-110220000D01*
X151783562Y-107644440D02*
X154295560Y-110156438D01*
X44935000Y-95220000D02*
X44935000Y-92720000D01*
D44*
X43935000Y-134440000D02*
X44532500Y-134440000D01*
D45*
X142435000Y-116625000D02*
X140207500Y-116625000D01*
D44*
X185435000Y-128720000D02*
X183935000Y-128720000D01*
D45*
X103935000Y-140720000D02*
X105685000Y-138970000D01*
D44*
X182935000Y-112220000D02*
X182935000Y-101380000D01*
X83435000Y-121720000D02*
X84642520Y-122927520D01*
D45*
X121185000Y-110220000D02*
X119185000Y-108220000D01*
X122159711Y-99944711D02*
X127659711Y-99944711D01*
X119435000Y-98720000D02*
X119685000Y-98720000D01*
X145076374Y-117720000D02*
X144888520Y-117532146D01*
X160964313Y-99549313D02*
X161335000Y-99178626D01*
X134815000Y-109005000D02*
X132807500Y-109005000D01*
D44*
X55935000Y-138167978D02*
X57175458Y-136927520D01*
D45*
X115822105Y-89020000D02*
X120735000Y-93932895D01*
X71657058Y-90405920D02*
X115283903Y-90405920D01*
X161485000Y-93120000D02*
X161485000Y-90820000D01*
D46*
X146895000Y-142180000D02*
X146935000Y-142220000D01*
D44*
X85412520Y-96012480D02*
X95227480Y-96012480D01*
D45*
X127935000Y-102720000D02*
X127910289Y-102695289D01*
D46*
X163585000Y-111670000D02*
X166885000Y-111670000D01*
D45*
X148435000Y-96220000D02*
X151435000Y-96220000D01*
X134435000Y-127578626D02*
X134435000Y-126720000D01*
D44*
X134685000Y-94220000D02*
X133685000Y-94220000D01*
D46*
X137167500Y-92562500D02*
X141110000Y-88620000D01*
D44*
X144935000Y-123720000D02*
X146935000Y-125720000D01*
X186435000Y-127720000D02*
X185435000Y-128720000D01*
D45*
X160440106Y-101782146D02*
X160440106Y-99432146D01*
D46*
X161485000Y-123370000D02*
X161485000Y-126167422D01*
D45*
X132767500Y-111545000D02*
X132592500Y-111720000D01*
X105185000Y-106970000D02*
X102885000Y-109270000D01*
D44*
X81635000Y-121420000D02*
X83935000Y-123720000D01*
D45*
X155826663Y-123015289D02*
X151522854Y-118711480D01*
X153928037Y-120475289D02*
X151672748Y-118220000D01*
D44*
X48256489Y-137720000D02*
X45880073Y-137720000D01*
X57435000Y-136220000D02*
X51910000Y-136220000D01*
D45*
X153315000Y-119100000D02*
X151935000Y-117720000D01*
X152141870Y-106720000D02*
X156350000Y-110928130D01*
X115659611Y-89498880D02*
X120035000Y-93874269D01*
X87435000Y-130220000D02*
X87435000Y-137720000D01*
X128935000Y-128970000D02*
X130185000Y-127720000D01*
X128778480Y-106876520D02*
X127935000Y-107720000D01*
X114739000Y-98690000D02*
X121435000Y-105386000D01*
X121435000Y-128970000D02*
X128935000Y-128970000D01*
X154295560Y-113580560D02*
X154735000Y-114020000D01*
X105435000Y-96720000D02*
X106108022Y-96720000D01*
D44*
X48417500Y-110329522D02*
X48417500Y-109702500D01*
D45*
X121370289Y-89784711D02*
X120935000Y-90220000D01*
X131435000Y-127220000D02*
X129770289Y-125555289D01*
X151595708Y-108097960D02*
X153842040Y-110344292D01*
X157635000Y-100927849D02*
X158592849Y-99970000D01*
X102842040Y-138812960D02*
X104545560Y-137109440D01*
X142435000Y-98845000D02*
X140487500Y-98845000D01*
D44*
X86185000Y-114220000D02*
X86185000Y-119469416D01*
X186435000Y-112800000D02*
X184855000Y-111220000D01*
X97560000Y-112940000D02*
X97155000Y-112940000D01*
X43792500Y-104937500D02*
X45510000Y-103220000D01*
X169437500Y-134720000D02*
X165917500Y-138240000D01*
X182455000Y-136737500D02*
X184435000Y-134757500D01*
D45*
X148935000Y-113470000D02*
X150185000Y-113470000D01*
D46*
X154185000Y-123970000D02*
X154185000Y-132220000D01*
D44*
X40288511Y-110573511D02*
X39435000Y-109720000D01*
D45*
X122935000Y-112720000D02*
X127185000Y-112720000D01*
D44*
X110935000Y-105970000D02*
X105364020Y-105970000D01*
D45*
X122935000Y-112767849D02*
X122935000Y-112720000D01*
D44*
X163935000Y-95880000D02*
X165360000Y-95880000D01*
X47546489Y-110573511D02*
X40288511Y-110573511D01*
D45*
X119935000Y-123220000D02*
X119935000Y-115767849D01*
D44*
X40235000Y-101720000D02*
X40235000Y-105757500D01*
D46*
X86202500Y-107990000D02*
X85915000Y-107702500D01*
D45*
X160627960Y-104327040D02*
X160627960Y-102235666D01*
D46*
X146895000Y-130630000D02*
X146895000Y-139450000D01*
D44*
X83485000Y-97940000D02*
X85412520Y-96012480D01*
X59935000Y-133712978D02*
X59935000Y-134822022D01*
X96685000Y-121720000D02*
X97435000Y-120970000D01*
D45*
X85795560Y-90859440D02*
X115096049Y-90859440D01*
D44*
X71329055Y-131976449D02*
X51691449Y-131976449D01*
X106785000Y-111720000D02*
X110165000Y-111720000D01*
D45*
X144888520Y-107173520D02*
X145359440Y-107644440D01*
X113935000Y-97220000D02*
X114685000Y-97220000D01*
D44*
X166937500Y-139720000D02*
X165917500Y-140740000D01*
X81505980Y-107970000D02*
X83765520Y-110229540D01*
D46*
X73630000Y-128220000D02*
X76435000Y-125415000D01*
D45*
X136870289Y-89784711D02*
X121370289Y-89784711D01*
X148435000Y-93720000D02*
X151435000Y-93720000D01*
X142435000Y-119165000D02*
X140167500Y-119165000D01*
X111935000Y-92220000D02*
X112935000Y-93220000D01*
D44*
X99435000Y-104220000D02*
X99435000Y-107470000D01*
X48807978Y-110720000D02*
X48417500Y-110329522D01*
D45*
X144685000Y-112470000D02*
X145435000Y-111720000D01*
D44*
X83935000Y-123720000D02*
X83935000Y-127220000D01*
D45*
X134815000Y-98845000D02*
X132987500Y-98845000D01*
D44*
X189840316Y-119016480D02*
X187638520Y-119016480D01*
D45*
X124638520Y-138016480D02*
X131935000Y-130720000D01*
X112185000Y-101220000D02*
X114435000Y-101220000D01*
X145342040Y-106627040D02*
X145342040Y-101752040D01*
X85935000Y-121220000D02*
X85935000Y-127720000D01*
X118435000Y-107470000D02*
X119935000Y-107470000D01*
X119185000Y-108220000D02*
X116872854Y-108220000D01*
X105435000Y-138470000D02*
X125043626Y-138470000D01*
D47*
X140645000Y-133180000D02*
X141385000Y-133920000D01*
D44*
X90935000Y-124412978D02*
X90935000Y-127220000D01*
X48417500Y-109702500D02*
X47546489Y-110573511D01*
D45*
X109435000Y-92220000D02*
X111935000Y-92220000D01*
X120435000Y-123720000D02*
X119935000Y-123220000D01*
D44*
X101185000Y-126220000D02*
X101185000Y-125220000D01*
D46*
X139185000Y-122720000D02*
X145185000Y-122720000D01*
D44*
X43827480Y-111427520D02*
X54857480Y-111427520D01*
X46885000Y-104347500D02*
X45492500Y-105740000D01*
D45*
X76009640Y-89045360D02*
X76035000Y-89020000D01*
X158890000Y-103332252D02*
X160440106Y-101782146D01*
X159986586Y-99218414D02*
X160381480Y-98823520D01*
X73252500Y-138200000D02*
X73252500Y-138358479D01*
D46*
X149435000Y-139219999D02*
X151435000Y-137219999D01*
D44*
X75097500Y-135720000D02*
X76177500Y-136800000D01*
D45*
X53361511Y-98746511D02*
X54335932Y-98746511D01*
X120750289Y-92535289D02*
X127750289Y-92535289D01*
D46*
X160308711Y-132921289D02*
X160308711Y-127343711D01*
D45*
X85223040Y-128008040D02*
X87435000Y-130220000D01*
X151672748Y-118220000D02*
X144935000Y-118220000D01*
X151435000Y-88720000D02*
X149435000Y-90720000D01*
D44*
X99185000Y-111720000D02*
X98417500Y-110952500D01*
X76935000Y-106720000D02*
X78185000Y-107970000D01*
X75335000Y-115720000D02*
X75335000Y-119315000D01*
X79935000Y-110250073D02*
X79935000Y-114720000D01*
X95227480Y-96012480D02*
X96589000Y-97374000D01*
X163935000Y-98880000D02*
X165360000Y-98880000D01*
X70165000Y-113440000D02*
X70135000Y-113440000D01*
X130935000Y-123720000D02*
X144935000Y-123720000D01*
X39119874Y-122512480D02*
X49228064Y-122512480D01*
D45*
X127935000Y-117720000D02*
X127935000Y-111470000D01*
X146435000Y-106720000D02*
X152141870Y-106720000D01*
X113435000Y-95220000D02*
X118935000Y-100720000D01*
X160279711Y-107775289D02*
X161535000Y-106520000D01*
D47*
X94518980Y-110866480D02*
X96538520Y-110866480D01*
D45*
X116685000Y-105720000D02*
X118435000Y-107470000D01*
D44*
X40435000Y-124220000D02*
X40435000Y-130940000D01*
X68602000Y-134429978D02*
X67563511Y-133391489D01*
X59537022Y-135220000D02*
X58435000Y-135220000D01*
D45*
X73435000Y-139470000D02*
X74685000Y-140720000D01*
X71915000Y-107720000D02*
X76185000Y-107720000D01*
X66960360Y-88112960D02*
X116327960Y-88112960D01*
D44*
X138685000Y-95470000D02*
X139435000Y-95470000D01*
X97335000Y-99570000D02*
X99705000Y-101940000D01*
X81185000Y-102220000D02*
X81185000Y-102557022D01*
D45*
X80935000Y-137720000D02*
X82481480Y-139266480D01*
X119481480Y-124518631D02*
X120435000Y-125472151D01*
D48*
X190435000Y-126220000D02*
X190455000Y-126220000D01*
D45*
X145405920Y-106690920D02*
X145342040Y-106627040D01*
D44*
X94997500Y-102014522D02*
X94997500Y-100620000D01*
D45*
X134815000Y-101385000D02*
X132947500Y-101385000D01*
D49*
X184855000Y-107800000D02*
X185435000Y-107220000D01*
D45*
X125185000Y-138970000D02*
X128935000Y-135220000D01*
X157725289Y-123015289D02*
X155826663Y-123015289D01*
D50*
X189935000Y-133720000D02*
X194435000Y-133720000D01*
D44*
X78685000Y-103220000D02*
X77935000Y-103970000D01*
X184435000Y-113720000D02*
X182935000Y-112220000D01*
X187231480Y-128923520D02*
X187181489Y-128873529D01*
D45*
X146535000Y-127820000D02*
X142635000Y-131720000D01*
D44*
X111835000Y-128970000D02*
X115385000Y-125420000D01*
X85685000Y-96970000D02*
X85935000Y-96720000D01*
D45*
X134815000Y-116625000D02*
X132707500Y-116625000D01*
X102885000Y-109270000D02*
X100655000Y-109270000D01*
X82435000Y-110720000D02*
X83185000Y-111470000D01*
D46*
X144545000Y-128110000D02*
X142310000Y-128110000D01*
D44*
X49935000Y-130220000D02*
X49935000Y-124220000D01*
X105435000Y-111720000D02*
X99185000Y-111720000D01*
D46*
X59435000Y-125415000D02*
X59435000Y-106720000D01*
X145185000Y-122720000D02*
X145210000Y-122695000D01*
D45*
X140287500Y-111545000D02*
X140092500Y-111740000D01*
D44*
X68435000Y-111740000D02*
X70135000Y-113440000D01*
X67488511Y-115353511D02*
X70135000Y-118000000D01*
D45*
X120735000Y-93932895D02*
X120735000Y-94720000D01*
D44*
X75097500Y-132557500D02*
X75097500Y-133820000D01*
X129667500Y-96740000D02*
X129667500Y-119240000D01*
D45*
X144435000Y-107720000D02*
X144812960Y-108097960D01*
X134935000Y-126220000D02*
X133185000Y-124470000D01*
X145935000Y-107190920D02*
X145435000Y-106690920D01*
D46*
X154230000Y-132220000D02*
X156350000Y-134340000D01*
D44*
X105364020Y-105970000D02*
X103864020Y-107470000D01*
X83935000Y-127220000D02*
X83435000Y-127720000D01*
D45*
X117935000Y-98220000D02*
X117935000Y-94339765D01*
X102295560Y-138359440D02*
X103999080Y-136655920D01*
X87435000Y-137720000D02*
X88527960Y-138812960D01*
D44*
X73252500Y-138200000D02*
X73252500Y-137507500D01*
D45*
X161335000Y-96980000D02*
X162435000Y-95880000D01*
D44*
X80905000Y-97940000D02*
X82185000Y-99220000D01*
X99185000Y-107720000D02*
X97185000Y-107720000D01*
D45*
X106108022Y-96720000D02*
X107935000Y-94893022D01*
D44*
X178435000Y-119720000D02*
X179435000Y-120720000D01*
D45*
X142435000Y-101385000D02*
X144888520Y-103838520D01*
D44*
X111435000Y-104700000D02*
X111435000Y-105470000D01*
D45*
X151971416Y-107190920D02*
X145935000Y-107190920D01*
X159835000Y-99970000D02*
X159986586Y-99818414D01*
D44*
X182455000Y-139662500D02*
X181377500Y-139662500D01*
X37435000Y-125415000D02*
X37435000Y-136520000D01*
X99433520Y-110468520D02*
X99433520Y-107968520D01*
D45*
X151335000Y-127820000D02*
X146535000Y-127820000D01*
D47*
X157537711Y-134917289D02*
X157537711Y-133617289D01*
X140645000Y-129210000D02*
X140645000Y-128985000D01*
D44*
X72935000Y-131220000D02*
X73435000Y-131720000D01*
D45*
X70135000Y-105940000D02*
X71915000Y-107720000D01*
D46*
X178954489Y-139239489D02*
X178954489Y-138700511D01*
D44*
X70655000Y-110500000D02*
X72435000Y-108720000D01*
X101005000Y-117500000D02*
X102935000Y-115570000D01*
X90935000Y-127220000D02*
X91685000Y-127970000D01*
D45*
X145435000Y-111720000D02*
X147185000Y-111720000D01*
D44*
X71935000Y-133582978D02*
X71935000Y-134720000D01*
X79096407Y-109411480D02*
X79935000Y-110250073D01*
X185435000Y-117220000D02*
X186435000Y-116220000D01*
D45*
X140487500Y-98845000D02*
X140092500Y-99240000D01*
X160835000Y-96620000D02*
X161285000Y-96170000D01*
X149435000Y-90720000D02*
X148435000Y-90720000D01*
X142435000Y-106465000D02*
X140367500Y-106465000D01*
D47*
X140645000Y-129210000D02*
X140645000Y-133180000D01*
D46*
X136685000Y-93970000D02*
X137167500Y-93487500D01*
D44*
X96972500Y-101757500D02*
X99435000Y-104220000D01*
D45*
X128778480Y-124063480D02*
X128778480Y-111063480D01*
D48*
X188435000Y-131720000D02*
X186435000Y-133720000D01*
D44*
X141435000Y-93470000D02*
X145977952Y-93470000D01*
X182935000Y-117720000D02*
X183435000Y-117220000D01*
D50*
X189935000Y-133720000D02*
X189935000Y-142720000D01*
D44*
X94792022Y-98220000D02*
X98437500Y-98220000D01*
X138060000Y-94845000D02*
X138685000Y-95470000D01*
D46*
X59435000Y-125415000D02*
X62240000Y-128220000D01*
D45*
X142435000Y-103925000D02*
X140407500Y-103925000D01*
X125043626Y-138470000D02*
X129185000Y-134328626D01*
D46*
X137167500Y-96740000D02*
X137167500Y-119240000D01*
D45*
X84935000Y-91720000D02*
X85795560Y-90859440D01*
D44*
X84935000Y-112970000D02*
X86185000Y-114220000D01*
X47435000Y-125415000D02*
X48256489Y-126236489D01*
X190705000Y-119881164D02*
X189840316Y-119016480D01*
X110435000Y-119970000D02*
X110435000Y-115470000D01*
D45*
X76185000Y-107720000D02*
X77185000Y-108720000D01*
X105685000Y-138970000D02*
X125185000Y-138970000D01*
X161081480Y-105623520D02*
X161081480Y-102423520D01*
X151220000Y-109005000D02*
X142435000Y-109005000D01*
D47*
X159642711Y-122827711D02*
X158211612Y-122827711D01*
D44*
X183435000Y-117220000D02*
X185435000Y-117220000D01*
D48*
X190455000Y-126220000D02*
X195455000Y-121220000D01*
D44*
X67488511Y-111573511D02*
X67488511Y-115353511D01*
X45880073Y-137720000D02*
X45380073Y-137220000D01*
X187181489Y-128873529D02*
X187181489Y-125473511D01*
D45*
X151935000Y-117720000D02*
X145076374Y-117720000D01*
X128778480Y-97501329D02*
X128778480Y-106876520D01*
X144812960Y-108097960D02*
X151595708Y-108097960D01*
D44*
X49228064Y-122512480D02*
X50642520Y-123926936D01*
X173935000Y-134720000D02*
X169437500Y-134720000D01*
D47*
X159735000Y-125470000D02*
X160385000Y-124820000D01*
D45*
X109901480Y-107423520D02*
X115435000Y-107423520D01*
X56563160Y-88591840D02*
X68935000Y-88591840D01*
D44*
X60952500Y-103200000D02*
X59955000Y-103200000D01*
X48417500Y-109702500D02*
X48417500Y-105740000D01*
D45*
X73252500Y-138358479D02*
X73435000Y-138540979D01*
D44*
X42935000Y-137220000D02*
X41935000Y-138220000D01*
D45*
X154749080Y-109968584D02*
X151971416Y-107190920D01*
D44*
X91297500Y-109420000D02*
X90767500Y-109950000D01*
X103377000Y-100970000D02*
X99781000Y-97374000D01*
X43792500Y-107112500D02*
X43792500Y-106327500D01*
D45*
X144888520Y-117532146D02*
X144888520Y-113998520D01*
D44*
X189435000Y-115720000D02*
X189435000Y-116978000D01*
X186435000Y-116220000D02*
X186435000Y-112800000D01*
D45*
X161335000Y-99178626D02*
X161335000Y-96980000D01*
D44*
X162992500Y-131322500D02*
X162435000Y-131880000D01*
X99435000Y-107470000D02*
X99185000Y-107720000D01*
D45*
X114908195Y-91312960D02*
X86842040Y-91312960D01*
X103638520Y-140266480D02*
X105435000Y-138470000D01*
X115622854Y-106970000D02*
X105185000Y-106970000D01*
D44*
X56935000Y-123220000D02*
X56935000Y-124220000D01*
X55935000Y-139202022D02*
X55935000Y-138167978D01*
D46*
X146935000Y-125720000D02*
X152435000Y-125720000D01*
D44*
X190705000Y-120220000D02*
X190705000Y-119881164D01*
D45*
X84469040Y-119754040D02*
X85935000Y-121220000D01*
D44*
X162992500Y-140740000D02*
X164901480Y-138831020D01*
D45*
X150185000Y-113470000D02*
X150935000Y-112720000D01*
X157530000Y-105220000D02*
X159735000Y-105220000D01*
X104950666Y-137562960D02*
X124450666Y-137562960D01*
X157725289Y-120475289D02*
X153928037Y-120475289D01*
X140527500Y-96305000D02*
X140092500Y-96740000D01*
D44*
X36581489Y-118973511D02*
X39327978Y-121720000D01*
X182935000Y-101380000D02*
X180935000Y-99380000D01*
X42135000Y-104220000D02*
X44785000Y-101570000D01*
D45*
X158890000Y-103860000D02*
X158890000Y-103332252D01*
D44*
X73252500Y-137507500D02*
X70210000Y-134465000D01*
X78935000Y-128720000D02*
X75097500Y-132557500D01*
D45*
X134815000Y-103925000D02*
X132907500Y-103925000D01*
D44*
X164901480Y-135753520D02*
X165935000Y-134720000D01*
X79935000Y-127720000D02*
X78935000Y-126720000D01*
X111435000Y-105470000D02*
X110935000Y-105970000D01*
D45*
X133185000Y-124470000D02*
X129185000Y-124470000D01*
D44*
X48935000Y-123220000D02*
X41435000Y-123220000D01*
X105185000Y-125220000D02*
X105385000Y-125420000D01*
X76177500Y-136800000D02*
X76177500Y-138200000D01*
X50642520Y-129926936D02*
X51935584Y-131220000D01*
D45*
X153388520Y-110532146D02*
X153388520Y-114604297D01*
D44*
X81765000Y-96220000D02*
X77935000Y-96220000D01*
D45*
X132935000Y-128437252D02*
X132935000Y-127220000D01*
X154735000Y-114020000D02*
X156350000Y-114020000D01*
D44*
X79135000Y-97940000D02*
X80905000Y-97940000D01*
D45*
X114685000Y-97220000D02*
X117935000Y-100470000D01*
X129185000Y-134328626D02*
X131326374Y-134328626D01*
X85935000Y-127720000D02*
X87935000Y-129720000D01*
D44*
X147581489Y-90011489D02*
X146190000Y-88620000D01*
D45*
X56535000Y-95520000D02*
X56535000Y-92720000D01*
X132947500Y-101385000D02*
X132592500Y-101740000D01*
X162435000Y-104880000D02*
X162435000Y-108380000D01*
X121222849Y-123720000D02*
X120435000Y-123720000D01*
D44*
X36581489Y-110593511D02*
X36581489Y-118973511D01*
X99843000Y-110878000D02*
X99433520Y-110468520D01*
X80522022Y-103220000D02*
X78685000Y-103220000D01*
X182935000Y-119720000D02*
X182935000Y-117720000D01*
D46*
X137167500Y-96740000D02*
X136685000Y-96257500D01*
D45*
X103728489Y-92593489D02*
X104555498Y-91766480D01*
X82435000Y-109720000D02*
X82435000Y-110720000D01*
X142435000Y-103925000D02*
X144435000Y-105925000D01*
X140407500Y-103925000D02*
X140092500Y-104240000D01*
D46*
X137167500Y-119240000D02*
X137167500Y-120702500D01*
D45*
X134815000Y-106465000D02*
X132867500Y-106465000D01*
D44*
X46885000Y-101970000D02*
X46885000Y-104347500D01*
D47*
X96538520Y-110866480D02*
X97185000Y-110220000D01*
D45*
X103185000Y-101969416D02*
X103185000Y-103970000D01*
D44*
X74935000Y-137720000D02*
X74935000Y-139220000D01*
D47*
X156835000Y-135620000D02*
X157537711Y-134917289D01*
D46*
X147935000Y-129070000D02*
X146895000Y-130110000D01*
D44*
X49715000Y-109020000D02*
X51193511Y-107541489D01*
X83485000Y-102500000D02*
X83637500Y-102500000D01*
X70210000Y-139025000D02*
X69710000Y-139025000D01*
D45*
X119481480Y-111470000D02*
X119481480Y-124518631D01*
D44*
X58935000Y-140220000D02*
X58210000Y-139495000D01*
X42185000Y-99770000D02*
X40235000Y-101720000D01*
D45*
X158890000Y-124180000D02*
X157725289Y-123015289D01*
D44*
X54910000Y-115395000D02*
X54910000Y-121195000D01*
X76972500Y-134770000D02*
X74122606Y-134770000D01*
X72835000Y-99720000D02*
X76935000Y-103820000D01*
X179381489Y-126666489D02*
X180435000Y-127720000D01*
D45*
X156350000Y-110928130D02*
X156350000Y-111480000D01*
D44*
X180955000Y-122082500D02*
X179381489Y-123656011D01*
D45*
X85935000Y-92220000D02*
X85935000Y-94720000D01*
D44*
X129685000Y-119257500D02*
X129685000Y-122470000D01*
X51935584Y-131220000D02*
X72935000Y-131220000D01*
X72685000Y-109720000D02*
X72035000Y-110370000D01*
D45*
X103685000Y-104470000D02*
X110185000Y-104470000D01*
X120035000Y-93874269D02*
X120035000Y-95420000D01*
X155344223Y-116560000D02*
X156350000Y-116560000D01*
X75981480Y-140266480D02*
X103638520Y-140266480D01*
X134815000Y-114085000D02*
X132747500Y-114085000D01*
D47*
X155435000Y-135620000D02*
X156835000Y-135620000D01*
D45*
X131935000Y-130720000D02*
X132685000Y-130720000D01*
D44*
X46485000Y-101570000D02*
X46885000Y-101970000D01*
X51505000Y-110720000D02*
X48807978Y-110720000D01*
X42215000Y-109020000D02*
X41835000Y-109020000D01*
D45*
X132685000Y-130720000D02*
X133435000Y-129970000D01*
X145795560Y-106080560D02*
X146435000Y-106720000D01*
D46*
X93435000Y-125420000D02*
X87479489Y-119464489D01*
D44*
X102935000Y-115570000D02*
X106785000Y-111720000D01*
X42435000Y-140220000D02*
X54917022Y-140220000D01*
X163935000Y-101880000D02*
X165360000Y-101880000D01*
X58160000Y-139495000D02*
X57435000Y-140220000D01*
D45*
X156350000Y-108940000D02*
X157514711Y-107775289D01*
X142435000Y-96305000D02*
X140527500Y-96305000D01*
X144435000Y-117720000D02*
X144435000Y-116085000D01*
D44*
X180435000Y-127720000D02*
X181435000Y-127720000D01*
X44532500Y-134440000D02*
X46755000Y-136662500D01*
D45*
X127750289Y-92535289D02*
X128435000Y-93220000D01*
D44*
X85935000Y-96720000D02*
X93292022Y-96720000D01*
D47*
X158211612Y-122827711D02*
X157023901Y-121640000D01*
D44*
X84935000Y-99220000D02*
X85685000Y-98470000D01*
D45*
X160835000Y-99037252D02*
X160835000Y-96620000D01*
D46*
X177935000Y-140220000D02*
X178954489Y-139200511D01*
X168885000Y-104870000D02*
X167385000Y-103370000D01*
D45*
X116685000Y-103470000D02*
X116685000Y-105720000D01*
X134815000Y-111545000D02*
X132767500Y-111545000D01*
X84015520Y-115820520D02*
X84015520Y-120050520D01*
D44*
X78185000Y-107970000D02*
X81505980Y-107970000D01*
D45*
X60209640Y-89045360D02*
X76009640Y-89045360D01*
D44*
X77435000Y-96720000D02*
X77435000Y-100300000D01*
D45*
X85223040Y-121258040D02*
X85223040Y-128008040D01*
X119660374Y-102970000D02*
X120185000Y-102970000D01*
D44*
X162992500Y-124740000D02*
X164008520Y-125756020D01*
X43792500Y-106327500D02*
X43792500Y-104937500D01*
D47*
X157585000Y-125820000D02*
X157935000Y-125470000D01*
D45*
X129185000Y-124470000D02*
X128778480Y-124063480D01*
D44*
X59935000Y-134822022D02*
X59537022Y-135220000D01*
D45*
X118435000Y-94198391D02*
X118435000Y-97720000D01*
X67435000Y-94220000D02*
X67435000Y-93986604D01*
D44*
X84642520Y-129512480D02*
X84892520Y-129762480D01*
D45*
X79685000Y-108720000D02*
X80185000Y-109220000D01*
X80185000Y-109220000D02*
X81935000Y-109220000D01*
X67435000Y-93986604D02*
X71469204Y-89952400D01*
D44*
X166937500Y-123720000D02*
X173935000Y-123720000D01*
D45*
X153388520Y-114604297D02*
X155344223Y-116560000D01*
D44*
X63835000Y-108220000D02*
X64135000Y-108220000D01*
D45*
X134435000Y-126720000D02*
X132638520Y-124923520D01*
X113435000Y-93078626D02*
X113435000Y-95220000D01*
D44*
X77435000Y-100300000D02*
X79135000Y-102000000D01*
X72035000Y-110370000D02*
X72035000Y-111570000D01*
X35873969Y-108281031D02*
X35873969Y-119266575D01*
D45*
X120435000Y-127970000D02*
X121435000Y-128970000D01*
X142435000Y-109005000D02*
X140327500Y-109005000D01*
D44*
X86515520Y-127479540D02*
X88005980Y-128970000D01*
D45*
X74685000Y-140720000D02*
X103935000Y-140720000D01*
D46*
X153085000Y-126370000D02*
X153085000Y-135800000D01*
D44*
X81185000Y-102557022D02*
X80522022Y-103220000D01*
D45*
X151435000Y-101220000D02*
X148435000Y-101220000D01*
D44*
X49436168Y-121720000D02*
X51435000Y-123718832D01*
X58210000Y-133940000D02*
X59466031Y-132683969D01*
X54910000Y-121195000D02*
X56935000Y-123220000D01*
D47*
X108435000Y-140470000D02*
X105935000Y-140470000D01*
D44*
X59955000Y-103200000D02*
X57935000Y-105220000D01*
D45*
X84469040Y-115504040D02*
X84469040Y-119754040D01*
D44*
X47435000Y-115320000D02*
X54435000Y-122320000D01*
X83765520Y-110229540D02*
X83765520Y-113800520D01*
D45*
X115096049Y-90859440D02*
X118435000Y-94198391D01*
X122019711Y-97404711D02*
X127619711Y-97404711D01*
D46*
X85915000Y-107702500D02*
X85915000Y-107450000D01*
D44*
X92234522Y-104777500D02*
X85915000Y-104777500D01*
X184435000Y-115560000D02*
X184435000Y-113720000D01*
X74122606Y-134770000D02*
X73722500Y-134369894D01*
D45*
X145435000Y-106690920D02*
X145405920Y-106690920D01*
X68960360Y-88566480D02*
X116009959Y-88566480D01*
D44*
X181935000Y-120720000D02*
X182935000Y-119720000D01*
D45*
X81935000Y-109220000D02*
X82435000Y-109720000D01*
D46*
X85915000Y-107450000D02*
X83685000Y-105220000D01*
D44*
X94997500Y-102014522D02*
X92234522Y-104777500D01*
X181935000Y-128720000D02*
X182935000Y-129720000D01*
D45*
X127935000Y-105220000D02*
X122435000Y-105220000D01*
X84935000Y-94720000D02*
X84935000Y-91720000D01*
D44*
X78935000Y-107220000D02*
X81935000Y-107220000D01*
D45*
X121435000Y-105386000D02*
X121435000Y-107220000D01*
D44*
X173935000Y-128720000D02*
X172455000Y-127240000D01*
X54435000Y-122320000D02*
X54435000Y-125415000D01*
D45*
X134815000Y-96305000D02*
X133027500Y-96305000D01*
X142635000Y-131720000D02*
X142635000Y-134020000D01*
X108155000Y-109170000D02*
X109901480Y-107423520D01*
X148435000Y-98720000D02*
X151435000Y-98720000D01*
D44*
X181435000Y-127720000D02*
X181935000Y-128220000D01*
D45*
X140447500Y-101385000D02*
X140092500Y-101740000D01*
X142435000Y-101385000D02*
X140447500Y-101385000D01*
X113385000Y-98690000D02*
X114739000Y-98690000D01*
X126268672Y-94991521D02*
X128778480Y-97501329D01*
X161875000Y-108940000D02*
X162435000Y-108380000D01*
D44*
X77055500Y-109411480D02*
X79096407Y-109411480D01*
X43792500Y-107657500D02*
X43792500Y-107112500D01*
D45*
X54335932Y-98746511D02*
X57035000Y-96047443D01*
D46*
X179935000Y-137720000D02*
X178954489Y-138700511D01*
D45*
X152935000Y-114792151D02*
X152935000Y-110720000D01*
D44*
X179381489Y-123656011D02*
X179381489Y-126666489D01*
D45*
X103999080Y-136655920D02*
X124074958Y-136655920D01*
D44*
X39435000Y-109720000D02*
X39435000Y-107220000D01*
X50642520Y-123926936D02*
X50642520Y-129926936D01*
X67563511Y-133391489D02*
X60256489Y-133391489D01*
D45*
X107935000Y-93720000D02*
X109435000Y-92220000D01*
X87935000Y-137220000D02*
X89074440Y-138359440D01*
D44*
X184435000Y-131720000D02*
X187231480Y-128923520D01*
X37655000Y-109020000D02*
X37655000Y-109520000D01*
D46*
X87479489Y-111226989D02*
X86202500Y-109950000D01*
D45*
X140327500Y-109005000D02*
X140092500Y-109240000D01*
D44*
X83435000Y-127720000D02*
X79935000Y-127720000D01*
X189435000Y-116978000D02*
X188193000Y-118220000D01*
X73647500Y-110670000D02*
X78422500Y-110670000D01*
D45*
X129770289Y-125555289D02*
X123058138Y-125555289D01*
X48435000Y-96720000D02*
X56563160Y-88591840D01*
D44*
X77935000Y-103970000D02*
X77935000Y-106220000D01*
D46*
X168885000Y-109670000D02*
X168885000Y-104870000D01*
X62240000Y-128220000D02*
X73630000Y-128220000D01*
X137167500Y-93487500D02*
X137167500Y-92562500D01*
D44*
X103864020Y-107470000D02*
X99435000Y-107470000D01*
X54857480Y-111427520D02*
X57190000Y-109095000D01*
X172455000Y-127240000D02*
X165917500Y-127240000D01*
X51435000Y-123718832D02*
X51435000Y-129718832D01*
X97435000Y-120470000D02*
X92185000Y-115220000D01*
D45*
X127208489Y-115243489D02*
X127185000Y-115220000D01*
X161285000Y-94030000D02*
X162435000Y-92880000D01*
D44*
X55636489Y-107541489D02*
X57190000Y-109095000D01*
X139435000Y-95470000D02*
X141435000Y-93470000D01*
X71935000Y-134720000D02*
X74935000Y-137720000D01*
D46*
X153085000Y-135800000D02*
X149435000Y-139450000D01*
D45*
X151522854Y-118711480D02*
X144521480Y-118711480D01*
D44*
X35873969Y-119266575D02*
X39119874Y-122512480D01*
D45*
X161081480Y-102423520D02*
X161435000Y-102070000D01*
D44*
X59466031Y-132683969D02*
X71035991Y-132683969D01*
D49*
X184855000Y-111220000D02*
X184855000Y-107800000D01*
D44*
X81935000Y-107220000D02*
X84935000Y-110220000D01*
D46*
X178954489Y-139200511D02*
X178954489Y-138700511D01*
D45*
X122410289Y-102695289D02*
X117935000Y-98220000D01*
D44*
X181935000Y-128220000D02*
X181935000Y-128720000D01*
D45*
X160305000Y-106400000D02*
X161081480Y-105623520D01*
D46*
X152435000Y-125720000D02*
X153085000Y-126370000D01*
D45*
X162425000Y-89880000D02*
X162435000Y-89880000D01*
D46*
X179935000Y-140220000D02*
X178954489Y-139239489D01*
D44*
X41185000Y-103882500D02*
X41185000Y-106770000D01*
D45*
X71469204Y-89952400D02*
X115471757Y-89952400D01*
D44*
X75522500Y-109720000D02*
X72685000Y-109720000D01*
X98437500Y-98220000D02*
X99705000Y-99487500D01*
X97435000Y-120970000D02*
X97435000Y-120470000D01*
X45635000Y-99770000D02*
X42185000Y-99770000D01*
X95685000Y-111470000D02*
X92287500Y-111470000D01*
X133685000Y-94220000D02*
X132187500Y-94220000D01*
D45*
X81435000Y-139720000D02*
X103435000Y-139720000D01*
D44*
X37435000Y-136520000D02*
X37635000Y-136720000D01*
D45*
X132987500Y-98845000D02*
X132592500Y-99240000D01*
X116009959Y-88566480D02*
X122435000Y-94991521D01*
D47*
X157585000Y-133570000D02*
X157585000Y-125820000D01*
D44*
X107985000Y-109170000D02*
X105435000Y-111720000D01*
X70135000Y-110500000D02*
X70655000Y-110500000D01*
D46*
X86202500Y-109950000D02*
X86202500Y-107990000D01*
D45*
X119435000Y-97720000D02*
X119935000Y-97720000D01*
X154749080Y-112534080D02*
X154749080Y-109968584D01*
D44*
X132187500Y-94220000D02*
X129667500Y-96740000D01*
D46*
X145210000Y-122695000D02*
X146085000Y-121820000D01*
D45*
X159986586Y-99818414D02*
X159986586Y-99218414D01*
X68935000Y-93127978D02*
X71657058Y-90405920D01*
X162275000Y-98880000D02*
X162435000Y-98880000D01*
D44*
X51193511Y-107541489D02*
X55636489Y-107541489D01*
D47*
X140645000Y-128985000D02*
X139770000Y-128110000D01*
X97185000Y-110220000D02*
X97185000Y-107720000D01*
D44*
X188193000Y-118220000D02*
X185355000Y-118220000D01*
D45*
X132807500Y-109005000D02*
X132592500Y-109220000D01*
X126685000Y-110220000D02*
X121185000Y-110220000D01*
D44*
X85049560Y-115084560D02*
X85049560Y-119334560D01*
D45*
X134815000Y-119165000D02*
X132667500Y-119165000D01*
D46*
X180935000Y-115560000D02*
X180935000Y-119137500D01*
D45*
X122435000Y-94991521D02*
X126268672Y-94991521D01*
X114435000Y-101220000D02*
X116685000Y-103470000D01*
D44*
X85050040Y-129920000D02*
X85235000Y-129920000D01*
X187638520Y-119016480D02*
X186435000Y-120220000D01*
D45*
X144435000Y-105925000D02*
X144435000Y-107720000D01*
D44*
X107085000Y-100970000D02*
X103377000Y-100970000D01*
D45*
X127659711Y-99944711D02*
X127935000Y-100220000D01*
D44*
X163935000Y-104880000D02*
X165360000Y-104880000D01*
X81635000Y-110957500D02*
X81417500Y-110740000D01*
D45*
X116327960Y-88112960D02*
X120750289Y-92535289D01*
D44*
X101185000Y-125220000D02*
X105185000Y-125220000D01*
X73722500Y-134369894D02*
X71329055Y-131976449D01*
X42435000Y-129417500D02*
X42435000Y-125415000D01*
D45*
X124074958Y-136655920D02*
X131435000Y-129295878D01*
X117935000Y-100470000D02*
X117935000Y-101244626D01*
D44*
X183935000Y-128720000D02*
X180935000Y-125720000D01*
X86185000Y-119469416D02*
X87435000Y-120719416D01*
X103607000Y-110878000D02*
X99843000Y-110878000D01*
D46*
X160308711Y-114946289D02*
X163585000Y-111670000D01*
D44*
X65822022Y-103200000D02*
X68435000Y-105812978D01*
D46*
X154185000Y-132220000D02*
X154230000Y-132220000D01*
D45*
X77185000Y-108720000D02*
X79685000Y-108720000D01*
X81635000Y-113440000D02*
X84015520Y-115820520D01*
D46*
X178954489Y-140200511D02*
X177954489Y-140200511D01*
D45*
X116872854Y-108220000D02*
X115622854Y-106970000D01*
D46*
X150435000Y-120220000D02*
X154185000Y-123970000D01*
D44*
X40435000Y-130940000D02*
X43935000Y-134440000D01*
D46*
X180935000Y-119137500D02*
X180955000Y-119157500D01*
D44*
X147581489Y-91866463D02*
X147581489Y-90011489D01*
X87435000Y-120970000D02*
X87492022Y-120970000D01*
D46*
X107130000Y-127720000D02*
X109435000Y-125415000D01*
D45*
X144935000Y-118220000D02*
X144435000Y-117720000D01*
D44*
X97155000Y-112940000D02*
X95685000Y-111470000D01*
D45*
X160440106Y-99432146D02*
X160835000Y-99037252D01*
D46*
X146935000Y-125720000D02*
X144545000Y-128110000D01*
D44*
X96972500Y-99570000D02*
X97335000Y-99570000D01*
D45*
X103247146Y-139266480D02*
X104950666Y-137562960D01*
D44*
X97560000Y-117500000D02*
X101005000Y-117500000D01*
X129667500Y-119240000D02*
X129685000Y-119257500D01*
D45*
X145342040Y-101752040D02*
X142435000Y-98845000D01*
D44*
X41935000Y-138220000D02*
X41935000Y-139720000D01*
D45*
X120035000Y-95420000D02*
X122019711Y-97404711D01*
X124450666Y-137562960D02*
X134435000Y-127578626D01*
D47*
X157537711Y-133617289D02*
X157585000Y-133570000D01*
D45*
X142435000Y-119165000D02*
X151335000Y-119165000D01*
X128435000Y-93220000D02*
X135935000Y-93220000D01*
X132747500Y-114085000D02*
X132592500Y-114240000D01*
D44*
X129685000Y-122470000D02*
X130935000Y-123720000D01*
X71435000Y-123320000D02*
X63835000Y-115720000D01*
D45*
X111685000Y-101720000D02*
X112185000Y-101220000D01*
D44*
X83765520Y-113800520D02*
X85049560Y-115084560D01*
D45*
X157514711Y-117724711D02*
X155867560Y-117724711D01*
X144521480Y-118711480D02*
X142435000Y-116625000D01*
D46*
X160308711Y-122193711D02*
X161485000Y-123370000D01*
D44*
X173935000Y-139720000D02*
X166937500Y-139720000D01*
X39435000Y-107220000D02*
X36935000Y-107220000D01*
D45*
X147185000Y-111720000D02*
X148935000Y-113470000D01*
D44*
X178435000Y-115720000D02*
X178435000Y-119720000D01*
D45*
X157635000Y-102575000D02*
X157635000Y-100927849D01*
X107935000Y-94893022D02*
X107935000Y-93720000D01*
X155017329Y-115395289D02*
X157725289Y-115395289D01*
X99705000Y-99487500D02*
X100703084Y-99487500D01*
D44*
X71435000Y-125415000D02*
X71435000Y-123320000D01*
D45*
X52635000Y-98020000D02*
X53361511Y-98746511D01*
X152935000Y-110720000D02*
X151220000Y-109005000D01*
X118435000Y-97720000D02*
X119435000Y-98720000D01*
X80935000Y-139220000D02*
X81435000Y-139720000D01*
D47*
X93172500Y-109520000D02*
X94518980Y-110866480D01*
D44*
X99433520Y-107968520D02*
X99185000Y-107720000D01*
X69710000Y-139025000D02*
X68602000Y-137917000D01*
D45*
X158890000Y-121640000D02*
X157725289Y-120475289D01*
D44*
X37655000Y-109520000D02*
X36581489Y-110593511D01*
D45*
X140367500Y-106465000D02*
X140092500Y-106740000D01*
X160381480Y-96370000D02*
X160831480Y-95920000D01*
D44*
X92287500Y-111470000D02*
X90767500Y-109950000D01*
D45*
X49516680Y-88138320D02*
X66935000Y-88138320D01*
D44*
X76935000Y-103820000D02*
X76935000Y-106720000D01*
D45*
X115471757Y-89952400D02*
X119435000Y-93915643D01*
X86842040Y-91312960D02*
X85935000Y-92220000D01*
X161535000Y-102780000D02*
X162435000Y-101880000D01*
D44*
X40235000Y-107420000D02*
X40235000Y-105757500D01*
X165917500Y-124740000D02*
X166937500Y-123720000D01*
D45*
X156350000Y-103860000D02*
X157635000Y-102575000D01*
X132638520Y-124923520D02*
X128997146Y-124923520D01*
D44*
X85049560Y-119334560D02*
X86515520Y-120800520D01*
X84892520Y-129762480D02*
X83850040Y-128720000D01*
X78422500Y-110670000D02*
X78492500Y-110740000D01*
X52630000Y-109595000D02*
X51505000Y-110720000D01*
X89785000Y-100220000D02*
X83185000Y-100220000D01*
X186435000Y-120220000D02*
X186435000Y-127720000D01*
X60256489Y-133391489D02*
X59935000Y-133712978D01*
D45*
X151407854Y-108551480D02*
X153388520Y-110532146D01*
X123058138Y-125555289D02*
X121222849Y-123720000D01*
D44*
X75335000Y-119315000D02*
X81435000Y-125415000D01*
D46*
X182935000Y-129889496D02*
X179935000Y-132889496D01*
D44*
X79935000Y-114720000D02*
X81435000Y-116220000D01*
X164008520Y-125756020D02*
X164008520Y-129953520D01*
D45*
X153842040Y-114220000D02*
X155017329Y-115395289D01*
D46*
X59435000Y-106720000D02*
X57935000Y-105220000D01*
D45*
X115435000Y-107423520D02*
X119481480Y-111470000D01*
D46*
X146895000Y-130110000D02*
X146895000Y-130630000D01*
X177954489Y-140200511D02*
X177935000Y-140220000D01*
D44*
X108155000Y-109170000D02*
X107985000Y-109170000D01*
D45*
X131435000Y-129295878D02*
X131435000Y-127220000D01*
X57035000Y-96047443D02*
X57035000Y-93520000D01*
D44*
X86515520Y-120800520D02*
X86515520Y-127479540D01*
D45*
X154295560Y-110156438D02*
X154295560Y-113580560D01*
X117935000Y-94339765D02*
X114908195Y-91312960D01*
D44*
X76364020Y-108720000D02*
X77055500Y-109411480D01*
D47*
X157935000Y-125470000D02*
X159735000Y-125470000D01*
D45*
X105138520Y-138016480D02*
X124638520Y-138016480D01*
X104555498Y-91766480D02*
X112122854Y-91766480D01*
D47*
X154335000Y-134520000D02*
X155435000Y-135620000D01*
D44*
X96872500Y-99520000D02*
X97235000Y-99520000D01*
D46*
X146895000Y-129280000D02*
X146895000Y-130630000D01*
D45*
X151685000Y-127470000D02*
X151335000Y-127820000D01*
D44*
X78935000Y-123915584D02*
X75739416Y-120720000D01*
X72435000Y-108720000D02*
X76364020Y-108720000D01*
D45*
X68935000Y-94220000D02*
X68935000Y-93127978D01*
D44*
X64135000Y-108220000D02*
X67488511Y-111573511D01*
X75739416Y-120720000D02*
X72435000Y-120720000D01*
X52630000Y-109095000D02*
X52630000Y-109595000D01*
D45*
X160831480Y-93773520D02*
X161485000Y-93120000D01*
X156350000Y-119100000D02*
X153315000Y-119100000D01*
X103935000Y-97220000D02*
X103728489Y-97013489D01*
D44*
X48435000Y-103220000D02*
X55935000Y-103220000D01*
X73642520Y-130512480D02*
X73935000Y-130220000D01*
D45*
X112122854Y-91766480D02*
X113435000Y-93078626D01*
X132667500Y-119165000D02*
X132592500Y-119240000D01*
D47*
X160385000Y-123570000D02*
X159642711Y-122827711D01*
D44*
X185355000Y-118220000D02*
X184435000Y-119140000D01*
D45*
X112935000Y-96220000D02*
X113935000Y-97220000D01*
D44*
X89127500Y-109950000D02*
X90767500Y-109950000D01*
X145977952Y-93470000D02*
X147581489Y-91866463D01*
D45*
X40435000Y-96220000D02*
X43935000Y-96220000D01*
D44*
X58210000Y-139495000D02*
X58160000Y-139495000D01*
X97185000Y-107720000D02*
X96185000Y-107720000D01*
D45*
X73435000Y-138540979D02*
X73435000Y-139470000D01*
X118935000Y-97220000D02*
X119435000Y-97720000D01*
D44*
X46755000Y-133737500D02*
X42435000Y-129417500D01*
D45*
X161435000Y-102070000D02*
X161435000Y-99720000D01*
D44*
X93672500Y-107620000D02*
X95492500Y-109440000D01*
D45*
X160381480Y-98823520D02*
X160381480Y-96370000D01*
X160964313Y-101899313D02*
X160964313Y-99549313D01*
X44935000Y-92720000D02*
X49516680Y-88138320D01*
X120435000Y-125472151D02*
X120435000Y-127970000D01*
X127619711Y-97404711D02*
X127935000Y-97720000D01*
X161435000Y-99720000D02*
X162275000Y-98880000D01*
D44*
X84642520Y-122927520D02*
X84642520Y-129512480D01*
D45*
X157590000Y-112720000D02*
X154935000Y-112720000D01*
X151435000Y-91220000D02*
X150435000Y-92220000D01*
X161485000Y-90820000D02*
X162425000Y-89880000D01*
X119435000Y-96220000D02*
X119935000Y-96720000D01*
X132707500Y-116625000D02*
X132592500Y-116740000D01*
D44*
X63877500Y-103200000D02*
X65822022Y-103200000D01*
D45*
X39935000Y-96720000D02*
X40435000Y-96220000D01*
X140247500Y-114085000D02*
X140092500Y-114240000D01*
D46*
X178954489Y-138700511D02*
X178954489Y-140200511D01*
D44*
X81635000Y-113440000D02*
X81635000Y-110957500D01*
X164901480Y-138831020D02*
X164901480Y-135753520D01*
X71035991Y-132683969D02*
X71935000Y-133582978D01*
X82185000Y-99220000D02*
X84935000Y-99220000D01*
D45*
X120735000Y-94720000D02*
X120835000Y-94820000D01*
X89074440Y-138359440D02*
X102295560Y-138359440D01*
D44*
X58435000Y-135220000D02*
X57435000Y-136220000D01*
X48256489Y-126236489D02*
X48256489Y-137720000D01*
D45*
X132907500Y-103925000D02*
X132592500Y-104240000D01*
X142435000Y-106465000D02*
X144521480Y-108551480D01*
X57035000Y-93520000D02*
X61056120Y-89498880D01*
X115283903Y-90405920D02*
X118935000Y-94057017D01*
X76035000Y-89020000D02*
X115822105Y-89020000D01*
D44*
X187181489Y-125473511D02*
X189435000Y-123220000D01*
X77935000Y-96220000D02*
X77435000Y-96720000D01*
D45*
X103728489Y-97013489D02*
X103728489Y-92593489D01*
X128935000Y-135220000D02*
X141435000Y-135220000D01*
X104545560Y-137109440D02*
X124262812Y-137109440D01*
X153842040Y-110344292D02*
X153842040Y-114220000D01*
D44*
X87492022Y-120970000D02*
X90935000Y-124412978D01*
X58210000Y-138500000D02*
X58210000Y-139495000D01*
X162992500Y-138240000D02*
X162992500Y-135277500D01*
D45*
X145795560Y-99665560D02*
X145795560Y-106080560D01*
D44*
X41935000Y-139720000D02*
X42435000Y-140220000D01*
D45*
X74935000Y-139220000D02*
X75981480Y-140266480D01*
X160627960Y-102235666D02*
X160964313Y-101899313D01*
D44*
X42135000Y-105757500D02*
X42135000Y-104220000D01*
X81635000Y-118000000D02*
X81635000Y-121420000D01*
D46*
X136685000Y-96257500D02*
X136685000Y-93970000D01*
D44*
X45635000Y-100270000D02*
X45635000Y-99770000D01*
D45*
X158592849Y-99970000D02*
X159835000Y-99970000D01*
X157514711Y-107775289D02*
X160279711Y-107775289D01*
X100703084Y-99487500D02*
X103185000Y-101969416D01*
X158890000Y-106400000D02*
X160305000Y-106400000D01*
X144521480Y-108551480D02*
X151407854Y-108551480D01*
D44*
X41527500Y-107112500D02*
X43792500Y-107112500D01*
D45*
X159735000Y-105220000D02*
X160627960Y-104327040D01*
X84015520Y-120050520D02*
X85223040Y-121258040D01*
X83185000Y-111470000D02*
X83185000Y-114220000D01*
X122435000Y-105220000D02*
X120185000Y-102970000D01*
D44*
X94997500Y-100620000D02*
X95097500Y-100520000D01*
D45*
X142435000Y-111545000D02*
X140287500Y-111545000D01*
D46*
X149435000Y-139450000D02*
X149435000Y-139219999D01*
D44*
X113385000Y-103250000D02*
X112885000Y-103250000D01*
D45*
X144888520Y-113998520D02*
X142435000Y-111545000D01*
D44*
X77935000Y-106220000D02*
X78935000Y-107220000D01*
D45*
X88527960Y-138812960D02*
X102842040Y-138812960D01*
X56535000Y-92720000D02*
X60209640Y-89045360D01*
%TD*%
%TA.AperFunction,NonConductor*%
G36*
X204377121Y-107240002D02*
G01*
X204423614Y-107293658D01*
X204435000Y-107346000D01*
X204435000Y-108720000D01*
X211309000Y-108720000D01*
X211377121Y-108740002D01*
X211423614Y-108793658D01*
X211435000Y-108846000D01*
X211435000Y-113594000D01*
X211414998Y-113662121D01*
X211361342Y-113708614D01*
X211309000Y-113720000D01*
X206435000Y-113720000D01*
X206435000Y-119220000D01*
X216209571Y-119220000D01*
X216277692Y-119240002D01*
X216324185Y-119293658D01*
X216335570Y-119345427D01*
X216352473Y-123064138D01*
X216434343Y-141075309D01*
X216434425Y-141093427D01*
X216414732Y-141161638D01*
X216361289Y-141208375D01*
X216308426Y-141220000D01*
X211331310Y-141220000D01*
X211263189Y-141199998D01*
X211216696Y-141146342D01*
X211206704Y-141075309D01*
X211932313Y-136237915D01*
X211932313Y-136237914D01*
X211935000Y-136220000D01*
X206561000Y-136220000D01*
X206492879Y-136199998D01*
X206446386Y-136146342D01*
X206435000Y-136094000D01*
X206435000Y-131346000D01*
X206455002Y-131277879D01*
X206508658Y-131231386D01*
X206561000Y-131220000D01*
X211935000Y-131220000D01*
X211935000Y-125220000D01*
X198561000Y-125220000D01*
X198492879Y-125199998D01*
X198446386Y-125146342D01*
X198435000Y-125094000D01*
X198435000Y-123132259D01*
X198455002Y-123064138D01*
X198508658Y-123017645D01*
X198578932Y-123007541D01*
X198643512Y-123037035D01*
X198661823Y-123056690D01*
X198677454Y-123077546D01*
X198684635Y-123082928D01*
X198784994Y-123158144D01*
X198784997Y-123158146D01*
X198792176Y-123163526D01*
X198881561Y-123197034D01*
X198919025Y-123211079D01*
X198919027Y-123211079D01*
X198926420Y-123213851D01*
X198934270Y-123214704D01*
X198934271Y-123214704D01*
X198984217Y-123220130D01*
X198987623Y-123220500D01*
X200534773Y-123220500D01*
X202082376Y-123220499D01*
X202085770Y-123220130D01*
X202085776Y-123220130D01*
X202135722Y-123214705D01*
X202135726Y-123214704D01*
X202143580Y-123213851D01*
X202277824Y-123163526D01*
X202285003Y-123158146D01*
X202285006Y-123158144D01*
X202385365Y-123082928D01*
X202392546Y-123077546D01*
X202437440Y-123017645D01*
X202473144Y-122970006D01*
X202473146Y-122970003D01*
X202478526Y-122962824D01*
X202528851Y-122828580D01*
X202535500Y-122767377D01*
X202535499Y-119672624D01*
X202528851Y-119611420D01*
X202478526Y-119477176D01*
X202473146Y-119469997D01*
X202473144Y-119469994D01*
X202397928Y-119369635D01*
X202392546Y-119362454D01*
X202369827Y-119345427D01*
X202285006Y-119281856D01*
X202285003Y-119281854D01*
X202277824Y-119276474D01*
X202188439Y-119242966D01*
X202150975Y-119228921D01*
X202150973Y-119228921D01*
X202143580Y-119226149D01*
X202135730Y-119225296D01*
X202135729Y-119225296D01*
X202085774Y-119219869D01*
X202085773Y-119219869D01*
X202082377Y-119219500D01*
X200535227Y-119219500D01*
X198987624Y-119219501D01*
X198984230Y-119219870D01*
X198984224Y-119219870D01*
X198934278Y-119225295D01*
X198934274Y-119225296D01*
X198926420Y-119226149D01*
X198792176Y-119276474D01*
X198784997Y-119281854D01*
X198784994Y-119281856D01*
X198700173Y-119345427D01*
X198677454Y-119362454D01*
X198661825Y-119383308D01*
X198604966Y-119425822D01*
X198534147Y-119430846D01*
X198471854Y-119396786D01*
X198437864Y-119334455D01*
X198435000Y-119307741D01*
X198435000Y-107346000D01*
X198455002Y-107277879D01*
X198508658Y-107231386D01*
X198561000Y-107220000D01*
X204309000Y-107220000D01*
X204377121Y-107240002D01*
G37*
%TD.AperFunction*%
%TA.AperFunction,NonConductor*%
G36*
X216377121Y-102240002D02*
G01*
X216423614Y-102293658D01*
X216435000Y-102346000D01*
X216435000Y-118594000D01*
X216414998Y-118662121D01*
X216361342Y-118708614D01*
X216309000Y-118720000D01*
X207061000Y-118720000D01*
X206992879Y-118699998D01*
X206946386Y-118646342D01*
X206935000Y-118594000D01*
X206935000Y-114346000D01*
X206955002Y-114277879D01*
X207008658Y-114231386D01*
X207061000Y-114220000D01*
X211935000Y-114220000D01*
X211935000Y-108220000D01*
X208561000Y-108220000D01*
X208492879Y-108199998D01*
X208446386Y-108146342D01*
X208435000Y-108094000D01*
X208435000Y-102346000D01*
X208455002Y-102277879D01*
X208508658Y-102231386D01*
X208561000Y-102220000D01*
X216309000Y-102220000D01*
X216377121Y-102240002D01*
G37*
%TD.AperFunction*%
%TA.AperFunction,NonConductor*%
G36*
X211377121Y-125740002D02*
G01*
X211423614Y-125793658D01*
X211435000Y-125846000D01*
X211435000Y-130594000D01*
X211414998Y-130662121D01*
X211361342Y-130708614D01*
X211309000Y-130720000D01*
X205935000Y-130720000D01*
X205935000Y-136720000D01*
X211033179Y-136720000D01*
X211101300Y-136740002D01*
X211147793Y-136793658D01*
X211157021Y-136869220D01*
X210558884Y-140059287D01*
X210435000Y-140720000D01*
X192935000Y-140720000D01*
X192935000Y-137880000D01*
X195739671Y-137880000D01*
X195758966Y-138174380D01*
X195816519Y-138463722D01*
X195911348Y-138743077D01*
X196041828Y-139007664D01*
X196205727Y-139252957D01*
X196208441Y-139256051D01*
X196208445Y-139256057D01*
X196397533Y-139471669D01*
X196400242Y-139474758D01*
X196403331Y-139477467D01*
X196618943Y-139666555D01*
X196618949Y-139666559D01*
X196622043Y-139669273D01*
X196625469Y-139671562D01*
X196625474Y-139671566D01*
X196809539Y-139794554D01*
X196867335Y-139833172D01*
X196871034Y-139834996D01*
X196871039Y-139834999D01*
X197128228Y-139961830D01*
X197131923Y-139963652D01*
X197135821Y-139964975D01*
X197135823Y-139964976D01*
X197407368Y-140057154D01*
X197407372Y-140057155D01*
X197411278Y-140058481D01*
X197415322Y-140059285D01*
X197415328Y-140059287D01*
X197696577Y-140115230D01*
X197696580Y-140115230D01*
X197700620Y-140116034D01*
X197704731Y-140116303D01*
X197704735Y-140116304D01*
X197990881Y-140135059D01*
X197995000Y-140135329D01*
X197999119Y-140135059D01*
X198285265Y-140116304D01*
X198285269Y-140116303D01*
X198289380Y-140116034D01*
X198293420Y-140115230D01*
X198293423Y-140115230D01*
X198574672Y-140059287D01*
X198574678Y-140059285D01*
X198578722Y-140058481D01*
X198582628Y-140057155D01*
X198582632Y-140057154D01*
X198854177Y-139964976D01*
X198854179Y-139964975D01*
X198858077Y-139963652D01*
X198861772Y-139961830D01*
X199118961Y-139834999D01*
X199118966Y-139834996D01*
X199122665Y-139833172D01*
X199180461Y-139794554D01*
X199364526Y-139671566D01*
X199364531Y-139671562D01*
X199367957Y-139669273D01*
X199371051Y-139666559D01*
X199371057Y-139666555D01*
X199586669Y-139477467D01*
X199589758Y-139474758D01*
X199592467Y-139471669D01*
X199781555Y-139256057D01*
X199781559Y-139256051D01*
X199784273Y-139252957D01*
X199948172Y-139007664D01*
X200078652Y-138743077D01*
X200173481Y-138463722D01*
X200231034Y-138174380D01*
X200250329Y-137880000D01*
X200231034Y-137585620D01*
X200173481Y-137296278D01*
X200078652Y-137016923D01*
X199948172Y-136752336D01*
X199784273Y-136507043D01*
X199781559Y-136503949D01*
X199781555Y-136503943D01*
X199592467Y-136288331D01*
X199589758Y-136285242D01*
X199586669Y-136282533D01*
X199371057Y-136093445D01*
X199371051Y-136093441D01*
X199367957Y-136090727D01*
X199364527Y-136088435D01*
X199364526Y-136088434D01*
X199126098Y-135929122D01*
X199122665Y-135926828D01*
X199118966Y-135925004D01*
X199118961Y-135925001D01*
X198861772Y-135798170D01*
X198861770Y-135798169D01*
X198858077Y-135796348D01*
X198854177Y-135795024D01*
X198582632Y-135702846D01*
X198582628Y-135702845D01*
X198578722Y-135701519D01*
X198574678Y-135700715D01*
X198574672Y-135700713D01*
X198293423Y-135644770D01*
X198293420Y-135644770D01*
X198289380Y-135643966D01*
X198285269Y-135643697D01*
X198285265Y-135643696D01*
X197999119Y-135624941D01*
X197995000Y-135624671D01*
X197990881Y-135624941D01*
X197704735Y-135643696D01*
X197704731Y-135643697D01*
X197700620Y-135643966D01*
X197696580Y-135644770D01*
X197696577Y-135644770D01*
X197415328Y-135700713D01*
X197415322Y-135700715D01*
X197411278Y-135701519D01*
X197407372Y-135702845D01*
X197407368Y-135702846D01*
X197135823Y-135795024D01*
X197131923Y-135796348D01*
X197128230Y-135798169D01*
X197128228Y-135798170D01*
X196871040Y-135925001D01*
X196871035Y-135925004D01*
X196867336Y-135926828D01*
X196622043Y-136090727D01*
X196618949Y-136093441D01*
X196618943Y-136093445D01*
X196403331Y-136282533D01*
X196400242Y-136285242D01*
X196397533Y-136288331D01*
X196208445Y-136503943D01*
X196208441Y-136503949D01*
X196205727Y-136507043D01*
X196041828Y-136752336D01*
X195911348Y-137016923D01*
X195816519Y-137296278D01*
X195758966Y-137585620D01*
X195739671Y-137880000D01*
X192935000Y-137880000D01*
X192935000Y-125846000D01*
X192955002Y-125777879D01*
X193008658Y-125731386D01*
X193061000Y-125720000D01*
X211309000Y-125720000D01*
X211377121Y-125740002D01*
G37*
%TD.AperFunction*%
%TA.AperFunction,NonConductor*%
G36*
X216377121Y-87740002D02*
G01*
X216423614Y-87793658D01*
X216435000Y-87846000D01*
X216435000Y-97844000D01*
X216414998Y-97912121D01*
X216361342Y-97958614D01*
X216309000Y-97970000D01*
X183561000Y-97970000D01*
X183492879Y-97949998D01*
X183446386Y-97896342D01*
X183435000Y-97844000D01*
X183435000Y-90560000D01*
X185719671Y-90560000D01*
X185738966Y-90854380D01*
X185796519Y-91143722D01*
X185797845Y-91147628D01*
X185797846Y-91147632D01*
X185884316Y-91402361D01*
X185891348Y-91423077D01*
X185893169Y-91426770D01*
X185893170Y-91426772D01*
X185956173Y-91554528D01*
X186021828Y-91687664D01*
X186185727Y-91932957D01*
X186188441Y-91936051D01*
X186188445Y-91936057D01*
X186377533Y-92151669D01*
X186380242Y-92154758D01*
X186383331Y-92157467D01*
X186598943Y-92346555D01*
X186598949Y-92346559D01*
X186602043Y-92349273D01*
X186605469Y-92351562D01*
X186605474Y-92351566D01*
X186789539Y-92474554D01*
X186847335Y-92513172D01*
X186851034Y-92514996D01*
X186851039Y-92514999D01*
X187108228Y-92641830D01*
X187111923Y-92643652D01*
X187115821Y-92644975D01*
X187115823Y-92644976D01*
X187387368Y-92737154D01*
X187387372Y-92737155D01*
X187391278Y-92738481D01*
X187395322Y-92739285D01*
X187395328Y-92739287D01*
X187676577Y-92795230D01*
X187676580Y-92795230D01*
X187680620Y-92796034D01*
X187684731Y-92796303D01*
X187684735Y-92796304D01*
X187970881Y-92815059D01*
X187975000Y-92815329D01*
X187979119Y-92815059D01*
X188265265Y-92796304D01*
X188265269Y-92796303D01*
X188269380Y-92796034D01*
X188273420Y-92795230D01*
X188273423Y-92795230D01*
X188554672Y-92739287D01*
X188554678Y-92739285D01*
X188558722Y-92738481D01*
X188562628Y-92737155D01*
X188562632Y-92737154D01*
X188834177Y-92644976D01*
X188834179Y-92644975D01*
X188838077Y-92643652D01*
X188841772Y-92641830D01*
X189098961Y-92514999D01*
X189098966Y-92514996D01*
X189102665Y-92513172D01*
X189160461Y-92474554D01*
X189344526Y-92351566D01*
X189344531Y-92351562D01*
X189347957Y-92349273D01*
X189351051Y-92346559D01*
X189351057Y-92346555D01*
X189566669Y-92157467D01*
X189569758Y-92154758D01*
X189572467Y-92151669D01*
X189761555Y-91936057D01*
X189761559Y-91936051D01*
X189764273Y-91932957D01*
X189928172Y-91687664D01*
X189993828Y-91554528D01*
X190056830Y-91426772D01*
X190056831Y-91426770D01*
X190058652Y-91423077D01*
X190065684Y-91402361D01*
X190152154Y-91147632D01*
X190152155Y-91147628D01*
X190153481Y-91143722D01*
X190211034Y-90854380D01*
X190230329Y-90560000D01*
X190211034Y-90265620D01*
X190210230Y-90261577D01*
X190154287Y-89980328D01*
X190154285Y-89980322D01*
X190153481Y-89976278D01*
X190151350Y-89970000D01*
X203829551Y-89970000D01*
X203849317Y-90221148D01*
X203850471Y-90225955D01*
X203850472Y-90225961D01*
X203887865Y-90381711D01*
X203908127Y-90466111D01*
X204004534Y-90698859D01*
X204136164Y-90913659D01*
X204139376Y-90917419D01*
X204139379Y-90917424D01*
X204284256Y-91087052D01*
X204299776Y-91105224D01*
X204303538Y-91108437D01*
X204487576Y-91265621D01*
X204487581Y-91265624D01*
X204491341Y-91268836D01*
X204706141Y-91400466D01*
X204710711Y-91402359D01*
X204710715Y-91402361D01*
X204934316Y-91494979D01*
X204938889Y-91496873D01*
X205023289Y-91517135D01*
X205179039Y-91554528D01*
X205179045Y-91554529D01*
X205183852Y-91555683D01*
X205272149Y-91562632D01*
X205369661Y-91570307D01*
X205369670Y-91570307D01*
X205372118Y-91570500D01*
X205497882Y-91570500D01*
X205500330Y-91570307D01*
X205500339Y-91570307D01*
X205597851Y-91562632D01*
X205686148Y-91555683D01*
X205690955Y-91554529D01*
X205690961Y-91554528D01*
X205846711Y-91517135D01*
X205931111Y-91496873D01*
X205935684Y-91494979D01*
X206159285Y-91402361D01*
X206159289Y-91402359D01*
X206163859Y-91400466D01*
X206378659Y-91268836D01*
X206382419Y-91265624D01*
X206382424Y-91265621D01*
X206566462Y-91108437D01*
X206570224Y-91105224D01*
X206585744Y-91087052D01*
X206730621Y-90917424D01*
X206730624Y-90917419D01*
X206733836Y-90913659D01*
X206865466Y-90698859D01*
X206961873Y-90466111D01*
X206982135Y-90381711D01*
X207019528Y-90225961D01*
X207019529Y-90225955D01*
X207020683Y-90221148D01*
X207040449Y-89970000D01*
X207020683Y-89718852D01*
X207015419Y-89696923D01*
X206963028Y-89478701D01*
X206961873Y-89473889D01*
X206959979Y-89469316D01*
X206867361Y-89245715D01*
X206867359Y-89245711D01*
X206865466Y-89241141D01*
X206733836Y-89026341D01*
X206730624Y-89022581D01*
X206730621Y-89022576D01*
X206573437Y-88838538D01*
X206570224Y-88834776D01*
X206498415Y-88773445D01*
X206382424Y-88674379D01*
X206382419Y-88674376D01*
X206378659Y-88671164D01*
X206163859Y-88539534D01*
X206159289Y-88537641D01*
X206159285Y-88537639D01*
X205935684Y-88445021D01*
X205935682Y-88445020D01*
X205931111Y-88443127D01*
X205846711Y-88422865D01*
X205690961Y-88385472D01*
X205690955Y-88385471D01*
X205686148Y-88384317D01*
X205597851Y-88377368D01*
X205500339Y-88369693D01*
X205500330Y-88369693D01*
X205497882Y-88369500D01*
X205372118Y-88369500D01*
X205369670Y-88369693D01*
X205369661Y-88369693D01*
X205272149Y-88377368D01*
X205183852Y-88384317D01*
X205179045Y-88385471D01*
X205179039Y-88385472D01*
X205023289Y-88422865D01*
X204938889Y-88443127D01*
X204934318Y-88445020D01*
X204934316Y-88445021D01*
X204710715Y-88537639D01*
X204710711Y-88537641D01*
X204706141Y-88539534D01*
X204491341Y-88671164D01*
X204487581Y-88674376D01*
X204487576Y-88674379D01*
X204371585Y-88773445D01*
X204299776Y-88834776D01*
X204296563Y-88838538D01*
X204139379Y-89022576D01*
X204139376Y-89022581D01*
X204136164Y-89026341D01*
X204004534Y-89241141D01*
X204002641Y-89245711D01*
X204002639Y-89245715D01*
X203910021Y-89469316D01*
X203908127Y-89473889D01*
X203906972Y-89478701D01*
X203854582Y-89696923D01*
X203849317Y-89718852D01*
X203829551Y-89970000D01*
X190151350Y-89970000D01*
X190149677Y-89965070D01*
X190059976Y-89700823D01*
X190059975Y-89700821D01*
X190058652Y-89696923D01*
X189928172Y-89432336D01*
X189764273Y-89187043D01*
X189761559Y-89183949D01*
X189761555Y-89183943D01*
X189572467Y-88968331D01*
X189569758Y-88965242D01*
X189566669Y-88962533D01*
X189351057Y-88773445D01*
X189351051Y-88773441D01*
X189347957Y-88770727D01*
X189344527Y-88768435D01*
X189344526Y-88768434D01*
X189106098Y-88609122D01*
X189102665Y-88606828D01*
X189098966Y-88605004D01*
X189098961Y-88605001D01*
X188841772Y-88478170D01*
X188841770Y-88478169D01*
X188838077Y-88476348D01*
X188834177Y-88475024D01*
X188562632Y-88382846D01*
X188562628Y-88382845D01*
X188558722Y-88381519D01*
X188554678Y-88380715D01*
X188554672Y-88380713D01*
X188273423Y-88324770D01*
X188273420Y-88324770D01*
X188269380Y-88323966D01*
X188265269Y-88323697D01*
X188265265Y-88323696D01*
X187979119Y-88304941D01*
X187975000Y-88304671D01*
X187970881Y-88304941D01*
X187684735Y-88323696D01*
X187684731Y-88323697D01*
X187680620Y-88323966D01*
X187676580Y-88324770D01*
X187676577Y-88324770D01*
X187395328Y-88380713D01*
X187395322Y-88380715D01*
X187391278Y-88381519D01*
X187387372Y-88382845D01*
X187387368Y-88382846D01*
X187115823Y-88475024D01*
X187111923Y-88476348D01*
X187108230Y-88478169D01*
X187108228Y-88478170D01*
X186851040Y-88605001D01*
X186851035Y-88605004D01*
X186847336Y-88606828D01*
X186602043Y-88770727D01*
X186598949Y-88773441D01*
X186598943Y-88773445D01*
X186383331Y-88962533D01*
X186380242Y-88965242D01*
X186377533Y-88968331D01*
X186188445Y-89183943D01*
X186188441Y-89183949D01*
X186185727Y-89187043D01*
X186021828Y-89432336D01*
X185891348Y-89696923D01*
X185890025Y-89700821D01*
X185890024Y-89700823D01*
X185800324Y-89965070D01*
X185796519Y-89976278D01*
X185795715Y-89980322D01*
X185795713Y-89980328D01*
X185739770Y-90261577D01*
X185738966Y-90265620D01*
X185719671Y-90560000D01*
X183435000Y-90560000D01*
X183435000Y-87846000D01*
X183455002Y-87777879D01*
X183508658Y-87731386D01*
X183561000Y-87720000D01*
X216309000Y-87720000D01*
X216377121Y-87740002D01*
G37*
%TD.AperFunction*%
%TA.AperFunction,NonConductor*%
G36*
X194877121Y-104740002D02*
G01*
X194923614Y-104793658D01*
X194935000Y-104846000D01*
X194935000Y-107220000D01*
X197809000Y-107220000D01*
X197877121Y-107240002D01*
X197923614Y-107293658D01*
X197935000Y-107346000D01*
X197935000Y-123594000D01*
X197914998Y-123662121D01*
X197861342Y-123708614D01*
X197809000Y-123720000D01*
X192061000Y-123720000D01*
X191992879Y-123699998D01*
X191946386Y-123646342D01*
X191935000Y-123594000D01*
X191935000Y-110720000D01*
X188061000Y-110720000D01*
X187992879Y-110699998D01*
X187946386Y-110646342D01*
X187935000Y-110594000D01*
X187935000Y-104846000D01*
X187955002Y-104777879D01*
X188008658Y-104731386D01*
X188061000Y-104720000D01*
X194809000Y-104720000D01*
X194877121Y-104740002D01*
G37*
%TD.AperFunction*%
%TA.AperFunction,NonConductor*%
G36*
X192985000Y-141320000D02*
G01*
X183635000Y-141320000D01*
X184361425Y-138414301D01*
X184397352Y-138353066D01*
X184460681Y-138320975D01*
X184482198Y-138318870D01*
X191083256Y-138242113D01*
X192985000Y-138220000D01*
X192985000Y-141320000D01*
G37*
%TD.AperFunction*%
%TA.AperFunction,NonConductor*%
G36*
X210627121Y-140740002D02*
G01*
X210673614Y-140793658D01*
X210685000Y-140846000D01*
X210685000Y-146594000D01*
X210664998Y-146662121D01*
X210611342Y-146708614D01*
X210559000Y-146720000D01*
X166161664Y-146720000D01*
X166093543Y-146699998D01*
X166047050Y-146646342D01*
X166036946Y-146576068D01*
X166066440Y-146511488D01*
X166126166Y-146473104D01*
X166151778Y-146468388D01*
X166186148Y-146465683D01*
X166190955Y-146464529D01*
X166190961Y-146464528D01*
X166346711Y-146427135D01*
X166431111Y-146406873D01*
X166435684Y-146404979D01*
X166659285Y-146312361D01*
X166659289Y-146312359D01*
X166663859Y-146310466D01*
X166878659Y-146178836D01*
X166882419Y-146175624D01*
X166882424Y-146175621D01*
X167066462Y-146018437D01*
X167070224Y-146015224D01*
X167113868Y-145964124D01*
X167230621Y-145827424D01*
X167230624Y-145827419D01*
X167233836Y-145823659D01*
X167365466Y-145608859D01*
X167368548Y-145601420D01*
X167459979Y-145380684D01*
X167459980Y-145380682D01*
X167461873Y-145376111D01*
X167482135Y-145291711D01*
X167519528Y-145135961D01*
X167519529Y-145135955D01*
X167520683Y-145131148D01*
X167540449Y-144880000D01*
X167520683Y-144628852D01*
X167506548Y-144569972D01*
X167463028Y-144388701D01*
X167461873Y-144383889D01*
X167433339Y-144315001D01*
X167427125Y-144300000D01*
X180329551Y-144300000D01*
X180349317Y-144551148D01*
X180350471Y-144555955D01*
X180350472Y-144555961D01*
X180366816Y-144624039D01*
X180408127Y-144796111D01*
X180410020Y-144800682D01*
X180410021Y-144800684D01*
X180465238Y-144933989D01*
X180504534Y-145028859D01*
X180636164Y-145243659D01*
X180639376Y-145247419D01*
X180639379Y-145247424D01*
X180748286Y-145374937D01*
X180799776Y-145435224D01*
X180803538Y-145438437D01*
X180987576Y-145595621D01*
X180987581Y-145595624D01*
X180991341Y-145598836D01*
X181206141Y-145730466D01*
X181210711Y-145732359D01*
X181210715Y-145732361D01*
X181434316Y-145824979D01*
X181438889Y-145826873D01*
X181457571Y-145831358D01*
X181679039Y-145884528D01*
X181679045Y-145884529D01*
X181683852Y-145885683D01*
X181935000Y-145905449D01*
X182186148Y-145885683D01*
X182190955Y-145884529D01*
X182190961Y-145884528D01*
X182412429Y-145831358D01*
X182431111Y-145826873D01*
X182435684Y-145824979D01*
X182659285Y-145732361D01*
X182659289Y-145732359D01*
X182663859Y-145730466D01*
X182878659Y-145598836D01*
X182882419Y-145595624D01*
X182882424Y-145595621D01*
X183066462Y-145438437D01*
X183070224Y-145435224D01*
X183121714Y-145374937D01*
X183230621Y-145247424D01*
X183230624Y-145247419D01*
X183233836Y-145243659D01*
X183365466Y-145028859D01*
X183404763Y-144933989D01*
X183459979Y-144800684D01*
X183459980Y-144800682D01*
X183461873Y-144796111D01*
X183503184Y-144624039D01*
X183519528Y-144555961D01*
X183519529Y-144555955D01*
X183520683Y-144551148D01*
X183540449Y-144300000D01*
X183520683Y-144048852D01*
X183461873Y-143803889D01*
X183427145Y-143720047D01*
X183367361Y-143575715D01*
X183367359Y-143575711D01*
X183365466Y-143571141D01*
X183233836Y-143356341D01*
X183230624Y-143352581D01*
X183230621Y-143352576D01*
X183073437Y-143168538D01*
X183070224Y-143164776D01*
X182921475Y-143037732D01*
X182882424Y-143004379D01*
X182882419Y-143004376D01*
X182878659Y-143001164D01*
X182663859Y-142869534D01*
X182659289Y-142867641D01*
X182659285Y-142867639D01*
X182435684Y-142775021D01*
X182435682Y-142775020D01*
X182431111Y-142773127D01*
X182346711Y-142752865D01*
X182209821Y-142720000D01*
X185129532Y-142720000D01*
X185149365Y-142946692D01*
X185150789Y-142952005D01*
X185150789Y-142952007D01*
X185163961Y-143001164D01*
X185208261Y-143166496D01*
X185210583Y-143171476D01*
X185210584Y-143171478D01*
X185296788Y-143356341D01*
X185304432Y-143372734D01*
X185434953Y-143559139D01*
X185595861Y-143720047D01*
X185782266Y-143850568D01*
X185787244Y-143852889D01*
X185787247Y-143852891D01*
X185975249Y-143940558D01*
X185988504Y-143946739D01*
X185993812Y-143948161D01*
X185993814Y-143948162D01*
X186202993Y-144004211D01*
X186202995Y-144004211D01*
X186208308Y-144005635D01*
X186435000Y-144025468D01*
X186661692Y-144005635D01*
X186667005Y-144004211D01*
X186667007Y-144004211D01*
X186876186Y-143948162D01*
X186876188Y-143948161D01*
X186881496Y-143946739D01*
X186894751Y-143940558D01*
X187082753Y-143852891D01*
X187082756Y-143852889D01*
X187087734Y-143850568D01*
X187274139Y-143720047D01*
X187435047Y-143559139D01*
X187565568Y-143372734D01*
X187573213Y-143356341D01*
X187659416Y-143171478D01*
X187659417Y-143171476D01*
X187661739Y-143166496D01*
X187706040Y-143001164D01*
X187719211Y-142952007D01*
X187719211Y-142952005D01*
X187720635Y-142946692D01*
X187740468Y-142720000D01*
X187720635Y-142493308D01*
X187661739Y-142273504D01*
X187583449Y-142105611D01*
X187567891Y-142072247D01*
X187567889Y-142072244D01*
X187565568Y-142067266D01*
X187435047Y-141880861D01*
X187274139Y-141719953D01*
X187087734Y-141589432D01*
X187082756Y-141587111D01*
X187082753Y-141587109D01*
X186886478Y-141495584D01*
X186886476Y-141495583D01*
X186881496Y-141493261D01*
X186876188Y-141491839D01*
X186876186Y-141491838D01*
X186667007Y-141435789D01*
X186667005Y-141435789D01*
X186661692Y-141434365D01*
X186435000Y-141414532D01*
X186208308Y-141434365D01*
X186202995Y-141435789D01*
X186202993Y-141435789D01*
X185993814Y-141491838D01*
X185993812Y-141491839D01*
X185988504Y-141493261D01*
X185983524Y-141495583D01*
X185983522Y-141495584D01*
X185787247Y-141587109D01*
X185787244Y-141587111D01*
X185782266Y-141589432D01*
X185595861Y-141719953D01*
X185434953Y-141880861D01*
X185304432Y-142067266D01*
X185302111Y-142072244D01*
X185302109Y-142072247D01*
X185286551Y-142105611D01*
X185208261Y-142273504D01*
X185149365Y-142493308D01*
X185129532Y-142720000D01*
X182209821Y-142720000D01*
X182190961Y-142715472D01*
X182190955Y-142715471D01*
X182186148Y-142714317D01*
X181935000Y-142694551D01*
X181683852Y-142714317D01*
X181679045Y-142715471D01*
X181679039Y-142715472D01*
X181523289Y-142752865D01*
X181438889Y-142773127D01*
X181434318Y-142775020D01*
X181434316Y-142775021D01*
X181210715Y-142867639D01*
X181210711Y-142867641D01*
X181206141Y-142869534D01*
X180991341Y-143001164D01*
X180987581Y-143004376D01*
X180987576Y-143004379D01*
X180948525Y-143037732D01*
X180799776Y-143164776D01*
X180796563Y-143168538D01*
X180639379Y-143352576D01*
X180639376Y-143352581D01*
X180636164Y-143356341D01*
X180504534Y-143571141D01*
X180502641Y-143575711D01*
X180502639Y-143575715D01*
X180442855Y-143720047D01*
X180408127Y-143803889D01*
X180349317Y-144048852D01*
X180329551Y-144300000D01*
X167427125Y-144300000D01*
X167367361Y-144155715D01*
X167367359Y-144155711D01*
X167365466Y-144151141D01*
X167233836Y-143936341D01*
X167230624Y-143932581D01*
X167230621Y-143932576D01*
X167073437Y-143748538D01*
X167070224Y-143744776D01*
X167025722Y-143706768D01*
X166882424Y-143584379D01*
X166882419Y-143584376D01*
X166878659Y-143581164D01*
X166663859Y-143449534D01*
X166659289Y-143447641D01*
X166659285Y-143447639D01*
X166435684Y-143355021D01*
X166435682Y-143355020D01*
X166431111Y-143353127D01*
X166346711Y-143332865D01*
X166190961Y-143295472D01*
X166190955Y-143295471D01*
X166186148Y-143294317D01*
X165935000Y-143274551D01*
X165683852Y-143294317D01*
X165679045Y-143295471D01*
X165679039Y-143295472D01*
X165523289Y-143332865D01*
X165438889Y-143353127D01*
X165434318Y-143355020D01*
X165434316Y-143355021D01*
X165210715Y-143447639D01*
X165210711Y-143447641D01*
X165206141Y-143449534D01*
X164991341Y-143581164D01*
X164987581Y-143584376D01*
X164987576Y-143584379D01*
X164844278Y-143706768D01*
X164799776Y-143744776D01*
X164796563Y-143748538D01*
X164639379Y-143932576D01*
X164639376Y-143932581D01*
X164636164Y-143936341D01*
X164504534Y-144151141D01*
X164502641Y-144155711D01*
X164502639Y-144155715D01*
X164436661Y-144315001D01*
X164408127Y-144383889D01*
X164406972Y-144388701D01*
X164363453Y-144569972D01*
X164349317Y-144628852D01*
X164329551Y-144880000D01*
X164349317Y-145131148D01*
X164350471Y-145135955D01*
X164350472Y-145135961D01*
X164387865Y-145291711D01*
X164408127Y-145376111D01*
X164410020Y-145380682D01*
X164410021Y-145380684D01*
X164501453Y-145601420D01*
X164504534Y-145608859D01*
X164636164Y-145823659D01*
X164639376Y-145827419D01*
X164639379Y-145827424D01*
X164756132Y-145964124D01*
X164799776Y-146015224D01*
X164803538Y-146018437D01*
X164987576Y-146175621D01*
X164987581Y-146175624D01*
X164991341Y-146178836D01*
X165206141Y-146310466D01*
X165210711Y-146312359D01*
X165210715Y-146312361D01*
X165434316Y-146404979D01*
X165438889Y-146406873D01*
X165523289Y-146427135D01*
X165679039Y-146464528D01*
X165679045Y-146464529D01*
X165683852Y-146465683D01*
X165718222Y-146468388D01*
X165784563Y-146493674D01*
X165826703Y-146550812D01*
X165831262Y-146621662D01*
X165796793Y-146683729D01*
X165734239Y-146717309D01*
X165708336Y-146720000D01*
X162661664Y-146720000D01*
X162593543Y-146699998D01*
X162547050Y-146646342D01*
X162536946Y-146576068D01*
X162566440Y-146511488D01*
X162626166Y-146473104D01*
X162651778Y-146468388D01*
X162686148Y-146465683D01*
X162690955Y-146464529D01*
X162690961Y-146464528D01*
X162846711Y-146427135D01*
X162931111Y-146406873D01*
X162935684Y-146404979D01*
X163159285Y-146312361D01*
X163159289Y-146312359D01*
X163163859Y-146310466D01*
X163378659Y-146178836D01*
X163382419Y-146175624D01*
X163382424Y-146175621D01*
X163566462Y-146018437D01*
X163570224Y-146015224D01*
X163613868Y-145964124D01*
X163730621Y-145827424D01*
X163730624Y-145827419D01*
X163733836Y-145823659D01*
X163865466Y-145608859D01*
X163868548Y-145601420D01*
X163959979Y-145380684D01*
X163959980Y-145380682D01*
X163961873Y-145376111D01*
X163982135Y-145291711D01*
X164019528Y-145135961D01*
X164019529Y-145135955D01*
X164020683Y-145131148D01*
X164040449Y-144880000D01*
X164020683Y-144628852D01*
X164006548Y-144569972D01*
X163963028Y-144388701D01*
X163961873Y-144383889D01*
X163933339Y-144315001D01*
X163867361Y-144155715D01*
X163867359Y-144155711D01*
X163865466Y-144151141D01*
X163733836Y-143936341D01*
X163730624Y-143932581D01*
X163730621Y-143932576D01*
X163573437Y-143748538D01*
X163570224Y-143744776D01*
X163525722Y-143706768D01*
X163382424Y-143584379D01*
X163382419Y-143584376D01*
X163378659Y-143581164D01*
X163163859Y-143449534D01*
X163159289Y-143447641D01*
X163159285Y-143447639D01*
X162935684Y-143355021D01*
X162935682Y-143355020D01*
X162931111Y-143353127D01*
X162846711Y-143332865D01*
X162690961Y-143295472D01*
X162690955Y-143295471D01*
X162686148Y-143294317D01*
X162435000Y-143274551D01*
X162183852Y-143294317D01*
X162179045Y-143295471D01*
X162179039Y-143295472D01*
X162023289Y-143332865D01*
X161938889Y-143353127D01*
X161934318Y-143355020D01*
X161934316Y-143355021D01*
X161710715Y-143447639D01*
X161710711Y-143447641D01*
X161706141Y-143449534D01*
X161491341Y-143581164D01*
X161487581Y-143584376D01*
X161487576Y-143584379D01*
X161344278Y-143706768D01*
X161299776Y-143744776D01*
X161296563Y-143748538D01*
X161139379Y-143932576D01*
X161139376Y-143932581D01*
X161136164Y-143936341D01*
X161004534Y-144151141D01*
X161002641Y-144155711D01*
X161002639Y-144155715D01*
X160936661Y-144315001D01*
X160908127Y-144383889D01*
X160906972Y-144388701D01*
X160863453Y-144569972D01*
X160849317Y-144628852D01*
X160829551Y-144880000D01*
X160849317Y-145131148D01*
X160850471Y-145135955D01*
X160850472Y-145135961D01*
X160887865Y-145291711D01*
X160908127Y-145376111D01*
X160910020Y-145380682D01*
X160910021Y-145380684D01*
X161001453Y-145601420D01*
X161004534Y-145608859D01*
X161136164Y-145823659D01*
X161139376Y-145827419D01*
X161139379Y-145827424D01*
X161256132Y-145964124D01*
X161299776Y-146015224D01*
X161303538Y-146018437D01*
X161487576Y-146175621D01*
X161487581Y-146175624D01*
X161491341Y-146178836D01*
X161706141Y-146310466D01*
X161710711Y-146312359D01*
X161710715Y-146312361D01*
X161934316Y-146404979D01*
X161938889Y-146406873D01*
X162023289Y-146427135D01*
X162179039Y-146464528D01*
X162179045Y-146464529D01*
X162183852Y-146465683D01*
X162218222Y-146468388D01*
X162284563Y-146493674D01*
X162326703Y-146550812D01*
X162331262Y-146621662D01*
X162296793Y-146683729D01*
X162234239Y-146717309D01*
X162208336Y-146720000D01*
X34061000Y-146720000D01*
X33992879Y-146699998D01*
X33946386Y-146646342D01*
X33935000Y-146594000D01*
X33935000Y-144174049D01*
X51180194Y-144174049D01*
X51192677Y-144433930D01*
X51243435Y-144689112D01*
X51331355Y-144933989D01*
X51454504Y-145163180D01*
X51457299Y-145166923D01*
X51457301Y-145166926D01*
X51607385Y-145367913D01*
X51607390Y-145367919D01*
X51610177Y-145371651D01*
X51613486Y-145374931D01*
X51613491Y-145374937D01*
X51714503Y-145475071D01*
X51794954Y-145554823D01*
X51798716Y-145557581D01*
X51798719Y-145557584D01*
X51911332Y-145640155D01*
X52004775Y-145708670D01*
X52008910Y-145710846D01*
X52008914Y-145710848D01*
X52134774Y-145777066D01*
X52235033Y-145829815D01*
X52480667Y-145915594D01*
X52485260Y-145916466D01*
X52731693Y-145963253D01*
X52731696Y-145963253D01*
X52736282Y-145964124D01*
X52866273Y-145969232D01*
X52991595Y-145974156D01*
X52991601Y-145974156D01*
X52996263Y-145974339D01*
X53097489Y-145963253D01*
X53250245Y-145946524D01*
X53250250Y-145946523D01*
X53254898Y-145946014D01*
X53259422Y-145944823D01*
X53501982Y-145880962D01*
X53501984Y-145880961D01*
X53506505Y-145879771D01*
X53628346Y-145827424D01*
X53741263Y-145778911D01*
X53741265Y-145778910D01*
X53745557Y-145777066D01*
X53966803Y-145640155D01*
X53998787Y-145613079D01*
X54161809Y-145475071D01*
X54161811Y-145475069D01*
X54165382Y-145472046D01*
X54336931Y-145276431D01*
X54360724Y-145239442D01*
X54475155Y-145061538D01*
X54477683Y-145057608D01*
X54584544Y-144820385D01*
X54592747Y-144791299D01*
X54653898Y-144574476D01*
X54653899Y-144574473D01*
X54655168Y-144569972D01*
X54671891Y-144438518D01*
X54687604Y-144315001D01*
X54687604Y-144314997D01*
X54688002Y-144311871D01*
X54690408Y-144220000D01*
X54686993Y-144174049D01*
X73180194Y-144174049D01*
X73192677Y-144433930D01*
X73243435Y-144689112D01*
X73331355Y-144933989D01*
X73454504Y-145163180D01*
X73457299Y-145166923D01*
X73457301Y-145166926D01*
X73607385Y-145367913D01*
X73607390Y-145367919D01*
X73610177Y-145371651D01*
X73613486Y-145374931D01*
X73613491Y-145374937D01*
X73714503Y-145475071D01*
X73794954Y-145554823D01*
X73798716Y-145557581D01*
X73798719Y-145557584D01*
X73911332Y-145640155D01*
X74004775Y-145708670D01*
X74008910Y-145710846D01*
X74008914Y-145710848D01*
X74134774Y-145777066D01*
X74235033Y-145829815D01*
X74480667Y-145915594D01*
X74485260Y-145916466D01*
X74731693Y-145963253D01*
X74731696Y-145963253D01*
X74736282Y-145964124D01*
X74866273Y-145969232D01*
X74991595Y-145974156D01*
X74991601Y-145974156D01*
X74996263Y-145974339D01*
X75097489Y-145963253D01*
X75250245Y-145946524D01*
X75250250Y-145946523D01*
X75254898Y-145946014D01*
X75259422Y-145944823D01*
X75501982Y-145880962D01*
X75501984Y-145880961D01*
X75506505Y-145879771D01*
X75628346Y-145827424D01*
X75741263Y-145778911D01*
X75741265Y-145778910D01*
X75745557Y-145777066D01*
X75966803Y-145640155D01*
X75998787Y-145613079D01*
X76161809Y-145475071D01*
X76161811Y-145475069D01*
X76165382Y-145472046D01*
X76336931Y-145276431D01*
X76360724Y-145239442D01*
X76475155Y-145061538D01*
X76477683Y-145057608D01*
X76584544Y-144820385D01*
X76592747Y-144791299D01*
X76653898Y-144574476D01*
X76653899Y-144574473D01*
X76655168Y-144569972D01*
X76671891Y-144438518D01*
X76687604Y-144315001D01*
X76687604Y-144314997D01*
X76688002Y-144311871D01*
X76690408Y-144220000D01*
X76686993Y-144174049D01*
X95180194Y-144174049D01*
X95192677Y-144433930D01*
X95243435Y-144689112D01*
X95331355Y-144933989D01*
X95454504Y-145163180D01*
X95457299Y-145166923D01*
X95457301Y-145166926D01*
X95607385Y-145367913D01*
X95607390Y-145367919D01*
X95610177Y-145371651D01*
X95613486Y-145374931D01*
X95613491Y-145374937D01*
X95714503Y-145475071D01*
X95794954Y-145554823D01*
X95798716Y-145557581D01*
X95798719Y-145557584D01*
X95911332Y-145640155D01*
X96004775Y-145708670D01*
X96008910Y-145710846D01*
X96008914Y-145710848D01*
X96134774Y-145777066D01*
X96235033Y-145829815D01*
X96480667Y-145915594D01*
X96485260Y-145916466D01*
X96731693Y-145963253D01*
X96731696Y-145963253D01*
X96736282Y-145964124D01*
X96866273Y-145969232D01*
X96991595Y-145974156D01*
X96991601Y-145974156D01*
X96996263Y-145974339D01*
X97097489Y-145963253D01*
X97250245Y-145946524D01*
X97250250Y-145946523D01*
X97254898Y-145946014D01*
X97259422Y-145944823D01*
X97501982Y-145880962D01*
X97501984Y-145880961D01*
X97506505Y-145879771D01*
X97628346Y-145827424D01*
X97741263Y-145778911D01*
X97741265Y-145778910D01*
X97745557Y-145777066D01*
X97966803Y-145640155D01*
X97998787Y-145613079D01*
X98161809Y-145475071D01*
X98161811Y-145475069D01*
X98165382Y-145472046D01*
X98336931Y-145276431D01*
X98360724Y-145239442D01*
X98475155Y-145061538D01*
X98477683Y-145057608D01*
X98584544Y-144820385D01*
X98592747Y-144791299D01*
X98653898Y-144574476D01*
X98653899Y-144574473D01*
X98655168Y-144569972D01*
X98671891Y-144438518D01*
X98687604Y-144315001D01*
X98687604Y-144314997D01*
X98688002Y-144311871D01*
X98690408Y-144220000D01*
X98686993Y-144174049D01*
X117180194Y-144174049D01*
X117192677Y-144433930D01*
X117243435Y-144689112D01*
X117331355Y-144933989D01*
X117454504Y-145163180D01*
X117457299Y-145166923D01*
X117457301Y-145166926D01*
X117607385Y-145367913D01*
X117607390Y-145367919D01*
X117610177Y-145371651D01*
X117613486Y-145374931D01*
X117613491Y-145374937D01*
X117714503Y-145475071D01*
X117794954Y-145554823D01*
X117798716Y-145557581D01*
X117798719Y-145557584D01*
X117911332Y-145640155D01*
X118004775Y-145708670D01*
X118008910Y-145710846D01*
X118008914Y-145710848D01*
X118134774Y-145777066D01*
X118235033Y-145829815D01*
X118480667Y-145915594D01*
X118485260Y-145916466D01*
X118731693Y-145963253D01*
X118731696Y-145963253D01*
X118736282Y-145964124D01*
X118866273Y-145969232D01*
X118991595Y-145974156D01*
X118991601Y-145974156D01*
X118996263Y-145974339D01*
X119097489Y-145963253D01*
X119250245Y-145946524D01*
X119250250Y-145946523D01*
X119254898Y-145946014D01*
X119259422Y-145944823D01*
X119501982Y-145880962D01*
X119501984Y-145880961D01*
X119506505Y-145879771D01*
X119628346Y-145827424D01*
X119741263Y-145778911D01*
X119741265Y-145778910D01*
X119745557Y-145777066D01*
X119966803Y-145640155D01*
X119998787Y-145613079D01*
X120161809Y-145475071D01*
X120161811Y-145475069D01*
X120165382Y-145472046D01*
X120336931Y-145276431D01*
X120360724Y-145239442D01*
X120475155Y-145061538D01*
X120477683Y-145057608D01*
X120584544Y-144820385D01*
X120592747Y-144791299D01*
X120653898Y-144574476D01*
X120653899Y-144574473D01*
X120655168Y-144569972D01*
X120671891Y-144438518D01*
X120687604Y-144315001D01*
X120687604Y-144314997D01*
X120688002Y-144311871D01*
X120690408Y-144220000D01*
X120671126Y-143960534D01*
X120613705Y-143706768D01*
X120612012Y-143702414D01*
X120521098Y-143468630D01*
X120521097Y-143468628D01*
X120519405Y-143464277D01*
X120390299Y-143238388D01*
X120229223Y-143034064D01*
X120039714Y-142855792D01*
X119851864Y-142725475D01*
X119829779Y-142710154D01*
X119829776Y-142710152D01*
X119825937Y-142707489D01*
X119821747Y-142705423D01*
X119821744Y-142705421D01*
X119596775Y-142594479D01*
X119596772Y-142594478D01*
X119592587Y-142592414D01*
X119344792Y-142513094D01*
X119190665Y-142487993D01*
X119092606Y-142472023D01*
X119092605Y-142472023D01*
X119087994Y-142471272D01*
X118957914Y-142469569D01*
X118832512Y-142467927D01*
X118832509Y-142467927D01*
X118827835Y-142467866D01*
X118570030Y-142502952D01*
X118320243Y-142575758D01*
X118315990Y-142577718D01*
X118315989Y-142577719D01*
X118279634Y-142594479D01*
X118083961Y-142684686D01*
X118080056Y-142687246D01*
X118080051Y-142687249D01*
X117870288Y-142824775D01*
X117870283Y-142824779D01*
X117866375Y-142827341D01*
X117672265Y-143000591D01*
X117505895Y-143200629D01*
X117370920Y-143423061D01*
X117369111Y-143427375D01*
X117369110Y-143427377D01*
X117305706Y-143578580D01*
X117270305Y-143663001D01*
X117269154Y-143667533D01*
X117269153Y-143667536D01*
X117237337Y-143792815D01*
X117206261Y-143915177D01*
X117180194Y-144174049D01*
X98686993Y-144174049D01*
X98671126Y-143960534D01*
X98613705Y-143706768D01*
X98612012Y-143702414D01*
X98521098Y-143468630D01*
X98521097Y-143468628D01*
X98519405Y-143464277D01*
X98390299Y-143238388D01*
X98229223Y-143034064D01*
X98039714Y-142855792D01*
X97851864Y-142725475D01*
X97829779Y-142710154D01*
X97829776Y-142710152D01*
X97825937Y-142707489D01*
X97821747Y-142705423D01*
X97821744Y-142705421D01*
X97596775Y-142594479D01*
X97596772Y-142594478D01*
X97592587Y-142592414D01*
X97344792Y-142513094D01*
X97190665Y-142487993D01*
X97092606Y-142472023D01*
X97092605Y-142472023D01*
X97087994Y-142471272D01*
X96957914Y-142469569D01*
X96832512Y-142467927D01*
X96832509Y-142467927D01*
X96827835Y-142467866D01*
X96570030Y-142502952D01*
X96320243Y-142575758D01*
X96315990Y-142577718D01*
X96315989Y-142577719D01*
X96279634Y-142594479D01*
X96083961Y-142684686D01*
X96080056Y-142687246D01*
X96080051Y-142687249D01*
X95870288Y-142824775D01*
X95870283Y-142824779D01*
X95866375Y-142827341D01*
X95672265Y-143000591D01*
X95505895Y-143200629D01*
X95370920Y-143423061D01*
X95369111Y-143427375D01*
X95369110Y-143427377D01*
X95305706Y-143578580D01*
X95270305Y-143663001D01*
X95269154Y-143667533D01*
X95269153Y-143667536D01*
X95237337Y-143792815D01*
X95206261Y-143915177D01*
X95180194Y-144174049D01*
X76686993Y-144174049D01*
X76671126Y-143960534D01*
X76613705Y-143706768D01*
X76612012Y-143702414D01*
X76521098Y-143468630D01*
X76521097Y-143468628D01*
X76519405Y-143464277D01*
X76390299Y-143238388D01*
X76229223Y-143034064D01*
X76039714Y-142855792D01*
X75851864Y-142725475D01*
X75829779Y-142710154D01*
X75829776Y-142710152D01*
X75825937Y-142707489D01*
X75821747Y-142705423D01*
X75821744Y-142705421D01*
X75596775Y-142594479D01*
X75596772Y-142594478D01*
X75592587Y-142592414D01*
X75344792Y-142513094D01*
X75190665Y-142487993D01*
X75092606Y-142472023D01*
X75092605Y-142472023D01*
X75087994Y-142471272D01*
X74957914Y-142469569D01*
X74832512Y-142467927D01*
X74832509Y-142467927D01*
X74827835Y-142467866D01*
X74570030Y-142502952D01*
X74320243Y-142575758D01*
X74315990Y-142577718D01*
X74315989Y-142577719D01*
X74279634Y-142594479D01*
X74083961Y-142684686D01*
X74080056Y-142687246D01*
X74080051Y-142687249D01*
X73870288Y-142824775D01*
X73870283Y-142824779D01*
X73866375Y-142827341D01*
X73672265Y-143000591D01*
X73505895Y-143200629D01*
X73370920Y-143423061D01*
X73369111Y-143427375D01*
X73369110Y-143427377D01*
X73305706Y-143578580D01*
X73270305Y-143663001D01*
X73269154Y-143667533D01*
X73269153Y-143667536D01*
X73237337Y-143792815D01*
X73206261Y-143915177D01*
X73180194Y-144174049D01*
X54686993Y-144174049D01*
X54671126Y-143960534D01*
X54613705Y-143706768D01*
X54612012Y-143702414D01*
X54521098Y-143468630D01*
X54521097Y-143468628D01*
X54519405Y-143464277D01*
X54390299Y-143238388D01*
X54229223Y-143034064D01*
X54039714Y-142855792D01*
X53851864Y-142725475D01*
X53829779Y-142710154D01*
X53829776Y-142710152D01*
X53825937Y-142707489D01*
X53821747Y-142705423D01*
X53821744Y-142705421D01*
X53596775Y-142594479D01*
X53596772Y-142594478D01*
X53592587Y-142592414D01*
X53344792Y-142513094D01*
X53190665Y-142487993D01*
X53092606Y-142472023D01*
X53092605Y-142472023D01*
X53087994Y-142471272D01*
X52957914Y-142469569D01*
X52832512Y-142467927D01*
X52832509Y-142467927D01*
X52827835Y-142467866D01*
X52570030Y-142502952D01*
X52320243Y-142575758D01*
X52315990Y-142577718D01*
X52315989Y-142577719D01*
X52279634Y-142594479D01*
X52083961Y-142684686D01*
X52080056Y-142687246D01*
X52080051Y-142687249D01*
X51870288Y-142824775D01*
X51870283Y-142824779D01*
X51866375Y-142827341D01*
X51672265Y-143000591D01*
X51505895Y-143200629D01*
X51370920Y-143423061D01*
X51369111Y-143427375D01*
X51369110Y-143427377D01*
X51305706Y-143578580D01*
X51270305Y-143663001D01*
X51269154Y-143667533D01*
X51269153Y-143667536D01*
X51237337Y-143792815D01*
X51206261Y-143915177D01*
X51180194Y-144174049D01*
X33935000Y-144174049D01*
X33935000Y-141346000D01*
X33955002Y-141277879D01*
X34008658Y-141231386D01*
X34061000Y-141220000D01*
X74259612Y-141220000D01*
X74320310Y-141235584D01*
X74330741Y-141241318D01*
X74347256Y-141252166D01*
X74363038Y-141264408D01*
X74370312Y-141267556D01*
X74370314Y-141267557D01*
X74403176Y-141281778D01*
X74413836Y-141287000D01*
X74445222Y-141304255D01*
X74445225Y-141304256D01*
X74452166Y-141308072D01*
X74459840Y-141310042D01*
X74459847Y-141310045D01*
X74471512Y-141313040D01*
X74490217Y-141319444D01*
X74495212Y-141321605D01*
X74508542Y-141327374D01*
X74516376Y-141328615D01*
X74516377Y-141328615D01*
X74551743Y-141334216D01*
X74563368Y-141336624D01*
X74594827Y-141344701D01*
X74605728Y-141347500D01*
X74625698Y-141347500D01*
X74645408Y-141349051D01*
X74665133Y-141352175D01*
X74673024Y-141351429D01*
X74708674Y-141348059D01*
X74720532Y-141347500D01*
X103857027Y-141347500D01*
X103868049Y-141348020D01*
X103875477Y-141349680D01*
X103942886Y-141347562D01*
X103946844Y-141347500D01*
X103974476Y-141347500D01*
X103978402Y-141347004D01*
X103978447Y-141347001D01*
X103990221Y-141346074D01*
X104015537Y-141345279D01*
X104026019Y-141344950D01*
X104026020Y-141344950D01*
X104033943Y-141344701D01*
X104053132Y-141339126D01*
X104072488Y-141335118D01*
X104092293Y-141332616D01*
X104105533Y-141327374D01*
X104132952Y-141316519D01*
X104144179Y-141312675D01*
X104178575Y-141302681D01*
X104178577Y-141302680D01*
X104186191Y-141300468D01*
X104193011Y-141296435D01*
X104193015Y-141296433D01*
X104203382Y-141290302D01*
X104221133Y-141281606D01*
X104232330Y-141277173D01*
X104232335Y-141277170D01*
X104239703Y-141274253D01*
X104246113Y-141269596D01*
X104246120Y-141269592D01*
X104275089Y-141248544D01*
X104285009Y-141242027D01*
X104292584Y-141237547D01*
X104356725Y-141220000D01*
X105394325Y-141220000D01*
X105468384Y-141244063D01*
X105476925Y-141250268D01*
X105482270Y-141254151D01*
X105655197Y-141331144D01*
X105742403Y-141349680D01*
X105833897Y-141369128D01*
X105833901Y-141369128D01*
X105840354Y-141370500D01*
X106029646Y-141370500D01*
X106036099Y-141369128D01*
X106036103Y-141369128D01*
X106127597Y-141349680D01*
X106214803Y-141331144D01*
X106387730Y-141254151D01*
X106393075Y-141250268D01*
X106401616Y-141244063D01*
X106475675Y-141220000D01*
X107894325Y-141220000D01*
X107968384Y-141244063D01*
X107976925Y-141250268D01*
X107982270Y-141254151D01*
X108155197Y-141331144D01*
X108242403Y-141349680D01*
X108333897Y-141369128D01*
X108333901Y-141369128D01*
X108340354Y-141370500D01*
X108529646Y-141370500D01*
X108536099Y-141369128D01*
X108536103Y-141369128D01*
X108627597Y-141349680D01*
X108714803Y-141331144D01*
X108887730Y-141254151D01*
X108893075Y-141250268D01*
X108901616Y-141244063D01*
X108975675Y-141220000D01*
X161803500Y-141220000D01*
X161871621Y-141240002D01*
X161918114Y-141293658D01*
X161929500Y-141346000D01*
X161929500Y-141414866D01*
X161929837Y-141418112D01*
X161929837Y-141418116D01*
X161939515Y-141511383D01*
X161940359Y-141519519D01*
X161995744Y-141685529D01*
X162087834Y-141834345D01*
X162211689Y-141957984D01*
X162360666Y-142049814D01*
X162367614Y-142052119D01*
X162367615Y-142052119D01*
X162520241Y-142102744D01*
X162520243Y-142102745D01*
X162526772Y-142104910D01*
X162630134Y-142115500D01*
X163354866Y-142115500D01*
X163358112Y-142115163D01*
X163358116Y-142115163D01*
X163452661Y-142105353D01*
X163452665Y-142105352D01*
X163459519Y-142104641D01*
X163466055Y-142102460D01*
X163466057Y-142102460D01*
X163618581Y-142051574D01*
X163625529Y-142049256D01*
X163774345Y-141957166D01*
X163897984Y-141833311D01*
X163989814Y-141684334D01*
X164044910Y-141518228D01*
X164055500Y-141414866D01*
X164055500Y-141346000D01*
X164075502Y-141277879D01*
X164129158Y-141231386D01*
X164181500Y-141220000D01*
X164728500Y-141220000D01*
X164796621Y-141240002D01*
X164843114Y-141293658D01*
X164854500Y-141346000D01*
X164854500Y-141414866D01*
X164854837Y-141418112D01*
X164854837Y-141418116D01*
X164864515Y-141511383D01*
X164865359Y-141519519D01*
X164920744Y-141685529D01*
X165012834Y-141834345D01*
X165136689Y-141957984D01*
X165285666Y-142049814D01*
X165292614Y-142052119D01*
X165292615Y-142052119D01*
X165445241Y-142102744D01*
X165445243Y-142102745D01*
X165451772Y-142104910D01*
X165555134Y-142115500D01*
X166279866Y-142115500D01*
X166283112Y-142115163D01*
X166283116Y-142115163D01*
X166377661Y-142105353D01*
X166377665Y-142105352D01*
X166384519Y-142104641D01*
X166391055Y-142102460D01*
X166391057Y-142102460D01*
X166543581Y-142051574D01*
X166550529Y-142049256D01*
X166699345Y-141957166D01*
X166822984Y-141833311D01*
X166914814Y-141684334D01*
X166969910Y-141518228D01*
X166980500Y-141414866D01*
X166980500Y-141346000D01*
X167000502Y-141277879D01*
X167054158Y-141231386D01*
X167106500Y-141220000D01*
X172894421Y-141220000D01*
X172962542Y-141240002D01*
X172968920Y-141244384D01*
X172978205Y-141251192D01*
X172982340Y-141253368D01*
X172982344Y-141253370D01*
X173107930Y-141319444D01*
X173215039Y-141375797D01*
X173219458Y-141377340D01*
X173463273Y-141462484D01*
X173463279Y-141462486D01*
X173467690Y-141464026D01*
X173472283Y-141464898D01*
X173723854Y-141512661D01*
X173730606Y-141513943D01*
X173857616Y-141518933D01*
X173993345Y-141524266D01*
X173993350Y-141524266D01*
X173998013Y-141524449D01*
X174093943Y-141513943D01*
X174259382Y-141495825D01*
X174259387Y-141495824D01*
X174264035Y-141495315D01*
X174379567Y-141464898D01*
X174518309Y-141428370D01*
X174522829Y-141427180D01*
X174657950Y-141369128D01*
X174764407Y-141323391D01*
X174764410Y-141323389D01*
X174768710Y-141321542D01*
X174902329Y-141238856D01*
X174968631Y-141220000D01*
X192935000Y-141220000D01*
X192935000Y-140720000D01*
X210559000Y-140720000D01*
X210627121Y-140740002D01*
G37*
%TD.AperFunction*%
M02*
