%TF.GenerationSoftware,KiCad,Pcbnew,(6.0.0)*%
%TF.CreationDate,2022-05-15T11:53:32-07:00*%
%TF.ProjectId,Stencil,5374656e-6369-46c2-9e6b-696361645f70,rev?*%
%TF.SameCoordinates,Original*%
%TF.FileFunction,Paste,Top*%
%TF.FilePolarity,Positive*%
%FSLAX46Y46*%
G04 Gerber Fmt 4.6, Leading zero omitted, Abs format (unit mm)*
G04 Created by KiCad (PCBNEW (6.0.0)) date 2022-05-15 11:53:32*
%MOMM*%
%LPD*%
G01*
G04 APERTURE LIST*
G04 Aperture macros list*
%AMRoundRect*
0 Rectangle with rounded corners*
0 $1 Rounding radius*
0 $2 $3 $4 $5 $6 $7 $8 $9 X,Y pos of 4 corners*
0 Add a 4 corners polygon primitive as box body*
4,1,4,$2,$3,$4,$5,$6,$7,$8,$9,$2,$3,0*
0 Add four circle primitives for the rounded corners*
1,1,$1+$1,$2,$3*
1,1,$1+$1,$4,$5*
1,1,$1+$1,$6,$7*
1,1,$1+$1,$8,$9*
0 Add four rect primitives between the rounded corners*
20,1,$1+$1,$2,$3,$4,$5,0*
20,1,$1+$1,$4,$5,$6,$7,0*
20,1,$1+$1,$6,$7,$8,$9,0*
20,1,$1+$1,$8,$9,$2,$3,0*%
%AMRotRect*
0 Rectangle, with rotation*
0 The origin of the aperture is its center*
0 $1 length*
0 $2 width*
0 $3 Rotation angle, in degrees counterclockwise*
0 Add horizontal line*
21,1,$1,$2,0,0,$3*%
%AMFreePoly0*
4,1,21,3.042426,3.042426,3.060000,3.000000,3.060000,-4.000000,3.042426,-4.042426,3.000000,-4.060000,2.060000,-4.060000,2.060000,-6.000000,2.042426,-6.042426,2.000000,-6.060000,-3.000000,-6.060000,-3.042426,-6.042426,-3.060000,-6.000000,-3.060000,-4.060000,-4.000000,-4.060000,-4.042426,-4.042426,-4.060000,-4.000000,-4.060000,3.000000,-4.042426,3.042426,-4.000000,3.060000,3.000000,3.060000,
3.042426,3.042426,3.042426,3.042426,$1*%
G04 Aperture macros list end*
%ADD10R,1.900000X1.700000*%
%ADD11R,1.100000X1.700000*%
%ADD12RoundRect,0.425000X0.425000X-1.275000X0.425000X1.275000X-0.425000X1.275000X-0.425000X-1.275000X0*%
%ADD13RoundRect,0.250000X0.625000X-0.312500X0.625000X0.312500X-0.625000X0.312500X-0.625000X-0.312500X0*%
%ADD14RoundRect,0.250000X-0.625000X0.312500X-0.625000X-0.312500X0.625000X-0.312500X0.625000X0.312500X0*%
%ADD15RoundRect,0.250000X0.312500X0.625000X-0.312500X0.625000X-0.312500X-0.625000X0.312500X-0.625000X0*%
%ADD16RotRect,1.900000X1.700000X292.000000*%
%ADD17RotRect,1.100000X1.700000X292.000000*%
%ADD18RoundRect,0.250000X-0.312500X-0.625000X0.312500X-0.625000X0.312500X0.625000X-0.312500X0.625000X0*%
%ADD19RoundRect,0.250000X-0.696554X0.055616X-0.462425X-0.523874X0.696554X-0.055616X0.462425X0.523874X0*%
%ADD20RoundRect,0.250000X-0.462425X0.523874X-0.696554X-0.055616X0.462425X-0.523874X0.696554X0.055616X0*%
%ADD21RotRect,1.900000X1.700000X95.400000*%
%ADD22RotRect,1.100000X1.700000X95.400000*%
%ADD23R,1.700000X1.900000*%
%ADD24R,1.700000X1.100000*%
%ADD25RoundRect,0.250000X0.332727X-0.614470X0.691213X-0.102500X-0.332727X0.614470X-0.691213X0.102500X0*%
%ADD26RotRect,1.900000X1.700000X57.500000*%
%ADD27RotRect,1.100000X1.700000X57.500000*%
%ADD28RoundRect,0.250000X0.684585X-0.140090X0.522823X0.463614X-0.684585X0.140090X-0.522823X-0.463614X0*%
%ADD29RoundRect,0.250000X0.697124X0.047952X0.379912X0.586471X-0.697124X-0.047952X-0.379912X-0.586471X0*%
%ADD30RotRect,1.900000X1.700000X213.000000*%
%ADD31RotRect,1.100000X1.700000X213.000000*%
%ADD32RotRect,1.900000X1.700000X183.600000*%
%ADD33RotRect,1.100000X1.700000X183.600000*%
%ADD34RotRect,1.900000X1.700000X248.000000*%
%ADD35RotRect,1.100000X1.700000X248.000000*%
%ADD36RotRect,1.900000X1.700000X257.100000*%
%ADD37RotRect,1.100000X1.700000X257.100000*%
%ADD38RotRect,1.900000X1.700000X122.500000*%
%ADD39RotRect,1.100000X1.700000X122.500000*%
%ADD40R,2.750000X3.050000*%
%ADD41R,1.200000X2.200000*%
%ADD42RotRect,1.900000X1.700000X286.500000*%
%ADD43RotRect,1.100000X1.700000X286.500000*%
%ADD44RoundRect,0.250000X-0.102500X0.691213X-0.614470X0.332727X0.102500X-0.691213X0.614470X-0.332727X0*%
%ADD45RotRect,1.900000X1.700000X120.500000*%
%ADD46RotRect,1.100000X1.700000X120.500000*%
%ADD47RoundRect,0.150000X-0.150000X0.587500X-0.150000X-0.587500X0.150000X-0.587500X0.150000X0.587500X0*%
%ADD48RoundRect,0.250001X0.462499X0.624999X-0.462499X0.624999X-0.462499X-0.624999X0.462499X-0.624999X0*%
%ADD49RotRect,1.900000X1.700000X301.200000*%
%ADD50RotRect,1.100000X1.700000X301.200000*%
%ADD51RotRect,1.900000X1.700000X21.900000*%
%ADD52RotRect,1.100000X1.700000X21.900000*%
%ADD53R,3.050000X2.750000*%
%ADD54R,2.200000X1.200000*%
%ADD55RoundRect,0.250000X-0.691213X-0.102500X-0.332727X-0.614470X0.691213X0.102500X0.332727X0.614470X0*%
%ADD56RotRect,1.900000X1.700000X242.400000*%
%ADD57RotRect,1.100000X1.700000X242.400000*%
%ADD58RoundRect,0.250000X0.696554X-0.055616X0.462425X0.523874X-0.696554X0.055616X-0.462425X-0.523874X0*%
%ADD59RotRect,1.900000X1.700000X112.000000*%
%ADD60RotRect,1.100000X1.700000X112.000000*%
%ADD61RotRect,1.900000X1.700000X271.800000*%
%ADD62RotRect,1.100000X1.700000X271.800000*%
%ADD63RotRect,1.900000X1.700000X68.000000*%
%ADD64RotRect,1.100000X1.700000X68.000000*%
%ADD65RotRect,1.900000X1.700000X315.900000*%
%ADD66RotRect,1.100000X1.700000X315.900000*%
%ADD67RoundRect,0.250000X-0.698511X0.019085X-0.434374X-0.547358X0.698511X-0.019085X0.434374X0.547358X0*%
%ADD68RotRect,1.900000X1.700000X350.300000*%
%ADD69RotRect,1.100000X1.700000X350.300000*%
%ADD70RoundRect,0.250000X0.691213X0.102500X0.332727X0.614470X-0.691213X-0.102500X-0.332727X-0.614470X0*%
%ADD71RoundRect,0.250000X0.162353X-0.679649X0.641131X-0.277907X-0.162353X0.679649X-0.641131X0.277907X0*%
%ADD72RotRect,1.900000X1.700000X36.600000*%
%ADD73RotRect,1.100000X1.700000X36.600000*%
%ADD74RoundRect,0.250000X-0.697124X-0.047952X-0.379912X-0.586471X0.697124X0.047952X0.379912X0.586471X0*%
%ADD75RotRect,1.900000X1.700000X330.600000*%
%ADD76RotRect,1.100000X1.700000X330.600000*%
%ADD77RotRect,1.900000X1.700000X80.700000*%
%ADD78RotRect,1.100000X1.700000X80.700000*%
%ADD79RotRect,1.900000X1.700000X144.200000*%
%ADD80RotRect,1.100000X1.700000X144.200000*%
%ADD81FreePoly0,0.000000*%
%ADD82RotRect,1.900000X1.700000X110.100000*%
%ADD83RotRect,1.100000X1.700000X110.100000*%
%ADD84RoundRect,0.150000X-0.587500X-0.150000X0.587500X-0.150000X0.587500X0.150000X-0.587500X0.150000X0*%
%ADD85RotRect,1.900000X1.700000X139.500000*%
%ADD86RotRect,1.100000X1.700000X139.500000*%
%ADD87RotRect,1.900000X1.700000X51.300000*%
%ADD88RotRect,1.100000X1.700000X51.300000*%
%ADD89RotRect,1.900000X1.700000X124.800000*%
%ADD90RotRect,1.100000X1.700000X124.800000*%
%ADD91RotRect,1.900000X1.700000X227.700000*%
%ADD92RotRect,1.100000X1.700000X227.700000*%
%ADD93RotRect,1.900000X1.700000X22.000000*%
%ADD94RotRect,1.100000X1.700000X22.000000*%
%ADD95FreePoly0,180.000000*%
%ADD96RoundRect,0.250000X-0.379912X0.586471X-0.697124X0.047952X0.379912X-0.586471X0.697124X-0.047952X0*%
%ADD97RotRect,1.900000X1.700000X168.900000*%
%ADD98RotRect,1.100000X1.700000X168.900000*%
%ADD99RotRect,1.900000X1.700000X198.300000*%
%ADD100RotRect,1.100000X1.700000X198.300000*%
%ADD101RoundRect,0.250000X0.379912X-0.586471X0.697124X-0.047952X-0.379912X0.586471X-0.697124X0.047952X0*%
%ADD102RoundRect,0.250001X-0.624999X0.462499X-0.624999X-0.462499X0.624999X-0.462499X0.624999X0.462499X0*%
%ADD103RoundRect,0.250000X-0.583133X-0.385016X-0.041867X-0.697516X0.583133X0.385016X0.041867X0.697516X0*%
%ADD104RotRect,1.900000X1.700000X59.500000*%
%ADD105RotRect,1.100000X1.700000X59.500000*%
%ADD106RoundRect,0.150000X0.150000X-0.587500X0.150000X0.587500X-0.150000X0.587500X-0.150000X-0.587500X0*%
%ADD107RotRect,1.900000X1.700000X66.000000*%
%ADD108RotRect,1.100000X1.700000X66.000000*%
%ADD109RotRect,1.900000X1.700000X158.000000*%
%ADD110RotRect,1.100000X1.700000X158.000000*%
%ADD111RoundRect,0.250000X-0.434374X0.547358X-0.698511X-0.019085X0.434374X-0.547358X0.698511X0.019085X0*%
%ADD112RoundRect,0.250000X0.462425X-0.523874X0.696554X0.055616X-0.462425X0.523874X-0.696554X-0.055616X0*%
G04 APERTURE END LIST*
D10*
%TO.C,D152*%
X255833103Y-132191820D03*
D11*
X258683103Y-132191820D03*
X252983103Y-132191820D03*
%TD*%
D12*
%TO.C,wht-*%
X261208103Y-106749999D03*
%TD*%
D13*
%TO.C,R74*%
X261243103Y-127934320D03*
X261243103Y-125009320D03*
%TD*%
D10*
%TO.C,D154*%
X255833103Y-118191820D03*
D11*
X258683103Y-118191820D03*
X252983103Y-118191820D03*
%TD*%
D10*
%TO.C,D149*%
X255833103Y-107691820D03*
D11*
X258683103Y-107691820D03*
X252983103Y-107691820D03*
%TD*%
D10*
%TO.C,D156*%
X255833103Y-104191820D03*
D11*
X258683103Y-104191820D03*
X252983103Y-104191820D03*
%TD*%
D10*
%TO.C,D151*%
X255833103Y-125191820D03*
D11*
X252983103Y-125191820D03*
X258683103Y-125191820D03*
%TD*%
D10*
%TO.C,D155*%
X256033103Y-97191820D03*
D11*
X253183103Y-97191820D03*
X258883103Y-97191820D03*
%TD*%
D10*
%TO.C,D147*%
X255833103Y-114691820D03*
D11*
X258683103Y-114691820D03*
X252983103Y-114691820D03*
%TD*%
D14*
%TO.C,R73*%
X261283103Y-134749320D03*
X261283103Y-137674320D03*
%TD*%
D10*
%TO.C,D153*%
X255833103Y-111191820D03*
D11*
X252983103Y-111191820D03*
X258683103Y-111191820D03*
%TD*%
D10*
%TO.C,D145*%
X255833103Y-135691820D03*
D11*
X258683103Y-135691820D03*
X252983103Y-135691820D03*
%TD*%
D10*
%TO.C,D146*%
X255833103Y-128691820D03*
D11*
X252983103Y-128691820D03*
X258683103Y-128691820D03*
%TD*%
D14*
%TO.C,R75*%
X261003103Y-96066820D03*
X261003103Y-98991820D03*
%TD*%
%TO.C,R76*%
X261253103Y-129891820D03*
X261253103Y-132816820D03*
%TD*%
D12*
%TO.C,amb-*%
X261183103Y-119616820D03*
%TD*%
D14*
%TO.C,R77*%
X260603103Y-100749320D03*
X260603103Y-103674320D03*
%TD*%
D12*
%TO.C,7V+*%
X261218583Y-113301820D03*
%TD*%
D15*
%TO.C,R78*%
X261775603Y-94019999D03*
X258850603Y-94019999D03*
%TD*%
D10*
%TO.C,D150*%
X255833103Y-100691820D03*
D11*
X252983103Y-100691820D03*
X258683103Y-100691820D03*
%TD*%
D10*
%TO.C,D148*%
X255833103Y-121691820D03*
D11*
X252983103Y-121691820D03*
X258683103Y-121691820D03*
%TD*%
D10*
%TO.C,D101*%
X256146908Y-31292962D03*
D11*
X253296908Y-31292962D03*
X258996908Y-31292962D03*
%TD*%
D16*
%TO.C,D139*%
X323570654Y-77740261D03*
D17*
X322503025Y-75097787D03*
X324638283Y-80382735D03*
%TD*%
D12*
%TO.C,7V+*%
X240271167Y-113301820D03*
%TD*%
D18*
%TO.C,R126*%
X149992500Y-101200000D03*
X152917500Y-101200000D03*
%TD*%
D14*
%TO.C,R19*%
X86741908Y-48850462D03*
X86741908Y-51775462D03*
%TD*%
D19*
%TO.C,R64*%
X317521908Y-72092962D03*
X318617632Y-74804975D03*
%TD*%
D13*
%TO.C,R142*%
X169415000Y-105162500D03*
X169415000Y-102237500D03*
%TD*%
D10*
%TO.C,D114*%
X261646908Y-34892962D03*
D11*
X264496908Y-34892962D03*
X258796908Y-34892962D03*
%TD*%
D20*
%TO.C,R62*%
X279521908Y-72092962D03*
X278426183Y-74804975D03*
%TD*%
D21*
%TO.C,D82*%
X206721908Y-77667962D03*
D22*
X206990117Y-80505314D03*
X206453699Y-74830610D03*
%TD*%
D23*
%TO.C,D115*%
X260496908Y-74692962D03*
D24*
X260496908Y-77542962D03*
X260496908Y-71842962D03*
%TD*%
D25*
%TO.C,R24*%
X89878141Y-76963117D03*
X91555852Y-74567098D03*
%TD*%
D26*
%TO.C,D53*%
X168393810Y-46740891D03*
D27*
X166862506Y-49144557D03*
X169925114Y-44337225D03*
%TD*%
D28*
%TO.C,R38*%
X200965936Y-33298510D03*
X200208890Y-30473177D03*
%TD*%
D15*
%TO.C,R61*%
X294464408Y-45112962D03*
X291539408Y-45112962D03*
%TD*%
D29*
%TO.C,R25*%
X139921908Y-37592962D03*
X138437358Y-35072697D03*
%TD*%
D18*
%TO.C,R66*%
X301021908Y-42092962D03*
X303946908Y-42092962D03*
%TD*%
D15*
%TO.C,R67*%
X295464408Y-42112962D03*
X292539408Y-42112962D03*
%TD*%
D30*
%TO.C,D30*%
X122182328Y-43224743D03*
D31*
X124572539Y-41672522D03*
X119792117Y-44776964D03*
%TD*%
D23*
%TO.C,D120*%
X260496908Y-59692962D03*
D24*
X260496908Y-62542962D03*
X260496908Y-56842962D03*
%TD*%
D32*
%TO.C,D31*%
X125728003Y-53945873D03*
D33*
X128572379Y-53766920D03*
X122883627Y-54124826D03*
%TD*%
D34*
%TO.C,D123*%
X276531350Y-70345374D03*
D35*
X277598979Y-67702900D03*
X275463721Y-72987848D03*
%TD*%
D29*
%TO.C,R32*%
X137921908Y-38792962D03*
X136437358Y-36272697D03*
%TD*%
D23*
%TO.C,D106*%
X251596908Y-52192962D03*
D24*
X251596908Y-55042962D03*
X251596908Y-49342962D03*
%TD*%
D10*
%TO.C,D15*%
X66521908Y-38692962D03*
D11*
X69371908Y-38692962D03*
X63671908Y-38692962D03*
%TD*%
D36*
%TO.C,D40*%
X108489223Y-33654525D03*
D37*
X109125486Y-30876456D03*
X107852960Y-36432594D03*
%TD*%
D38*
%TO.C,D49*%
X139490604Y-46689296D03*
D39*
X141021908Y-49092962D03*
X137959300Y-44285630D03*
%TD*%
D40*
%TO.C,Q23*%
X45185000Y-112495000D03*
X42135000Y-112495000D03*
X45185000Y-109145000D03*
X42135000Y-109145000D03*
D41*
X45940000Y-104520000D03*
X41380000Y-104520000D03*
%TD*%
D13*
%TO.C,R143*%
X177935000Y-95645000D03*
X177935000Y-92720000D03*
%TD*%
D11*
%TO.C,D154*%
X232035687Y-118191820D03*
X237735687Y-118191820D03*
D10*
X234885687Y-118191820D03*
%TD*%
D42*
%TO.C,D87*%
X198292567Y-34066247D03*
D43*
X197483123Y-31333611D03*
X199102011Y-36798883D03*
%TD*%
D13*
%TO.C,R74*%
X240295687Y-125009320D03*
X240295687Y-127934320D03*
%TD*%
D14*
%TO.C,R43*%
X187831908Y-48907486D03*
X187831908Y-51832486D03*
%TD*%
D10*
%TO.C,D100*%
X271496908Y-34942962D03*
D11*
X274346908Y-34942962D03*
X268646908Y-34942962D03*
%TD*%
%TO.C,D149*%
X232035687Y-107691820D03*
X237735687Y-107691820D03*
D10*
X234885687Y-107691820D03*
%TD*%
%TO.C,D109*%
X240396908Y-38692962D03*
D11*
X237546908Y-38692962D03*
X243246908Y-38692962D03*
%TD*%
D38*
%TO.C,D61*%
X135192207Y-39942164D03*
D39*
X136723511Y-42345830D03*
X133660903Y-37538498D03*
%TD*%
D23*
%TO.C,D70*%
X148871908Y-70742962D03*
D24*
X148871908Y-67892962D03*
X148871908Y-73592962D03*
%TD*%
D44*
%TO.C,R21*%
X122965006Y-39281961D03*
X120568987Y-40959672D03*
%TD*%
D23*
%TO.C,D9*%
X46721908Y-67192962D03*
D24*
X46721908Y-70042962D03*
X46721908Y-64342962D03*
%TD*%
D45*
%TO.C,D51*%
X150575424Y-49137319D03*
D46*
X152021908Y-51592962D03*
X149128940Y-46681676D03*
%TD*%
D13*
%TO.C,R50*%
X266476908Y-34135462D03*
X266476908Y-31210462D03*
%TD*%
D47*
%TO.C,Q24*%
X50135000Y-104082500D03*
X48235000Y-104082500D03*
X49185000Y-105957500D03*
%TD*%
D14*
%TO.C,R148*%
X177955000Y-105277500D03*
X177955000Y-108202500D03*
%TD*%
D10*
%TO.C,D144*%
X298371908Y-69092962D03*
D11*
X295521908Y-69092962D03*
X301221908Y-69092962D03*
%TD*%
D48*
%TO.C,D207*%
X165410000Y-92880000D03*
X162435000Y-92880000D03*
%TD*%
D11*
%TO.C,D152*%
X232035687Y-132191820D03*
X237735687Y-132191820D03*
D10*
X234885687Y-132191820D03*
%TD*%
%TO.C,D72*%
X153921908Y-61342962D03*
D11*
X151071908Y-61342962D03*
X156771908Y-61342962D03*
%TD*%
D23*
%TO.C,D104*%
X256146908Y-74692962D03*
D24*
X256146908Y-77542962D03*
X256146908Y-71842962D03*
%TD*%
D48*
%TO.C,D211*%
X165410000Y-104880000D03*
X162435000Y-104880000D03*
%TD*%
D49*
%TO.C,D75*%
X193085807Y-36368131D03*
D50*
X191609430Y-33930343D03*
X194562184Y-38805919D03*
%TD*%
D51*
%TO.C,D48*%
X82877551Y-63641940D03*
D52*
X80233218Y-64704955D03*
X85521884Y-62578925D03*
%TD*%
D13*
%TO.C,R144*%
X177915000Y-138662500D03*
X177915000Y-135737500D03*
%TD*%
D53*
%TO.C,Q1*%
X35010000Y-135195000D03*
X35010000Y-138245000D03*
X31660000Y-135195000D03*
X31660000Y-138245000D03*
D54*
X39635000Y-139000000D03*
X39635000Y-134440000D03*
%TD*%
D10*
%TO.C,D17*%
X45421908Y-34892962D03*
D11*
X48271908Y-34892962D03*
X42571908Y-34892962D03*
%TD*%
D55*
%TO.C,R15*%
X117460907Y-45149864D03*
X119138618Y-47545883D03*
%TD*%
D10*
%TO.C,D142*%
X298371908Y-62592962D03*
D11*
X301221908Y-62592962D03*
X295521908Y-62592962D03*
%TD*%
D56*
%TO.C,D77*%
X214920245Y-35681956D03*
D57*
X216240639Y-33156276D03*
X213599851Y-38207636D03*
%TD*%
D12*
%TO.C,wht-*%
X240260687Y-106749999D03*
%TD*%
D13*
%TO.C,R30*%
X155521908Y-70842962D03*
X155521908Y-67917962D03*
%TD*%
D45*
%TO.C,D52*%
X142454810Y-35351252D03*
D46*
X143901294Y-37806895D03*
X141008326Y-32895609D03*
%TD*%
D10*
%TO.C,D73*%
X182361908Y-55399986D03*
D11*
X185211908Y-55399986D03*
X179511908Y-55399986D03*
%TD*%
D13*
%TO.C,R98*%
X32915000Y-125162500D03*
X32915000Y-122237500D03*
%TD*%
D56*
%TO.C,D29*%
X113830245Y-35624932D03*
D57*
X115150639Y-33099252D03*
X112509851Y-38150612D03*
%TD*%
D10*
%TO.C,D2*%
X35521908Y-34942962D03*
D11*
X32671908Y-34942962D03*
X38371908Y-34942962D03*
%TD*%
D10*
%TO.C,D113*%
X250296908Y-34892962D03*
D11*
X253146908Y-34892962D03*
X247446908Y-34892962D03*
%TD*%
D38*
%TO.C,D50*%
X130893810Y-33195033D03*
D39*
X132425114Y-35598699D03*
X129362506Y-30791367D03*
%TD*%
D10*
%TO.C,D111*%
X271396908Y-38692962D03*
D11*
X274246908Y-38692962D03*
X268546908Y-38692962D03*
%TD*%
D48*
%TO.C,D208*%
X165410000Y-95880000D03*
X162435000Y-95880000D03*
%TD*%
D23*
%TO.C,D8*%
X51271908Y-74692962D03*
D24*
X51271908Y-77542962D03*
X51271908Y-71842962D03*
%TD*%
D10*
%TO.C,D110*%
X240396908Y-31192962D03*
D11*
X243246908Y-31192962D03*
X237546908Y-31192962D03*
%TD*%
D58*
%TO.C,R70*%
X316521908Y-69092962D03*
X315426184Y-66380949D03*
%TD*%
D15*
%TO.C,R22*%
X128464408Y-56862962D03*
X125539408Y-56862962D03*
%TD*%
%TO.C,R125*%
X76377500Y-113740000D03*
X73452500Y-113740000D03*
%TD*%
D23*
%TO.C,D57*%
X148521908Y-63182962D03*
D24*
X148521908Y-60332962D03*
X148521908Y-66032962D03*
%TD*%
D13*
%TO.C,R97*%
X42915000Y-131662500D03*
X42915000Y-128737500D03*
%TD*%
D59*
%TO.C,D127*%
X320573801Y-70322790D03*
D60*
X321641430Y-72965264D03*
X319506172Y-67680316D03*
%TD*%
D61*
%TO.C,D76*%
X203913019Y-33160965D03*
D62*
X203823498Y-30312371D03*
X204002540Y-36009559D03*
%TD*%
D10*
%TO.C,D102*%
X255596908Y-38692962D03*
D11*
X258446908Y-38692962D03*
X252746908Y-38692962D03*
%TD*%
D63*
%TO.C,D133*%
X293021908Y-34614807D03*
D64*
X291954279Y-37257281D03*
X294089537Y-31972333D03*
%TD*%
D14*
%TO.C,R10*%
X52541908Y-67000462D03*
X52541908Y-69925462D03*
%TD*%
D65*
%TO.C,D38*%
X87543598Y-39858902D03*
D66*
X85496938Y-37875551D03*
X89590258Y-41842253D03*
%TD*%
D13*
%TO.C,R36*%
X152271908Y-70842962D03*
X152271908Y-67917962D03*
%TD*%
D25*
%TO.C,R48*%
X190968141Y-77020141D03*
X192645852Y-74624122D03*
%TD*%
D36*
%TO.C,D88*%
X209579223Y-33711549D03*
D37*
X210215486Y-30933480D03*
X208942960Y-36489618D03*
%TD*%
D18*
%TO.C,R130*%
X79492500Y-113700000D03*
X82417500Y-113700000D03*
%TD*%
D26*
%TO.C,D54*%
X176990604Y-33246628D03*
D27*
X175459300Y-35650294D03*
X178521908Y-30842962D03*
%TD*%
D53*
%TO.C,Q34*%
X89860000Y-112245000D03*
X93210000Y-112245000D03*
X89860000Y-109195000D03*
X93210000Y-109195000D03*
D54*
X85235000Y-108440000D03*
X85235000Y-113000000D03*
%TD*%
D14*
%TO.C,R73*%
X240335687Y-137674320D03*
X240335687Y-134749320D03*
%TD*%
D67*
%TO.C,R44*%
X194270407Y-32084185D03*
X195506566Y-34735135D03*
%TD*%
D10*
%TO.C,D13*%
X35521908Y-38692962D03*
D11*
X32671908Y-38692962D03*
X38371908Y-38692962D03*
%TD*%
D10*
%TO.C,D67*%
X171771908Y-31217962D03*
D11*
X168921908Y-31217962D03*
X174621908Y-31217962D03*
%TD*%
D18*
%TO.C,R131*%
X149992500Y-108700000D03*
X152917500Y-108700000D03*
%TD*%
D11*
%TO.C,D153*%
X237735687Y-111191820D03*
X232035687Y-111191820D03*
D10*
X234885687Y-111191820D03*
%TD*%
%TO.C,D124*%
X279521908Y-80092962D03*
D11*
X276671908Y-80092962D03*
X282371908Y-80092962D03*
%TD*%
D14*
%TO.C,R12*%
X52941908Y-42000462D03*
X52941908Y-44925462D03*
%TD*%
D32*
%TO.C,D79*%
X226818003Y-54002897D03*
D33*
X229662379Y-53823944D03*
X223973627Y-54181850D03*
%TD*%
D10*
%TO.C,D16*%
X66521908Y-31192962D03*
D11*
X63671908Y-31192962D03*
X69371908Y-31192962D03*
%TD*%
D28*
%TO.C,R14*%
X99875936Y-33241486D03*
X99118890Y-30416153D03*
%TD*%
D10*
%TO.C,D103*%
X256396908Y-80092962D03*
D11*
X253546908Y-80092962D03*
X259246908Y-80092962D03*
%TD*%
D14*
%TO.C,R52*%
X254741908Y-67000462D03*
X254741908Y-69925462D03*
%TD*%
D23*
%TO.C,D58*%
X148521908Y-78242962D03*
D24*
X148521908Y-75392962D03*
X148521908Y-81092962D03*
%TD*%
D16*
%TO.C,D140*%
X317576948Y-62905319D03*
D17*
X316509319Y-60262845D03*
X318644577Y-65547793D03*
%TD*%
D68*
%TO.C,D37*%
X81821908Y-51592962D03*
D69*
X79012653Y-51112767D03*
X84631163Y-52073157D03*
%TD*%
D70*
%TO.C,R23*%
X115832909Y-78536060D03*
X114155198Y-76140041D03*
%TD*%
D71*
%TO.C,R42*%
X185994033Y-73061886D03*
X188234713Y-71181732D03*
%TD*%
D23*
%TO.C,D22*%
X46721908Y-59692962D03*
D24*
X46721908Y-62542962D03*
X46721908Y-56842962D03*
%TD*%
D10*
%TO.C,D69*%
X153921908Y-80342962D03*
D11*
X151071908Y-80342962D03*
X156771908Y-80342962D03*
%TD*%
D18*
%TO.C,R123*%
X73992500Y-101200000D03*
X76917500Y-101200000D03*
%TD*%
D26*
%TO.C,D65*%
X172692207Y-39993759D03*
D27*
X171160903Y-42397425D03*
X174223511Y-37590093D03*
%TD*%
D53*
%TO.C,Q31*%
X66010000Y-119745000D03*
X66010000Y-116695000D03*
X62660000Y-116695000D03*
X62660000Y-119745000D03*
D54*
X70635000Y-120500000D03*
X70635000Y-115940000D03*
%TD*%
D53*
%TO.C,Q28*%
X66010000Y-101695000D03*
X62660000Y-101695000D03*
X62660000Y-104745000D03*
X66010000Y-104745000D03*
D54*
X70635000Y-105500000D03*
X70635000Y-100940000D03*
%TD*%
D63*
%TO.C,D122*%
X288518761Y-40675491D03*
D64*
X287451132Y-43317965D03*
X289586390Y-38033017D03*
%TD*%
D18*
%TO.C,R49*%
X248054408Y-32172962D03*
X250979408Y-32172962D03*
%TD*%
D45*
%TO.C,D64*%
X146515117Y-42244285D03*
D46*
X147961601Y-44699928D03*
X145068633Y-39788642D03*
%TD*%
D14*
%TO.C,R8*%
X61641908Y-36150462D03*
X61641908Y-39075462D03*
%TD*%
D72*
%TO.C,D36*%
X85659219Y-68608965D03*
D73*
X83371189Y-70308206D03*
X87947249Y-66909724D03*
%TD*%
D34*
%TO.C,D141*%
X284454279Y-71735436D03*
D35*
X285521908Y-69092962D03*
X283386650Y-74377910D03*
%TD*%
D53*
%TO.C,Q20*%
X53660000Y-109220000D03*
X53660000Y-112270000D03*
X57010000Y-109220000D03*
X57010000Y-112270000D03*
D54*
X49035000Y-108465000D03*
X49035000Y-113025000D03*
%TD*%
D23*
%TO.C,D19*%
X55621908Y-74692962D03*
D24*
X55621908Y-77542962D03*
X55621908Y-71842962D03*
%TD*%
D13*
%TO.C,R9*%
X40501908Y-33935462D03*
X40501908Y-31010462D03*
%TD*%
D59*
%TO.C,D126*%
X308586390Y-40652906D03*
D60*
X309654019Y-43295380D03*
X307518761Y-38010432D03*
%TD*%
D74*
%TO.C,R31*%
X138921908Y-40392962D03*
X140406458Y-42913227D03*
%TD*%
D75*
%TO.C,D74*%
X185227401Y-44477377D03*
D76*
X182744442Y-43078301D03*
X187710360Y-45876453D03*
%TD*%
D14*
%TO.C,R56*%
X266516908Y-36150462D03*
X266516908Y-39075462D03*
%TD*%
D15*
%TO.C,R46*%
X229554408Y-56919986D03*
X226629408Y-56919986D03*
%TD*%
D18*
%TO.C,R139*%
X168992500Y-109700000D03*
X171917500Y-109700000D03*
%TD*%
%TO.C,R108*%
X149992500Y-93700000D03*
X152917500Y-93700000D03*
%TD*%
D23*
%TO.C,D24*%
X55621908Y-59692962D03*
D24*
X55621908Y-62542962D03*
X55621908Y-56842962D03*
%TD*%
D18*
%TO.C,R112*%
X149992500Y-91200000D03*
X152917500Y-91200000D03*
%TD*%
D23*
%TO.C,D59*%
X159021908Y-63242962D03*
D24*
X159021908Y-60392962D03*
X159021908Y-66092962D03*
%TD*%
D77*
%TO.C,D46*%
X99926223Y-77300502D03*
D78*
X99465652Y-80113041D03*
X100386794Y-74487963D03*
%TD*%
D48*
%TO.C,D213*%
X132172500Y-135220000D03*
X129197500Y-135220000D03*
%TD*%
D23*
%TO.C,D119*%
X260496908Y-44692962D03*
D24*
X260496908Y-47542962D03*
X260496908Y-41842962D03*
%TD*%
D53*
%TO.C,Q39*%
X111860000Y-119745000D03*
X115210000Y-119745000D03*
X111860000Y-116695000D03*
X115210000Y-116695000D03*
D54*
X107235000Y-115940000D03*
X107235000Y-120500000D03*
%TD*%
D10*
%TO.C,D112*%
X271396908Y-31192962D03*
D11*
X268546908Y-31192962D03*
X274246908Y-31192962D03*
%TD*%
D79*
%TO.C,D32*%
X122421908Y-66892962D03*
D80*
X124733440Y-68560091D03*
X120110376Y-65225833D03*
%TD*%
D15*
%TO.C,R59*%
X250939408Y-38512962D03*
X248014408Y-38512962D03*
%TD*%
D11*
%TO.C,D155*%
X237935687Y-97191820D03*
X232235687Y-97191820D03*
D10*
X235085687Y-97191820D03*
%TD*%
D23*
%TO.C,D21*%
X46721908Y-44692962D03*
D24*
X46721908Y-47542962D03*
X46721908Y-41842962D03*
%TD*%
D48*
%TO.C,D206*%
X165410000Y-89880000D03*
X162435000Y-89880000D03*
%TD*%
D63*
%TO.C,D121*%
X282525055Y-55510433D03*
D64*
X281457426Y-58152907D03*
X283592684Y-52867959D03*
%TD*%
D81*
%TO.C,Q41*%
X188435000Y-96220000D03*
%TD*%
D11*
%TO.C,D147*%
X232035687Y-114691820D03*
X237735687Y-114691820D03*
D10*
X234885687Y-114691820D03*
%TD*%
D70*
%TO.C,R47*%
X216922909Y-78593084D03*
X215245198Y-76197065D03*
%TD*%
D10*
%TO.C,D25*%
X81271908Y-55342962D03*
D11*
X84121908Y-55342962D03*
X78421908Y-55342962D03*
%TD*%
%TO.C,D151*%
X237735687Y-125191820D03*
X232035687Y-125191820D03*
D10*
X234885687Y-125191820D03*
%TD*%
D74*
%TO.C,R26*%
X141207016Y-39239911D03*
X142691566Y-41760176D03*
%TD*%
D18*
%TO.C,R104*%
X149992500Y-96200000D03*
X152917500Y-96200000D03*
%TD*%
D13*
%TO.C,R2*%
X61601908Y-34135462D03*
X61601908Y-31210462D03*
%TD*%
D18*
%TO.C,R138*%
X101492500Y-113700000D03*
X104417500Y-113700000D03*
%TD*%
D15*
%TO.C,R3*%
X59464408Y-31612962D03*
X56539408Y-31612962D03*
%TD*%
D23*
%TO.C,D60*%
X159271908Y-78242962D03*
D24*
X159271908Y-75392962D03*
X159271908Y-81092962D03*
%TD*%
D82*
%TO.C,D45*%
X111168336Y-76237809D03*
D83*
X112147766Y-78914228D03*
X110188906Y-73561390D03*
%TD*%
D14*
%TO.C,R4*%
X49866908Y-67000462D03*
X49866908Y-69925462D03*
%TD*%
D84*
%TO.C,Q4*%
X31647500Y-128770000D03*
X31647500Y-130670000D03*
X33522500Y-129720000D03*
%TD*%
D85*
%TO.C,D92*%
X221530941Y-69850205D03*
D86*
X223698098Y-71701132D03*
X219363784Y-67999278D03*
%TD*%
D10*
%TO.C,D129*%
X292171908Y-65842962D03*
D11*
X289321908Y-65842962D03*
X295021908Y-65842962D03*
%TD*%
D23*
%TO.C,D116*%
X251596908Y-74692962D03*
D24*
X251596908Y-71842962D03*
X251596908Y-77542962D03*
%TD*%
D34*
%TO.C,D135*%
X273478306Y-77901923D03*
D35*
X274545935Y-75259449D03*
X272410677Y-80544397D03*
%TD*%
D21*
%TO.C,D34*%
X105721908Y-77692962D03*
D22*
X105990117Y-80530314D03*
X105453699Y-74855610D03*
%TD*%
D23*
%TO.C,D97*%
X234996908Y-34942962D03*
D24*
X234996908Y-32092962D03*
X234996908Y-37792962D03*
%TD*%
D23*
%TO.C,D99*%
X276896908Y-34992962D03*
D24*
X276896908Y-32142962D03*
X276896908Y-37842962D03*
%TD*%
D14*
%TO.C,R75*%
X240055687Y-98991820D03*
X240055687Y-96066820D03*
%TD*%
D87*
%TO.C,D95*%
X190700259Y-72764563D03*
D88*
X188918317Y-74988790D03*
X192482201Y-70540336D03*
%TD*%
D13*
%TO.C,R57*%
X245376908Y-33935462D03*
X245376908Y-31010462D03*
%TD*%
D23*
%TO.C,D118*%
X251596908Y-59692962D03*
D24*
X251596908Y-62542962D03*
X251596908Y-56842962D03*
%TD*%
D23*
%TO.C,D117*%
X251596908Y-44692962D03*
D24*
X251596908Y-47542962D03*
X251596908Y-41842962D03*
%TD*%
D38*
%TO.C,D62*%
X143789001Y-53436428D03*
D39*
X145320305Y-55840094D03*
X142257697Y-51032762D03*
%TD*%
D18*
%TO.C,R128*%
X149992500Y-106200000D03*
X152917500Y-106200000D03*
%TD*%
D14*
%TO.C,R76*%
X240305687Y-132816820D03*
X240305687Y-129891820D03*
%TD*%
D12*
%TO.C,amb-*%
X240235687Y-119616820D03*
%TD*%
D89*
%TO.C,D33*%
X116220285Y-73613532D03*
D90*
X117846819Y-75953807D03*
X114593751Y-71273257D03*
%TD*%
D15*
%TO.C,R72*%
X316446908Y-77092962D03*
X313521908Y-77092962D03*
%TD*%
%TO.C,R6*%
X59664408Y-39012962D03*
X56739408Y-39012962D03*
%TD*%
D55*
%TO.C,R39*%
X218550907Y-45206888D03*
X220228618Y-47602907D03*
%TD*%
D18*
%TO.C,R1*%
X43179408Y-32172962D03*
X46104408Y-32172962D03*
%TD*%
%TO.C,R63*%
X303021908Y-48092962D03*
X305946908Y-48092962D03*
%TD*%
D23*
%TO.C,D23*%
X55621908Y-44692962D03*
D24*
X55621908Y-47542962D03*
X55621908Y-41842962D03*
%TD*%
D48*
%TO.C,D209*%
X165410000Y-98880000D03*
X162435000Y-98880000D03*
%TD*%
D11*
%TO.C,D146*%
X237735687Y-128691820D03*
X232035687Y-128691820D03*
D10*
X234885687Y-128691820D03*
%TD*%
D91*
%TO.C,D41*%
X118496436Y-38886170D03*
D92*
X120414522Y-36778221D03*
X116578350Y-40994119D03*
%TD*%
D18*
%TO.C,R127*%
X149992500Y-103700000D03*
X152917500Y-103700000D03*
%TD*%
D10*
%TO.C,D7*%
X51521908Y-80092962D03*
D11*
X48671908Y-80092962D03*
X54371908Y-80092962D03*
%TD*%
D18*
%TO.C,R120*%
X149992500Y-98700000D03*
X152917500Y-98700000D03*
%TD*%
D10*
%TO.C,D5*%
X51271908Y-31292962D03*
D11*
X48421908Y-31292962D03*
X54121908Y-31292962D03*
%TD*%
D14*
%TO.C,R146*%
X177955000Y-130777500D03*
X177955000Y-133702500D03*
%TD*%
D11*
%TO.C,D145*%
X232035687Y-135691820D03*
X237735687Y-135691820D03*
D10*
X234885687Y-135691820D03*
%TD*%
%TO.C,D63*%
X136021908Y-31092962D03*
D11*
X138871908Y-31092962D03*
X133171908Y-31092962D03*
%TD*%
D26*
%TO.C,D66*%
X164095413Y-53488023D03*
D27*
X162564109Y-55891689D03*
X165626717Y-51084357D03*
%TD*%
D53*
%TO.C,Q3*%
X51210000Y-138245000D03*
X47860000Y-135195000D03*
X51210000Y-135195000D03*
X47860000Y-138245000D03*
D54*
X43235000Y-134440000D03*
X43235000Y-139000000D03*
%TD*%
D79*
%TO.C,D80*%
X223511908Y-66949986D03*
D80*
X225823440Y-68617115D03*
X221200376Y-65282857D03*
%TD*%
D13*
%TO.C,R124*%
X122665000Y-139912500D03*
X122665000Y-136987500D03*
%TD*%
D49*
%TO.C,D27*%
X91995807Y-36311107D03*
D50*
X90519430Y-33873319D03*
X93472184Y-38748895D03*
%TD*%
D44*
%TO.C,R45*%
X224055006Y-39338985D03*
X221658987Y-41016696D03*
%TD*%
D23*
%TO.C,D105*%
X251596908Y-67192962D03*
D24*
X251596908Y-70042962D03*
X251596908Y-64342962D03*
%TD*%
D23*
%TO.C,D10*%
X46721908Y-52192962D03*
D24*
X46721908Y-55042962D03*
X46721908Y-49342962D03*
%TD*%
D28*
%TO.C,R41*%
X210465936Y-80298510D03*
X209708890Y-77473177D03*
%TD*%
D53*
%TO.C,Q21*%
X53635000Y-119770000D03*
X56985000Y-119770000D03*
X56985000Y-116720000D03*
X53635000Y-116720000D03*
D54*
X49010000Y-115965000D03*
X49010000Y-120525000D03*
%TD*%
D15*
%TO.C,R129*%
X82377500Y-101240000D03*
X79452500Y-101240000D03*
%TD*%
D85*
%TO.C,D44*%
X120440941Y-69793181D03*
D86*
X122608098Y-71644108D03*
X118273784Y-67942254D03*
%TD*%
D93*
%TO.C,D138*%
X307914382Y-52025333D03*
D94*
X305271908Y-53092962D03*
X310556856Y-50957704D03*
%TD*%
D23*
%TO.C,D108*%
X260496908Y-52192962D03*
D24*
X260496908Y-55042962D03*
X260496908Y-49342962D03*
%TD*%
D23*
%TO.C,D132*%
X298621908Y-33342962D03*
D24*
X298621908Y-36192962D03*
X298621908Y-30492962D03*
%TD*%
D53*
%TO.C,Q37*%
X111860000Y-104745000D03*
X115210000Y-101695000D03*
X115210000Y-104745000D03*
X111860000Y-101695000D03*
D54*
X107235000Y-100940000D03*
X107235000Y-105500000D03*
%TD*%
D16*
%TO.C,D143*%
X312589537Y-71735436D03*
D17*
X311521908Y-69092962D03*
X313657166Y-74377910D03*
%TD*%
D18*
%TO.C,R69*%
X302079408Y-45092962D03*
X305004408Y-45092962D03*
%TD*%
D95*
%TO.C,Q42*%
X197535000Y-132220000D03*
%TD*%
D96*
%TO.C,R34*%
X166821908Y-38492962D03*
X165337358Y-41013227D03*
%TD*%
D87*
%TO.C,D47*%
X89610259Y-72707539D03*
D88*
X87828317Y-74931766D03*
X91392201Y-70483312D03*
%TD*%
D97*
%TO.C,D91*%
X226445670Y-59683600D03*
D98*
X229242354Y-60232288D03*
X223648986Y-59134912D03*
%TD*%
D99*
%TO.C,D90*%
X225736625Y-48413654D03*
D100*
X228442488Y-47518776D03*
X223030762Y-49308532D03*
%TD*%
D23*
%TO.C,D107*%
X260496908Y-67192962D03*
D24*
X260496908Y-70042962D03*
X260496908Y-64342962D03*
%TD*%
D84*
%TO.C,Q40*%
X101997500Y-108820000D03*
X101997500Y-110720000D03*
X103872500Y-109770000D03*
%TD*%
D11*
%TO.C,D156*%
X232035687Y-104191820D03*
X237735687Y-104191820D03*
D10*
X234885687Y-104191820D03*
%TD*%
D23*
%TO.C,D12*%
X55621908Y-52192962D03*
D24*
X55621908Y-55042962D03*
X55621908Y-49342962D03*
%TD*%
D99*
%TO.C,D42*%
X124646625Y-48356630D03*
D100*
X127352488Y-47461752D03*
X121940762Y-49251508D03*
%TD*%
D30*
%TO.C,D78*%
X223272328Y-43281767D03*
D31*
X225662539Y-41729546D03*
X220882117Y-44833988D03*
%TD*%
D65*
%TO.C,D86*%
X188633598Y-39915926D03*
D66*
X186586938Y-37932575D03*
X190680258Y-41899277D03*
%TD*%
D14*
%TO.C,R60*%
X257816908Y-42000462D03*
X257816908Y-44925462D03*
%TD*%
D15*
%TO.C,R65*%
X307714408Y-69112962D03*
X304789408Y-69112962D03*
%TD*%
D18*
%TO.C,R117*%
X49442500Y-101450000D03*
X52367500Y-101450000D03*
%TD*%
D53*
%TO.C,Q38*%
X111860000Y-109195000D03*
X111860000Y-112245000D03*
X115210000Y-109195000D03*
X115210000Y-112245000D03*
D54*
X107235000Y-108440000D03*
X107235000Y-113000000D03*
%TD*%
D77*
%TO.C,D94*%
X201016223Y-77357526D03*
D78*
X200555652Y-80170065D03*
X201476794Y-74544987D03*
%TD*%
D14*
%TO.C,R5*%
X49541908Y-42000462D03*
X49541908Y-44925462D03*
%TD*%
D18*
%TO.C,R115*%
X54742500Y-101450000D03*
X57667500Y-101450000D03*
%TD*%
D14*
%TO.C,R55*%
X245416908Y-35950462D03*
X245416908Y-38875462D03*
%TD*%
%TO.C,R53*%
X254416908Y-42000462D03*
X254416908Y-44925462D03*
%TD*%
D53*
%TO.C,Q35*%
X89860000Y-119745000D03*
X93210000Y-119745000D03*
X89860000Y-116695000D03*
X93210000Y-116695000D03*
D54*
X85235000Y-115940000D03*
X85235000Y-120500000D03*
%TD*%
D96*
%TO.C,R33*%
X169121908Y-39892962D03*
X167637358Y-42413227D03*
%TD*%
D15*
%TO.C,R137*%
X104377500Y-101240000D03*
X101452500Y-101240000D03*
%TD*%
D48*
%TO.C,D214*%
X139922500Y-135220000D03*
X136947500Y-135220000D03*
%TD*%
D89*
%TO.C,D81*%
X217310285Y-73670556D03*
D90*
X218936819Y-76010831D03*
X215683751Y-71330281D03*
%TD*%
D14*
%TO.C,R7*%
X40541908Y-35950462D03*
X40541908Y-38875462D03*
%TD*%
D101*
%TO.C,R28*%
X168022551Y-36825711D03*
X169507101Y-34305446D03*
%TD*%
D10*
%TO.C,D98*%
X240396908Y-34942962D03*
D11*
X237546908Y-34942962D03*
X243246908Y-34942962D03*
%TD*%
D34*
%TO.C,D136*%
X279528203Y-62927903D03*
D35*
X280595832Y-60285429D03*
X278460574Y-65570377D03*
%TD*%
D28*
%TO.C,R17*%
X109375936Y-80241486D03*
X108618890Y-77416153D03*
%TD*%
D15*
%TO.C,R51*%
X264339408Y-31612962D03*
X261414408Y-31612962D03*
%TD*%
D91*
%TO.C,D89*%
X219586436Y-38943194D03*
D92*
X221504522Y-36835245D03*
X217668350Y-41051143D03*
%TD*%
D10*
%TO.C,D128*%
X317521908Y-80092962D03*
D11*
X320371908Y-80092962D03*
X314671908Y-80092962D03*
%TD*%
D53*
%TO.C,Q29*%
X66010000Y-112245000D03*
X62660000Y-109195000D03*
X66010000Y-109195000D03*
X62660000Y-112245000D03*
D54*
X70635000Y-113000000D03*
X70635000Y-108440000D03*
%TD*%
D72*
%TO.C,D84*%
X186749219Y-68665989D03*
D73*
X184461189Y-70365230D03*
X189037249Y-66966748D03*
%TD*%
D15*
%TO.C,R11*%
X46064408Y-38512962D03*
X43139408Y-38512962D03*
%TD*%
D102*
%TO.C,D212*%
X125185000Y-136982500D03*
X125185000Y-139957500D03*
%TD*%
D14*
%TO.C,R29*%
X152291908Y-72900462D03*
X152291908Y-75825462D03*
%TD*%
D68*
%TO.C,D85*%
X182911908Y-51649986D03*
D69*
X180102653Y-51169791D03*
X185721163Y-52130181D03*
%TD*%
D10*
%TO.C,D18*%
X56771908Y-34892962D03*
D11*
X59621908Y-34892962D03*
X53921908Y-34892962D03*
%TD*%
D103*
%TO.C,R13*%
X83482666Y-40754391D03*
X86015791Y-42216891D03*
%TD*%
D14*
%TO.C,R77*%
X239655687Y-103674320D03*
X239655687Y-100749320D03*
%TD*%
D104*
%TO.C,D56*%
X165339006Y-35351253D03*
D105*
X163892522Y-37806896D03*
X166785490Y-32895610D03*
%TD*%
D10*
%TO.C,D6*%
X50721908Y-38692962D03*
D11*
X53571908Y-38692962D03*
X47871908Y-38692962D03*
%TD*%
D51*
%TO.C,D96*%
X183967551Y-63698964D03*
D52*
X181323218Y-64761979D03*
X186611884Y-62635949D03*
%TD*%
D18*
%TO.C,R119*%
X149992500Y-88700000D03*
X152917500Y-88700000D03*
%TD*%
%TO.C,R100*%
X149992500Y-111200000D03*
X152917500Y-111200000D03*
%TD*%
D53*
%TO.C,Q33*%
X93210000Y-101695000D03*
X89860000Y-101695000D03*
X89860000Y-104745000D03*
X93210000Y-104745000D03*
D54*
X85235000Y-100940000D03*
X85235000Y-105500000D03*
%TD*%
D40*
%TO.C,Q2*%
X33910000Y-112295000D03*
X36960000Y-108945000D03*
X36960000Y-112295000D03*
X33910000Y-108945000D03*
D41*
X33155000Y-116920000D03*
X37715000Y-116920000D03*
%TD*%
D23*
%TO.C,D11*%
X55621908Y-67192962D03*
D24*
X55621908Y-70042962D03*
X55621908Y-64342962D03*
%TD*%
D23*
%TO.C,D20*%
X46721908Y-74692962D03*
D24*
X46721908Y-71842962D03*
X46721908Y-77542962D03*
%TD*%
D82*
%TO.C,D93*%
X212258336Y-76294833D03*
D83*
X213237766Y-78971252D03*
X211278906Y-73618414D03*
%TD*%
D10*
%TO.C,D130*%
X304871908Y-65842962D03*
D11*
X302021908Y-65842962D03*
X307721908Y-65842962D03*
%TD*%
D18*
%TO.C,R71*%
X281079408Y-77072962D03*
X284004408Y-77072962D03*
%TD*%
D67*
%TO.C,R20*%
X93180407Y-32027161D03*
X94416566Y-34678111D03*
%TD*%
D42*
%TO.C,D39*%
X97202567Y-34009223D03*
D43*
X96393123Y-31276587D03*
X98012011Y-36741859D03*
%TD*%
D59*
%TO.C,D137*%
X304021908Y-34614807D03*
D60*
X305089537Y-37257281D03*
X302954279Y-31972333D03*
%TD*%
D59*
%TO.C,D125*%
X314580096Y-55487848D03*
D60*
X315647725Y-58130322D03*
X313512467Y-52845374D03*
%TD*%
D106*
%TO.C,Q32*%
X74385000Y-110807500D03*
X76285000Y-110807500D03*
X75335000Y-108932500D03*
%TD*%
D11*
%TO.C,D148*%
X237735687Y-121691820D03*
X232035687Y-121691820D03*
D10*
X234885687Y-121691820D03*
%TD*%
D75*
%TO.C,D26*%
X84137401Y-44420353D03*
D76*
X81654442Y-43021277D03*
X86620360Y-45819429D03*
%TD*%
D23*
%TO.C,D71*%
X159021908Y-70742962D03*
D24*
X159021908Y-67892962D03*
X159021908Y-73592962D03*
%TD*%
D103*
%TO.C,R37*%
X184572666Y-40811415D03*
X187105791Y-42273915D03*
%TD*%
D48*
%TO.C,D210*%
X165410000Y-101880000D03*
X162435000Y-101880000D03*
%TD*%
D107*
%TO.C,D35*%
X94472018Y-75669348D03*
D108*
X93312819Y-78272953D03*
X95631217Y-73065743D03*
%TD*%
D11*
%TO.C,D150*%
X237735687Y-100691820D03*
X232035687Y-100691820D03*
D10*
X234885687Y-100691820D03*
%TD*%
D14*
%TO.C,R35*%
X155521908Y-72992962D03*
X155521908Y-75917962D03*
%TD*%
D71*
%TO.C,R18*%
X84904033Y-73004862D03*
X87144713Y-71124708D03*
%TD*%
D23*
%TO.C,D1*%
X30121908Y-34942962D03*
D24*
X30121908Y-32092962D03*
X30121908Y-37792962D03*
%TD*%
D61*
%TO.C,D28*%
X102823019Y-33103941D03*
D62*
X102733498Y-30255347D03*
X102912540Y-35952535D03*
%TD*%
D10*
%TO.C,D14*%
X35521908Y-31192962D03*
D11*
X38371908Y-31192962D03*
X32671908Y-31192962D03*
%TD*%
D107*
%TO.C,D83*%
X195562018Y-75726372D03*
D108*
X194402819Y-78329977D03*
X196721217Y-73122767D03*
%TD*%
D10*
%TO.C,D131*%
X298521908Y-38592962D03*
D11*
X301371908Y-38592962D03*
X295671908Y-38592962D03*
%TD*%
D109*
%TO.C,D134*%
X289173753Y-52025333D03*
D110*
X291816227Y-53092962D03*
X286531279Y-50957704D03*
%TD*%
D15*
%TO.C,R78*%
X237903187Y-94019999D03*
X240828187Y-94019999D03*
%TD*%
D10*
%TO.C,D4*%
X66621908Y-34942962D03*
D11*
X69471908Y-34942962D03*
X63771908Y-34942962D03*
%TD*%
D14*
%TO.C,R58*%
X257416908Y-67000462D03*
X257416908Y-69925462D03*
%TD*%
D84*
%TO.C,Q36*%
X79897500Y-108770000D03*
X79897500Y-110670000D03*
X81772500Y-109720000D03*
%TD*%
D111*
%TO.C,R40*%
X228139661Y-63151089D03*
X226903503Y-65802040D03*
%TD*%
D112*
%TO.C,R68*%
X280521908Y-69422933D03*
X281617633Y-66710920D03*
%TD*%
D111*
%TO.C,R16*%
X127049661Y-63094065D03*
X125813503Y-65745016D03*
%TD*%
D97*
%TO.C,D43*%
X125355670Y-59626576D03*
D98*
X128152354Y-60175264D03*
X122558986Y-59077888D03*
%TD*%
D101*
%TO.C,R27*%
X170022551Y-38075711D03*
X171507101Y-35555446D03*
%TD*%
D15*
%TO.C,R54*%
X264539408Y-39012962D03*
X261614408Y-39012962D03*
%TD*%
D104*
%TO.C,D68*%
X161278699Y-42244286D03*
D105*
X159832215Y-44699929D03*
X162725183Y-39788643D03*
%TD*%
D23*
%TO.C,D3*%
X72021908Y-34992962D03*
D24*
X72021908Y-32142962D03*
X72021908Y-37842962D03*
%TD*%
D104*
%TO.C,D55*%
X157218392Y-49137319D03*
D105*
X155771908Y-51592962D03*
X158664876Y-46681676D03*
%TD*%
M02*
