%TF.GenerationSoftware,KiCad,Pcbnew,(6.0.0)*%
%TF.CreationDate,2022-05-14T17:31:40-07:00*%
%TF.ProjectId,Letters GERBER,4c657474-6572-4732-9047-45524245522e,rev?*%
%TF.SameCoordinates,Original*%
%TF.FileFunction,Soldermask,Top*%
%TF.FilePolarity,Negative*%
%FSLAX46Y46*%
G04 Gerber Fmt 4.6, Leading zero omitted, Abs format (unit mm)*
G04 Created by KiCad (PCBNEW (6.0.0)) date 2022-05-14 17:31:40*
%MOMM*%
%LPD*%
G01*
G04 APERTURE LIST*
G04 Aperture macros list*
%AMRoundRect*
0 Rectangle with rounded corners*
0 $1 Rounding radius*
0 $2 $3 $4 $5 $6 $7 $8 $9 X,Y pos of 4 corners*
0 Add a 4 corners polygon primitive as box body*
4,1,4,$2,$3,$4,$5,$6,$7,$8,$9,$2,$3,0*
0 Add four circle primitives for the rounded corners*
1,1,$1+$1,$2,$3*
1,1,$1+$1,$4,$5*
1,1,$1+$1,$6,$7*
1,1,$1+$1,$8,$9*
0 Add four rect primitives between the rounded corners*
20,1,$1+$1,$2,$3,$4,$5,0*
20,1,$1+$1,$4,$5,$6,$7,0*
20,1,$1+$1,$6,$7,$8,$9,0*
20,1,$1+$1,$8,$9,$2,$3,0*%
%AMRotRect*
0 Rectangle, with rotation*
0 The origin of the aperture is its center*
0 $1 length*
0 $2 width*
0 $3 Rotation angle, in degrees counterclockwise*
0 Add horizontal line*
21,1,$1,$2,0,0,$3*%
G04 Aperture macros list end*
%ADD10C,0.000000*%
%ADD11C,0.200000*%
%ADD12C,0.150000*%
%ADD13R,1.700000X1.900000*%
%ADD14R,1.700000X1.100000*%
%ADD15RoundRect,0.250000X0.625000X-0.312500X0.625000X0.312500X-0.625000X0.312500X-0.625000X-0.312500X0*%
%ADD16RotRect,1.900000X1.700000X301.200000*%
%ADD17RotRect,1.100000X1.700000X301.200000*%
%ADD18RoundRect,0.250000X0.462425X-0.523874X0.696554X0.055616X-0.462425X0.523874X-0.696554X-0.055616X0*%
%ADD19RotRect,1.900000X1.700000X59.500000*%
%ADD20RotRect,1.100000X1.700000X59.500000*%
%ADD21RoundRect,0.250000X-0.691213X-0.102500X-0.332727X-0.614470X0.691213X0.102500X0.332727X0.614470X0*%
%ADD22RoundRect,0.250000X0.691213X0.102500X0.332727X0.614470X-0.691213X-0.102500X-0.332727X-0.614470X0*%
%ADD23RotRect,1.900000X1.700000X144.200000*%
%ADD24RotRect,1.100000X1.700000X144.200000*%
%ADD25RotRect,1.900000X1.700000X66.000000*%
%ADD26RotRect,1.100000X1.700000X66.000000*%
%ADD27R,1.900000X1.700000*%
%ADD28R,1.100000X1.700000*%
%ADD29RotRect,1.900000X1.700000X36.600000*%
%ADD30RotRect,1.100000X1.700000X36.600000*%
%ADD31RotRect,1.900000X1.700000X124.800000*%
%ADD32RotRect,1.100000X1.700000X124.800000*%
%ADD33RoundRect,0.250000X0.162353X-0.679649X0.641131X-0.277907X-0.162353X0.679649X-0.641131X0.277907X0*%
%ADD34RoundRect,0.250000X-0.312500X-0.625000X0.312500X-0.625000X0.312500X0.625000X-0.312500X0.625000X0*%
%ADD35RoundRect,0.250000X-0.697124X-0.047952X-0.379912X-0.586471X0.697124X0.047952X0.379912X0.586471X0*%
%ADD36RotRect,1.900000X1.700000X139.500000*%
%ADD37RotRect,1.100000X1.700000X139.500000*%
%ADD38RoundRect,0.250000X-0.625000X0.312500X-0.625000X-0.312500X0.625000X-0.312500X0.625000X0.312500X0*%
%ADD39RoundRect,0.250000X0.312500X0.625000X-0.312500X0.625000X-0.312500X-0.625000X0.312500X-0.625000X0*%
%ADD40RotRect,1.900000X1.700000X112.000000*%
%ADD41RotRect,1.100000X1.700000X112.000000*%
%ADD42RoundRect,0.750000X2.000000X-0.750000X2.000000X0.750000X-2.000000X0.750000X-2.000000X-0.750000X0*%
%ADD43RoundRect,0.250000X0.684585X-0.140090X0.522823X0.463614X-0.684585X0.140090X-0.522823X-0.463614X0*%
%ADD44RoundRect,0.250000X0.696554X-0.055616X0.462425X0.523874X-0.696554X0.055616X-0.462425X-0.523874X0*%
%ADD45RotRect,1.900000X1.700000X292.000000*%
%ADD46RotRect,1.100000X1.700000X292.000000*%
%ADD47RotRect,1.900000X1.700000X57.500000*%
%ADD48RotRect,1.100000X1.700000X57.500000*%
%ADD49C,2.700000*%
%ADD50RotRect,1.900000X1.700000X257.100000*%
%ADD51RotRect,1.100000X1.700000X257.100000*%
%ADD52RotRect,1.900000X1.700000X95.400000*%
%ADD53RotRect,1.100000X1.700000X95.400000*%
%ADD54RotRect,1.900000X1.700000X68.000000*%
%ADD55RotRect,1.100000X1.700000X68.000000*%
%ADD56RoundRect,0.250000X-0.379912X0.586471X-0.697124X0.047952X0.379912X-0.586471X0.697124X-0.047952X0*%
%ADD57RotRect,1.900000X1.700000X122.500000*%
%ADD58RotRect,1.100000X1.700000X122.500000*%
%ADD59RoundRect,0.250000X0.332727X-0.614470X0.691213X-0.102500X-0.332727X0.614470X-0.691213X0.102500X0*%
%ADD60RoundRect,0.250000X-0.698511X0.019085X-0.434374X-0.547358X0.698511X-0.019085X0.434374X0.547358X0*%
%ADD61RotRect,1.900000X1.700000X213.000000*%
%ADD62RotRect,1.100000X1.700000X213.000000*%
%ADD63RotRect,1.900000X1.700000X158.000000*%
%ADD64RotRect,1.100000X1.700000X158.000000*%
%ADD65RotRect,1.900000X1.700000X286.500000*%
%ADD66RotRect,1.100000X1.700000X286.500000*%
%ADD67RotRect,1.900000X1.700000X183.600000*%
%ADD68RotRect,1.100000X1.700000X183.600000*%
%ADD69RotRect,1.900000X1.700000X248.000000*%
%ADD70RotRect,1.100000X1.700000X248.000000*%
%ADD71RotRect,1.900000X1.700000X330.600000*%
%ADD72RotRect,1.100000X1.700000X330.600000*%
%ADD73RoundRect,0.250000X-0.462425X0.523874X-0.696554X-0.055616X0.462425X-0.523874X0.696554X0.055616X0*%
%ADD74RoundRect,0.250000X-0.102500X0.691213X-0.614470X0.332727X0.102500X-0.691213X0.614470X-0.332727X0*%
%ADD75RotRect,1.900000X1.700000X21.900000*%
%ADD76RotRect,1.100000X1.700000X21.900000*%
%ADD77RotRect,1.900000X1.700000X242.400000*%
%ADD78RotRect,1.100000X1.700000X242.400000*%
%ADD79RoundRect,0.250000X0.697124X0.047952X0.379912X0.586471X-0.697124X-0.047952X-0.379912X-0.586471X0*%
%ADD80RoundRect,0.750000X2.099852X-0.391309X1.839379X1.085902X-2.099852X0.391309X-1.839379X-1.085902X0*%
%ADD81RotRect,1.900000X1.700000X350.300000*%
%ADD82RotRect,1.100000X1.700000X350.300000*%
%ADD83RoundRect,0.750000X-1.444601X-1.573413X-0.053825X-2.135323X1.444601X1.573413X0.053825X2.135323X0*%
%ADD84RotRect,1.900000X1.700000X168.900000*%
%ADD85RotRect,1.100000X1.700000X168.900000*%
%ADD86RoundRect,0.250000X-0.583133X-0.385016X-0.041867X-0.697516X0.583133X0.385016X0.041867X0.697516X0*%
%ADD87RoundRect,0.750000X-0.391309X-2.099852X1.085902X-1.839379X0.391309X2.099852X-1.085902X1.839379X0*%
%ADD88RotRect,1.900000X1.700000X227.700000*%
%ADD89RotRect,1.100000X1.700000X227.700000*%
%ADD90RotRect,1.900000X1.700000X120.500000*%
%ADD91RotRect,1.100000X1.700000X120.500000*%
%ADD92RotRect,1.900000X1.700000X315.900000*%
%ADD93RotRect,1.100000X1.700000X315.900000*%
%ADD94RotRect,1.900000X1.700000X80.700000*%
%ADD95RotRect,1.100000X1.700000X80.700000*%
%ADD96RotRect,1.900000X1.700000X110.100000*%
%ADD97RotRect,1.100000X1.700000X110.100000*%
%ADD98RoundRect,0.750000X-0.750000X-2.000000X0.750000X-2.000000X0.750000X2.000000X-0.750000X2.000000X0*%
%ADD99RotRect,1.900000X1.700000X198.300000*%
%ADD100RotRect,1.100000X1.700000X198.300000*%
%ADD101RotRect,1.900000X1.700000X51.300000*%
%ADD102RotRect,1.100000X1.700000X51.300000*%
%ADD103RotRect,1.900000X1.700000X271.800000*%
%ADD104RotRect,1.100000X1.700000X271.800000*%
%ADD105RoundRect,0.250000X-0.434374X0.547358X-0.698511X-0.019085X0.434374X-0.547358X0.698511X0.019085X0*%
%ADD106RoundRect,0.250000X0.379912X-0.586471X0.697124X-0.047952X-0.379912X0.586471X-0.697124X0.047952X0*%
%ADD107RotRect,1.900000X1.700000X22.000000*%
%ADD108RotRect,1.100000X1.700000X22.000000*%
%ADD109RoundRect,0.750000X-1.573413X1.444601X-2.135323X0.053825X1.573413X-1.444601X2.135323X-0.053825X0*%
%ADD110RoundRect,0.250000X-0.696554X0.055616X-0.462425X-0.523874X0.696554X-0.055616X0.462425X0.523874X0*%
G04 APERTURE END LIST*
D10*
G36*
X64386496Y-36776361D02*
G01*
X63836496Y-40186361D01*
X63686496Y-43316361D01*
X63926496Y-47266361D01*
X64196496Y-48766361D01*
X64806496Y-51576361D01*
X49216496Y-51526361D01*
X49236496Y-34566361D01*
X49213071Y-34556450D01*
X64999015Y-34556450D01*
X64386496Y-36776361D01*
G37*
D11*
X165896388Y-51556273D02*
X152520805Y-51556273D01*
X63699525Y-43311815D02*
X63700648Y-43575225D01*
X63704018Y-43838349D01*
X63709632Y-44101180D01*
X63717490Y-44363708D01*
X63727589Y-44625925D01*
X63739928Y-44887822D01*
X63754505Y-45149390D01*
X63771320Y-45410621D01*
X63790370Y-45671505D01*
X63811653Y-45932034D01*
X63835169Y-46192200D01*
X63860916Y-46451993D01*
X63888891Y-46711406D01*
X63919095Y-46970429D01*
X63951524Y-47229053D01*
X63986178Y-47487270D01*
X64023055Y-47745072D01*
X64062154Y-48002448D01*
X64103472Y-48259392D01*
X64147009Y-48515894D01*
X64192762Y-48771945D01*
X64240731Y-49027536D01*
X64290914Y-49282660D01*
X64343308Y-49537307D01*
X64397914Y-49791468D01*
X64454728Y-50045135D01*
X64513750Y-50298299D01*
X64574978Y-50550952D01*
X64638410Y-50803084D01*
X64704045Y-51054688D01*
X64771882Y-51305753D01*
X64841919Y-51556273D01*
X135263633Y-51556273D02*
X121806917Y-51556273D01*
X264917562Y-51556273D02*
X254078602Y-51556273D01*
X254078602Y-51556273D02*
X254078602Y-34556450D01*
X49213071Y-51556273D02*
X49213071Y-34556450D01*
D12*
X269704363Y-35114772D02*
X266804363Y-42014772D01*
X254904363Y-42014772D02*
X254904363Y-35214772D01*
D11*
X162700201Y-34556450D02*
X166070193Y-34556450D01*
D12*
X254904363Y-35214772D02*
X269704363Y-35214772D01*
X264917562Y-51556273D02*
X261204363Y-51514772D01*
X261204363Y-51514772D02*
X261304363Y-42014772D01*
X261304363Y-42014772D02*
X264704363Y-42014772D01*
X264704363Y-42014772D02*
X264917562Y-51556273D01*
G36*
X264917562Y-51556273D02*
G01*
X261204363Y-51514772D01*
X261304363Y-42014772D01*
X264704363Y-42014772D01*
X264917562Y-51556273D01*
G37*
X264917562Y-51556273D02*
X261204363Y-51514772D01*
X261304363Y-42014772D01*
X264704363Y-42014772D01*
X264917562Y-51556273D01*
D11*
X164761574Y-43341615D02*
X164762690Y-43603917D01*
X164766037Y-43865947D01*
X164771613Y-44127696D01*
X164779418Y-44389155D01*
X164789449Y-44650315D01*
X164801705Y-44911167D01*
X164816185Y-45171703D01*
X164832887Y-45431913D01*
X164851809Y-45691789D01*
X164872950Y-45951322D01*
X164896309Y-46210502D01*
X164921883Y-46469322D01*
X164949672Y-46727772D01*
X164979674Y-46985843D01*
X165011887Y-47243527D01*
X165046310Y-47500814D01*
X165082942Y-47757696D01*
X165121780Y-48014164D01*
X165162824Y-48270209D01*
X165206071Y-48525823D01*
X165251521Y-48780995D01*
X165299172Y-49035718D01*
X165349021Y-49289983D01*
X165401069Y-49543780D01*
X165455313Y-49797101D01*
X165511751Y-50049937D01*
X165570383Y-50302280D01*
X165631207Y-50554119D01*
X165694220Y-50805447D01*
X165759423Y-51056254D01*
X165826812Y-51306533D01*
X165896388Y-51556273D01*
X254078602Y-34556450D02*
X271699921Y-34556450D01*
X64999015Y-34556450D02*
X64919358Y-34822413D01*
X64842203Y-35088966D01*
X64767551Y-35356100D01*
X64695403Y-35623804D01*
X64625761Y-35892068D01*
X64558628Y-36160884D01*
X64494004Y-36430241D01*
X64431893Y-36700130D01*
X64372295Y-36970542D01*
X64315212Y-37241465D01*
X64260647Y-37512891D01*
X64208601Y-37784810D01*
X64159077Y-38057213D01*
X64112074Y-38330089D01*
X64067597Y-38603429D01*
X64025646Y-38877224D01*
X63986223Y-39151462D01*
X63949331Y-39426136D01*
X63914970Y-39701236D01*
X63883143Y-39976750D01*
X63853852Y-40252671D01*
X63827099Y-40528988D01*
X63802884Y-40805691D01*
X63781211Y-41082771D01*
X63762081Y-41360218D01*
X63745495Y-41638023D01*
X63731456Y-41916175D01*
X63719966Y-42194665D01*
X63711025Y-42473484D01*
X63704637Y-42752622D01*
X63700803Y-43032069D01*
X63699525Y-43311815D01*
X166070193Y-34556450D02*
X165989965Y-34823302D01*
X165912257Y-35090747D01*
X165837071Y-35358774D01*
X165764408Y-35627373D01*
X165694271Y-35896536D01*
X165626661Y-36166252D01*
X165561579Y-36436512D01*
X165499028Y-36707306D01*
X165439010Y-36978625D01*
X165381525Y-37250458D01*
X165326577Y-37522797D01*
X165274166Y-37795632D01*
X165224294Y-38068953D01*
X165176964Y-38342750D01*
X165132177Y-38617014D01*
X165089934Y-38891736D01*
X165050238Y-39166905D01*
X165013090Y-39442512D01*
X164978492Y-39718547D01*
X164946446Y-39995002D01*
X164916953Y-40271865D01*
X164890016Y-40549128D01*
X164865636Y-40826781D01*
X164843814Y-41104814D01*
X164824554Y-41383218D01*
X164807855Y-41661982D01*
X164793721Y-41941099D01*
X164782153Y-42220557D01*
X164773152Y-42500347D01*
X164766721Y-42780460D01*
X164762861Y-43060885D01*
X164761574Y-43341615D01*
X238028247Y-34556450D02*
X238028247Y-51556273D01*
X135263805Y-50430072D02*
X135263633Y-51556273D01*
X64841919Y-51556273D02*
X49213071Y-51556273D01*
X271699921Y-34556450D02*
X264917562Y-51556273D01*
D10*
G36*
X238046496Y-34606361D02*
G01*
X238026496Y-51536361D01*
X222896496Y-51516361D01*
X223586496Y-48416361D01*
X223846496Y-46016361D01*
X223996496Y-43836361D01*
X223976496Y-41596361D01*
X223756496Y-39306361D01*
X223366496Y-37026361D01*
X222906496Y-35316361D01*
X222702740Y-34536361D01*
X238006496Y-34526361D01*
X238046496Y-34606361D01*
G37*
D11*
X152520805Y-50430072D02*
X162700201Y-34556450D01*
X222702740Y-34556450D02*
X238028247Y-34556450D01*
X121806917Y-51556273D02*
X121876953Y-51305752D01*
X121944790Y-51054684D01*
X122010425Y-50803076D01*
X122073857Y-50550938D01*
X122135085Y-50298278D01*
X122194107Y-50045106D01*
X122250922Y-49791429D01*
X122305527Y-49537258D01*
X122357922Y-49282601D01*
X122408104Y-49027467D01*
X122456073Y-48771865D01*
X122501827Y-48515803D01*
X122545363Y-48259291D01*
X122586682Y-48002337D01*
X122625780Y-47744951D01*
X122662657Y-47487141D01*
X122697311Y-47228917D01*
X122729741Y-46970286D01*
X122759944Y-46711258D01*
X122787920Y-46451842D01*
X122813666Y-46192047D01*
X122837182Y-45931882D01*
X122858466Y-45671355D01*
X122877515Y-45410475D01*
X122894330Y-45149252D01*
X122908907Y-44887694D01*
X122921246Y-44625811D01*
X122931345Y-44363610D01*
X122939203Y-44101101D01*
X122944817Y-43838293D01*
X122948187Y-43575194D01*
X122949311Y-43311815D01*
D10*
G36*
X166070193Y-34556450D02*
G01*
X165276496Y-37456361D01*
X164826496Y-41066361D01*
X164826496Y-45646361D01*
X165406496Y-49676361D01*
X165896388Y-51556273D01*
X152556496Y-51546361D01*
X152546496Y-50426361D01*
X162716496Y-34546361D01*
X166070193Y-34556450D01*
G37*
D11*
X222876717Y-51556273D02*
X222946260Y-51306563D01*
X223013621Y-51056311D01*
X223078796Y-50805526D01*
X223141784Y-50554218D01*
X223202583Y-50302394D01*
X223261193Y-50050065D01*
X223317611Y-49797239D01*
X223371836Y-49543925D01*
X223423866Y-49290133D01*
X223473700Y-49035871D01*
X223521336Y-48781148D01*
X223566773Y-48525974D01*
X223610008Y-48270357D01*
X223651041Y-48014307D01*
X223689870Y-47757833D01*
X223726493Y-47500943D01*
X223760908Y-47243647D01*
X223793115Y-46985954D01*
X223823111Y-46727873D01*
X223850895Y-46469413D01*
X223876465Y-46210582D01*
X223899820Y-45951391D01*
X223920959Y-45691848D01*
X223939878Y-45431962D01*
X223956578Y-45171741D01*
X223971057Y-44911197D01*
X223983312Y-44650336D01*
X223993343Y-44389169D01*
X224001147Y-44127704D01*
X224006723Y-43865951D01*
X224010070Y-43603918D01*
X224011187Y-43341615D01*
X49213071Y-34556450D02*
X64999015Y-34556450D01*
D12*
X266804363Y-42014772D02*
X254904363Y-42014772D01*
D11*
X125084237Y-34556450D02*
X135263805Y-50430072D01*
D10*
G36*
X135266496Y-50416361D02*
G01*
X135263633Y-51556273D01*
X121806917Y-51556273D01*
X122246496Y-49946361D01*
X122686496Y-47356361D01*
X122896496Y-44786361D01*
X122936496Y-41846361D01*
X122536496Y-38396361D01*
X122006496Y-35906361D01*
X121655069Y-34576312D01*
X125116496Y-34556450D01*
X135266496Y-50416361D01*
G37*
D12*
X264917562Y-51556273D02*
X264004363Y-42014772D01*
X264004363Y-42014772D02*
X266804363Y-42014772D01*
X266804363Y-42014772D02*
X269704363Y-35114772D01*
X269704363Y-35114772D02*
X254904363Y-35214772D01*
X254904363Y-35214772D02*
X254904363Y-42014772D01*
X254904363Y-42014772D02*
X261604363Y-42014772D01*
X261604363Y-42014772D02*
X261504363Y-51514772D01*
X261504363Y-51514772D02*
X254078602Y-51556273D01*
X254078602Y-51556273D02*
X254078602Y-34556450D01*
X254078602Y-34556450D02*
X271699921Y-34556450D01*
X271699921Y-34556450D02*
X264917562Y-51556273D01*
G36*
X264917562Y-51556273D02*
G01*
X264004363Y-42014772D01*
X266804363Y-42014772D01*
X269704363Y-35114772D01*
X254904363Y-35214772D01*
X254904363Y-42014772D01*
X261604363Y-42014772D01*
X261504363Y-51514772D01*
X254078602Y-51556273D01*
X254078602Y-34556450D01*
X271699921Y-34556450D01*
X264917562Y-51556273D01*
G37*
X264917562Y-51556273D02*
X264004363Y-42014772D01*
X266804363Y-42014772D01*
X269704363Y-35114772D01*
X254904363Y-35214772D01*
X254904363Y-42014772D01*
X261604363Y-42014772D01*
X261504363Y-51514772D01*
X254078602Y-51556273D01*
X254078602Y-34556450D01*
X271699921Y-34556450D01*
X264917562Y-51556273D01*
D11*
X122949311Y-43311815D02*
X122948032Y-43032053D01*
X122944198Y-42752593D01*
X122937810Y-42473444D01*
X122928869Y-42194616D01*
X122917379Y-41916117D01*
X122903340Y-41637958D01*
X122886754Y-41360149D01*
X122867624Y-41082698D01*
X122845951Y-40805615D01*
X122821736Y-40528911D01*
X122794983Y-40252594D01*
X122765692Y-39976674D01*
X122733865Y-39701161D01*
X122699504Y-39426065D01*
X122662612Y-39151394D01*
X122623189Y-38877159D01*
X122581238Y-38603369D01*
X122536761Y-38330033D01*
X122489758Y-38057162D01*
X122440234Y-37784765D01*
X122388188Y-37512851D01*
X122333623Y-37241430D01*
X122276540Y-36970512D01*
X122216942Y-36700106D01*
X122154831Y-36430222D01*
X122090207Y-36160869D01*
X122023074Y-35892058D01*
X121953432Y-35623796D01*
X121881284Y-35356096D01*
X121806632Y-35088964D01*
X121729477Y-34822412D01*
X121649821Y-34556450D01*
X238028247Y-51556273D02*
X222876717Y-51556273D01*
X121649821Y-34556450D02*
X125084237Y-34556450D01*
X224011187Y-43341615D02*
X224009899Y-43060854D01*
X224006038Y-42780397D01*
X223999604Y-42500255D01*
X223990601Y-42220437D01*
X223979029Y-41940952D01*
X223964891Y-41661810D01*
X223948189Y-41383022D01*
X223928924Y-41104596D01*
X223907099Y-40826543D01*
X223882715Y-40548871D01*
X223855774Y-40271592D01*
X223826278Y-39994714D01*
X223794229Y-39718248D01*
X223759629Y-39442202D01*
X223722480Y-39166587D01*
X223682783Y-38891413D01*
X223640541Y-38616689D01*
X223595755Y-38342424D01*
X223548428Y-38068630D01*
X223498560Y-37795314D01*
X223446155Y-37522488D01*
X223391214Y-37250160D01*
X223333739Y-36978341D01*
X223273732Y-36707039D01*
X223211194Y-36436266D01*
X223146128Y-36166030D01*
X223078535Y-35896342D01*
X223008418Y-35627211D01*
X222935778Y-35358646D01*
X222860617Y-35090658D01*
X222782937Y-34823256D01*
X222702740Y-34556450D01*
X152520805Y-51556273D02*
X152520805Y-50430072D01*
D13*
%TO.C,D107*%
X250479363Y-54714772D03*
D14*
X250479363Y-57564772D03*
X250479363Y-51864772D03*
%TD*%
D15*
%TO.C,R2*%
X51584363Y-21657272D03*
X51584363Y-18732272D03*
%TD*%
D16*
%TO.C,D27*%
X81978262Y-23832917D03*
D17*
X80501885Y-21395129D03*
X83454639Y-26270705D03*
%TD*%
D18*
%TO.C,R68*%
X270504363Y-56944743D03*
X271600088Y-54232730D03*
%TD*%
D19*
%TO.C,D68*%
X151261154Y-29766096D03*
D20*
X149814670Y-32221739D03*
X152707638Y-27310453D03*
%TD*%
D21*
%TO.C,R39*%
X208533362Y-32728698D03*
X210211073Y-35124717D03*
%TD*%
D22*
%TO.C,R23*%
X105815364Y-66057870D03*
X104137653Y-63661851D03*
%TD*%
D23*
%TO.C,D32*%
X112404363Y-54414772D03*
D24*
X114715895Y-56081901D03*
X110092831Y-52747643D03*
%TD*%
D15*
%TO.C,R30*%
X145504363Y-58364772D03*
X145504363Y-55439772D03*
%TD*%
D25*
%TO.C,D83*%
X185544473Y-63248182D03*
D26*
X184385274Y-65851787D03*
X186703672Y-60644577D03*
%TD*%
D27*
%TO.C,D69*%
X143904363Y-67864772D03*
D28*
X141054363Y-67864772D03*
X146754363Y-67864772D03*
%TD*%
D29*
%TO.C,D36*%
X75641674Y-56130775D03*
D30*
X73353644Y-57830016D03*
X77929704Y-54431534D03*
%TD*%
D31*
%TO.C,D81*%
X207292740Y-61192366D03*
D32*
X208919274Y-63532641D03*
X205666206Y-58852091D03*
%TD*%
D33*
%TO.C,R18*%
X74886488Y-60526672D03*
X77127168Y-58646518D03*
%TD*%
D27*
%TO.C,D7*%
X41504363Y-67614772D03*
D28*
X38654363Y-67614772D03*
X44354363Y-67614772D03*
%TD*%
D13*
%TO.C,D22*%
X36704363Y-47214772D03*
D14*
X36704363Y-50064772D03*
X36704363Y-44364772D03*
%TD*%
D27*
%TO.C,D101*%
X246129363Y-18814772D03*
D28*
X243279363Y-18814772D03*
X248979363Y-18814772D03*
%TD*%
D23*
%TO.C,D80*%
X213494363Y-54471796D03*
D24*
X215805895Y-56138925D03*
X211182831Y-52804667D03*
%TD*%
D34*
%TO.C,R71*%
X271061863Y-64594772D03*
X273986863Y-64594772D03*
%TD*%
D35*
%TO.C,R26*%
X131189471Y-26761721D03*
X132674021Y-29281986D03*
%TD*%
D36*
%TO.C,D92*%
X211513396Y-57372015D03*
D37*
X213680553Y-59222942D03*
X209346239Y-55521088D03*
%TD*%
D38*
%TO.C,R58*%
X247399363Y-54522272D03*
X247399363Y-57447272D03*
%TD*%
D39*
%TO.C,R72*%
X306429363Y-64614772D03*
X303504363Y-64614772D03*
%TD*%
D40*
%TO.C,D125*%
X304562551Y-43009658D03*
D41*
X305630180Y-45652132D03*
X303494922Y-40367184D03*
%TD*%
D42*
%TO.C,wht-*%
X245954363Y-39514772D03*
%TD*%
D15*
%TO.C,R36*%
X142254363Y-58364772D03*
X142254363Y-55439772D03*
%TD*%
D43*
%TO.C,R41*%
X200448391Y-67820320D03*
X199691345Y-64994987D03*
%TD*%
D27*
%TO.C,D103*%
X246379363Y-67614772D03*
D28*
X243529363Y-67614772D03*
X249229363Y-67614772D03*
%TD*%
D27*
%TO.C,D110*%
X230379363Y-18714772D03*
D28*
X233229363Y-18714772D03*
X227529363Y-18714772D03*
%TD*%
D44*
%TO.C,R70*%
X306504363Y-56614772D03*
X305408639Y-53902759D03*
%TD*%
D45*
%TO.C,D140*%
X307559403Y-50427129D03*
D46*
X306491774Y-47784655D03*
X308627032Y-53069603D03*
%TD*%
D47*
%TO.C,D54*%
X166973059Y-20768438D03*
D48*
X165441755Y-23172104D03*
X168504363Y-18364772D03*
%TD*%
D27*
%TO.C,D98*%
X230379363Y-22464772D03*
D28*
X227529363Y-22464772D03*
X233229363Y-22464772D03*
%TD*%
D43*
%TO.C,R17*%
X99358391Y-67763296D03*
X98601345Y-64937963D03*
%TD*%
D49*
%TO.C,REF\u002A\u002A*%
X245954363Y-50714772D03*
%TD*%
D50*
%TO.C,D40*%
X98471678Y-21176335D03*
D51*
X99107941Y-18398266D03*
X97835415Y-23954404D03*
%TD*%
D34*
%TO.C,R1*%
X33161863Y-19694772D03*
X36086863Y-19694772D03*
%TD*%
D13*
%TO.C,D3*%
X62004363Y-22514772D03*
D14*
X62004363Y-19664772D03*
X62004363Y-25364772D03*
%TD*%
D52*
%TO.C,D82*%
X196704363Y-65189772D03*
D53*
X196972572Y-68027124D03*
X196436154Y-62352420D03*
%TD*%
D38*
%TO.C,R4*%
X39849363Y-54522272D03*
X39849363Y-57447272D03*
%TD*%
D54*
%TO.C,D122*%
X278501216Y-28197301D03*
D55*
X277433587Y-30839775D03*
X279568845Y-25554827D03*
%TD*%
D40*
%TO.C,D127*%
X310556256Y-57844600D03*
D41*
X311623885Y-60487074D03*
X309488627Y-55202126D03*
%TD*%
D45*
%TO.C,D143*%
X302571992Y-59257246D03*
D46*
X301504363Y-56614772D03*
X303639621Y-61899720D03*
%TD*%
D27*
%TO.C,D142*%
X288354363Y-50114772D03*
D28*
X291204363Y-50114772D03*
X285504363Y-50114772D03*
%TD*%
D27*
%TO.C,D5*%
X41254363Y-18814772D03*
D28*
X38404363Y-18814772D03*
X44104363Y-18814772D03*
%TD*%
D27*
%TO.C,D67*%
X161754363Y-18739772D03*
D28*
X158904363Y-18739772D03*
X164604363Y-18739772D03*
%TD*%
D39*
%TO.C,R51*%
X254321863Y-19134772D03*
X251396863Y-19134772D03*
%TD*%
D13*
%TO.C,D117*%
X241579363Y-32214772D03*
D14*
X241579363Y-35064772D03*
X241579363Y-29364772D03*
%TD*%
D56*
%TO.C,R33*%
X159104363Y-27414772D03*
X157619813Y-29935037D03*
%TD*%
D38*
%TO.C,R10*%
X42524363Y-54522272D03*
X42524363Y-57447272D03*
%TD*%
%TO.C,R52*%
X244724363Y-54522272D03*
X244724363Y-57447272D03*
%TD*%
D27*
%TO.C,D14*%
X25504363Y-18714772D03*
D28*
X28354363Y-18714772D03*
X22654363Y-18714772D03*
%TD*%
D57*
%TO.C,D62*%
X133771456Y-40958238D03*
D58*
X135302760Y-43361904D03*
X132240152Y-38554572D03*
%TD*%
D57*
%TO.C,D61*%
X125174662Y-27463974D03*
D58*
X126705966Y-29867640D03*
X123643358Y-25060308D03*
%TD*%
D59*
%TO.C,R48*%
X180950596Y-64541951D03*
X182628307Y-62145932D03*
%TD*%
D39*
%TO.C,R59*%
X240921863Y-26034772D03*
X237996863Y-26034772D03*
%TD*%
D13*
%TO.C,D21*%
X36704363Y-32214772D03*
D14*
X36704363Y-35064772D03*
X36704363Y-29364772D03*
%TD*%
D36*
%TO.C,D44*%
X110423396Y-57314991D03*
D37*
X112590553Y-59165918D03*
X108256239Y-55464064D03*
%TD*%
D60*
%TO.C,R44*%
X184252862Y-19605995D03*
X185489021Y-22256945D03*
%TD*%
D49*
%TO.C,REF\u002A\u002A*%
X135204363Y-35739772D03*
%TD*%
D57*
%TO.C,D49*%
X129473059Y-34211106D03*
D58*
X131004363Y-36614772D03*
X127941755Y-31807440D03*
%TD*%
D47*
%TO.C,D53*%
X158376265Y-34262701D03*
D48*
X156844961Y-36666367D03*
X159907569Y-31859035D03*
%TD*%
D27*
%TO.C,D130*%
X294854363Y-53364772D03*
D28*
X292004363Y-53364772D03*
X297704363Y-53364772D03*
%TD*%
D38*
%TO.C,R53*%
X244399363Y-29522272D03*
X244399363Y-32447272D03*
%TD*%
D31*
%TO.C,D33*%
X106202740Y-61135342D03*
D32*
X107829274Y-63475617D03*
X104576206Y-58795067D03*
%TD*%
D42*
%TO.C,P*%
X41104363Y-46914772D03*
%TD*%
D27*
%TO.C,D15*%
X56504363Y-26214772D03*
D28*
X59354363Y-26214772D03*
X53654363Y-26214772D03*
%TD*%
D38*
%TO.C,R19*%
X76724363Y-36372272D03*
X76724363Y-39297272D03*
%TD*%
D22*
%TO.C,R47*%
X206905364Y-66114894D03*
X205227653Y-63718875D03*
%TD*%
D38*
%TO.C,R35*%
X145504363Y-60514772D03*
X145504363Y-63439772D03*
%TD*%
D61*
%TO.C,D30*%
X112164783Y-30746553D03*
D62*
X114554994Y-29194332D03*
X109774572Y-32298774D03*
%TD*%
D63*
%TO.C,D134*%
X279156208Y-39547143D03*
D64*
X281798682Y-40614772D03*
X276513734Y-38479514D03*
%TD*%
D15*
%TO.C,R57*%
X235359363Y-21457272D03*
X235359363Y-18532272D03*
%TD*%
D65*
%TO.C,D87*%
X188275022Y-21588057D03*
D66*
X187465578Y-18855421D03*
X189084466Y-24320693D03*
%TD*%
D67*
%TO.C,D79*%
X216800458Y-41524707D03*
D68*
X219644834Y-41345754D03*
X213956082Y-41703660D03*
%TD*%
D13*
%TO.C,D12*%
X45604363Y-39714772D03*
D14*
X45604363Y-42564772D03*
X45604363Y-36864772D03*
%TD*%
D69*
%TO.C,D123*%
X266513805Y-57867184D03*
D70*
X267581434Y-55224710D03*
X265446176Y-60509658D03*
%TD*%
D59*
%TO.C,R24*%
X79860596Y-64484927D03*
X81538307Y-62088908D03*
%TD*%
D71*
%TO.C,D26*%
X74119856Y-31942163D03*
D72*
X71636897Y-30543087D03*
X76602815Y-33341239D03*
%TD*%
D13*
%TO.C,D20*%
X36704363Y-62214772D03*
D14*
X36704363Y-59364772D03*
X36704363Y-65064772D03*
%TD*%
D13*
%TO.C,D105*%
X241579363Y-54714772D03*
D14*
X241579363Y-57564772D03*
X241579363Y-51864772D03*
%TD*%
D73*
%TO.C,R62*%
X269504363Y-59614772D03*
X268408638Y-62326785D03*
%TD*%
D27*
%TO.C,D109*%
X230379363Y-26214772D03*
D28*
X227529363Y-26214772D03*
X233229363Y-26214772D03*
%TD*%
D27*
%TO.C,D17*%
X35404363Y-22414772D03*
D28*
X38254363Y-22414772D03*
X32554363Y-22414772D03*
%TD*%
D13*
%TO.C,D60*%
X149254363Y-65764772D03*
D14*
X149254363Y-62914772D03*
X149254363Y-68614772D03*
%TD*%
D40*
%TO.C,D126*%
X298568845Y-28174716D03*
D41*
X299636474Y-30817190D03*
X297501216Y-25532242D03*
%TD*%
D13*
%TO.C,D9*%
X36704363Y-54714772D03*
D14*
X36704363Y-57564772D03*
X36704363Y-51864772D03*
%TD*%
D49*
%TO.C,REF\u002A\u002A*%
X245954363Y-35739772D03*
%TD*%
D13*
%TO.C,D132*%
X288604363Y-20864772D03*
D14*
X288604363Y-23714772D03*
X288604363Y-18014772D03*
%TD*%
D27*
%TO.C,D6*%
X40704363Y-26214772D03*
D28*
X43554363Y-26214772D03*
X37854363Y-26214772D03*
%TD*%
D34*
%TO.C,R63*%
X293004363Y-35614772D03*
X295929363Y-35614772D03*
%TD*%
D35*
%TO.C,R31*%
X128904363Y-27914772D03*
X130388913Y-30435037D03*
%TD*%
D15*
%TO.C,R9*%
X30484363Y-21457272D03*
X30484363Y-18532272D03*
%TD*%
D34*
%TO.C,R66*%
X291004363Y-29614772D03*
X293929363Y-29614772D03*
%TD*%
D49*
%TO.C,REF\u002A\u002A*%
X41104363Y-35739772D03*
%TD*%
D13*
%TO.C,D8*%
X41254363Y-62214772D03*
D14*
X41254363Y-65064772D03*
X41254363Y-59364772D03*
%TD*%
D19*
%TO.C,D55*%
X147200847Y-36659129D03*
D20*
X145754363Y-39114772D03*
X148647331Y-34203486D03*
%TD*%
D39*
%TO.C,R46*%
X219536863Y-44441796D03*
X216611863Y-44441796D03*
%TD*%
D13*
%TO.C,D115*%
X250479363Y-62214772D03*
D14*
X250479363Y-65064772D03*
X250479363Y-59364772D03*
%TD*%
D39*
%TO.C,R61*%
X284446863Y-32634772D03*
X281521863Y-32634772D03*
%TD*%
%TO.C,R54*%
X254521863Y-26534772D03*
X251596863Y-26534772D03*
%TD*%
D13*
%TO.C,D1*%
X20104363Y-22464772D03*
D14*
X20104363Y-19614772D03*
X20104363Y-25314772D03*
%TD*%
D43*
%TO.C,R38*%
X190948391Y-20820320D03*
X190191345Y-17994987D03*
%TD*%
D19*
%TO.C,D56*%
X155321461Y-22873063D03*
D20*
X153874977Y-25328706D03*
X156767945Y-20417420D03*
%TD*%
D13*
%TO.C,D118*%
X241579363Y-47214772D03*
D14*
X241579363Y-50064772D03*
X241579363Y-44364772D03*
%TD*%
D27*
%TO.C,D18*%
X46754363Y-22414772D03*
D28*
X49604363Y-22414772D03*
X43904363Y-22414772D03*
%TD*%
D49*
%TO.C,REF\u002A\u002A*%
X113354363Y-50714772D03*
%TD*%
D65*
%TO.C,D39*%
X87185022Y-21531033D03*
D66*
X86375578Y-18798397D03*
X87994466Y-24263669D03*
%TD*%
D74*
%TO.C,R21*%
X112947461Y-26803771D03*
X110551442Y-28481482D03*
%TD*%
D56*
%TO.C,R34*%
X156804363Y-26014772D03*
X155319813Y-28535037D03*
%TD*%
D54*
%TO.C,D121*%
X272507510Y-43032243D03*
D55*
X271439881Y-45674717D03*
X273575139Y-40389769D03*
%TD*%
D75*
%TO.C,D96*%
X173950006Y-51220774D03*
D76*
X171305673Y-52283789D03*
X176594339Y-50157759D03*
%TD*%
D77*
%TO.C,D77*%
X204902700Y-23203766D03*
D78*
X206223094Y-20678086D03*
X203582306Y-25729446D03*
%TD*%
D38*
%TO.C,R8*%
X51624363Y-23672272D03*
X51624363Y-26597272D03*
%TD*%
D52*
%TO.C,D34*%
X95704363Y-65214772D03*
D53*
X95972572Y-68052124D03*
X95436154Y-62377420D03*
%TD*%
D61*
%TO.C,D78*%
X213254783Y-30803577D03*
D62*
X215644994Y-29251356D03*
X210864572Y-32355798D03*
%TD*%
D27*
%TO.C,D2*%
X25504363Y-22464772D03*
D28*
X22654363Y-22464772D03*
X28354363Y-22464772D03*
%TD*%
D60*
%TO.C,R20*%
X83162862Y-19548971D03*
X84399021Y-22199921D03*
%TD*%
D42*
%TO.C,P*%
X245979363Y-43214772D03*
%TD*%
D39*
%TO.C,R11*%
X36046863Y-26034772D03*
X33121863Y-26034772D03*
%TD*%
D13*
%TO.C,D108*%
X250479363Y-39714772D03*
D14*
X250479363Y-42564772D03*
X250479363Y-36864772D03*
%TD*%
D40*
%TO.C,D137*%
X294004363Y-22136617D03*
D41*
X295071992Y-24779091D03*
X292936734Y-19494143D03*
%TD*%
D79*
%TO.C,R32*%
X127904363Y-26314772D03*
X126419813Y-23794507D03*
%TD*%
D27*
%TO.C,D102*%
X245579363Y-26214772D03*
D28*
X248429363Y-26214772D03*
X242729363Y-26214772D03*
%TD*%
D49*
%TO.C,REF\u002A\u002A*%
X174179363Y-35764772D03*
%TD*%
D57*
%TO.C,D50*%
X120876265Y-20716843D03*
D58*
X122407569Y-23120509D03*
X119344961Y-18313177D03*
%TD*%
D80*
%TO.C,P*%
X173094363Y-46971796D03*
%TD*%
D42*
%TO.C,wht*%
X41079363Y-39514772D03*
%TD*%
D27*
%TO.C,D4*%
X56604363Y-22464772D03*
D28*
X59454363Y-22464772D03*
X53754363Y-22464772D03*
%TD*%
D38*
%TO.C,R55*%
X235399363Y-23472272D03*
X235399363Y-26397272D03*
%TD*%
D21*
%TO.C,R15*%
X107443362Y-32671674D03*
X109121073Y-35067693D03*
%TD*%
D33*
%TO.C,R42*%
X175976488Y-60583696D03*
X178217168Y-58703542D03*
%TD*%
D49*
%TO.C,REF\u002A\u002A*%
X73104363Y-35739772D03*
%TD*%
D81*
%TO.C,D85*%
X172894363Y-39171796D03*
D82*
X170085108Y-38691601D03*
X175703618Y-39651991D03*
%TD*%
D47*
%TO.C,D65*%
X162674662Y-27515569D03*
D48*
X161143358Y-29919235D03*
X164205966Y-25111903D03*
%TD*%
D83*
%TO.C,P*%
X276904363Y-51614772D03*
%TD*%
D39*
%TO.C,R6*%
X49646863Y-26534772D03*
X46721863Y-26534772D03*
%TD*%
D27*
%TO.C,D73*%
X172344363Y-42921796D03*
D28*
X175194363Y-42921796D03*
X169494363Y-42921796D03*
%TD*%
D38*
%TO.C,R12*%
X42924363Y-29522272D03*
X42924363Y-32447272D03*
%TD*%
D69*
%TO.C,D136*%
X269510658Y-50449713D03*
D70*
X270578287Y-47807239D03*
X268443029Y-53092187D03*
%TD*%
D84*
%TO.C,D43*%
X115338125Y-47148386D03*
D85*
X118134809Y-47697074D03*
X112541441Y-46599698D03*
%TD*%
D86*
%TO.C,R13*%
X73465121Y-28276201D03*
X75998246Y-29738701D03*
%TD*%
D87*
%TO.C,P*%
X168594363Y-48171796D03*
%TD*%
D38*
%TO.C,R5*%
X39524363Y-29522272D03*
X39524363Y-32447272D03*
%TD*%
D13*
%TO.C,D106*%
X241579363Y-39714772D03*
D14*
X241579363Y-42564772D03*
X241579363Y-36864772D03*
%TD*%
D88*
%TO.C,D41*%
X108478891Y-26407980D03*
D89*
X110396977Y-24300031D03*
X106560805Y-28515929D03*
%TD*%
D86*
%TO.C,R37*%
X174555121Y-28333225D03*
X177088246Y-29795725D03*
%TD*%
D39*
%TO.C,R3*%
X49446863Y-19134772D03*
X46521863Y-19134772D03*
%TD*%
D90*
%TO.C,D64*%
X136497572Y-29766095D03*
D91*
X137944056Y-32221738D03*
X135051088Y-27310452D03*
%TD*%
D13*
%TO.C,D71*%
X149004363Y-58264772D03*
D14*
X149004363Y-55414772D03*
X149004363Y-61114772D03*
%TD*%
D74*
%TO.C,R45*%
X214037461Y-26860795D03*
X211641442Y-28538506D03*
%TD*%
D13*
%TO.C,D116*%
X241579363Y-62214772D03*
D14*
X241579363Y-59364772D03*
X241579363Y-65064772D03*
%TD*%
D13*
%TO.C,D119*%
X250479363Y-32214772D03*
D14*
X250479363Y-35064772D03*
X250479363Y-29364772D03*
%TD*%
D87*
%TO.C,P*%
X67504363Y-48114772D03*
%TD*%
D13*
%TO.C,D23*%
X45604363Y-32214772D03*
D14*
X45604363Y-35064772D03*
X45604363Y-29364772D03*
%TD*%
D49*
%TO.C,REF\u002A\u002A*%
X303379363Y-50714772D03*
%TD*%
D92*
%TO.C,D38*%
X77526053Y-27380712D03*
D93*
X75479393Y-25397361D03*
X79572713Y-29364063D03*
%TD*%
D94*
%TO.C,D46*%
X89908678Y-64822312D03*
D95*
X89448107Y-67634851D03*
X90369249Y-62009773D03*
%TD*%
D87*
%TO.C,P*%
X77034363Y-46264772D03*
%TD*%
D13*
%TO.C,D11*%
X45604363Y-54714772D03*
D14*
X45604363Y-57564772D03*
X45604363Y-51864772D03*
%TD*%
D13*
%TO.C,D58*%
X138504363Y-65764772D03*
D14*
X138504363Y-62914772D03*
X138504363Y-68614772D03*
%TD*%
D43*
%TO.C,R14*%
X89858391Y-20763296D03*
X89101345Y-17937963D03*
%TD*%
D92*
%TO.C,D86*%
X178616053Y-27437736D03*
D93*
X176569393Y-25454385D03*
X180662713Y-29421087D03*
%TD*%
D96*
%TO.C,D93*%
X202240791Y-63816643D03*
D97*
X203220221Y-66493062D03*
X201261361Y-61140224D03*
%TD*%
D27*
%TO.C,D114*%
X251629363Y-22414772D03*
D28*
X254479363Y-22414772D03*
X248779363Y-22414772D03*
%TD*%
D98*
%TO.C,P*%
X140004363Y-43564772D03*
%TD*%
D99*
%TO.C,D90*%
X215719080Y-35935464D03*
D100*
X218424943Y-35040586D03*
X213013217Y-36830342D03*
%TD*%
D90*
%TO.C,D52*%
X132437265Y-22873062D03*
D91*
X133883749Y-25328705D03*
X130990781Y-20417419D03*
%TD*%
D87*
%TO.C,P*%
X178124363Y-46321796D03*
%TD*%
D29*
%TO.C,D84*%
X176731674Y-56187799D03*
D30*
X174443644Y-57887040D03*
X179019704Y-54488558D03*
%TD*%
D96*
%TO.C,D45*%
X101150791Y-63759619D03*
D97*
X102130221Y-66436038D03*
X100171361Y-61083200D03*
%TD*%
D94*
%TO.C,D94*%
X190998678Y-64879336D03*
D95*
X190538107Y-67691875D03*
X191459249Y-62066797D03*
%TD*%
D75*
%TO.C,D48*%
X72860006Y-51163750D03*
D76*
X70215673Y-52226765D03*
X75504339Y-50100735D03*
%TD*%
D27*
%TO.C,D144*%
X288354363Y-56614772D03*
D28*
X285504363Y-56614772D03*
X291204363Y-56614772D03*
%TD*%
D27*
%TO.C,D16*%
X56504363Y-18714772D03*
D28*
X53654363Y-18714772D03*
X59354363Y-18714772D03*
%TD*%
D84*
%TO.C,D91*%
X216428125Y-47205410D03*
D85*
X219224809Y-47754098D03*
X213631441Y-46656722D03*
%TD*%
D81*
%TO.C,D37*%
X71804363Y-39114772D03*
D82*
X68995108Y-38634577D03*
X74613618Y-39594967D03*
%TD*%
D13*
%TO.C,D24*%
X45604363Y-47214772D03*
D14*
X45604363Y-50064772D03*
X45604363Y-44364772D03*
%TD*%
D49*
%TO.C,REF\u002A\u002A*%
X41104363Y-50714772D03*
%TD*%
D54*
%TO.C,D133*%
X283004363Y-22136617D03*
D55*
X281936734Y-24779091D03*
X284071992Y-19494143D03*
%TD*%
D13*
%TO.C,D70*%
X138854363Y-58264772D03*
D14*
X138854363Y-55414772D03*
X138854363Y-61114772D03*
%TD*%
D13*
%TO.C,D59*%
X149004363Y-50764772D03*
D14*
X149004363Y-47914772D03*
X149004363Y-53614772D03*
%TD*%
D27*
%TO.C,D25*%
X71254363Y-42864772D03*
D28*
X74104363Y-42864772D03*
X68404363Y-42864772D03*
%TD*%
D13*
%TO.C,D57*%
X138504363Y-50704772D03*
D14*
X138504363Y-47854772D03*
X138504363Y-53554772D03*
%TD*%
D38*
%TO.C,R60*%
X247799363Y-29522272D03*
X247799363Y-32447272D03*
%TD*%
D67*
%TO.C,D31*%
X115710458Y-41467683D03*
D68*
X118554834Y-41288730D03*
X112866082Y-41646636D03*
%TD*%
D101*
%TO.C,D95*%
X180682714Y-60286373D03*
D102*
X178900772Y-62510600D03*
X182464656Y-58062146D03*
%TD*%
D103*
%TO.C,D28*%
X92805474Y-20625751D03*
D104*
X92715953Y-17777157D03*
X92894995Y-23474345D03*
%TD*%
D101*
%TO.C,D47*%
X79592714Y-60229349D03*
D102*
X77810772Y-62453576D03*
X81374656Y-58005122D03*
%TD*%
D38*
%TO.C,R7*%
X30524363Y-23472272D03*
X30524363Y-26397272D03*
%TD*%
D27*
%TO.C,D112*%
X261379363Y-18714772D03*
D28*
X258529363Y-18714772D03*
X264229363Y-18714772D03*
%TD*%
D49*
%TO.C,REF\u002A\u002A*%
X214429363Y-50739772D03*
%TD*%
D38*
%TO.C,R56*%
X256499363Y-23672272D03*
X256499363Y-26597272D03*
%TD*%
D105*
%TO.C,R16*%
X117032116Y-50615875D03*
X115795958Y-53266826D03*
%TD*%
D39*
%TO.C,R65*%
X297696863Y-56634772D03*
X294771863Y-56634772D03*
%TD*%
D80*
%TO.C,P*%
X72004363Y-46914772D03*
%TD*%
D16*
%TO.C,D75*%
X183068262Y-23889941D03*
D17*
X181591885Y-21452153D03*
X184544639Y-26327729D03*
%TD*%
D71*
%TO.C,D74*%
X175209856Y-31999187D03*
D72*
X172726897Y-30600111D03*
X177692815Y-33398263D03*
%TD*%
D39*
%TO.C,R22*%
X118446863Y-44384772D03*
X115521863Y-44384772D03*
%TD*%
D27*
%TO.C,D129*%
X282154363Y-53364772D03*
D28*
X279304363Y-53364772D03*
X285004363Y-53364772D03*
%TD*%
D106*
%TO.C,R27*%
X160005006Y-25597521D03*
X161489556Y-23077256D03*
%TD*%
D69*
%TO.C,D141*%
X274436734Y-59257246D03*
D70*
X275504363Y-56614772D03*
X273369105Y-61899720D03*
%TD*%
D99*
%TO.C,D42*%
X114629080Y-35878440D03*
D100*
X117334943Y-34983562D03*
X111923217Y-36773318D03*
%TD*%
D49*
%TO.C,REF\u002A\u002A*%
X152379363Y-35764772D03*
%TD*%
D13*
%TO.C,D10*%
X36704363Y-39714772D03*
D14*
X36704363Y-42564772D03*
X36704363Y-36864772D03*
%TD*%
D49*
%TO.C,REF\u002A\u002A*%
X279629363Y-35739772D03*
%TD*%
D42*
%TO.C,P*%
X245979363Y-46914772D03*
%TD*%
D13*
%TO.C,D99*%
X266879363Y-22514772D03*
D14*
X266879363Y-19664772D03*
X266879363Y-25364772D03*
%TD*%
D107*
%TO.C,D138*%
X297896837Y-39547143D03*
D108*
X295254363Y-40614772D03*
X300539311Y-38479514D03*
%TD*%
D47*
%TO.C,D66*%
X154077868Y-41009833D03*
D48*
X152546564Y-43413499D03*
X155609172Y-38606167D03*
%TD*%
D90*
%TO.C,D51*%
X140557879Y-36659129D03*
D91*
X142004363Y-39114772D03*
X139111395Y-34203486D03*
%TD*%
D98*
%TO.C,P*%
X147704363Y-43614772D03*
%TD*%
D38*
%TO.C,R29*%
X142274363Y-60422272D03*
X142274363Y-63347272D03*
%TD*%
D45*
%TO.C,D139*%
X313553109Y-65262071D03*
D46*
X312485480Y-62619597D03*
X314620738Y-67904545D03*
%TD*%
D39*
%TO.C,R67*%
X285446863Y-29634772D03*
X282521863Y-29634772D03*
%TD*%
D27*
%TO.C,D131*%
X288504363Y-26114772D03*
D28*
X291354363Y-26114772D03*
X285654363Y-26114772D03*
%TD*%
D25*
%TO.C,D35*%
X84454473Y-63191158D03*
D26*
X83295274Y-65794763D03*
X85613672Y-60587553D03*
%TD*%
D13*
%TO.C,D104*%
X246129363Y-62214772D03*
D14*
X246129363Y-65064772D03*
X246129363Y-59364772D03*
%TD*%
D13*
%TO.C,D19*%
X45604363Y-62214772D03*
D14*
X45604363Y-65064772D03*
X45604363Y-59364772D03*
%TD*%
D38*
%TO.C,R43*%
X177814363Y-36429296D03*
X177814363Y-39354296D03*
%TD*%
D27*
%TO.C,D128*%
X307504363Y-67614772D03*
D28*
X310354363Y-67614772D03*
X304654363Y-67614772D03*
%TD*%
D50*
%TO.C,D88*%
X199561678Y-21233359D03*
D51*
X200197941Y-18455290D03*
X198925415Y-24011428D03*
%TD*%
D27*
%TO.C,D100*%
X261479363Y-22464772D03*
D28*
X264329363Y-22464772D03*
X258629363Y-22464772D03*
%TD*%
D98*
%TO.C,P*%
X143934363Y-43084772D03*
%TD*%
D105*
%TO.C,R40*%
X218122116Y-50672899D03*
X216885958Y-53323850D03*
%TD*%
D27*
%TO.C,D113*%
X240279363Y-22414772D03*
D28*
X243129363Y-22414772D03*
X237429363Y-22414772D03*
%TD*%
D27*
%TO.C,D63*%
X126004363Y-18614772D03*
D28*
X128854363Y-18614772D03*
X123154363Y-18614772D03*
%TD*%
D83*
%TO.C,P*%
X273504363Y-50014772D03*
%TD*%
D27*
%TO.C,D111*%
X261379363Y-26214772D03*
D28*
X264229363Y-26214772D03*
X258529363Y-26214772D03*
%TD*%
D27*
%TO.C,D124*%
X269504363Y-67614772D03*
D28*
X266654363Y-67614772D03*
X272354363Y-67614772D03*
%TD*%
D27*
%TO.C,D13*%
X25504363Y-26214772D03*
D28*
X22654363Y-26214772D03*
X28354363Y-26214772D03*
%TD*%
D109*
%TO.C,P*%
X277004363Y-45890143D03*
%TD*%
D15*
%TO.C,R50*%
X256459363Y-21657272D03*
X256459363Y-18732272D03*
%TD*%
D106*
%TO.C,R28*%
X158005006Y-24347521D03*
X159489556Y-21827256D03*
%TD*%
D13*
%TO.C,D120*%
X250479363Y-47214772D03*
D14*
X250479363Y-50064772D03*
X250479363Y-44364772D03*
%TD*%
D27*
%TO.C,D72*%
X143904363Y-48864772D03*
D28*
X141054363Y-48864772D03*
X146754363Y-48864772D03*
%TD*%
D88*
%TO.C,D89*%
X209568891Y-26465004D03*
D89*
X211486977Y-24357055D03*
X207650805Y-28572953D03*
%TD*%
D79*
%TO.C,R25*%
X129904363Y-25114772D03*
X128419813Y-22594507D03*
%TD*%
D34*
%TO.C,R49*%
X238036863Y-19694772D03*
X240961863Y-19694772D03*
%TD*%
D103*
%TO.C,D76*%
X193895474Y-20682775D03*
D104*
X193805953Y-17834181D03*
X193984995Y-23531369D03*
%TD*%
D34*
%TO.C,R69*%
X292061863Y-32614772D03*
X294986863Y-32614772D03*
%TD*%
D13*
%TO.C,D97*%
X224979363Y-22464772D03*
D14*
X224979363Y-19614772D03*
X224979363Y-25314772D03*
%TD*%
D77*
%TO.C,D29*%
X103812700Y-23146742D03*
D78*
X105133094Y-20621062D03*
X102492306Y-25672422D03*
%TD*%
D42*
%TO.C,P*%
X41104363Y-43214772D03*
%TD*%
D69*
%TO.C,D135*%
X263460761Y-65423733D03*
D70*
X264528390Y-62781259D03*
X262393132Y-68066207D03*
%TD*%
D110*
%TO.C,R64*%
X307504363Y-59614772D03*
X308600087Y-62326785D03*
%TD*%
M02*
