%TF.GenerationSoftware,KiCad,Pcbnew,(6.0.0)*%
%TF.CreationDate,2022-05-14T17:31:40-07:00*%
%TF.ProjectId,Letters GERBER,4c657474-6572-4732-9047-45524245522e,rev?*%
%TF.SameCoordinates,Original*%
%TF.FileFunction,Profile,NP*%
%FSLAX46Y46*%
G04 Gerber Fmt 4.6, Leading zero omitted, Abs format (unit mm)*
G04 Created by KiCad (PCBNEW (6.0.0)) date 2022-05-14 17:31:40*
%MOMM*%
%LPD*%
G01*
G04 APERTURE LIST*
%ADD10C,0.200000*%
G04 APERTURE END LIST*
D10*
X150976765Y-53014486D02*
X167909577Y-53014486D01*
X167909577Y-53014486D02*
X168296813Y-54026102D01*
X168720815Y-55018624D01*
X169180735Y-55991196D01*
X169675730Y-56942965D01*
X170204953Y-57873077D01*
X170767559Y-58780679D01*
X171362701Y-59664916D01*
X171989535Y-60524934D01*
X172647214Y-61359881D01*
X173334894Y-62168902D01*
X174051728Y-62951143D01*
X174796871Y-63705750D01*
X175569478Y-64431870D01*
X176368702Y-65128649D01*
X177193698Y-65795234D01*
X178043621Y-66430769D01*
X178917625Y-67034402D01*
X179814864Y-67605279D01*
X180734493Y-68142545D01*
X181675665Y-68645348D01*
X182637536Y-69112833D01*
X183619260Y-69544147D01*
X184619992Y-69938435D01*
X185638885Y-70294844D01*
X186675094Y-70612520D01*
X187727773Y-70890610D01*
X188796077Y-71128259D01*
X189879160Y-71324613D01*
X190976177Y-71478820D01*
X192086282Y-71590024D01*
X193208629Y-71657373D01*
X194342374Y-71680013D01*
X282040098Y-48034536D02*
X288560414Y-30387530D01*
X265890311Y-53014486D02*
X259684603Y-68569451D01*
X288560414Y-30387530D02*
X295080710Y-48034536D01*
X93280347Y-71650343D02*
X94413079Y-71627745D01*
X95534439Y-71560518D01*
X96643584Y-71449515D01*
X97739670Y-71295587D01*
X98821854Y-71099584D01*
X99889291Y-70862358D01*
X100941138Y-70584762D01*
X101976552Y-70267645D01*
X102994689Y-69911860D01*
X103994706Y-69518257D01*
X104975758Y-69087689D01*
X105937003Y-68621007D01*
X106877597Y-68119061D01*
X107796696Y-67582704D01*
X108693457Y-67012787D01*
X109567035Y-66410161D01*
X110416589Y-65775678D01*
X111241273Y-65110188D01*
X112040244Y-64414544D01*
X112812659Y-63689597D01*
X113557675Y-62936198D01*
X114274447Y-62155198D01*
X114962132Y-61347450D01*
X115619886Y-60513804D01*
X116246867Y-59655111D01*
X116842230Y-58772224D01*
X117405131Y-57865993D01*
X117934728Y-56937270D01*
X118430176Y-55986906D01*
X118890633Y-55015754D01*
X119315254Y-54024663D01*
X119703196Y-53014486D01*
X41144016Y-69940003D02*
X46669135Y-69940003D01*
X119703196Y-53014486D02*
X136719668Y-53014486D01*
X269171075Y-27157003D02*
X269171075Y-17599999D01*
X107780859Y-43269990D02*
X107761991Y-44151393D01*
X107705995Y-45021226D01*
X107613781Y-45878411D01*
X107486262Y-46721874D01*
X107324348Y-47550537D01*
X107128950Y-48363325D01*
X106900979Y-49159161D01*
X106641346Y-49936969D01*
X106350963Y-50695673D01*
X106030740Y-51434197D01*
X105681589Y-52151465D01*
X105304420Y-52846400D01*
X104900145Y-53517926D01*
X104469675Y-54164967D01*
X104013921Y-54786447D01*
X103533794Y-55381290D01*
X103030204Y-55948420D01*
X102504064Y-56486760D01*
X101956284Y-56995234D01*
X101387776Y-57472766D01*
X100799450Y-57918280D01*
X100192217Y-58330699D01*
X99566989Y-58708949D01*
X98924677Y-59051951D01*
X98266192Y-59358631D01*
X97592444Y-59627911D01*
X96904345Y-59858717D01*
X96202806Y-60049971D01*
X95488739Y-60200597D01*
X94763053Y-60309520D01*
X94026661Y-60375663D01*
X93280474Y-60397950D01*
X288560288Y-16599999D02*
X281095711Y-16599999D01*
X252534494Y-68940003D02*
X252534494Y-53014486D01*
X273412307Y-69940003D02*
X273645937Y-69912394D01*
X273862027Y-69833199D01*
X274052930Y-69707867D01*
X274211000Y-69541844D01*
X274328590Y-69340580D01*
X274357470Y-69266602D01*
X252534494Y-28157003D02*
X268171075Y-28157003D01*
X143848353Y-37394424D02*
X131714984Y-17087094D01*
X46669135Y-69940003D02*
X46870669Y-69919686D01*
X47102676Y-69841392D01*
X47305227Y-69711651D01*
X47470470Y-69538319D01*
X47590549Y-69329248D01*
X47657612Y-69092293D01*
X47669135Y-68940003D01*
X222847697Y-17599999D02*
X222847697Y-27157003D01*
X117163277Y-16599999D02*
X116949636Y-16622158D01*
X116755415Y-16685066D01*
X116531718Y-16823078D01*
X116354683Y-17011325D01*
X116231249Y-17237115D01*
X116168352Y-17487758D01*
X116172932Y-17750563D01*
X116224820Y-17948015D01*
X116321494Y-18139816D01*
X47669135Y-53014486D02*
X66857498Y-53014486D01*
X239484257Y-53014486D02*
X239484257Y-68940003D01*
X222847697Y-27157003D02*
X222868013Y-27358537D01*
X222946307Y-27590544D01*
X223076048Y-27793095D01*
X223249380Y-27958338D01*
X223458451Y-28078417D01*
X223695406Y-28145480D01*
X223847697Y-28157003D01*
X150976765Y-68940003D02*
X150976765Y-53014486D01*
X223847697Y-16599999D02*
X223646162Y-16620315D01*
X223414155Y-16698609D01*
X223211604Y-16828350D01*
X223046361Y-17001682D01*
X222926281Y-17210753D01*
X222859219Y-17447708D01*
X222847697Y-17599999D01*
X194342374Y-71680013D02*
X195476118Y-71657373D01*
X196598465Y-71590024D01*
X197708570Y-71478820D01*
X198805587Y-71324613D01*
X199888670Y-71128259D01*
X200956974Y-70890610D01*
X202009653Y-70612520D01*
X203045862Y-70294844D01*
X204064755Y-69938435D01*
X205065487Y-69544147D01*
X206047211Y-69112833D01*
X207009082Y-68645348D01*
X207950254Y-68142545D01*
X208869883Y-67605279D01*
X209767122Y-67034402D01*
X210641126Y-66430769D01*
X211491049Y-65795234D01*
X212316045Y-65128649D01*
X213115269Y-64431870D01*
X213887876Y-63705750D01*
X214633019Y-62951143D01*
X215349853Y-62168902D01*
X216037533Y-61359881D01*
X216695212Y-60524934D01*
X217322046Y-59664916D01*
X217917188Y-58780679D01*
X218479794Y-57873077D01*
X219009017Y-56942965D01*
X219504012Y-55991196D01*
X219963932Y-55018624D01*
X220387934Y-54026102D01*
X220775171Y-53014486D01*
X34618898Y-33014501D02*
X34618898Y-53014486D01*
X137719668Y-69940003D02*
X143848217Y-69940003D01*
X34618898Y-68940003D02*
X34639214Y-69141537D01*
X34717508Y-69373544D01*
X34847249Y-69576095D01*
X35020581Y-69741338D01*
X35229652Y-69861418D01*
X35466607Y-69928480D01*
X35618898Y-69940003D01*
X220775171Y-53014486D02*
X239484257Y-53014486D01*
X239484257Y-68940003D02*
X239504573Y-69141537D01*
X239582867Y-69373544D01*
X239712608Y-69576095D01*
X239885940Y-69741338D01*
X240095011Y-69861418D01*
X240331966Y-69928480D01*
X240484257Y-69940003D01*
X116321494Y-18139816D02*
X125860297Y-33014501D01*
X156839896Y-16599999D02*
X156613916Y-16625844D01*
X156402887Y-16700539D01*
X156214319Y-16819820D01*
X156055726Y-16979426D01*
X155981450Y-17087094D01*
X155981450Y-17087094D02*
X143848353Y-37394424D01*
X245647963Y-16599999D02*
X223847697Y-16599999D01*
X170533157Y-16599999D02*
X156839896Y-16599999D01*
X168130020Y-33014501D02*
X161836137Y-33014501D01*
X194342501Y-26171680D02*
X195088688Y-26193966D01*
X195825080Y-26260109D01*
X196550766Y-26369032D01*
X197264833Y-26519659D01*
X197966372Y-26710914D01*
X198654471Y-26941720D01*
X199328218Y-27211001D01*
X199986704Y-27517681D01*
X200629016Y-27860685D01*
X201254244Y-28238935D01*
X201861476Y-28651355D01*
X202449803Y-29096870D01*
X203018311Y-29574403D01*
X203566091Y-30082878D01*
X204092231Y-30621219D01*
X204595820Y-31188350D01*
X205075947Y-31783194D01*
X205531702Y-32404675D01*
X205962172Y-33051717D01*
X206366447Y-33723244D01*
X206743616Y-34418180D01*
X207092767Y-35135448D01*
X207412990Y-35873973D01*
X207703373Y-36632678D01*
X207963006Y-37410487D01*
X208190977Y-38206324D01*
X208386375Y-39019112D01*
X208548289Y-39847775D01*
X208675808Y-40691238D01*
X208768022Y-41548424D01*
X208824018Y-42418257D01*
X208842886Y-43299661D01*
X66857498Y-53014486D02*
X67245439Y-54024663D01*
X67670060Y-55015754D01*
X68130517Y-55986906D01*
X68625965Y-56937270D01*
X69155562Y-57865993D01*
X69718463Y-58772224D01*
X70313826Y-59655111D01*
X70940807Y-60513804D01*
X71598561Y-61347450D01*
X72286246Y-62155198D01*
X73003018Y-62936198D01*
X73748034Y-63689597D01*
X74520449Y-64414544D01*
X75319420Y-65110188D01*
X76144104Y-65775678D01*
X76993658Y-66410161D01*
X77867236Y-67012787D01*
X78763997Y-67582704D01*
X79683096Y-68119061D01*
X80623690Y-68621007D01*
X81584935Y-69087689D01*
X82565987Y-69518257D01*
X83566004Y-69911860D01*
X84584141Y-70267645D01*
X85619555Y-70584762D01*
X86671402Y-70862358D01*
X87738839Y-71099584D01*
X88821023Y-71295587D01*
X89917109Y-71449515D01*
X91026254Y-71560518D01*
X92147614Y-71627745D01*
X93280347Y-71650343D01*
X35618898Y-69940003D02*
X41144016Y-69940003D01*
X93280474Y-26142009D02*
X94026661Y-26164295D01*
X94763053Y-26230438D01*
X95488739Y-26339361D01*
X96202806Y-26489988D01*
X96904345Y-26681243D01*
X97592444Y-26912049D01*
X98266192Y-27181330D01*
X98924677Y-27488010D01*
X99566989Y-27831014D01*
X100192217Y-28209264D01*
X100799450Y-28621684D01*
X101387776Y-29067199D01*
X101956284Y-29544732D01*
X102504064Y-30053207D01*
X103030204Y-30591548D01*
X103533794Y-31158679D01*
X104013921Y-31753523D01*
X104469675Y-32375004D01*
X104900145Y-33022046D01*
X105304420Y-33693573D01*
X105681589Y-34388509D01*
X106030740Y-35105777D01*
X106350963Y-35844302D01*
X106641346Y-36603007D01*
X106900979Y-37380816D01*
X107128950Y-38176653D01*
X107324348Y-38989441D01*
X107486262Y-39818104D01*
X107613781Y-40661567D01*
X107705995Y-41518753D01*
X107761991Y-42388586D01*
X107780859Y-43269990D01*
X136719668Y-68940003D02*
X136739984Y-69141537D01*
X136818278Y-69373544D01*
X136948019Y-69576095D01*
X137121352Y-69741338D01*
X137330423Y-69861418D01*
X137567378Y-69928480D01*
X137719668Y-69940003D01*
X316507162Y-69940003D02*
X316760827Y-69908048D01*
X316987432Y-69818208D01*
X317180856Y-69679516D01*
X317334975Y-69501005D01*
X317443669Y-69291709D01*
X317500814Y-69060663D01*
X317500289Y-68816898D01*
X317435973Y-68569451D01*
X194342374Y-14919288D02*
X193228559Y-14941147D01*
X192125764Y-15006184D01*
X191034786Y-15113589D01*
X189956426Y-15262550D01*
X188891483Y-15452258D01*
X187840755Y-15681902D01*
X186805042Y-15950670D01*
X185785144Y-16257753D01*
X184781859Y-16602340D01*
X183795988Y-16983620D01*
X182828328Y-17400783D01*
X181879680Y-17853018D01*
X180950843Y-18339514D01*
X180042616Y-18859461D01*
X179155798Y-19412048D01*
X178291189Y-19996465D01*
X177449588Y-20611900D01*
X176631794Y-21257544D01*
X175838606Y-21932586D01*
X175070824Y-22636215D01*
X174329247Y-23367620D01*
X173614674Y-24125992D01*
X172927905Y-24910519D01*
X172269738Y-25720390D01*
X171640974Y-26554796D01*
X171042411Y-27412925D01*
X170474848Y-28293967D01*
X169939085Y-29197112D01*
X169435922Y-30121548D01*
X168966157Y-31066465D01*
X168530590Y-32031053D01*
X168130020Y-33014501D01*
X18982338Y-28157024D02*
X34618898Y-28157024D01*
X161836137Y-33014501D02*
X171374940Y-18139816D01*
X269171075Y-17599999D02*
X269150758Y-17398464D01*
X269072464Y-17166457D01*
X268942723Y-16963906D01*
X268769391Y-16798663D01*
X268560320Y-16678583D01*
X268323365Y-16611521D01*
X268171075Y-16599999D01*
X281095711Y-16599999D02*
X280871026Y-16625515D01*
X280661973Y-16698938D01*
X280475475Y-16815576D01*
X280318452Y-16970739D01*
X280197824Y-17159738D01*
X280166900Y-17229446D01*
X93280347Y-14889638D02*
X92165494Y-14911537D01*
X91061681Y-14976695D01*
X89969709Y-15084297D01*
X88890379Y-15233532D01*
X87824494Y-15423585D01*
X86772854Y-15653645D01*
X85736261Y-15922898D01*
X84715517Y-16230532D01*
X83711424Y-16575734D01*
X82724783Y-16957690D01*
X81756395Y-17375588D01*
X80807062Y-17828616D01*
X79877586Y-18315960D01*
X78968768Y-18836808D01*
X78081410Y-19390346D01*
X77216313Y-19975761D01*
X76374280Y-20592242D01*
X75556111Y-21238975D01*
X74762608Y-21915147D01*
X73994573Y-22619945D01*
X73252807Y-23352557D01*
X72538112Y-24112169D01*
X71851290Y-24897969D01*
X71193141Y-25709145D01*
X70564468Y-26544882D01*
X69966073Y-27404368D01*
X69398756Y-28286791D01*
X68863320Y-29191337D01*
X68360565Y-30117194D01*
X67891294Y-31063549D01*
X67456309Y-32029589D01*
X67056410Y-33014501D01*
X240484257Y-69940003D02*
X246009375Y-69940003D01*
X47669135Y-33014501D02*
X47669135Y-28157024D01*
X223847697Y-28157003D02*
X239484257Y-28157003D01*
X259684603Y-68569451D02*
X259620286Y-68816898D01*
X259619761Y-69060663D01*
X259676906Y-69291709D01*
X259785600Y-69501005D01*
X259939719Y-69679516D01*
X260133143Y-69818208D01*
X260359748Y-69908048D01*
X260613414Y-69940003D01*
X34618898Y-53014486D02*
X34618898Y-68940003D01*
X17982338Y-27157024D02*
X18002654Y-27358558D01*
X18080948Y-27590565D01*
X18210689Y-27793116D01*
X18384021Y-27958359D01*
X18593092Y-28078439D01*
X18830047Y-28145501D01*
X18982338Y-28157024D01*
X268171075Y-28157003D02*
X268372609Y-28136686D01*
X268604616Y-28058392D01*
X268807167Y-27928651D01*
X268972410Y-27755318D01*
X269092490Y-27546247D01*
X269159552Y-27309292D01*
X269171075Y-27157003D01*
X311227531Y-53007639D02*
X296953676Y-17229446D01*
X302763106Y-69266602D02*
X302865503Y-69478403D01*
X303010930Y-69656778D01*
X303191738Y-69796279D01*
X303400282Y-69891458D01*
X303628915Y-69936868D01*
X303708269Y-69940003D01*
X280166900Y-17229446D02*
X273869389Y-33014501D01*
X208842886Y-43299661D02*
X208824018Y-44181064D01*
X208768022Y-45050897D01*
X208675808Y-45908082D01*
X208548289Y-46751545D01*
X208386375Y-47580208D01*
X208190977Y-48392996D01*
X207963006Y-49188832D01*
X207703373Y-49966640D01*
X207412990Y-50725344D01*
X207092767Y-51463868D01*
X206743616Y-52181136D01*
X206366447Y-52876071D01*
X205962172Y-53547597D01*
X205531702Y-54194638D01*
X205075947Y-54816118D01*
X204595820Y-55410961D01*
X204092231Y-55978091D01*
X203566091Y-56516431D01*
X203018311Y-57024905D01*
X202449803Y-57502437D01*
X201861476Y-57947951D01*
X201254244Y-58360370D01*
X200629016Y-58738620D01*
X199986704Y-59081622D01*
X199328218Y-59388302D01*
X198654471Y-59657582D01*
X197966372Y-59888388D01*
X197264833Y-60079642D01*
X196550766Y-60230268D01*
X195825080Y-60339191D01*
X195088688Y-60405334D01*
X194342501Y-60427621D01*
X296024865Y-16599999D02*
X288560288Y-16599999D01*
X296953676Y-17229446D02*
X296846718Y-17030211D01*
X296701057Y-16863248D01*
X296523615Y-16733247D01*
X296321312Y-16644898D01*
X296101069Y-16602892D01*
X296024865Y-16599999D01*
X41505428Y-16599999D02*
X40782604Y-16599999D01*
X246009375Y-69940003D02*
X251534494Y-69940003D01*
X299103077Y-58674627D02*
X302763106Y-69266602D01*
X78780088Y-43269990D02*
X78798955Y-42388586D01*
X78854951Y-41518753D01*
X78947165Y-40661567D01*
X79074684Y-39818104D01*
X79236598Y-38989441D01*
X79431996Y-38176653D01*
X79659967Y-37380816D01*
X79919600Y-36603007D01*
X80209983Y-35844302D01*
X80530206Y-35105777D01*
X80879358Y-34388509D01*
X81256526Y-33693573D01*
X81660801Y-33022046D01*
X82091271Y-32375004D01*
X82547026Y-31753523D01*
X83027153Y-31158679D01*
X83530742Y-30591548D01*
X84056882Y-30053207D01*
X84604662Y-29544732D01*
X85173171Y-29067199D01*
X85761497Y-28621684D01*
X86368729Y-28209264D01*
X86993957Y-27831014D01*
X87636270Y-27488010D01*
X88294755Y-27181330D01*
X88968503Y-26912049D01*
X89656602Y-26681243D01*
X90358141Y-26489988D01*
X91072208Y-26339361D01*
X91797894Y-26230438D01*
X92534286Y-26164295D01*
X93280474Y-26142009D01*
X252534494Y-53014486D02*
X265890311Y-53014486D01*
X143848217Y-69940003D02*
X149976765Y-69940003D01*
X268171075Y-16599999D02*
X246370787Y-16599999D01*
X131714984Y-17087094D02*
X131576891Y-16906359D01*
X131404531Y-16763513D01*
X131205417Y-16662819D01*
X130987061Y-16608537D01*
X130856538Y-16599999D01*
X288560288Y-58674627D02*
X299103077Y-58674627D01*
X311230265Y-53014486D02*
X311227531Y-53007639D01*
X171374940Y-18139816D02*
X171471613Y-17948015D01*
X171523501Y-17750563D01*
X171528081Y-17487758D01*
X171465184Y-17237115D01*
X171341750Y-17011325D01*
X171164715Y-16823078D01*
X170941018Y-16685066D01*
X170746797Y-16622158D01*
X170533157Y-16599999D01*
X136719668Y-53014486D02*
X136719668Y-68940003D01*
X251534494Y-69940003D02*
X251736028Y-69919686D01*
X251968035Y-69841392D01*
X252170586Y-69711651D01*
X252335829Y-69538319D01*
X252455909Y-69329248D01*
X252522971Y-69092293D01*
X252534494Y-68940003D01*
X64305695Y-27157024D02*
X64305695Y-17599999D01*
X303708269Y-69940003D02*
X316507162Y-69940003D01*
X317435973Y-68569451D02*
X311230265Y-53014486D01*
X239484257Y-28157003D02*
X239484257Y-33014501D01*
X47669135Y-68940003D02*
X47669135Y-53014486D01*
X220554727Y-33014501D02*
X220154156Y-32031053D01*
X219718589Y-31066465D01*
X219248824Y-30121548D01*
X218745661Y-29197112D01*
X218209898Y-28293967D01*
X217642336Y-27412925D01*
X217043773Y-26554796D01*
X216415009Y-25720390D01*
X215756842Y-24910519D01*
X215070073Y-24125992D01*
X214355500Y-23367620D01*
X213613923Y-22636215D01*
X212846141Y-21932586D01*
X212052953Y-21257544D01*
X211235159Y-20611900D01*
X210393558Y-19996465D01*
X209528949Y-19412048D01*
X208642131Y-18859461D01*
X207733904Y-18339514D01*
X206805067Y-17853018D01*
X205856419Y-17400783D01*
X204888759Y-16983620D01*
X203902888Y-16602340D01*
X202899603Y-16257753D01*
X201879705Y-15950670D01*
X200843992Y-15681902D01*
X199793264Y-15452258D01*
X198728321Y-15262550D01*
X197649961Y-15113589D01*
X196558983Y-15006184D01*
X195456188Y-14941147D01*
X194342374Y-14919288D01*
X246370787Y-16599999D02*
X245647963Y-16599999D01*
X63305695Y-16599999D02*
X41505428Y-16599999D01*
X40782604Y-16599999D02*
X18982338Y-16599999D01*
X47669135Y-28157024D02*
X63305695Y-28157024D01*
X63305695Y-28157024D02*
X63507229Y-28136707D01*
X63739236Y-28058413D01*
X63941787Y-27928672D01*
X64107030Y-27755340D01*
X64227109Y-27546269D01*
X64294172Y-27309314D01*
X64305695Y-27157024D01*
X67056410Y-33014501D02*
X47669135Y-33014501D01*
X260613414Y-69940003D02*
X273412307Y-69940003D01*
X274357470Y-69266602D02*
X278017499Y-58674627D01*
X17982338Y-17599999D02*
X17982338Y-27157024D01*
X278017499Y-58674627D02*
X288560288Y-58674627D01*
X130856538Y-16599999D02*
X117163277Y-16599999D01*
X34618898Y-28157024D02*
X34618898Y-33014501D01*
X93280474Y-60397950D02*
X92534286Y-60375663D01*
X91797894Y-60309520D01*
X91072208Y-60200597D01*
X90358141Y-60049971D01*
X89656602Y-59858717D01*
X88968503Y-59627911D01*
X88294755Y-59358631D01*
X87636270Y-59051951D01*
X86993957Y-58708949D01*
X86368729Y-58330699D01*
X85761497Y-57918280D01*
X85173171Y-57472766D01*
X84604662Y-56995234D01*
X84056882Y-56486760D01*
X83530742Y-55948420D01*
X83027153Y-55381290D01*
X82547026Y-54786447D01*
X82091271Y-54164967D01*
X81660801Y-53517926D01*
X81256526Y-52846400D01*
X80879358Y-52151465D01*
X80530206Y-51434197D01*
X80209983Y-50695673D01*
X79919600Y-49936969D01*
X79659967Y-49159161D01*
X79431996Y-48363325D01*
X79236598Y-47550537D01*
X79074684Y-46721874D01*
X78947165Y-45878411D01*
X78854951Y-45021226D01*
X78798955Y-44151393D01*
X78780088Y-43269990D01*
X125860297Y-33014501D02*
X119504285Y-33014501D01*
X288560414Y-48034536D02*
X282040098Y-48034536D01*
X194342501Y-60427621D02*
X193596313Y-60405334D01*
X192859921Y-60339191D01*
X192134235Y-60230268D01*
X191420168Y-60079642D01*
X190718629Y-59888388D01*
X190030530Y-59657582D01*
X189356782Y-59388302D01*
X188698297Y-59081622D01*
X188055984Y-58738620D01*
X187430756Y-58360370D01*
X186823524Y-57947951D01*
X186235198Y-57502437D01*
X185666689Y-57024905D01*
X185118909Y-56516431D01*
X184592769Y-55978091D01*
X184089180Y-55410961D01*
X183609053Y-54816118D01*
X183153298Y-54194638D01*
X182722828Y-53547597D01*
X182318553Y-52876071D01*
X181941385Y-52181136D01*
X181592233Y-51463868D01*
X181272010Y-50725344D01*
X180981627Y-49966640D01*
X180721994Y-49188832D01*
X180494023Y-48392996D01*
X180298625Y-47580208D01*
X180136711Y-46751545D01*
X180009192Y-45908082D01*
X179916978Y-45050897D01*
X179860982Y-44181064D01*
X179842115Y-43299661D01*
X239484257Y-33014501D02*
X220554727Y-33014501D01*
X252534494Y-33014501D02*
X252534494Y-28157003D01*
X149976765Y-69940003D02*
X150178299Y-69919686D01*
X150410306Y-69841392D01*
X150612857Y-69711651D01*
X150778100Y-69538319D01*
X150898180Y-69329248D01*
X150965242Y-69092293D01*
X150976765Y-68940003D01*
X119504285Y-33014501D02*
X119104385Y-32029589D01*
X118669399Y-31063549D01*
X118200128Y-30117194D01*
X117697374Y-29191337D01*
X117161937Y-28286791D01*
X116594621Y-27404368D01*
X115996225Y-26544882D01*
X115367552Y-25709145D01*
X114709404Y-24897969D01*
X114022581Y-24112169D01*
X113307886Y-23352557D01*
X112566121Y-22619945D01*
X111798085Y-21915147D01*
X111004583Y-21238975D01*
X110186414Y-20592242D01*
X109344380Y-19975761D01*
X108479283Y-19390346D01*
X107591925Y-18836808D01*
X106683107Y-18315960D01*
X105753631Y-17828616D01*
X104804298Y-17375588D01*
X103835911Y-16957690D01*
X102849269Y-16575734D01*
X101845176Y-16230532D01*
X100824432Y-15922898D01*
X99787839Y-15653645D01*
X98736199Y-15423585D01*
X97670314Y-15233532D01*
X96590984Y-15084297D01*
X95499012Y-14976695D01*
X94395199Y-14911537D01*
X93280347Y-14889638D01*
X64305695Y-17599999D02*
X64285378Y-17398464D01*
X64207084Y-17166457D01*
X64077343Y-16963906D01*
X63904010Y-16798663D01*
X63694939Y-16678583D01*
X63457984Y-16611521D01*
X63305695Y-16599999D01*
X18982338Y-16599999D02*
X18780803Y-16620315D01*
X18548796Y-16698609D01*
X18346245Y-16828350D01*
X18181002Y-17001682D01*
X18060922Y-17210753D01*
X17993860Y-17447708D01*
X17982338Y-17599999D01*
X295080710Y-48034536D02*
X288560414Y-48034536D01*
X179842115Y-43299661D02*
X179860982Y-42418257D01*
X179916978Y-41548424D01*
X180009192Y-40691238D01*
X180136711Y-39847775D01*
X180298625Y-39019112D01*
X180494023Y-38206324D01*
X180721994Y-37410487D01*
X180981627Y-36632678D01*
X181272010Y-35873973D01*
X181592233Y-35135448D01*
X181941385Y-34418180D01*
X182318553Y-33723244D01*
X182722828Y-33051717D01*
X183153298Y-32404675D01*
X183609053Y-31783194D01*
X184089180Y-31188350D01*
X184592769Y-30621219D01*
X185118909Y-30082878D01*
X185666689Y-29574403D01*
X186235198Y-29096870D01*
X186823524Y-28651355D01*
X187430756Y-28238935D01*
X188055984Y-27860685D01*
X188698297Y-27517681D01*
X189356782Y-27211001D01*
X190030530Y-26941720D01*
X190718629Y-26710914D01*
X191420168Y-26519659D01*
X192134235Y-26369032D01*
X192859921Y-26260109D01*
X193596313Y-26193966D01*
X194342501Y-26171680D01*
X273869389Y-33014501D02*
X252534494Y-33014501D01*
M02*
