%TF.GenerationSoftware,KiCad,Pcbnew,(6.0.0)*%
%TF.CreationDate,2022-05-14T16:49:07-07:00*%
%TF.ProjectId,Contrl Board GERBER,436f6e74-726c-4204-926f-617264204745,rev?*%
%TF.SameCoordinates,Original*%
%TF.FileFunction,Paste,Bot*%
%TF.FilePolarity,Positive*%
%FSLAX46Y46*%
G04 Gerber Fmt 4.6, Leading zero omitted, Abs format (unit mm)*
G04 Created by KiCad (PCBNEW (6.0.0)) date 2022-05-14 16:49:07*
%MOMM*%
%LPD*%
G01*
G04 APERTURE LIST*
G04 Aperture macros list*
%AMRoundRect*
0 Rectangle with rounded corners*
0 $1 Rounding radius*
0 $2 $3 $4 $5 $6 $7 $8 $9 X,Y pos of 4 corners*
0 Add a 4 corners polygon primitive as box body*
4,1,4,$2,$3,$4,$5,$6,$7,$8,$9,$2,$3,0*
0 Add four circle primitives for the rounded corners*
1,1,$1+$1,$2,$3*
1,1,$1+$1,$4,$5*
1,1,$1+$1,$6,$7*
1,1,$1+$1,$8,$9*
0 Add four rect primitives between the rounded corners*
20,1,$1+$1,$2,$3,$4,$5,0*
20,1,$1+$1,$4,$5,$6,$7,0*
20,1,$1+$1,$6,$7,$8,$9,0*
20,1,$1+$1,$8,$9,$2,$3,0*%
G04 Aperture macros list end*
%ADD10RoundRect,0.250000X0.625000X-0.312500X0.625000X0.312500X-0.625000X0.312500X-0.625000X-0.312500X0*%
%ADD11RoundRect,0.250000X-0.312500X-0.625000X0.312500X-0.625000X0.312500X0.625000X-0.312500X0.625000X0*%
%ADD12R,3.050000X2.750000*%
%ADD13R,2.200000X1.200000*%
%ADD14RoundRect,0.250000X0.312500X0.625000X-0.312500X0.625000X-0.312500X-0.625000X0.312500X-0.625000X0*%
%ADD15RoundRect,0.150000X0.587500X0.150000X-0.587500X0.150000X-0.587500X-0.150000X0.587500X-0.150000X0*%
%ADD16RoundRect,0.150000X-0.587500X-0.150000X0.587500X-0.150000X0.587500X0.150000X-0.587500X0.150000X0*%
%ADD17RoundRect,0.150000X0.150000X-0.587500X0.150000X0.587500X-0.150000X0.587500X-0.150000X-0.587500X0*%
%ADD18R,2.750000X3.050000*%
%ADD19R,1.200000X2.200000*%
%ADD20RoundRect,0.250000X-0.625000X0.312500X-0.625000X-0.312500X0.625000X-0.312500X0.625000X0.312500X0*%
G04 APERTURE END LIST*
D10*
%TO.C,R147*%
X176200000Y-54895000D03*
X176200000Y-51970000D03*
%TD*%
D11*
%TO.C,R155*%
X121432500Y-47070000D03*
X124357500Y-47070000D03*
%TD*%
D10*
%TO.C,R101*%
X38520000Y-69492500D03*
X38520000Y-66567500D03*
%TD*%
D12*
%TO.C,Q7*%
X45350000Y-70575000D03*
X42000000Y-70575000D03*
X42000000Y-67525000D03*
X45350000Y-67525000D03*
D13*
X49975000Y-66770000D03*
X49975000Y-71330000D03*
%TD*%
D14*
%TO.C,R102*%
X67942500Y-71030000D03*
X65017500Y-71030000D03*
%TD*%
D11*
%TO.C,R151*%
X121432500Y-52070000D03*
X124357500Y-52070000D03*
%TD*%
%TO.C,R163*%
X121432500Y-37070000D03*
X124357500Y-37070000D03*
%TD*%
%TO.C,R114*%
X87257500Y-42270000D03*
X90182500Y-42270000D03*
%TD*%
%TO.C,R164*%
X128932500Y-34570000D03*
X131857500Y-34570000D03*
%TD*%
D15*
%TO.C,Q30*%
X88737500Y-32400000D03*
X88737500Y-34300000D03*
X86862500Y-33350000D03*
%TD*%
D11*
%TO.C,R159*%
X121432500Y-42050000D03*
X124357500Y-42050000D03*
%TD*%
%TO.C,R157*%
X121432500Y-44550000D03*
X124357500Y-44550000D03*
%TD*%
%TO.C,R160*%
X128932500Y-39570000D03*
X131857500Y-39570000D03*
%TD*%
D16*
%TO.C,Q12*%
X65412500Y-43500000D03*
X65412500Y-41600000D03*
X67287500Y-42550000D03*
%TD*%
D10*
%TO.C,R122*%
X91470000Y-35242500D03*
X91470000Y-32317500D03*
%TD*%
D11*
%TO.C,R156*%
X128875000Y-44550000D03*
X131800000Y-44550000D03*
%TD*%
%TO.C,R109*%
X37275000Y-36050000D03*
X40200000Y-36050000D03*
%TD*%
D14*
%TO.C,R103*%
X157125000Y-25710000D03*
X154200000Y-25710000D03*
%TD*%
D11*
%TO.C,R168*%
X128932500Y-29570000D03*
X131857500Y-29570000D03*
%TD*%
D12*
%TO.C,Q5*%
X27725000Y-68025000D03*
X31075000Y-68025000D03*
X27725000Y-71075000D03*
X31075000Y-71075000D03*
D13*
X35700000Y-67270000D03*
X35700000Y-71830000D03*
%TD*%
D11*
%TO.C,R134*%
X154757500Y-73570000D03*
X157682500Y-73570000D03*
%TD*%
%TO.C,R152*%
X128932500Y-49570000D03*
X131857500Y-49570000D03*
%TD*%
D14*
%TO.C,R118*%
X157125000Y-37710000D03*
X154200000Y-37710000D03*
%TD*%
D16*
%TO.C,Q8*%
X66862500Y-68550000D03*
X66862500Y-66650000D03*
X68737500Y-67600000D03*
%TD*%
D12*
%TO.C,Q11*%
X57275000Y-42575000D03*
X53925000Y-39525000D03*
X53925000Y-42575000D03*
X57275000Y-39525000D03*
D13*
X61900000Y-38770000D03*
X61900000Y-43330000D03*
%TD*%
D11*
%TO.C,R133*%
X154757500Y-57570000D03*
X157682500Y-57570000D03*
%TD*%
D14*
%TO.C,R113*%
X80892500Y-42780000D03*
X77967500Y-42780000D03*
%TD*%
D11*
%TO.C,R106*%
X70257500Y-43570000D03*
X73182500Y-43570000D03*
%TD*%
D17*
%TO.C,Q16*%
X33900000Y-38587500D03*
X32000000Y-38587500D03*
X32950000Y-36712500D03*
%TD*%
D18*
%TO.C,Q19*%
X96225000Y-50075000D03*
X96225000Y-46725000D03*
X93175000Y-50075000D03*
X93175000Y-46725000D03*
D19*
X92420000Y-42100000D03*
X96980000Y-42100000D03*
%TD*%
D10*
%TO.C,R145*%
X174220000Y-72492500D03*
X174220000Y-69567500D03*
%TD*%
D18*
%TO.C,Q15*%
X33225000Y-49825000D03*
X30175000Y-49825000D03*
X33225000Y-46475000D03*
X30175000Y-46475000D03*
D19*
X29420000Y-41850000D03*
X33980000Y-41850000D03*
%TD*%
D14*
%TO.C,R105*%
X55642500Y-36030000D03*
X52717500Y-36030000D03*
%TD*%
D12*
%TO.C,Q6*%
X57350000Y-68050000D03*
X57350000Y-71100000D03*
X54000000Y-71100000D03*
X54000000Y-68050000D03*
D13*
X61975000Y-67295000D03*
X61975000Y-71855000D03*
%TD*%
D14*
%TO.C,R107*%
X157125000Y-28710000D03*
X154200000Y-28710000D03*
%TD*%
D11*
%TO.C,R110*%
X37257500Y-38570000D03*
X40182500Y-38570000D03*
%TD*%
%TO.C,R162*%
X128932500Y-37070000D03*
X131857500Y-37070000D03*
%TD*%
D14*
%TO.C,R99*%
X157125000Y-22710000D03*
X154200000Y-22710000D03*
%TD*%
D15*
%TO.C,Q22*%
X84937500Y-40450000D03*
X84937500Y-42350000D03*
X83062500Y-41400000D03*
%TD*%
D11*
%TO.C,R153*%
X121432500Y-49570000D03*
X124357500Y-49570000D03*
%TD*%
%TO.C,R158*%
X128932500Y-42070000D03*
X131857500Y-42070000D03*
%TD*%
D18*
%TO.C,Q18*%
X103725000Y-46625000D03*
X100675000Y-49975000D03*
X103725000Y-49975000D03*
X100675000Y-46625000D03*
D19*
X99920000Y-42000000D03*
X104480000Y-42000000D03*
%TD*%
D11*
%TO.C,R154*%
X128932500Y-47070000D03*
X131857500Y-47070000D03*
%TD*%
D14*
%TO.C,R116*%
X157125000Y-34710000D03*
X154200000Y-34710000D03*
%TD*%
D12*
%TO.C,Q10*%
X68775000Y-47025000D03*
X68775000Y-50075000D03*
X65425000Y-47025000D03*
X65425000Y-50075000D03*
D13*
X73400000Y-46270000D03*
X73400000Y-50830000D03*
%TD*%
D11*
%TO.C,R166*%
X128932500Y-32070000D03*
X131857500Y-32070000D03*
%TD*%
D14*
%TO.C,R111*%
X157125000Y-31710000D03*
X154200000Y-31710000D03*
%TD*%
D11*
%TO.C,R167*%
X121432500Y-32070000D03*
X124357500Y-32070000D03*
%TD*%
D12*
%TO.C,Q9*%
X53925000Y-50075000D03*
X53925000Y-47025000D03*
X57275000Y-47025000D03*
X57275000Y-50075000D03*
D13*
X61900000Y-46270000D03*
X61900000Y-50830000D03*
%TD*%
D11*
%TO.C,R165*%
X121432500Y-34570000D03*
X124357500Y-34570000D03*
%TD*%
D10*
%TO.C,R149*%
X172720000Y-54912500D03*
X172720000Y-51987500D03*
%TD*%
D12*
%TO.C,Q17*%
X84700000Y-49575000D03*
X81350000Y-46525000D03*
X84700000Y-46525000D03*
X81350000Y-49575000D03*
D13*
X89325000Y-45770000D03*
X89325000Y-50330000D03*
%TD*%
D18*
%TO.C,Q13*%
X37675000Y-46475000D03*
X40725000Y-46475000D03*
X37675000Y-49825000D03*
X40725000Y-49825000D03*
D19*
X36920000Y-41850000D03*
X41480000Y-41850000D03*
%TD*%
D11*
%TO.C,R169*%
X121432500Y-29570000D03*
X124357500Y-29570000D03*
%TD*%
D12*
%TO.C,Q26*%
X66275000Y-31025000D03*
X62925000Y-31025000D03*
X62925000Y-34075000D03*
X66275000Y-34075000D03*
D13*
X70900000Y-30270000D03*
X70900000Y-34830000D03*
%TD*%
D12*
%TO.C,Q25*%
X79875000Y-34575000D03*
X83225000Y-34575000D03*
X83225000Y-31525000D03*
X79875000Y-31525000D03*
D13*
X75250000Y-35330000D03*
X75250000Y-30770000D03*
%TD*%
D11*
%TO.C,R161*%
X121432500Y-39570000D03*
X124357500Y-39570000D03*
%TD*%
D12*
%TO.C,Q27*%
X97175000Y-35325000D03*
X100525000Y-32275000D03*
X100525000Y-35325000D03*
X97175000Y-32275000D03*
D13*
X105150000Y-31520000D03*
X105150000Y-36080000D03*
%TD*%
D11*
%TO.C,R150*%
X128932500Y-52070000D03*
X131857500Y-52070000D03*
%TD*%
%TO.C,R132*%
X154757500Y-60070000D03*
X157682500Y-60070000D03*
%TD*%
D18*
%TO.C,Q14*%
X45150000Y-46550000D03*
X48200000Y-46550000D03*
X45150000Y-49900000D03*
X48200000Y-49900000D03*
D19*
X44395000Y-41925000D03*
X48955000Y-41925000D03*
%TD*%
D20*
%TO.C,R121*%
X77680000Y-37607500D03*
X77680000Y-40532500D03*
%TD*%
D11*
%TO.C,R135*%
X154757500Y-71070000D03*
X157682500Y-71070000D03*
%TD*%
M02*
