%TF.GenerationSoftware,KiCad,Pcbnew,(6.0.0)*%
%TF.CreationDate,2022-05-14T16:49:07-07:00*%
%TF.ProjectId,Contrl Board GERBER,436f6e74-726c-4204-926f-617264204745,rev?*%
%TF.SameCoordinates,Original*%
%TF.FileFunction,Soldermask,Top*%
%TF.FilePolarity,Negative*%
%FSLAX46Y46*%
G04 Gerber Fmt 4.6, Leading zero omitted, Abs format (unit mm)*
G04 Created by KiCad (PCBNEW (6.0.0)) date 2022-05-14 16:49:07*
%MOMM*%
%LPD*%
G01*
G04 APERTURE LIST*
G04 Aperture macros list*
%AMRoundRect*
0 Rectangle with rounded corners*
0 $1 Rounding radius*
0 $2 $3 $4 $5 $6 $7 $8 $9 X,Y pos of 4 corners*
0 Add a 4 corners polygon primitive as box body*
4,1,4,$2,$3,$4,$5,$6,$7,$8,$9,$2,$3,0*
0 Add four circle primitives for the rounded corners*
1,1,$1+$1,$2,$3*
1,1,$1+$1,$4,$5*
1,1,$1+$1,$6,$7*
1,1,$1+$1,$8,$9*
0 Add four rect primitives between the rounded corners*
20,1,$1+$1,$2,$3,$4,$5,0*
20,1,$1+$1,$4,$5,$6,$7,0*
20,1,$1+$1,$6,$7,$8,$9,0*
20,1,$1+$1,$8,$9,$2,$3,0*%
%AMFreePoly0*
4,1,21,3.042426,3.042426,3.060000,3.000000,3.060000,-4.000000,3.042426,-4.042426,3.000000,-4.060000,2.060000,-4.060000,2.060000,-6.000000,2.042426,-6.042426,2.000000,-6.060000,-3.000000,-6.060000,-3.042426,-6.042426,-3.060000,-6.000000,-3.060000,-4.060000,-4.000000,-4.060000,-4.042426,-4.042426,-4.060000,-4.000000,-4.060000,3.000000,-4.042426,3.042426,-4.000000,3.060000,3.000000,3.060000,
3.042426,3.042426,3.042426,3.042426,$1*%
G04 Aperture macros list end*
%ADD10C,2.000000*%
%ADD11C,1.200000*%
%ADD12RoundRect,0.250001X0.462499X0.624999X-0.462499X0.624999X-0.462499X-0.624999X0.462499X-0.624999X0*%
%ADD13RoundRect,0.250000X0.625000X-0.312500X0.625000X0.312500X-0.625000X0.312500X-0.625000X-0.312500X0*%
%ADD14O,3.500000X3.500000*%
%ADD15R,1.905000X2.000000*%
%ADD16O,1.905000X2.000000*%
%ADD17R,2.600000X2.600000*%
%ADD18C,2.600000*%
%ADD19RoundRect,0.250000X-0.312500X-0.625000X0.312500X-0.625000X0.312500X0.625000X-0.312500X0.625000X0*%
%ADD20R,1.600000X1.600000*%
%ADD21O,1.600000X1.600000*%
%ADD22R,2.200000X1.200000*%
%ADD23R,6.400000X5.800000*%
%ADD24RoundRect,0.250000X0.312500X0.625000X-0.312500X0.625000X-0.312500X-0.625000X0.312500X-0.625000X0*%
%ADD25R,1.700000X1.700000*%
%ADD26O,1.700000X1.700000*%
%ADD27RoundRect,0.150000X-0.150000X0.587500X-0.150000X-0.587500X0.150000X-0.587500X0.150000X0.587500X0*%
%ADD28R,2.200000X2.200000*%
%ADD29O,2.200000X2.200000*%
%ADD30C,1.600000*%
%ADD31C,2.200000*%
%ADD32R,1.200000X2.200000*%
%ADD33R,5.800000X6.400000*%
%ADD34C,2.500000*%
%ADD35RoundRect,0.150000X-0.587500X-0.150000X0.587500X-0.150000X0.587500X0.150000X-0.587500X0.150000X0*%
%ADD36R,3.200000X3.200000*%
%ADD37O,3.200000X3.200000*%
%ADD38RoundRect,0.250000X-0.625000X0.312500X-0.625000X-0.312500X0.625000X-0.312500X0.625000X0.312500X0*%
%ADD39R,1.050000X1.500000*%
%ADD40O,1.050000X1.500000*%
%ADD41RoundRect,0.150000X0.150000X-0.587500X0.150000X0.587500X-0.150000X0.587500X-0.150000X-0.587500X0*%
%ADD42RoundRect,0.250001X-0.624999X0.462499X-0.624999X-0.462499X0.624999X-0.462499X0.624999X0.462499X0*%
%ADD43R,3.000000X3.000000*%
%ADD44FreePoly0,180.000000*%
%ADD45O,3.000000X3.000000*%
%ADD46FreePoly0,0.000000*%
%ADD47C,1.676400*%
%ADD48R,2.000000X2.500000*%
G04 APERTURE END LIST*
D10*
%TO.C,C1*%
X188200000Y-49050000D03*
X193200000Y-49050000D03*
%TD*%
D11*
%TO.C,C3*%
X173200000Y-62550000D03*
X174700000Y-62550000D03*
%TD*%
D12*
%TO.C,D207*%
X157175000Y-25710000D03*
X154200000Y-25710000D03*
%TD*%
D13*
%TO.C,R142*%
X161180000Y-37992500D03*
X161180000Y-35067500D03*
%TD*%
D14*
%TO.C,U2*%
X141200000Y-55620000D03*
D15*
X138660000Y-72280000D03*
D16*
X141200000Y-72280000D03*
X143740000Y-72280000D03*
%TD*%
D17*
%TO.C,J17*%
X200800000Y-71550000D03*
D18*
X200800000Y-66550000D03*
%TD*%
D19*
%TO.C,R128*%
X141757500Y-39030000D03*
X144682500Y-39030000D03*
%TD*%
D13*
%TO.C,R98*%
X24680000Y-57992500D03*
X24680000Y-55067500D03*
%TD*%
%TO.C,R143*%
X169700000Y-28475000D03*
X169700000Y-25550000D03*
%TD*%
D17*
%TO.C,J19*%
X46115000Y-27050000D03*
D18*
X51195000Y-27050000D03*
X56275000Y-27050000D03*
%TD*%
D20*
%TO.C,SW1*%
X134200000Y-51995000D03*
D21*
X134200000Y-49455000D03*
X134200000Y-46915000D03*
X134200000Y-44375000D03*
X134200000Y-41835000D03*
X134200000Y-39295000D03*
X134200000Y-36755000D03*
X134200000Y-34215000D03*
X134200000Y-31675000D03*
X134200000Y-29135000D03*
X126580000Y-29135000D03*
X126580000Y-31675000D03*
X126580000Y-34215000D03*
X126580000Y-36755000D03*
X126580000Y-39295000D03*
X126580000Y-41835000D03*
X126580000Y-44375000D03*
X126580000Y-46915000D03*
X126580000Y-49455000D03*
X126580000Y-51995000D03*
%TD*%
D19*
%TO.C,R127*%
X141757500Y-36530000D03*
X144682500Y-36530000D03*
%TD*%
D22*
%TO.C,Q33*%
X77000000Y-33770000D03*
D23*
X83300000Y-36050000D03*
D22*
X77000000Y-38330000D03*
%TD*%
D24*
%TO.C,R125*%
X68142500Y-46570000D03*
X65217500Y-46570000D03*
%TD*%
D25*
%TO.C,J31*%
X134075000Y-58400000D03*
D26*
X134075000Y-60940000D03*
X131535000Y-58400000D03*
X131535000Y-60940000D03*
X128995000Y-58400000D03*
X128995000Y-60940000D03*
%TD*%
D27*
%TO.C,Q24*%
X41900000Y-36912500D03*
X40000000Y-36912500D03*
X40950000Y-38787500D03*
%TD*%
D22*
%TO.C,Q35*%
X77000000Y-48770000D03*
D23*
X83300000Y-51050000D03*
D22*
X77000000Y-53330000D03*
%TD*%
D28*
%TO.C,D196*%
X157700000Y-67550000D03*
D29*
X157700000Y-77710000D03*
%TD*%
D28*
%TO.C,D205*%
X176200000Y-58550000D03*
D29*
X176200000Y-48390000D03*
%TD*%
D30*
%TO.C,C2*%
X182200000Y-59050000D03*
X180200000Y-59050000D03*
%TD*%
D28*
%TO.C,D200*%
X172700000Y-45210000D03*
D29*
X172700000Y-35050000D03*
%TD*%
D31*
%TO.C,MT4*%
X197200000Y-22800000D03*
%TD*%
%TO.C,MT1*%
X22950000Y-22800000D03*
%TD*%
D17*
%TO.C,J18*%
X200800000Y-60550000D03*
D18*
X200800000Y-55550000D03*
%TD*%
D19*
%TO.C,R100*%
X141757500Y-44030000D03*
X144682500Y-44030000D03*
%TD*%
D32*
%TO.C,Q23*%
X37705000Y-37350000D03*
D33*
X35425000Y-43650000D03*
D32*
X33145000Y-37350000D03*
%TD*%
D22*
%TO.C,Q31*%
X62400000Y-53330000D03*
D23*
X56100000Y-51050000D03*
D22*
X62400000Y-48770000D03*
%TD*%
D13*
%TO.C,R124*%
X114430000Y-72742500D03*
X114430000Y-69817500D03*
%TD*%
D12*
%TO.C,D213*%
X123937500Y-68050000D03*
X120962500Y-68050000D03*
%TD*%
D19*
%TO.C,R120*%
X141757500Y-31530000D03*
X144682500Y-31530000D03*
%TD*%
D34*
%TO.C,A4*%
X93700000Y-77050000D03*
X93700000Y-38050000D03*
X110700000Y-77050000D03*
X110700000Y-38050000D03*
%TD*%
D35*
%TO.C,Q4*%
X23412500Y-61600000D03*
X23412500Y-63500000D03*
X25287500Y-62550000D03*
%TD*%
D30*
%TO.C,C4*%
X181700000Y-66550000D03*
X178200000Y-66550000D03*
%TD*%
D19*
%TO.C,R119*%
X141757500Y-21530000D03*
X144682500Y-21530000D03*
%TD*%
D22*
%TO.C,Q38*%
X99000000Y-41270000D03*
D23*
X105300000Y-43550000D03*
D22*
X99000000Y-45830000D03*
%TD*%
D19*
%TO.C,R112*%
X141757500Y-24030000D03*
X144682500Y-24030000D03*
%TD*%
D36*
%TO.C,D201*%
X192200000Y-22550000D03*
D37*
X192200000Y-42550000D03*
%TD*%
D12*
%TO.C,D210*%
X157175000Y-34710000D03*
X154200000Y-34710000D03*
%TD*%
D17*
%TO.C,J29*%
X200800000Y-49550000D03*
D18*
X200800000Y-44550000D03*
%TD*%
D22*
%TO.C,Q39*%
X99000000Y-48770000D03*
D23*
X105300000Y-51050000D03*
D22*
X99000000Y-53330000D03*
%TD*%
D28*
%TO.C,D204*%
X173700000Y-66970000D03*
D29*
X173700000Y-77130000D03*
%TD*%
D28*
%TO.C,D202*%
X186780000Y-44050000D03*
D29*
X176620000Y-44050000D03*
%TD*%
D22*
%TO.C,Q34*%
X77000000Y-41270000D03*
D23*
X83300000Y-43550000D03*
D22*
X77000000Y-45830000D03*
%TD*%
%TO.C,Q1*%
X31400000Y-71830000D03*
D23*
X25100000Y-69550000D03*
D22*
X31400000Y-67270000D03*
%TD*%
D38*
%TO.C,R146*%
X169720000Y-63607500D03*
X169720000Y-66532500D03*
%TD*%
D17*
%TO.C,J11*%
X29200000Y-27055000D03*
D18*
X34200000Y-27055000D03*
X39200000Y-27055000D03*
%TD*%
D19*
%TO.C,R131*%
X141757500Y-41530000D03*
X144682500Y-41530000D03*
%TD*%
D28*
%TO.C,D198*%
X157700000Y-41190000D03*
D29*
X157700000Y-51350000D03*
%TD*%
D31*
%TO.C,MT3*%
X205950000Y-77300000D03*
%TD*%
D24*
%TO.C,R137*%
X96142500Y-34070000D03*
X93217500Y-34070000D03*
%TD*%
D22*
%TO.C,Q28*%
X62400000Y-38330000D03*
D23*
X56100000Y-36050000D03*
D22*
X62400000Y-33770000D03*
%TD*%
D24*
%TO.C,R129*%
X74142500Y-34070000D03*
X71217500Y-34070000D03*
%TD*%
D39*
%TO.C,Q43*%
X182470000Y-53050000D03*
D40*
X181200000Y-53050000D03*
X179930000Y-53050000D03*
%TD*%
D39*
%TO.C,Q44*%
X179930000Y-48550000D03*
D40*
X181200000Y-48550000D03*
X182470000Y-48550000D03*
%TD*%
D34*
%TO.C,A1*%
X27700000Y-77050000D03*
X27700000Y-38050000D03*
X44700000Y-77050000D03*
X44700000Y-38050000D03*
%TD*%
D30*
%TO.C,C5*%
X181700000Y-75550000D03*
X178200000Y-75550000D03*
%TD*%
D41*
%TO.C,Q32*%
X66150000Y-43637500D03*
X68050000Y-43637500D03*
X67100000Y-41762500D03*
%TD*%
D19*
%TO.C,R115*%
X46507500Y-34280000D03*
X49432500Y-34280000D03*
%TD*%
D13*
%TO.C,R97*%
X34680000Y-64492500D03*
X34680000Y-61567500D03*
%TD*%
D38*
%TO.C,R148*%
X169720000Y-38107500D03*
X169720000Y-41032500D03*
%TD*%
D28*
%TO.C,D194*%
X154200000Y-64710000D03*
D29*
X154200000Y-54550000D03*
%TD*%
D19*
%TO.C,R130*%
X71257500Y-46530000D03*
X74182500Y-46530000D03*
%TD*%
D12*
%TO.C,D206*%
X157175000Y-22710000D03*
X154200000Y-22710000D03*
%TD*%
D28*
%TO.C,D193*%
X154200000Y-41210000D03*
D29*
X154200000Y-51370000D03*
%TD*%
D17*
%TO.C,J23*%
X80115000Y-27050000D03*
D18*
X85195000Y-27050000D03*
X90275000Y-27050000D03*
%TD*%
D22*
%TO.C,Q29*%
X62400000Y-45830000D03*
D23*
X56100000Y-43550000D03*
D22*
X62400000Y-41270000D03*
%TD*%
D28*
%TO.C,D195*%
X157700000Y-64710000D03*
D29*
X157700000Y-54550000D03*
%TD*%
D22*
%TO.C,Q37*%
X99000000Y-33770000D03*
D23*
X105300000Y-36050000D03*
D22*
X99000000Y-38330000D03*
%TD*%
D35*
%TO.C,Q40*%
X93762500Y-41650000D03*
X93762500Y-43550000D03*
X95637500Y-42600000D03*
%TD*%
D28*
%TO.C,D199*%
X172700000Y-22050000D03*
D29*
X172700000Y-32210000D03*
%TD*%
D28*
%TO.C,D203*%
X172700000Y-48390000D03*
D29*
X172700000Y-58550000D03*
%TD*%
D32*
%TO.C,Q2*%
X24920000Y-49750000D03*
D33*
X27200000Y-43450000D03*
D32*
X29480000Y-49750000D03*
%TD*%
D35*
%TO.C,Q36*%
X71662500Y-41600000D03*
X71662500Y-43500000D03*
X73537500Y-42550000D03*
%TD*%
D19*
%TO.C,R126*%
X141757500Y-34030000D03*
X144682500Y-34030000D03*
%TD*%
D31*
%TO.C,MT2*%
X22950000Y-77300000D03*
%TD*%
D17*
%TO.C,J20*%
X63115000Y-27050000D03*
D18*
X68195000Y-27050000D03*
X73275000Y-27050000D03*
%TD*%
D19*
%TO.C,R139*%
X160757500Y-42530000D03*
X163682500Y-42530000D03*
%TD*%
D42*
%TO.C,D212*%
X116950000Y-69812500D03*
X116950000Y-72787500D03*
%TD*%
D22*
%TO.C,Q20*%
X40800000Y-41295000D03*
D23*
X47100000Y-43575000D03*
D22*
X40800000Y-45855000D03*
%TD*%
D13*
%TO.C,R144*%
X169680000Y-71492500D03*
X169680000Y-68567500D03*
%TD*%
D19*
%TO.C,R108*%
X141757500Y-26530000D03*
X144682500Y-26530000D03*
%TD*%
D12*
%TO.C,D211*%
X157175000Y-37710000D03*
X154200000Y-37710000D03*
%TD*%
D19*
%TO.C,R123*%
X65757500Y-34030000D03*
X68682500Y-34030000D03*
%TD*%
D14*
%TO.C,Q42*%
X189760000Y-70710000D03*
D43*
X192300000Y-54050000D03*
D44*
X189300000Y-65050000D03*
D45*
X187220000Y-54050000D03*
%TD*%
D19*
%TO.C,R104*%
X141757500Y-29030000D03*
X144682500Y-29030000D03*
%TD*%
D28*
%TO.C,D197*%
X154200000Y-67550000D03*
D29*
X154200000Y-77710000D03*
%TD*%
D19*
%TO.C,R117*%
X41207500Y-34280000D03*
X44132500Y-34280000D03*
%TD*%
D14*
%TO.C,Q41*%
X179740000Y-23390000D03*
D43*
X177200000Y-40050000D03*
D46*
X180200000Y-29050000D03*
D45*
X182280000Y-40050000D03*
%TD*%
D34*
%TO.C,A2*%
X49700000Y-77050000D03*
X49700000Y-38050000D03*
X66700000Y-77050000D03*
X66700000Y-38050000D03*
%TD*%
D17*
%TO.C,J25*%
X97120000Y-27050000D03*
D18*
X102200000Y-27050000D03*
X107280000Y-27050000D03*
%TD*%
D12*
%TO.C,D214*%
X131687500Y-68050000D03*
X128712500Y-68050000D03*
%TD*%
D47*
%TO.C,U1*%
X150655000Y-64630000D03*
X148115000Y-64630000D03*
X150655000Y-67170000D03*
X148115000Y-67170000D03*
X132875000Y-21450000D03*
X115095000Y-59550000D03*
X117635000Y-59550000D03*
X115095000Y-57010000D03*
X117635000Y-57010000D03*
X115095000Y-54470000D03*
X117635000Y-54470000D03*
X115095000Y-51930000D03*
X117635000Y-51930000D03*
X115095000Y-49390000D03*
X117635000Y-49390000D03*
X115095000Y-46850000D03*
X117635000Y-46850000D03*
X115095000Y-44310000D03*
X117635000Y-44310000D03*
X115095000Y-41770000D03*
X117635000Y-41770000D03*
X148115000Y-62090000D03*
X148115000Y-57010000D03*
X150655000Y-57010000D03*
X148115000Y-54470000D03*
X150655000Y-54470000D03*
X148115000Y-51930000D03*
X150655000Y-51930000D03*
X148115000Y-49390000D03*
X150655000Y-49390000D03*
X148115000Y-46850000D03*
X150655000Y-46850000D03*
X148115000Y-44310000D03*
X150655000Y-44310000D03*
X148115000Y-41770000D03*
X150655000Y-41770000D03*
X148115000Y-39230000D03*
X150655000Y-39230000D03*
X148115000Y-36690000D03*
X150655000Y-36690000D03*
X148115000Y-34150000D03*
X150655000Y-34150000D03*
X148115000Y-31610000D03*
X150655000Y-31610000D03*
X148115000Y-29070000D03*
X150655000Y-29070000D03*
X148115000Y-26530000D03*
X150655000Y-26530000D03*
X148115000Y-23990000D03*
X150655000Y-23990000D03*
X148115000Y-21450000D03*
X150655000Y-21450000D03*
X115095000Y-39230000D03*
X117635000Y-39230000D03*
X115095000Y-36690000D03*
X117635000Y-36690000D03*
X115095000Y-34150000D03*
X117635000Y-34150000D03*
X115095000Y-31610000D03*
X117635000Y-31610000D03*
X115095000Y-29070000D03*
X117635000Y-29070000D03*
X115095000Y-26530000D03*
X117635000Y-26530000D03*
X115095000Y-23990000D03*
X117635000Y-23990000D03*
X115095000Y-21450000D03*
X117635000Y-21450000D03*
X120175000Y-21450000D03*
X120175000Y-23990000D03*
X122715000Y-21450000D03*
X122715000Y-23990000D03*
X125255000Y-21450000D03*
X125255000Y-23990000D03*
X150655000Y-69710000D03*
X148115000Y-69710000D03*
X137955000Y-21450000D03*
X132875000Y-23990000D03*
X135415000Y-21450000D03*
X137955000Y-23990000D03*
X150655000Y-62090000D03*
X148115000Y-59550000D03*
X135415000Y-23990000D03*
X150655000Y-59550000D03*
X150655000Y-72250000D03*
X148115000Y-72250000D03*
%TD*%
D19*
%TO.C,R138*%
X93257500Y-46530000D03*
X96182500Y-46530000D03*
%TD*%
D48*
%TO.C,F1*%
X202105000Y-23945000D03*
X206105000Y-23945000D03*
X206105000Y-37345000D03*
X202105000Y-37345000D03*
%TD*%
D22*
%TO.C,Q3*%
X35000000Y-67270000D03*
D23*
X41300000Y-69550000D03*
D22*
X35000000Y-71830000D03*
%TD*%
D12*
%TO.C,D209*%
X157175000Y-31710000D03*
X154200000Y-31710000D03*
%TD*%
D34*
%TO.C,A3*%
X71700000Y-77050000D03*
X71700000Y-38050000D03*
X88700000Y-77050000D03*
X88700000Y-38050000D03*
%TD*%
D22*
%TO.C,Q21*%
X40775000Y-48795000D03*
D23*
X47075000Y-51075000D03*
D22*
X40775000Y-53355000D03*
%TD*%
D12*
%TO.C,D208*%
X157175000Y-28710000D03*
X154200000Y-28710000D03*
%TD*%
D17*
%TO.C,J13*%
X63200000Y-58245000D03*
D18*
X68200000Y-58245000D03*
X73200000Y-58245000D03*
%TD*%
D17*
%TO.C,J22*%
X165700000Y-34550000D03*
D18*
X165700000Y-39550000D03*
%TD*%
D17*
%TO.C,J15*%
X80200000Y-58250000D03*
D18*
X85200000Y-58250000D03*
X90200000Y-58250000D03*
%TD*%
D17*
%TO.C,J16*%
X97150000Y-58250000D03*
D18*
X102150000Y-58250000D03*
X107150000Y-58250000D03*
%TD*%
D17*
%TO.C,J27*%
X165700000Y-56550000D03*
D18*
X165700000Y-61550000D03*
%TD*%
D17*
%TO.C,J14*%
X46200000Y-58245000D03*
D18*
X51200000Y-58245000D03*
X56200000Y-58245000D03*
%TD*%
D17*
%TO.C,J24*%
X165700000Y-23550000D03*
D18*
X165700000Y-28550000D03*
%TD*%
D17*
%TO.C,J30*%
X121700000Y-71245000D03*
D18*
X126700000Y-71245000D03*
X131700000Y-71245000D03*
%TD*%
D17*
%TO.C,J21*%
X165700000Y-45550000D03*
D18*
X165700000Y-50550000D03*
%TD*%
D17*
%TO.C,J12*%
X29200000Y-58245000D03*
D18*
X34200000Y-58245000D03*
X39200000Y-58245000D03*
%TD*%
D17*
%TO.C,J26*%
X165700000Y-67550000D03*
D18*
X165700000Y-72550000D03*
%TD*%
M02*
