%TF.GenerationSoftware,KiCad,Pcbnew,(6.0.0)*%
%TF.CreationDate,2022-05-14T16:49:07-07:00*%
%TF.ProjectId,Contrl Board GERBER,436f6e74-726c-4204-926f-617264204745,rev?*%
%TF.SameCoordinates,Original*%
%TF.FileFunction,Soldermask,Bot*%
%TF.FilePolarity,Negative*%
%FSLAX46Y46*%
G04 Gerber Fmt 4.6, Leading zero omitted, Abs format (unit mm)*
G04 Created by KiCad (PCBNEW (6.0.0)) date 2022-05-14 16:49:07*
%MOMM*%
%LPD*%
G01*
G04 APERTURE LIST*
G04 Aperture macros list*
%AMRoundRect*
0 Rectangle with rounded corners*
0 $1 Rounding radius*
0 $2 $3 $4 $5 $6 $7 $8 $9 X,Y pos of 4 corners*
0 Add a 4 corners polygon primitive as box body*
4,1,4,$2,$3,$4,$5,$6,$7,$8,$9,$2,$3,0*
0 Add four circle primitives for the rounded corners*
1,1,$1+$1,$2,$3*
1,1,$1+$1,$4,$5*
1,1,$1+$1,$6,$7*
1,1,$1+$1,$8,$9*
0 Add four rect primitives between the rounded corners*
20,1,$1+$1,$2,$3,$4,$5,0*
20,1,$1+$1,$4,$5,$6,$7,0*
20,1,$1+$1,$6,$7,$8,$9,0*
20,1,$1+$1,$8,$9,$2,$3,0*%
G04 Aperture macros list end*
%ADD10C,2.000000*%
%ADD11C,1.200000*%
%ADD12O,3.500000X3.500000*%
%ADD13R,1.905000X2.000000*%
%ADD14O,1.905000X2.000000*%
%ADD15R,2.600000X2.600000*%
%ADD16C,2.600000*%
%ADD17R,1.600000X1.600000*%
%ADD18O,1.600000X1.600000*%
%ADD19R,1.700000X1.700000*%
%ADD20O,1.700000X1.700000*%
%ADD21R,2.200000X2.200000*%
%ADD22O,2.200000X2.200000*%
%ADD23C,1.600000*%
%ADD24C,2.200000*%
%ADD25C,2.500000*%
%ADD26R,3.200000X3.200000*%
%ADD27O,3.200000X3.200000*%
%ADD28R,1.050000X1.500000*%
%ADD29O,1.050000X1.500000*%
%ADD30R,3.000000X3.000000*%
%ADD31O,3.000000X3.000000*%
%ADD32C,1.676400*%
%ADD33R,2.000000X2.500000*%
%ADD34RoundRect,0.250000X0.625000X-0.312500X0.625000X0.312500X-0.625000X0.312500X-0.625000X-0.312500X0*%
%ADD35RoundRect,0.250000X-0.312500X-0.625000X0.312500X-0.625000X0.312500X0.625000X-0.312500X0.625000X0*%
%ADD36R,2.200000X1.200000*%
%ADD37R,6.400000X5.800000*%
%ADD38RoundRect,0.250000X0.312500X0.625000X-0.312500X0.625000X-0.312500X-0.625000X0.312500X-0.625000X0*%
%ADD39RoundRect,0.150000X0.587500X0.150000X-0.587500X0.150000X-0.587500X-0.150000X0.587500X-0.150000X0*%
%ADD40RoundRect,0.150000X-0.587500X-0.150000X0.587500X-0.150000X0.587500X0.150000X-0.587500X0.150000X0*%
%ADD41RoundRect,0.150000X0.150000X-0.587500X0.150000X0.587500X-0.150000X0.587500X-0.150000X-0.587500X0*%
%ADD42R,1.200000X2.200000*%
%ADD43R,5.800000X6.400000*%
%ADD44RoundRect,0.250000X-0.625000X0.312500X-0.625000X-0.312500X0.625000X-0.312500X0.625000X0.312500X0*%
G04 APERTURE END LIST*
D10*
%TO.C,C1*%
X188200000Y-49050000D03*
X193200000Y-49050000D03*
%TD*%
D11*
%TO.C,C3*%
X173200000Y-62550000D03*
X174700000Y-62550000D03*
%TD*%
D12*
%TO.C,U2*%
X141200000Y-55620000D03*
D13*
X138660000Y-72280000D03*
D14*
X141200000Y-72280000D03*
X143740000Y-72280000D03*
%TD*%
D15*
%TO.C,J17*%
X200800000Y-71550000D03*
D16*
X200800000Y-66550000D03*
%TD*%
D15*
%TO.C,J19*%
X46115000Y-27050000D03*
D16*
X51195000Y-27050000D03*
X56275000Y-27050000D03*
%TD*%
D17*
%TO.C,SW1*%
X134200000Y-51995000D03*
D18*
X134200000Y-49455000D03*
X134200000Y-46915000D03*
X134200000Y-44375000D03*
X134200000Y-41835000D03*
X134200000Y-39295000D03*
X134200000Y-36755000D03*
X134200000Y-34215000D03*
X134200000Y-31675000D03*
X134200000Y-29135000D03*
X126580000Y-29135000D03*
X126580000Y-31675000D03*
X126580000Y-34215000D03*
X126580000Y-36755000D03*
X126580000Y-39295000D03*
X126580000Y-41835000D03*
X126580000Y-44375000D03*
X126580000Y-46915000D03*
X126580000Y-49455000D03*
X126580000Y-51995000D03*
%TD*%
D19*
%TO.C,J31*%
X134075000Y-58400000D03*
D20*
X134075000Y-60940000D03*
X131535000Y-58400000D03*
X131535000Y-60940000D03*
X128995000Y-58400000D03*
X128995000Y-60940000D03*
%TD*%
D21*
%TO.C,D196*%
X157700000Y-67550000D03*
D22*
X157700000Y-77710000D03*
%TD*%
D21*
%TO.C,D205*%
X176200000Y-58550000D03*
D22*
X176200000Y-48390000D03*
%TD*%
D23*
%TO.C,C2*%
X182200000Y-59050000D03*
X180200000Y-59050000D03*
%TD*%
D21*
%TO.C,D200*%
X172700000Y-45210000D03*
D22*
X172700000Y-35050000D03*
%TD*%
D24*
%TO.C,MT4*%
X197200000Y-22800000D03*
%TD*%
%TO.C,MT1*%
X22950000Y-22800000D03*
%TD*%
D15*
%TO.C,J18*%
X200800000Y-60550000D03*
D16*
X200800000Y-55550000D03*
%TD*%
D25*
%TO.C,A4*%
X93700000Y-77050000D03*
X93700000Y-38050000D03*
X110700000Y-77050000D03*
X110700000Y-38050000D03*
%TD*%
D23*
%TO.C,C4*%
X181700000Y-66550000D03*
X178200000Y-66550000D03*
%TD*%
D26*
%TO.C,D201*%
X192200000Y-22550000D03*
D27*
X192200000Y-42550000D03*
%TD*%
D15*
%TO.C,J29*%
X200800000Y-49550000D03*
D16*
X200800000Y-44550000D03*
%TD*%
D21*
%TO.C,D204*%
X173700000Y-66970000D03*
D22*
X173700000Y-77130000D03*
%TD*%
D21*
%TO.C,D202*%
X186780000Y-44050000D03*
D22*
X176620000Y-44050000D03*
%TD*%
D15*
%TO.C,J11*%
X29200000Y-27055000D03*
D16*
X34200000Y-27055000D03*
X39200000Y-27055000D03*
%TD*%
D21*
%TO.C,D198*%
X157700000Y-41190000D03*
D22*
X157700000Y-51350000D03*
%TD*%
D24*
%TO.C,MT3*%
X205950000Y-77300000D03*
%TD*%
D28*
%TO.C,Q43*%
X182470000Y-53050000D03*
D29*
X181200000Y-53050000D03*
X179930000Y-53050000D03*
%TD*%
D28*
%TO.C,Q44*%
X179930000Y-48550000D03*
D29*
X181200000Y-48550000D03*
X182470000Y-48550000D03*
%TD*%
D25*
%TO.C,A1*%
X27700000Y-77050000D03*
X27700000Y-38050000D03*
X44700000Y-77050000D03*
X44700000Y-38050000D03*
%TD*%
D23*
%TO.C,C5*%
X181700000Y-75550000D03*
X178200000Y-75550000D03*
%TD*%
D21*
%TO.C,D194*%
X154200000Y-64710000D03*
D22*
X154200000Y-54550000D03*
%TD*%
D21*
%TO.C,D193*%
X154200000Y-41210000D03*
D22*
X154200000Y-51370000D03*
%TD*%
D15*
%TO.C,J23*%
X80115000Y-27050000D03*
D16*
X85195000Y-27050000D03*
X90275000Y-27050000D03*
%TD*%
D21*
%TO.C,D195*%
X157700000Y-64710000D03*
D22*
X157700000Y-54550000D03*
%TD*%
D21*
%TO.C,D199*%
X172700000Y-22050000D03*
D22*
X172700000Y-32210000D03*
%TD*%
D21*
%TO.C,D203*%
X172700000Y-48390000D03*
D22*
X172700000Y-58550000D03*
%TD*%
D24*
%TO.C,MT2*%
X22950000Y-77300000D03*
%TD*%
D15*
%TO.C,J20*%
X63115000Y-27050000D03*
D16*
X68195000Y-27050000D03*
X73275000Y-27050000D03*
%TD*%
D12*
%TO.C,Q42*%
X189760000Y-70710000D03*
D30*
X192300000Y-54050000D03*
D31*
X187220000Y-54050000D03*
%TD*%
D21*
%TO.C,D197*%
X154200000Y-67550000D03*
D22*
X154200000Y-77710000D03*
%TD*%
D12*
%TO.C,Q41*%
X179740000Y-23390000D03*
D30*
X177200000Y-40050000D03*
D31*
X182280000Y-40050000D03*
%TD*%
D25*
%TO.C,A2*%
X49700000Y-77050000D03*
X49700000Y-38050000D03*
X66700000Y-77050000D03*
X66700000Y-38050000D03*
%TD*%
D15*
%TO.C,J25*%
X97120000Y-27050000D03*
D16*
X102200000Y-27050000D03*
X107280000Y-27050000D03*
%TD*%
D32*
%TO.C,U1*%
X150655000Y-64630000D03*
X148115000Y-64630000D03*
X150655000Y-67170000D03*
X148115000Y-67170000D03*
X132875000Y-21450000D03*
X115095000Y-59550000D03*
X117635000Y-59550000D03*
X115095000Y-57010000D03*
X117635000Y-57010000D03*
X115095000Y-54470000D03*
X117635000Y-54470000D03*
X115095000Y-51930000D03*
X117635000Y-51930000D03*
X115095000Y-49390000D03*
X117635000Y-49390000D03*
X115095000Y-46850000D03*
X117635000Y-46850000D03*
X115095000Y-44310000D03*
X117635000Y-44310000D03*
X115095000Y-41770000D03*
X117635000Y-41770000D03*
X148115000Y-62090000D03*
X148115000Y-57010000D03*
X150655000Y-57010000D03*
X148115000Y-54470000D03*
X150655000Y-54470000D03*
X148115000Y-51930000D03*
X150655000Y-51930000D03*
X148115000Y-49390000D03*
X150655000Y-49390000D03*
X148115000Y-46850000D03*
X150655000Y-46850000D03*
X148115000Y-44310000D03*
X150655000Y-44310000D03*
X148115000Y-41770000D03*
X150655000Y-41770000D03*
X148115000Y-39230000D03*
X150655000Y-39230000D03*
X148115000Y-36690000D03*
X150655000Y-36690000D03*
X148115000Y-34150000D03*
X150655000Y-34150000D03*
X148115000Y-31610000D03*
X150655000Y-31610000D03*
X148115000Y-29070000D03*
X150655000Y-29070000D03*
X148115000Y-26530000D03*
X150655000Y-26530000D03*
X148115000Y-23990000D03*
X150655000Y-23990000D03*
X148115000Y-21450000D03*
X150655000Y-21450000D03*
X115095000Y-39230000D03*
X117635000Y-39230000D03*
X115095000Y-36690000D03*
X117635000Y-36690000D03*
X115095000Y-34150000D03*
X117635000Y-34150000D03*
X115095000Y-31610000D03*
X117635000Y-31610000D03*
X115095000Y-29070000D03*
X117635000Y-29070000D03*
X115095000Y-26530000D03*
X117635000Y-26530000D03*
X115095000Y-23990000D03*
X117635000Y-23990000D03*
X115095000Y-21450000D03*
X117635000Y-21450000D03*
X120175000Y-21450000D03*
X120175000Y-23990000D03*
X122715000Y-21450000D03*
X122715000Y-23990000D03*
X125255000Y-21450000D03*
X125255000Y-23990000D03*
X150655000Y-69710000D03*
X148115000Y-69710000D03*
X137955000Y-21450000D03*
X132875000Y-23990000D03*
X135415000Y-21450000D03*
X137955000Y-23990000D03*
X150655000Y-62090000D03*
X148115000Y-59550000D03*
X135415000Y-23990000D03*
X150655000Y-59550000D03*
X150655000Y-72250000D03*
X148115000Y-72250000D03*
%TD*%
D33*
%TO.C,F1*%
X202105000Y-23945000D03*
X206105000Y-23945000D03*
X206105000Y-37345000D03*
X202105000Y-37345000D03*
%TD*%
D25*
%TO.C,A3*%
X71700000Y-77050000D03*
X71700000Y-38050000D03*
X88700000Y-77050000D03*
X88700000Y-38050000D03*
%TD*%
D34*
%TO.C,R147*%
X176200000Y-54895000D03*
X176200000Y-51970000D03*
%TD*%
D35*
%TO.C,R155*%
X121432500Y-47070000D03*
X124357500Y-47070000D03*
%TD*%
D15*
%TO.C,J13*%
X63200000Y-58245000D03*
D16*
X68200000Y-58245000D03*
X73200000Y-58245000D03*
%TD*%
D34*
%TO.C,R101*%
X38520000Y-69492500D03*
X38520000Y-66567500D03*
%TD*%
D36*
%TO.C,Q7*%
X49975000Y-66770000D03*
D37*
X43675000Y-69050000D03*
D36*
X49975000Y-71330000D03*
%TD*%
D38*
%TO.C,R102*%
X67942500Y-71030000D03*
X65017500Y-71030000D03*
%TD*%
D35*
%TO.C,R151*%
X121432500Y-52070000D03*
X124357500Y-52070000D03*
%TD*%
%TO.C,R163*%
X121432500Y-37070000D03*
X124357500Y-37070000D03*
%TD*%
%TO.C,R114*%
X87257500Y-42270000D03*
X90182500Y-42270000D03*
%TD*%
%TO.C,R164*%
X128932500Y-34570000D03*
X131857500Y-34570000D03*
%TD*%
D39*
%TO.C,Q30*%
X88737500Y-32400000D03*
X88737500Y-34300000D03*
X86862500Y-33350000D03*
%TD*%
D15*
%TO.C,J22*%
X165700000Y-34550000D03*
D16*
X165700000Y-39550000D03*
%TD*%
D35*
%TO.C,R159*%
X121432500Y-42050000D03*
X124357500Y-42050000D03*
%TD*%
%TO.C,R157*%
X121432500Y-44550000D03*
X124357500Y-44550000D03*
%TD*%
D15*
%TO.C,J15*%
X80200000Y-58250000D03*
D16*
X85200000Y-58250000D03*
X90200000Y-58250000D03*
%TD*%
D35*
%TO.C,R160*%
X128932500Y-39570000D03*
X131857500Y-39570000D03*
%TD*%
D40*
%TO.C,Q12*%
X65412500Y-43500000D03*
X65412500Y-41600000D03*
X67287500Y-42550000D03*
%TD*%
D34*
%TO.C,R122*%
X91470000Y-35242500D03*
X91470000Y-32317500D03*
%TD*%
D35*
%TO.C,R156*%
X128875000Y-44550000D03*
X131800000Y-44550000D03*
%TD*%
%TO.C,R109*%
X37275000Y-36050000D03*
X40200000Y-36050000D03*
%TD*%
D38*
%TO.C,R103*%
X157125000Y-25710000D03*
X154200000Y-25710000D03*
%TD*%
D35*
%TO.C,R168*%
X128932500Y-29570000D03*
X131857500Y-29570000D03*
%TD*%
D36*
%TO.C,Q5*%
X35700000Y-67270000D03*
D37*
X29400000Y-69550000D03*
D36*
X35700000Y-71830000D03*
%TD*%
D35*
%TO.C,R134*%
X154757500Y-73570000D03*
X157682500Y-73570000D03*
%TD*%
D15*
%TO.C,J16*%
X97150000Y-58250000D03*
D16*
X102150000Y-58250000D03*
X107150000Y-58250000D03*
%TD*%
D35*
%TO.C,R152*%
X128932500Y-49570000D03*
X131857500Y-49570000D03*
%TD*%
D38*
%TO.C,R118*%
X157125000Y-37710000D03*
X154200000Y-37710000D03*
%TD*%
D40*
%TO.C,Q8*%
X66862500Y-68550000D03*
X66862500Y-66650000D03*
X68737500Y-67600000D03*
%TD*%
D36*
%TO.C,Q11*%
X61900000Y-38770000D03*
D37*
X55600000Y-41050000D03*
D36*
X61900000Y-43330000D03*
%TD*%
D35*
%TO.C,R133*%
X154757500Y-57570000D03*
X157682500Y-57570000D03*
%TD*%
D15*
%TO.C,J27*%
X165700000Y-56550000D03*
D16*
X165700000Y-61550000D03*
%TD*%
D38*
%TO.C,R113*%
X80892500Y-42780000D03*
X77967500Y-42780000D03*
%TD*%
D35*
%TO.C,R106*%
X70257500Y-43570000D03*
X73182500Y-43570000D03*
%TD*%
D41*
%TO.C,Q16*%
X33900000Y-38587500D03*
X32000000Y-38587500D03*
X32950000Y-36712500D03*
%TD*%
D42*
%TO.C,Q19*%
X92420000Y-42100000D03*
D43*
X94700000Y-48400000D03*
D42*
X96980000Y-42100000D03*
%TD*%
D34*
%TO.C,R145*%
X174220000Y-72492500D03*
X174220000Y-69567500D03*
%TD*%
D15*
%TO.C,J14*%
X46200000Y-58245000D03*
D16*
X51200000Y-58245000D03*
X56200000Y-58245000D03*
%TD*%
D42*
%TO.C,Q15*%
X29420000Y-41850000D03*
D43*
X31700000Y-48150000D03*
D42*
X33980000Y-41850000D03*
%TD*%
D15*
%TO.C,J24*%
X165700000Y-23550000D03*
D16*
X165700000Y-28550000D03*
%TD*%
D15*
%TO.C,J30*%
X121700000Y-71245000D03*
D16*
X126700000Y-71245000D03*
X131700000Y-71245000D03*
%TD*%
D38*
%TO.C,R105*%
X55642500Y-36030000D03*
X52717500Y-36030000D03*
%TD*%
D36*
%TO.C,Q6*%
X61975000Y-67295000D03*
D37*
X55675000Y-69575000D03*
D36*
X61975000Y-71855000D03*
%TD*%
D38*
%TO.C,R107*%
X157125000Y-28710000D03*
X154200000Y-28710000D03*
%TD*%
D35*
%TO.C,R110*%
X37257500Y-38570000D03*
X40182500Y-38570000D03*
%TD*%
%TO.C,R162*%
X128932500Y-37070000D03*
X131857500Y-37070000D03*
%TD*%
D38*
%TO.C,R99*%
X157125000Y-22710000D03*
X154200000Y-22710000D03*
%TD*%
D39*
%TO.C,Q22*%
X84937500Y-40450000D03*
X84937500Y-42350000D03*
X83062500Y-41400000D03*
%TD*%
D35*
%TO.C,R153*%
X121432500Y-49570000D03*
X124357500Y-49570000D03*
%TD*%
%TO.C,R158*%
X128932500Y-42070000D03*
X131857500Y-42070000D03*
%TD*%
D42*
%TO.C,Q18*%
X99920000Y-42000000D03*
D43*
X102200000Y-48300000D03*
D42*
X104480000Y-42000000D03*
%TD*%
D35*
%TO.C,R154*%
X128932500Y-47070000D03*
X131857500Y-47070000D03*
%TD*%
D38*
%TO.C,R116*%
X157125000Y-34710000D03*
X154200000Y-34710000D03*
%TD*%
D36*
%TO.C,Q10*%
X73400000Y-46270000D03*
D37*
X67100000Y-48550000D03*
D36*
X73400000Y-50830000D03*
%TD*%
D35*
%TO.C,R166*%
X128932500Y-32070000D03*
X131857500Y-32070000D03*
%TD*%
D38*
%TO.C,R111*%
X157125000Y-31710000D03*
X154200000Y-31710000D03*
%TD*%
D35*
%TO.C,R167*%
X121432500Y-32070000D03*
X124357500Y-32070000D03*
%TD*%
D36*
%TO.C,Q9*%
X61900000Y-46270000D03*
D37*
X55600000Y-48550000D03*
D36*
X61900000Y-50830000D03*
%TD*%
D35*
%TO.C,R165*%
X121432500Y-34570000D03*
X124357500Y-34570000D03*
%TD*%
D15*
%TO.C,J21*%
X165700000Y-45550000D03*
D16*
X165700000Y-50550000D03*
%TD*%
D34*
%TO.C,R149*%
X172720000Y-54912500D03*
X172720000Y-51987500D03*
%TD*%
D36*
%TO.C,Q17*%
X89325000Y-45770000D03*
D37*
X83025000Y-48050000D03*
D36*
X89325000Y-50330000D03*
%TD*%
D42*
%TO.C,Q13*%
X36920000Y-41850000D03*
D43*
X39200000Y-48150000D03*
D42*
X41480000Y-41850000D03*
%TD*%
D35*
%TO.C,R169*%
X121432500Y-29570000D03*
X124357500Y-29570000D03*
%TD*%
D15*
%TO.C,J12*%
X29200000Y-58245000D03*
D16*
X34200000Y-58245000D03*
X39200000Y-58245000D03*
%TD*%
D36*
%TO.C,Q26*%
X70900000Y-30270000D03*
D37*
X64600000Y-32550000D03*
D36*
X70900000Y-34830000D03*
%TD*%
%TO.C,Q25*%
X75250000Y-35330000D03*
D37*
X81550000Y-33050000D03*
D36*
X75250000Y-30770000D03*
%TD*%
D35*
%TO.C,R161*%
X121432500Y-39570000D03*
X124357500Y-39570000D03*
%TD*%
D36*
%TO.C,Q27*%
X105150000Y-31520000D03*
D37*
X98850000Y-33800000D03*
D36*
X105150000Y-36080000D03*
%TD*%
D35*
%TO.C,R150*%
X128932500Y-52070000D03*
X131857500Y-52070000D03*
%TD*%
%TO.C,R132*%
X154757500Y-60070000D03*
X157682500Y-60070000D03*
%TD*%
D42*
%TO.C,Q14*%
X44395000Y-41925000D03*
D43*
X46675000Y-48225000D03*
D42*
X48955000Y-41925000D03*
%TD*%
D44*
%TO.C,R121*%
X77680000Y-37607500D03*
X77680000Y-40532500D03*
%TD*%
D35*
%TO.C,R135*%
X154757500Y-71070000D03*
X157682500Y-71070000D03*
%TD*%
D15*
%TO.C,J26*%
X165700000Y-67550000D03*
D16*
X165700000Y-72550000D03*
%TD*%
M02*
