M48
; DRILL file {KiCad (6.0.0)} date Sat May 14 16:48:35 2022
; FORMAT={-:-/ absolute / metric / decimal}
; #@! TF.CreationDate,2022-05-14T16:48:35-07:00
; #@! TF.GenerationSoftware,Kicad,Pcbnew,(6.0.0)
; #@! TF.FileFunction,Plated,1,2,PTH
FMAT,2
METRIC
; #@! TA.AperFunction,Plated,PTH,ViaDrill
T1C0.400
; #@! TA.AperFunction,Plated,PTH,ComponentDrill
T2C0.600
; #@! TA.AperFunction,Plated,PTH,ComponentDrill
T3C0.750
; #@! TA.AperFunction,Plated,PTH,ComponentDrill
T4C0.800
; #@! TA.AperFunction,Plated,PTH,ComponentDrill
T5C1.000
; #@! TA.AperFunction,Plated,PTH,ComponentDrill
T6C1.100
; #@! TA.AperFunction,Plated,PTH,ComponentDrill
T7C1.300
; #@! TA.AperFunction,Plated,PTH,ComponentDrill
T8C1.600
%
G90
G05
T1
X31.7Y-29.55
X37.4Y-31.95
X37.4Y-33.1
X40.2Y-29.55
X44.4Y-30.85
X45.8Y-30.85
X48.7Y-56.05
X48.7Y-57.05
X49.2Y-73.05
X50.7Y-73.05
X59.2Y-27.05
X60.7Y-27.05
X65.2Y-64.55
X65.7Y-63.05
X72.7Y-70.55
X72.7Y-72.05
X76.7Y-27.55
X77.0Y-62.75
X77.0Y-63.75
X77.7Y-27.55
X82.7Y-60.05
X83.45Y-60.8
X87.7Y-55.3
X87.95Y-40.55
X88.45Y-54.55
X88.95Y-40.55
X92.95Y-58.05
X92.95Y-59.05
X95.7Y-30.05
X97.2Y-29.55
X97.7Y-73.3
X100.2Y-73.3
X110.7Y-33.55
X111.45Y-31.55
X111.7Y-29.55
X111.7Y-40.3
X112.645Y-27.695
X112.7Y-23.05
X113.2Y-40.05
X118.95Y-45.55
X118.95Y-48.05
X119.7Y-30.55
X119.7Y-33.05
X119.7Y-35.55
X119.7Y-38.05
X119.7Y-40.55
X119.7Y-43.05
X119.7Y-50.55
X121.95Y-60.55
X124.7Y-60.05
X125.2Y-62.8
X125.45Y-27.05
X126.45Y-27.05
X127.7Y-26.05
X128.7Y-22.55
X129.599Y-27.493
X130.45Y-28.3
X133.15Y-66.75
X136.45Y-45.3
X136.975Y-55.525
X137.85Y-54.65
X138.55Y-62.0
X138.7Y-38.55
X139.7Y-36.55
X139.7Y-61.9
X140.2Y-23.55
X140.2Y-25.05
X140.2Y-26.55
X140.2Y-29.05
X140.2Y-31.55
X140.2Y-34.05
X142.7Y-45.55
X143.2Y-21.55
X143.2Y-24.05
X143.2Y-26.55
X143.2Y-29.05
X143.2Y-31.55
X143.2Y-34.05
X143.2Y-38.55
X143.2Y-70.05
X143.22Y-36.53
X143.45Y-60.3
X146.1Y-67.35
X155.7Y-22.71
X155.7Y-25.71
X155.7Y-28.71
X155.7Y-31.71
X155.7Y-34.71
X155.7Y-37.71
X159.15Y-36.2
X169.7Y-73.05
X170.2Y-48.55
X170.719Y-73.031
X171.7Y-73.05
X172.2Y-71.55
X180.7Y-38.05
X180.7Y-42.55
X182.7Y-42.55
X184.2Y-38.05
X184.2Y-42.55
X184.2Y-44.05
X184.2Y-45.55
X184.2Y-47.05
X184.2Y-48.55
X184.2Y-50.05
X184.2Y-51.55
X184.2Y-53.05
X184.2Y-54.55
X184.2Y-56.05
X185.7Y-38.05
X185.7Y-39.55
X185.7Y-41.05
X185.7Y-47.05
X185.7Y-48.55
X185.7Y-50.05
X185.7Y-51.55
X185.7Y-56.05
X187.2Y-21.55
X187.2Y-23.05
X187.2Y-24.55
X187.2Y-26.05
X187.2Y-41.05
X187.2Y-47.05
X187.2Y-51.55
X188.696Y-21.544
X188.7Y-23.05
X188.7Y-24.55
X188.7Y-26.05
X188.7Y-41.05
X188.7Y-42.55
X188.7Y-44.05
X188.7Y-45.55
X188.7Y-47.05
X188.7Y-51.55
X188.7Y-56.05
X190.222Y-26.049
X191.3Y-50.75
X191.35Y-48.45
X191.5Y-45.7
X191.7Y-26.05
X192.0Y-47.05
X193.0Y-51.05
X193.055Y-45.547
X193.2Y-26.05
X193.6Y-46.85
X194.137Y-44.693
X194.7Y-26.05
X195.2Y-41.05
X195.2Y-47.05
X195.2Y-50.05
X195.7Y-42.55
X195.7Y-44.05
X195.7Y-45.55
X195.7Y-51.55
X195.7Y-53.05
X195.7Y-54.55
X195.7Y-56.05
X195.7Y-57.55
X195.7Y-60.55
X195.7Y-62.05
X195.7Y-63.55
X195.7Y-65.05
X195.7Y-66.55
X195.7Y-68.05
X195.7Y-69.55
X195.7Y-71.05
X195.7Y-72.55
X196.2Y-26.05
X197.2Y-42.55
X197.2Y-44.05
X197.2Y-45.55
X197.2Y-48.55
X197.2Y-51.55
X197.2Y-53.05
X197.2Y-54.55
X197.2Y-56.05
X197.2Y-57.55
X197.2Y-60.55
X197.2Y-62.05
X197.2Y-63.55
X197.2Y-65.05
X197.2Y-66.55
X197.2Y-68.05
X197.2Y-69.55
X197.2Y-71.05
X197.2Y-72.55
X197.7Y-26.05
X198.7Y-53.05
X198.7Y-60.55
X198.7Y-62.05
X198.7Y-71.05
X198.7Y-72.55
X199.2Y-26.05
X200.2Y-53.05
X200.2Y-62.55
X200.7Y-21.55
X200.7Y-26.05
X201.7Y-40.05
X201.7Y-53.05
X201.7Y-62.55
X202.2Y-21.55
X202.2Y-26.05
X203.2Y-40.05
X203.2Y-53.05
X203.2Y-54.55
X203.2Y-56.05
X203.2Y-57.55
X203.7Y-21.55
X203.7Y-26.05
X204.7Y-40.05
X204.7Y-41.55
X204.7Y-43.05
X204.7Y-44.55
X204.7Y-46.05
X204.7Y-47.55
X204.7Y-49.05
X204.7Y-50.55
X204.7Y-53.05
X204.7Y-54.55
X204.7Y-56.05
X204.7Y-57.55
X204.7Y-59.05
X204.7Y-60.55
X204.7Y-62.05
X204.7Y-63.55
X204.7Y-65.05
X204.7Y-66.55
X204.7Y-68.05
X204.7Y-69.55
X204.7Y-71.05
X204.7Y-72.55
X205.2Y-21.55
X205.2Y-26.05
X206.2Y-40.05
X206.2Y-41.55
X206.2Y-43.05
X206.2Y-44.55
X206.2Y-46.05
X206.2Y-47.55
X206.2Y-49.05
X206.2Y-50.55
X206.2Y-53.05
X206.2Y-54.55
X206.2Y-56.05
X206.2Y-57.55
X206.2Y-59.05
X206.2Y-60.55
X206.2Y-62.05
X206.2Y-63.55
X206.2Y-65.05
X206.2Y-66.55
X206.2Y-68.05
X206.2Y-69.55
X206.2Y-71.05
X206.2Y-72.55
X206.7Y-21.55
X206.7Y-26.05
X207.7Y-40.05
X207.7Y-41.55
X207.7Y-43.05
X207.7Y-44.55
X207.7Y-46.05
X207.7Y-47.55
X207.7Y-49.05
X207.7Y-50.55
X207.7Y-53.05
X207.7Y-54.55
X207.7Y-56.05
X207.7Y-57.55
X207.7Y-59.05
X207.7Y-60.55
X207.7Y-62.05
X207.7Y-63.55
X207.7Y-65.05
X207.7Y-66.55
X207.7Y-68.05
X207.7Y-69.55
X207.7Y-71.05
X207.7Y-72.55
T2
X173.2Y-62.55
X174.7Y-62.55
T3
X179.93Y-48.55
X179.93Y-53.05
X181.2Y-48.55
X181.2Y-53.05
X182.47Y-48.55
X182.47Y-53.05
T4
X27.7Y-38.05
X27.7Y-77.05
X44.7Y-38.05
X44.7Y-77.05
X49.7Y-38.05
X49.7Y-77.05
X66.7Y-38.05
X66.7Y-77.05
X71.7Y-38.05
X71.7Y-77.05
X88.7Y-38.05
X88.7Y-77.05
X93.7Y-38.05
X93.7Y-77.05
X110.7Y-38.05
X110.7Y-77.05
X115.095Y-21.45
X115.095Y-23.99
X115.095Y-26.53
X115.095Y-29.07
X115.095Y-31.61
X115.095Y-34.15
X115.095Y-36.69
X115.095Y-39.23
X115.095Y-41.77
X115.095Y-44.31
X115.095Y-46.85
X115.095Y-49.39
X115.095Y-51.93
X115.095Y-54.47
X115.095Y-57.01
X115.095Y-59.55
X117.635Y-21.45
X117.635Y-23.99
X117.635Y-26.53
X117.635Y-29.07
X117.635Y-31.61
X117.635Y-34.15
X117.635Y-36.69
X117.635Y-39.23
X117.635Y-41.77
X117.635Y-44.31
X117.635Y-46.85
X117.635Y-49.39
X117.635Y-51.93
X117.635Y-54.47
X117.635Y-57.01
X117.635Y-59.55
X120.175Y-21.45
X120.175Y-23.99
X122.715Y-21.45
X122.715Y-23.99
X125.255Y-21.45
X125.255Y-23.99
X126.58Y-29.135
X126.58Y-31.675
X126.58Y-34.215
X126.58Y-36.755
X126.58Y-39.295
X126.58Y-41.835
X126.58Y-44.375
X126.58Y-46.915
X126.58Y-49.455
X126.58Y-51.995
X132.875Y-21.45
X132.875Y-23.99
X134.2Y-29.135
X134.2Y-31.675
X134.2Y-34.215
X134.2Y-36.755
X134.2Y-39.295
X134.2Y-41.835
X134.2Y-44.375
X134.2Y-46.915
X134.2Y-49.455
X134.2Y-51.995
X135.415Y-21.45
X135.415Y-23.99
X137.955Y-21.45
X137.955Y-23.99
X148.115Y-21.45
X148.115Y-23.99
X148.115Y-26.53
X148.115Y-29.07
X148.115Y-31.61
X148.115Y-34.15
X148.115Y-36.69
X148.115Y-39.23
X148.115Y-41.77
X148.115Y-44.31
X148.115Y-46.85
X148.115Y-49.39
X148.115Y-51.93
X148.115Y-54.47
X148.115Y-57.01
X148.115Y-59.55
X148.115Y-62.09
X148.115Y-64.63
X148.115Y-67.17
X148.115Y-69.71
X148.115Y-72.25
X150.655Y-21.45
X150.655Y-23.99
X150.655Y-26.53
X150.655Y-29.07
X150.655Y-31.61
X150.655Y-34.15
X150.655Y-36.69
X150.655Y-39.23
X150.655Y-41.77
X150.655Y-44.31
X150.655Y-46.85
X150.655Y-49.39
X150.655Y-51.93
X150.655Y-54.47
X150.655Y-57.01
X150.655Y-59.55
X150.655Y-62.09
X150.655Y-64.63
X150.655Y-67.17
X150.655Y-69.71
X150.655Y-72.25
X178.2Y-66.55
X178.2Y-75.55
X180.2Y-59.05
X181.7Y-66.55
X181.7Y-75.55
X182.2Y-59.05
T5
X128.995Y-58.4
X128.995Y-60.94
X131.535Y-58.4
X131.535Y-60.94
X134.075Y-58.4
X134.075Y-60.94
X188.2Y-49.05
X193.2Y-49.05
T6
X138.66Y-72.28
X141.2Y-72.28
X143.74Y-72.28
X154.2Y-41.21
X154.2Y-51.37
X154.2Y-54.55
X154.2Y-64.71
X154.2Y-67.55
X154.2Y-77.71
X157.7Y-41.19
X157.7Y-51.35
X157.7Y-54.55
X157.7Y-64.71
X157.7Y-67.55
X157.7Y-77.71
X172.7Y-22.05
X172.7Y-32.21
X172.7Y-35.05
X172.7Y-45.21
X172.7Y-48.39
X172.7Y-58.55
X173.7Y-66.97
X173.7Y-77.13
X176.2Y-48.39
X176.2Y-58.55
X176.62Y-44.05
X177.2Y-40.05
X182.28Y-40.05
X186.78Y-44.05
X187.22Y-54.05
X192.3Y-54.05
T7
X29.2Y-27.055
X29.2Y-58.245
X34.2Y-27.055
X34.2Y-58.245
X39.2Y-27.055
X39.2Y-58.245
X46.115Y-27.05
X46.2Y-58.245
X51.195Y-27.05
X51.2Y-58.245
X56.2Y-58.245
X56.275Y-27.05
X63.115Y-27.05
X63.2Y-58.245
X68.195Y-27.05
X68.2Y-58.245
X73.2Y-58.245
X73.275Y-27.05
X80.115Y-27.05
X80.2Y-58.25
X85.195Y-27.05
X85.2Y-58.25
X90.2Y-58.25
X90.275Y-27.05
X97.12Y-27.05
X97.15Y-58.25
X102.15Y-58.25
X102.2Y-27.05
X107.15Y-58.25
X107.28Y-27.05
X121.7Y-71.245
X126.7Y-71.245
X131.7Y-71.245
X165.7Y-23.55
X165.7Y-28.55
X165.7Y-34.55
X165.7Y-39.55
X165.7Y-45.55
X165.7Y-50.55
X165.7Y-56.55
X165.7Y-61.55
X165.7Y-67.55
X165.7Y-72.55
X200.8Y-44.55
X200.8Y-49.55
X200.8Y-55.55
X200.8Y-60.55
X200.8Y-66.55
X200.8Y-71.55
T8
X192.2Y-22.55
X192.2Y-42.55
T4
X202.105Y-23.345G85X202.105Y-24.545
G05
X202.105Y-36.845G85X202.105Y-37.845
G05
X206.105Y-23.345G85X206.105Y-24.545
G05
X206.105Y-36.745G85X206.105Y-37.945
G05
T0
M30
