%TF.GenerationSoftware,KiCad,Pcbnew,(6.0.0)*%
%TF.CreationDate,2022-05-14T17:25:00-07:00*%
%TF.ProjectId,Stencil,5374656e-6369-46c2-9e6b-696361645f70,rev?*%
%TF.SameCoordinates,Original*%
%TF.FileFunction,Paste,Bot*%
%TF.FilePolarity,Positive*%
%FSLAX46Y46*%
G04 Gerber Fmt 4.6, Leading zero omitted, Abs format (unit mm)*
G04 Created by KiCad (PCBNEW (6.0.0)) date 2022-05-14 17:25:00*
%MOMM*%
%LPD*%
G01*
G04 APERTURE LIST*
G04 Aperture macros list*
%AMRoundRect*
0 Rectangle with rounded corners*
0 $1 Rounding radius*
0 $2 $3 $4 $5 $6 $7 $8 $9 X,Y pos of 4 corners*
0 Add a 4 corners polygon primitive as box body*
4,1,4,$2,$3,$4,$5,$6,$7,$8,$9,$2,$3,0*
0 Add four circle primitives for the rounded corners*
1,1,$1+$1,$2,$3*
1,1,$1+$1,$4,$5*
1,1,$1+$1,$6,$7*
1,1,$1+$1,$8,$9*
0 Add four rect primitives between the rounded corners*
20,1,$1+$1,$2,$3,$4,$5,0*
20,1,$1+$1,$4,$5,$6,$7,0*
20,1,$1+$1,$6,$7,$8,$9,0*
20,1,$1+$1,$8,$9,$2,$3,0*%
G04 Aperture macros list end*
%ADD10RoundRect,0.250000X0.312500X0.625000X-0.312500X0.625000X-0.312500X-0.625000X0.312500X-0.625000X0*%
%ADD11RoundRect,0.250000X0.625000X-0.312500X0.625000X0.312500X-0.625000X0.312500X-0.625000X-0.312500X0*%
%ADD12RoundRect,0.250000X-0.312500X-0.625000X0.312500X-0.625000X0.312500X0.625000X-0.312500X0.625000X0*%
%ADD13RoundRect,0.250000X-0.625000X0.312500X-0.625000X-0.312500X0.625000X-0.312500X0.625000X0.312500X0*%
%ADD14R,3.050000X2.750000*%
%ADD15R,2.200000X1.200000*%
%ADD16R,2.750000X3.050000*%
%ADD17R,1.200000X2.200000*%
%ADD18RoundRect,0.150000X0.587500X0.150000X-0.587500X0.150000X-0.587500X-0.150000X0.587500X-0.150000X0*%
%ADD19RoundRect,0.150000X-0.587500X-0.150000X0.587500X-0.150000X0.587500X0.150000X-0.587500X0.150000X0*%
%ADD20RoundRect,0.150000X0.150000X-0.587500X0.150000X0.587500X-0.150000X0.587500X-0.150000X-0.587500X0*%
G04 APERTURE END LIST*
D10*
%TO.C,R107*%
X165385000Y-99452976D03*
X162460000Y-99452976D03*
%TD*%
D11*
%TO.C,R122*%
X99730000Y-105985476D03*
X99730000Y-103060476D03*
%TD*%
D12*
%TO.C,R132*%
X163017500Y-130812976D03*
X165942500Y-130812976D03*
%TD*%
%TO.C,R114*%
X95517500Y-113012976D03*
X98442500Y-113012976D03*
%TD*%
%TO.C,R163*%
X129692500Y-107812976D03*
X132617500Y-107812976D03*
%TD*%
D13*
%TO.C,R121*%
X85940000Y-108350476D03*
X85940000Y-111275476D03*
%TD*%
D14*
%TO.C,Q11*%
X65535000Y-113317976D03*
X62185000Y-110267976D03*
X62185000Y-113317976D03*
X65535000Y-110267976D03*
D15*
X70160000Y-109512976D03*
X70160000Y-114072976D03*
%TD*%
D14*
%TO.C,Q7*%
X53610000Y-141317976D03*
X50260000Y-141317976D03*
X50260000Y-138267976D03*
X53610000Y-138267976D03*
D15*
X58235000Y-137512976D03*
X58235000Y-142072976D03*
%TD*%
D12*
%TO.C,R161*%
X129692500Y-110312976D03*
X132617500Y-110312976D03*
%TD*%
D11*
%TO.C,R145*%
X182480000Y-143235476D03*
X182480000Y-140310476D03*
%TD*%
D12*
%TO.C,R109*%
X45535000Y-106792976D03*
X48460000Y-106792976D03*
%TD*%
D10*
%TO.C,R99*%
X165385000Y-93452976D03*
X162460000Y-93452976D03*
%TD*%
D12*
%TO.C,R150*%
X137192500Y-122812976D03*
X140117500Y-122812976D03*
%TD*%
D10*
%TO.C,R102*%
X76202500Y-141772976D03*
X73277500Y-141772976D03*
%TD*%
D14*
%TO.C,Q5*%
X35985000Y-138767976D03*
X39335000Y-138767976D03*
X35985000Y-141817976D03*
X39335000Y-141817976D03*
D15*
X43960000Y-138012976D03*
X43960000Y-142572976D03*
%TD*%
D16*
%TO.C,Q19*%
X104485000Y-120817976D03*
X104485000Y-117467976D03*
X101435000Y-120817976D03*
X101435000Y-117467976D03*
D17*
X100680000Y-112842976D03*
X105240000Y-112842976D03*
%TD*%
D12*
%TO.C,R164*%
X137192500Y-105312976D03*
X140117500Y-105312976D03*
%TD*%
%TO.C,R156*%
X137135000Y-115292976D03*
X140060000Y-115292976D03*
%TD*%
D18*
%TO.C,Q22*%
X93197500Y-111192976D03*
X93197500Y-113092976D03*
X91322500Y-112142976D03*
%TD*%
D12*
%TO.C,R153*%
X129692500Y-120312976D03*
X132617500Y-120312976D03*
%TD*%
D10*
%TO.C,R118*%
X165385000Y-108452976D03*
X162460000Y-108452976D03*
%TD*%
D12*
%TO.C,R159*%
X129692500Y-112792976D03*
X132617500Y-112792976D03*
%TD*%
D14*
%TO.C,Q6*%
X65610000Y-138792976D03*
X65610000Y-141842976D03*
X62260000Y-141842976D03*
X62260000Y-138792976D03*
D15*
X70235000Y-138037976D03*
X70235000Y-142597976D03*
%TD*%
D12*
%TO.C,R165*%
X129692500Y-105312976D03*
X132617500Y-105312976D03*
%TD*%
D14*
%TO.C,Q10*%
X77035000Y-117767976D03*
X77035000Y-120817976D03*
X73685000Y-117767976D03*
X73685000Y-120817976D03*
D15*
X81660000Y-117012976D03*
X81660000Y-121572976D03*
%TD*%
D12*
%TO.C,R167*%
X129692500Y-102812976D03*
X132617500Y-102812976D03*
%TD*%
%TO.C,R168*%
X137192500Y-100312976D03*
X140117500Y-100312976D03*
%TD*%
D10*
%TO.C,R113*%
X89152500Y-113522976D03*
X86227500Y-113522976D03*
%TD*%
D16*
%TO.C,Q18*%
X111985000Y-117367976D03*
X108935000Y-120717976D03*
X111985000Y-120717976D03*
X108935000Y-117367976D03*
D17*
X108180000Y-112742976D03*
X112740000Y-112742976D03*
%TD*%
D19*
%TO.C,Q12*%
X73672500Y-114242976D03*
X73672500Y-112342976D03*
X75547500Y-113292976D03*
%TD*%
D11*
%TO.C,R147*%
X184460000Y-125637976D03*
X184460000Y-122712976D03*
%TD*%
D14*
%TO.C,Q26*%
X74535000Y-101767976D03*
X71185000Y-101767976D03*
X71185000Y-104817976D03*
X74535000Y-104817976D03*
D15*
X79160000Y-101012976D03*
X79160000Y-105572976D03*
%TD*%
D18*
%TO.C,Q30*%
X96997500Y-103142976D03*
X96997500Y-105042976D03*
X95122500Y-104092976D03*
%TD*%
D11*
%TO.C,R101*%
X46780000Y-140235476D03*
X46780000Y-137310476D03*
%TD*%
D12*
%TO.C,R166*%
X137192500Y-102812976D03*
X140117500Y-102812976D03*
%TD*%
%TO.C,R155*%
X129692500Y-117812976D03*
X132617500Y-117812976D03*
%TD*%
%TO.C,R133*%
X163017500Y-128312976D03*
X165942500Y-128312976D03*
%TD*%
D14*
%TO.C,Q25*%
X88135000Y-105317976D03*
X91485000Y-105317976D03*
X91485000Y-102267976D03*
X88135000Y-102267976D03*
D15*
X83510000Y-106072976D03*
X83510000Y-101512976D03*
%TD*%
D12*
%TO.C,R157*%
X129692500Y-115292976D03*
X132617500Y-115292976D03*
%TD*%
%TO.C,R110*%
X45517500Y-109312976D03*
X48442500Y-109312976D03*
%TD*%
%TO.C,R169*%
X129692500Y-100312976D03*
X132617500Y-100312976D03*
%TD*%
D20*
%TO.C,Q16*%
X42160000Y-109330476D03*
X40260000Y-109330476D03*
X41210000Y-107455476D03*
%TD*%
D14*
%TO.C,Q17*%
X92960000Y-120317976D03*
X89610000Y-117267976D03*
X92960000Y-117267976D03*
X89610000Y-120317976D03*
D15*
X97585000Y-116512976D03*
X97585000Y-121072976D03*
%TD*%
D12*
%TO.C,R151*%
X129692500Y-122812976D03*
X132617500Y-122812976D03*
%TD*%
%TO.C,R154*%
X137192500Y-117812976D03*
X140117500Y-117812976D03*
%TD*%
%TO.C,R106*%
X78517500Y-114312976D03*
X81442500Y-114312976D03*
%TD*%
%TO.C,R158*%
X137192500Y-112812976D03*
X140117500Y-112812976D03*
%TD*%
%TO.C,R160*%
X137192500Y-110312976D03*
X140117500Y-110312976D03*
%TD*%
%TO.C,R162*%
X137192500Y-107812976D03*
X140117500Y-107812976D03*
%TD*%
D14*
%TO.C,Q9*%
X62185000Y-120817976D03*
X62185000Y-117767976D03*
X65535000Y-117767976D03*
X65535000Y-120817976D03*
D15*
X70160000Y-117012976D03*
X70160000Y-121572976D03*
%TD*%
D10*
%TO.C,R103*%
X165385000Y-96452976D03*
X162460000Y-96452976D03*
%TD*%
%TO.C,R116*%
X165385000Y-105452976D03*
X162460000Y-105452976D03*
%TD*%
D16*
%TO.C,Q15*%
X41485000Y-120567976D03*
X38435000Y-120567976D03*
X41485000Y-117217976D03*
X38435000Y-117217976D03*
D17*
X37680000Y-112592976D03*
X42240000Y-112592976D03*
%TD*%
D16*
%TO.C,Q13*%
X45935000Y-117217976D03*
X48985000Y-117217976D03*
X45935000Y-120567976D03*
X48985000Y-120567976D03*
D17*
X45180000Y-112592976D03*
X49740000Y-112592976D03*
%TD*%
D16*
%TO.C,Q14*%
X53410000Y-117292976D03*
X56460000Y-117292976D03*
X53410000Y-120642976D03*
X56460000Y-120642976D03*
D17*
X52655000Y-112667976D03*
X57215000Y-112667976D03*
%TD*%
D12*
%TO.C,R152*%
X137192500Y-120312976D03*
X140117500Y-120312976D03*
%TD*%
%TO.C,R135*%
X163017500Y-141812976D03*
X165942500Y-141812976D03*
%TD*%
%TO.C,R134*%
X163017500Y-144312976D03*
X165942500Y-144312976D03*
%TD*%
D19*
%TO.C,Q8*%
X75122500Y-139292976D03*
X75122500Y-137392976D03*
X76997500Y-138342976D03*
%TD*%
D10*
%TO.C,R111*%
X165385000Y-102452976D03*
X162460000Y-102452976D03*
%TD*%
D11*
%TO.C,R149*%
X180980000Y-125655476D03*
X180980000Y-122730476D03*
%TD*%
D14*
%TO.C,Q27*%
X105435000Y-106067976D03*
X108785000Y-103017976D03*
X108785000Y-106067976D03*
X105435000Y-103017976D03*
D15*
X113410000Y-102262976D03*
X113410000Y-106822976D03*
%TD*%
D10*
%TO.C,R105*%
X63902500Y-106772976D03*
X60977500Y-106772976D03*
%TD*%
M02*
