%TF.GenerationSoftware,KiCad,Pcbnew,(6.0.0)*%
%TF.CreationDate,2022-05-14T17:25:00-07:00*%
%TF.ProjectId,Stencil,5374656e-6369-46c2-9e6b-696361645f70,rev?*%
%TF.SameCoordinates,Original*%
%TF.FileFunction,Profile,NP*%
%FSLAX46Y46*%
G04 Gerber Fmt 4.6, Leading zero omitted, Abs format (unit mm)*
G04 Created by KiCad (PCBNEW (6.0.0)) date 2022-05-14 17:25:00*
%MOMM*%
%LPD*%
G01*
G04 APERTURE LIST*
%ADD10C,0.200000*%
%TA.AperFunction,Profile*%
%ADD11C,0.150000*%
%TD*%
G04 APERTURE END LIST*
D10*
X41374535Y-40635228D02*
X41374535Y-45492705D01*
D11*
X28460000Y-90792976D02*
X216960000Y-90792976D01*
X216960000Y-90792976D02*
X216960000Y-150792976D01*
X216960000Y-150792976D02*
X28460000Y-150792976D01*
X28460000Y-150792976D02*
X28460000Y-90792976D01*
D10*
X25737975Y-40635228D02*
X41374535Y-40635228D01*
X236007559Y-120659806D02*
X236218280Y-120620514D01*
X236390366Y-120513362D01*
X236516104Y-120331721D01*
X236548991Y-120159793D01*
X226374811Y-146809803D02*
X226924775Y-146809803D01*
X236548991Y-122660179D02*
X236495611Y-122443408D01*
X236352005Y-122274358D01*
X236168657Y-122182665D01*
X236007699Y-122160188D01*
X236538501Y-126609227D02*
X236541718Y-126579578D01*
X226374904Y-96009932D02*
X226168738Y-96033921D01*
X225947143Y-96120247D01*
X225764271Y-96259575D01*
X225631316Y-96441566D01*
X225559474Y-96655878D01*
X225549970Y-96771923D01*
X234384008Y-121159926D02*
X234384008Y-121159797D01*
X235079592Y-114308471D02*
X236008654Y-114308471D01*
X234384964Y-114808569D02*
X234384964Y-114808462D01*
X234384964Y-115308474D02*
X234384964Y-114808569D01*
X234384008Y-121659938D02*
X234384008Y-121659809D01*
X236549947Y-116308822D02*
X236496571Y-116092051D01*
X236352970Y-115923001D01*
X236169621Y-115831308D01*
X236008654Y-115808831D01*
X235078613Y-122159929D02*
X234872058Y-122137449D01*
X234663019Y-122060594D01*
X234502635Y-121939482D01*
X234398119Y-121760700D01*
X234384008Y-121659938D01*
X225549970Y-96771923D02*
X225549947Y-146047920D01*
X226924775Y-146809803D02*
X226926173Y-146809932D01*
X225654820Y-146412669D02*
X225782682Y-146574106D01*
X225950557Y-146699578D01*
X226150560Y-146780879D01*
X226374811Y-146809803D01*
X235036818Y-146809803D02*
X235724290Y-146809803D01*
X236549480Y-126508436D02*
X236548991Y-122660179D01*
X234384497Y-127508569D02*
X234384497Y-127508462D01*
X234384964Y-114808462D02*
X234439553Y-114613839D01*
X234588420Y-114454911D01*
X234778447Y-114357774D01*
X234973809Y-114314231D01*
X235079592Y-114308471D01*
X236007699Y-122160188D02*
X235792305Y-122160013D01*
X235586733Y-122159967D01*
X235372636Y-122159942D01*
X235164371Y-122159930D01*
X235078613Y-122159929D01*
X235035559Y-146809932D02*
X235036818Y-146809803D01*
X235724313Y-96009932D02*
X226374904Y-96009932D01*
X234384008Y-121659809D02*
X234384008Y-121159926D01*
X236548991Y-120159944D02*
X236549947Y-116308822D01*
X236008165Y-128508831D02*
X235792787Y-128508656D01*
X235587219Y-128508611D01*
X235373125Y-128508586D01*
X235164861Y-128508574D01*
X235079103Y-128508573D01*
X236549224Y-146047812D02*
X236549480Y-129008822D01*
X236008211Y-127008471D02*
X236215857Y-126970351D01*
X236402255Y-126851251D01*
X236519980Y-126671721D01*
X236538501Y-126609227D01*
X236549247Y-96771901D02*
X236512159Y-96545308D01*
X236408362Y-96345869D01*
X236249049Y-96183923D01*
X236045416Y-96069809D01*
X235849943Y-96018711D01*
X235724313Y-96009932D01*
X235079103Y-128508573D02*
X234872548Y-128486093D01*
X234663508Y-128409238D01*
X234503124Y-128288125D01*
X234398608Y-128109343D01*
X234384497Y-128008582D01*
X234384497Y-128008582D02*
X234384497Y-128008474D01*
X234384008Y-121159797D02*
X234438593Y-120965174D01*
X234587453Y-120806246D01*
X234777472Y-120709109D01*
X234972831Y-120665566D01*
X235078613Y-120659806D01*
X236008654Y-114308471D02*
X236219353Y-114269177D01*
X236391409Y-114162019D01*
X236517102Y-113980377D01*
X236549947Y-113808458D01*
X234384964Y-115308582D02*
X234384964Y-115308474D01*
X236008654Y-115808831D02*
X235793276Y-115808656D01*
X235587708Y-115808611D01*
X235373614Y-115808586D01*
X235165350Y-115808574D01*
X235079592Y-115808573D01*
X236548991Y-120159793D02*
X236548991Y-120159944D01*
X225549947Y-146047920D02*
X225581592Y-146250743D01*
X225654820Y-146412669D01*
X235724290Y-146809803D02*
X235930455Y-146785813D01*
X236152050Y-146699487D01*
X236334922Y-146560159D01*
X236467877Y-146378168D01*
X236539719Y-146163856D01*
X236549224Y-146047812D01*
X234384497Y-128008474D02*
X234384497Y-127508569D01*
X235079103Y-127008471D02*
X236008211Y-127008471D01*
X235078613Y-120659806D02*
X236007559Y-120659806D01*
X236541718Y-126579578D02*
X236549480Y-126508436D01*
X235079592Y-115808573D02*
X234873035Y-115786093D01*
X234663990Y-115709238D01*
X234503598Y-115588125D01*
X234399076Y-115409343D01*
X234384964Y-115308582D01*
X236549480Y-129008822D02*
X236496099Y-128792051D01*
X236352489Y-128623001D01*
X236169134Y-128531308D01*
X236008165Y-128508831D01*
X234384497Y-127508462D02*
X234439082Y-127313839D01*
X234587942Y-127154911D01*
X234777962Y-127057774D01*
X234973321Y-127014231D01*
X235079103Y-127008471D01*
X236549947Y-113808458D02*
X236549247Y-96771901D01*
X226926173Y-146809932D02*
X235035559Y-146809932D01*
X48261065Y-29078203D02*
X47538241Y-29078203D01*
X71061332Y-39635228D02*
X71061332Y-30078203D01*
X246239894Y-81418207D02*
X246260210Y-81619741D01*
X246338504Y-81851748D01*
X246468245Y-82054299D01*
X246641577Y-82219542D01*
X246850648Y-82339622D01*
X247087603Y-82406684D01*
X247239894Y-82418207D01*
X54424772Y-65492690D02*
X73613135Y-65492690D01*
X246239894Y-40635207D02*
X246239894Y-45492705D01*
X73812047Y-45492705D02*
X54424772Y-45492705D01*
X42374535Y-82418207D02*
X47899653Y-82418207D01*
X54424772Y-40635228D02*
X70061332Y-40635228D01*
X275926712Y-39635207D02*
X275926712Y-30078203D01*
X150603990Y-49872628D02*
X138470621Y-29565298D01*
X309518743Y-81744806D02*
X309621140Y-81956607D01*
X309766567Y-82134982D01*
X309947375Y-82274483D01*
X310155919Y-82369662D01*
X310384552Y-82415072D01*
X310463906Y-82418207D01*
X303709313Y-29707650D02*
X303602355Y-29508415D01*
X303456694Y-29341452D01*
X303279252Y-29211451D01*
X303076949Y-29123102D01*
X302856706Y-29081096D01*
X302780502Y-29078203D01*
X186597752Y-55777865D02*
X186616619Y-54896461D01*
X186672615Y-54026628D01*
X186764829Y-53169442D01*
X186892348Y-52325979D01*
X187054262Y-51497316D01*
X187249660Y-50684528D01*
X187477631Y-49888691D01*
X187737264Y-49110882D01*
X188027647Y-48352177D01*
X188347870Y-47613652D01*
X188697022Y-46896384D01*
X189074190Y-46201448D01*
X189478465Y-45529921D01*
X189908935Y-44882879D01*
X190364690Y-44261398D01*
X190844817Y-43666554D01*
X191348406Y-43099423D01*
X191874546Y-42561082D01*
X192422326Y-42052607D01*
X192990835Y-41575074D01*
X193579161Y-41129559D01*
X194186393Y-40717139D01*
X194811621Y-40338889D01*
X195453934Y-39995885D01*
X196112419Y-39689205D01*
X196786167Y-39419924D01*
X197474266Y-39189118D01*
X198175805Y-38997863D01*
X198889872Y-38847236D01*
X199615558Y-38738313D01*
X200351950Y-38672170D01*
X201098138Y-38649884D01*
X295315925Y-71152831D02*
X305858714Y-71152831D01*
X230603334Y-40635207D02*
X246239894Y-40635207D01*
X162737087Y-29565298D02*
X150603990Y-49872628D01*
X201098011Y-84158217D02*
X202231755Y-84135577D01*
X203354102Y-84068228D01*
X204464207Y-83957024D01*
X205561224Y-83802817D01*
X206644307Y-83606463D01*
X207712611Y-83368814D01*
X208765290Y-83090724D01*
X209801499Y-82773048D01*
X210820392Y-82416639D01*
X211821124Y-82022351D01*
X212802848Y-81591037D01*
X213764719Y-81123552D01*
X214705891Y-80620749D01*
X215625520Y-80083483D01*
X216522759Y-79512606D01*
X217396763Y-78908973D01*
X218246686Y-78273438D01*
X219071682Y-77606853D01*
X219870906Y-76910074D01*
X220643513Y-76183954D01*
X221388656Y-75429347D01*
X222105490Y-74647106D01*
X222793170Y-73838085D01*
X223450849Y-73003138D01*
X224077683Y-72143120D01*
X224672825Y-71258883D01*
X225235431Y-70351281D01*
X225764654Y-69421169D01*
X226259649Y-68469400D01*
X226719569Y-67496828D01*
X227143571Y-66504306D01*
X227530808Y-65492690D01*
X126458833Y-65492690D02*
X143475305Y-65492690D01*
X286922537Y-29707650D02*
X280625026Y-45492705D01*
X24737975Y-39635228D02*
X24758291Y-39836762D01*
X24836585Y-40068769D01*
X24966326Y-40271320D01*
X25139658Y-40436563D01*
X25348729Y-40556643D01*
X25585684Y-40623705D01*
X25737975Y-40635228D01*
X143475305Y-65492690D02*
X143475305Y-81418207D01*
X259290131Y-65492690D02*
X272645948Y-65492690D01*
X137612175Y-29078203D02*
X123918914Y-29078203D01*
X54424772Y-45492705D02*
X54424772Y-40635228D01*
X259290131Y-45492705D02*
X259290131Y-40635207D01*
X310463906Y-82418207D02*
X323262799Y-82418207D01*
X230603334Y-29078203D02*
X230401799Y-29098519D01*
X230169792Y-29176813D01*
X229967241Y-29306554D01*
X229801998Y-29479886D01*
X229681918Y-29688957D01*
X229614856Y-29925912D01*
X229603334Y-30078203D01*
X114536496Y-55748194D02*
X114517628Y-56629597D01*
X114461632Y-57499430D01*
X114369418Y-58356615D01*
X114241899Y-59200078D01*
X114079985Y-60028741D01*
X113884587Y-60841529D01*
X113656616Y-61637365D01*
X113396983Y-62415173D01*
X113106600Y-63173877D01*
X112786377Y-63912401D01*
X112437226Y-64629669D01*
X112060057Y-65324604D01*
X111655782Y-65996130D01*
X111225312Y-66643171D01*
X110769558Y-67264651D01*
X110289431Y-67859494D01*
X109785841Y-68426624D01*
X109259701Y-68964964D01*
X108711921Y-69473438D01*
X108143413Y-69950970D01*
X107555087Y-70396484D01*
X106947854Y-70808903D01*
X106322626Y-71187153D01*
X105680314Y-71530155D01*
X105021829Y-71836835D01*
X104348081Y-72106115D01*
X103659982Y-72336921D01*
X102958443Y-72528175D01*
X102244376Y-72678801D01*
X101518690Y-72787724D01*
X100782298Y-72853867D01*
X100036111Y-72876154D01*
X267369051Y-82418207D02*
X280167944Y-82418207D01*
X323262799Y-82418207D02*
X323516464Y-82386252D01*
X323743069Y-82296412D01*
X323936493Y-82157720D01*
X324090612Y-81979209D01*
X324199306Y-81769913D01*
X324256451Y-81538867D01*
X324255926Y-81295102D01*
X324191610Y-81047655D01*
X281113107Y-81744806D02*
X284773136Y-71152831D01*
X229603334Y-39635207D02*
X229623650Y-39836741D01*
X229701944Y-40068748D01*
X229831685Y-40271299D01*
X230005017Y-40436542D01*
X230214088Y-40556621D01*
X230451043Y-40623684D01*
X230603334Y-40635207D01*
X266440240Y-81047655D02*
X266375923Y-81295102D01*
X266375398Y-81538867D01*
X266432543Y-81769913D01*
X266541237Y-81979209D01*
X266695356Y-82157720D01*
X266888780Y-82296412D01*
X267115385Y-82386252D01*
X267369051Y-82418207D01*
X132615934Y-45492705D02*
X126259922Y-45492705D01*
X24737975Y-30078203D02*
X24737975Y-39635228D01*
X258290131Y-82418207D02*
X258491665Y-82397890D01*
X258723672Y-82319596D01*
X258926223Y-82189855D01*
X259091466Y-82016523D01*
X259211546Y-81807452D01*
X259278608Y-81570497D01*
X259290131Y-81418207D01*
X168591774Y-45492705D02*
X178130577Y-30618020D01*
X215598523Y-55777865D02*
X215579655Y-56659268D01*
X215523659Y-57529101D01*
X215431445Y-58386286D01*
X215303926Y-59229749D01*
X215142012Y-60058412D01*
X214946614Y-60871200D01*
X214718643Y-61667036D01*
X214459010Y-62444844D01*
X214168627Y-63203548D01*
X213848404Y-63942072D01*
X213499253Y-64659340D01*
X213122084Y-65354275D01*
X212717809Y-66025801D01*
X212287339Y-66672842D01*
X211831584Y-67294322D01*
X211351457Y-67889165D01*
X210847868Y-68456295D01*
X210321728Y-68994635D01*
X209773948Y-69503109D01*
X209205440Y-69980641D01*
X208617113Y-70426155D01*
X208009881Y-70838574D01*
X207384653Y-71216824D01*
X206742341Y-71559826D01*
X206083855Y-71866506D01*
X205410108Y-72135786D01*
X204722009Y-72366592D01*
X204020470Y-72557846D01*
X203306403Y-72708472D01*
X202580717Y-72817395D01*
X201844325Y-72883538D01*
X201098138Y-72905825D01*
X295315925Y-29078203D02*
X287851348Y-29078203D01*
X144475305Y-82418207D02*
X150603854Y-82418207D01*
X47538241Y-29078203D02*
X25737975Y-29078203D01*
X100035984Y-27367842D02*
X98921131Y-27389741D01*
X97817318Y-27454899D01*
X96725346Y-27562501D01*
X95646016Y-27711736D01*
X94580131Y-27901789D01*
X93528491Y-28131849D01*
X92491898Y-28401102D01*
X91471154Y-28708736D01*
X90467061Y-29053938D01*
X89480420Y-29435894D01*
X88512032Y-29853792D01*
X87562699Y-30306820D01*
X86633223Y-30794164D01*
X85724405Y-31315012D01*
X84837047Y-31868550D01*
X83971950Y-32453965D01*
X83129917Y-33070446D01*
X82311748Y-33717179D01*
X81518245Y-34393351D01*
X80750210Y-35098149D01*
X80008444Y-35830761D01*
X79293749Y-36590373D01*
X78606927Y-37376173D01*
X77948778Y-38187349D01*
X77320105Y-39023086D01*
X76721710Y-39882572D01*
X76154393Y-40764995D01*
X75618957Y-41669541D01*
X75116202Y-42595398D01*
X74646931Y-43541753D01*
X74211946Y-44507793D01*
X73812047Y-45492705D01*
X253126424Y-29078203D02*
X252403600Y-29078203D01*
X324191610Y-81047655D02*
X317985902Y-65492690D01*
X247239894Y-82418207D02*
X252765012Y-82418207D01*
X280625026Y-45492705D02*
X259290131Y-45492705D01*
X174885657Y-45492705D02*
X168591774Y-45492705D01*
X157732402Y-65492690D02*
X174665214Y-65492690D01*
X138470621Y-29565298D02*
X138332528Y-29384563D01*
X138160168Y-29241717D01*
X137961054Y-29141023D01*
X137742698Y-29086741D01*
X137612175Y-29078203D01*
X305858714Y-71152831D02*
X309518743Y-81744806D01*
X272645948Y-65492690D02*
X266440240Y-81047655D01*
X259290131Y-81418207D02*
X259290131Y-65492690D01*
X201098011Y-27397492D02*
X199984196Y-27419351D01*
X198881401Y-27484388D01*
X197790423Y-27591793D01*
X196712063Y-27740754D01*
X195647120Y-27930462D01*
X194596392Y-28160106D01*
X193560679Y-28428874D01*
X192540781Y-28735957D01*
X191537496Y-29080544D01*
X190551625Y-29461824D01*
X189583965Y-29878987D01*
X188635317Y-30331222D01*
X187706480Y-30817718D01*
X186798253Y-31337665D01*
X185911435Y-31890252D01*
X185046826Y-32474669D01*
X184205225Y-33090104D01*
X183387431Y-33735748D01*
X182594243Y-34410790D01*
X181826461Y-35114419D01*
X181084884Y-35845824D01*
X180370311Y-36604196D01*
X179683542Y-37388723D01*
X179025375Y-38198594D01*
X178396611Y-39033000D01*
X177798048Y-39891129D01*
X177230485Y-40772171D01*
X176694722Y-41675316D01*
X176191559Y-42599752D01*
X175721794Y-43544669D01*
X175286227Y-44509257D01*
X174885657Y-45492705D01*
X317983168Y-65485843D02*
X303709313Y-29707650D01*
X163595533Y-29078203D02*
X163369553Y-29104048D01*
X163158524Y-29178743D01*
X162969956Y-29298024D01*
X162811363Y-29457630D01*
X162737087Y-29565298D01*
X227530808Y-65492690D02*
X246239894Y-65492690D01*
X275926712Y-30078203D02*
X275906395Y-29876668D01*
X275828101Y-29644661D01*
X275698360Y-29442110D01*
X275525028Y-29276867D01*
X275315957Y-29156787D01*
X275079002Y-29089725D01*
X274926712Y-29078203D01*
X143475305Y-81418207D02*
X143495621Y-81619741D01*
X143573915Y-81851748D01*
X143703656Y-82054299D01*
X143876989Y-82219542D01*
X144086060Y-82339622D01*
X144323015Y-82406684D01*
X144475305Y-82418207D01*
X229603334Y-30078203D02*
X229603334Y-39635207D01*
X100035984Y-84128547D02*
X101168716Y-84105949D01*
X102290076Y-84038722D01*
X103399221Y-83927719D01*
X104495307Y-83773791D01*
X105577491Y-83577788D01*
X106644928Y-83340562D01*
X107696775Y-83062966D01*
X108732189Y-82745849D01*
X109750326Y-82390064D01*
X110750343Y-81996461D01*
X111731395Y-81565893D01*
X112692640Y-81099211D01*
X113633234Y-80597265D01*
X114552333Y-80060908D01*
X115449094Y-79490991D01*
X116322672Y-78888365D01*
X117172226Y-78253882D01*
X117996910Y-77588392D01*
X118795881Y-76892748D01*
X119568296Y-76167801D01*
X120313312Y-75414402D01*
X121030084Y-74633402D01*
X121717769Y-73825654D01*
X122375523Y-72992008D01*
X123002504Y-72133315D01*
X123597867Y-71250428D01*
X124160768Y-70344197D01*
X124690365Y-69415474D01*
X125185813Y-68465110D01*
X125646270Y-67493958D01*
X126070891Y-66502867D01*
X126458833Y-65492690D01*
X274926712Y-29078203D02*
X253126424Y-29078203D01*
X100036111Y-38620213D02*
X100782298Y-38642499D01*
X101518690Y-38708642D01*
X102244376Y-38817565D01*
X102958443Y-38968192D01*
X103659982Y-39159447D01*
X104348081Y-39390253D01*
X105021829Y-39659534D01*
X105680314Y-39966214D01*
X106322626Y-40309218D01*
X106947854Y-40687468D01*
X107555087Y-41099888D01*
X108143413Y-41545403D01*
X108711921Y-42022936D01*
X109259701Y-42531411D01*
X109785841Y-43069752D01*
X110289431Y-43636883D01*
X110769558Y-44231727D01*
X111225312Y-44853208D01*
X111655782Y-45500250D01*
X112060057Y-46171777D01*
X112437226Y-46866713D01*
X112786377Y-47583981D01*
X113106600Y-48322506D01*
X113396983Y-49081211D01*
X113656616Y-49859020D01*
X113884587Y-50654857D01*
X114079985Y-51467645D01*
X114241899Y-52296308D01*
X114369418Y-53139771D01*
X114461632Y-53996957D01*
X114517628Y-54866790D01*
X114536496Y-55748194D01*
X246239894Y-65492690D02*
X246239894Y-81418207D01*
X25737975Y-29078203D02*
X25536440Y-29098519D01*
X25304433Y-29176813D01*
X25101882Y-29306554D01*
X24936639Y-29479886D01*
X24816559Y-29688957D01*
X24749497Y-29925912D01*
X24737975Y-30078203D01*
X157732402Y-81418207D02*
X157732402Y-65492690D01*
X174665214Y-65492690D02*
X175052450Y-66504306D01*
X175476452Y-67496828D01*
X175936372Y-68469400D01*
X176431367Y-69421169D01*
X176960590Y-70351281D01*
X177523196Y-71258883D01*
X178118338Y-72143120D01*
X178745172Y-73003138D01*
X179402851Y-73838085D01*
X180090531Y-74647106D01*
X180807365Y-75429347D01*
X181552508Y-76183954D01*
X182325115Y-76910074D01*
X183124339Y-77606853D01*
X183949335Y-78273438D01*
X184799258Y-78908973D01*
X185673262Y-79512606D01*
X186570501Y-80083483D01*
X187490130Y-80620749D01*
X188431302Y-81123552D01*
X189393173Y-81591037D01*
X190374897Y-82022351D01*
X191375629Y-82416639D01*
X192394522Y-82773048D01*
X193430731Y-83090724D01*
X194483410Y-83368814D01*
X195551714Y-83606463D01*
X196634797Y-83802817D01*
X197731814Y-83957024D01*
X198841919Y-84068228D01*
X199964266Y-84135577D01*
X201098011Y-84158217D01*
X71061332Y-30078203D02*
X71041015Y-29876668D01*
X70962721Y-29644661D01*
X70832980Y-29442110D01*
X70659647Y-29276867D01*
X70450576Y-29156787D01*
X70213621Y-29089725D01*
X70061332Y-29078203D01*
X252765012Y-82418207D02*
X258290131Y-82418207D01*
X295316051Y-42865734D02*
X301836347Y-60512740D01*
X70061332Y-40635228D02*
X70262866Y-40614911D01*
X70494873Y-40536617D01*
X70697424Y-40406876D01*
X70862667Y-40233544D01*
X70982746Y-40024473D01*
X71049809Y-39787518D01*
X71061332Y-39635228D01*
X41374535Y-81418207D02*
X41394851Y-81619741D01*
X41473145Y-81851748D01*
X41602886Y-82054299D01*
X41776218Y-82219542D01*
X41985289Y-82339622D01*
X42222244Y-82406684D01*
X42374535Y-82418207D01*
X274926712Y-40635207D02*
X275128246Y-40614890D01*
X275360253Y-40536596D01*
X275562804Y-40406855D01*
X275728047Y-40233522D01*
X275848127Y-40024451D01*
X275915189Y-39787496D01*
X275926712Y-39635207D01*
X284773136Y-71152831D02*
X295315925Y-71152831D01*
X287851348Y-29078203D02*
X287626663Y-29103719D01*
X287417610Y-29177142D01*
X287231112Y-29293780D01*
X287074089Y-29448943D01*
X286953461Y-29637942D01*
X286922537Y-29707650D01*
X259290131Y-40635207D02*
X274926712Y-40635207D01*
X123077131Y-30618020D02*
X132615934Y-45492705D01*
X246239894Y-45492705D02*
X227310364Y-45492705D01*
X201098138Y-38649884D02*
X201844325Y-38672170D01*
X202580717Y-38738313D01*
X203306403Y-38847236D01*
X204020470Y-38997863D01*
X204722009Y-39189118D01*
X205410108Y-39419924D01*
X206083855Y-39689205D01*
X206742341Y-39995885D01*
X207384653Y-40338889D01*
X208009881Y-40717139D01*
X208617113Y-41129559D01*
X209205440Y-41575074D01*
X209773948Y-42052607D01*
X210321728Y-42561082D01*
X210847868Y-43099423D01*
X211351457Y-43666554D01*
X211831584Y-44261398D01*
X212287339Y-44882879D01*
X212717809Y-45529921D01*
X213122084Y-46201448D01*
X213499253Y-46896384D01*
X213848404Y-47613652D01*
X214168627Y-48352177D01*
X214459010Y-49110882D01*
X214718643Y-49888691D01*
X214946614Y-50684528D01*
X215142012Y-51497316D01*
X215303926Y-52325979D01*
X215431445Y-53169442D01*
X215523659Y-54026628D01*
X215579655Y-54896461D01*
X215598523Y-55777865D01*
X301836347Y-60512740D02*
X295316051Y-60512740D01*
X178130577Y-30618020D02*
X178227250Y-30426219D01*
X178279138Y-30228767D01*
X178283718Y-29965962D01*
X178220821Y-29715319D01*
X178097387Y-29489529D01*
X177920352Y-29301282D01*
X177696655Y-29163270D01*
X177502434Y-29100362D01*
X177288794Y-29078203D01*
X177288794Y-29078203D02*
X163595533Y-29078203D01*
X100036111Y-72876154D02*
X99289923Y-72853867D01*
X98553531Y-72787724D01*
X97827845Y-72678801D01*
X97113778Y-72528175D01*
X96412239Y-72336921D01*
X95724140Y-72106115D01*
X95050392Y-71836835D01*
X94391907Y-71530155D01*
X93749594Y-71187153D01*
X93124366Y-70808903D01*
X92517134Y-70396484D01*
X91928808Y-69950970D01*
X91360299Y-69473438D01*
X90812519Y-68964964D01*
X90286379Y-68426624D01*
X89782790Y-67859494D01*
X89302663Y-67264651D01*
X88846908Y-66643171D01*
X88416438Y-65996130D01*
X88012163Y-65324604D01*
X87634995Y-64629669D01*
X87285843Y-63912401D01*
X86965620Y-63173877D01*
X86675237Y-62415173D01*
X86415604Y-61637365D01*
X86187633Y-60841529D01*
X85992235Y-60028741D01*
X85830321Y-59200078D01*
X85702802Y-58356615D01*
X85610588Y-57499430D01*
X85554592Y-56629597D01*
X85535725Y-55748194D01*
X280167944Y-82418207D02*
X280401574Y-82390598D01*
X280617664Y-82311403D01*
X280808567Y-82186071D01*
X280966637Y-82020048D01*
X281084227Y-81818784D01*
X281113107Y-81744806D01*
X41374535Y-65492690D02*
X41374535Y-81418207D01*
X156732402Y-82418207D02*
X156933936Y-82397890D01*
X157165943Y-82319596D01*
X157368494Y-82189855D01*
X157533737Y-82016523D01*
X157653817Y-81807452D01*
X157720879Y-81570497D01*
X157732402Y-81418207D01*
X201098138Y-72905825D02*
X200351950Y-72883538D01*
X199615558Y-72817395D01*
X198889872Y-72708472D01*
X198175805Y-72557846D01*
X197474266Y-72366592D01*
X196786167Y-72135786D01*
X196112419Y-71866506D01*
X195453934Y-71559826D01*
X194811621Y-71216824D01*
X194186393Y-70838574D01*
X193579161Y-70426155D01*
X192990835Y-69980641D01*
X192422326Y-69503109D01*
X191874546Y-68994635D01*
X191348406Y-68456295D01*
X190844817Y-67889165D01*
X190364690Y-67294322D01*
X189908935Y-66672842D01*
X189478465Y-66025801D01*
X189074190Y-65354275D01*
X188697022Y-64659340D01*
X188347870Y-63942072D01*
X188027647Y-63203548D01*
X187737264Y-62444844D01*
X187477631Y-61667036D01*
X187249660Y-60871200D01*
X187054262Y-60058412D01*
X186892348Y-59229749D01*
X186764829Y-58386286D01*
X186672615Y-57529101D01*
X186616619Y-56659268D01*
X186597752Y-55777865D01*
X288795735Y-60512740D02*
X295316051Y-42865734D01*
X73613135Y-65492690D02*
X74001076Y-66502867D01*
X74425697Y-67493958D01*
X74886154Y-68465110D01*
X75381602Y-69415474D01*
X75911199Y-70344197D01*
X76474100Y-71250428D01*
X77069463Y-72133315D01*
X77696444Y-72992008D01*
X78354198Y-73825654D01*
X79041883Y-74633402D01*
X79758655Y-75414402D01*
X80503671Y-76167801D01*
X81276086Y-76892748D01*
X82075057Y-77588392D01*
X82899741Y-78253882D01*
X83749295Y-78888365D01*
X84622873Y-79490991D01*
X85519634Y-80060908D01*
X86438733Y-80597265D01*
X87379327Y-81099211D01*
X88340572Y-81565893D01*
X89321624Y-81996461D01*
X90321641Y-82390064D01*
X91339778Y-82745849D01*
X92375192Y-83062966D01*
X93427039Y-83340562D01*
X94494476Y-83577788D01*
X95576660Y-83773791D01*
X96672746Y-83927719D01*
X97781891Y-84038722D01*
X98903251Y-84105949D01*
X100035984Y-84128547D01*
X227310364Y-45492705D02*
X226909793Y-44509257D01*
X226474226Y-43544669D01*
X226004461Y-42599752D01*
X225501298Y-41675316D01*
X224965535Y-40772171D01*
X224397973Y-39891129D01*
X223799410Y-39033000D01*
X223170646Y-38198594D01*
X222512479Y-37388723D01*
X221825710Y-36604196D01*
X221111137Y-35845824D01*
X220369560Y-35114419D01*
X219601778Y-34410790D01*
X218808590Y-33735748D01*
X217990796Y-33090104D01*
X217149195Y-32474669D01*
X216284586Y-31890252D01*
X215397768Y-31337665D01*
X214489541Y-30817718D01*
X213560704Y-30331222D01*
X212612056Y-29878987D01*
X211644396Y-29461824D01*
X210658525Y-29080544D01*
X209655240Y-28735957D01*
X208635342Y-28428874D01*
X207599629Y-28160106D01*
X206548901Y-27930462D01*
X205483958Y-27740754D01*
X204405598Y-27591793D01*
X203314620Y-27484388D01*
X202211825Y-27419351D01*
X201098011Y-27397492D01*
X41374535Y-45492705D02*
X41374535Y-65492690D01*
X123918914Y-29078203D02*
X123705273Y-29100362D01*
X123511052Y-29163270D01*
X123287355Y-29301282D01*
X123110320Y-29489529D01*
X122986886Y-29715319D01*
X122923989Y-29965962D01*
X122928569Y-30228767D01*
X122980457Y-30426219D01*
X123077131Y-30618020D01*
X70061332Y-29078203D02*
X48261065Y-29078203D01*
X150603854Y-82418207D02*
X156732402Y-82418207D01*
X317985902Y-65492690D02*
X317983168Y-65485843D01*
X47899653Y-82418207D02*
X53424772Y-82418207D01*
X53424772Y-82418207D02*
X53626306Y-82397890D01*
X53858313Y-82319596D01*
X54060864Y-82189855D01*
X54226107Y-82016523D01*
X54346186Y-81807452D01*
X54413249Y-81570497D01*
X54424772Y-81418207D01*
X126259922Y-45492705D02*
X125860022Y-44507793D01*
X125425036Y-43541753D01*
X124955765Y-42595398D01*
X124453011Y-41669541D01*
X123917574Y-40764995D01*
X123350258Y-39882572D01*
X122751862Y-39023086D01*
X122123189Y-38187349D01*
X121465041Y-37376173D01*
X120778218Y-36590373D01*
X120063523Y-35830761D01*
X119321758Y-35098149D01*
X118553722Y-34393351D01*
X117760220Y-33717179D01*
X116942051Y-33070446D01*
X116100017Y-32453965D01*
X115234920Y-31868550D01*
X114347562Y-31315012D01*
X113438744Y-30794164D01*
X112509268Y-30306820D01*
X111559935Y-29853792D01*
X110591548Y-29435894D01*
X109604906Y-29053938D01*
X108600813Y-28708736D01*
X107580069Y-28401102D01*
X106543476Y-28131849D01*
X105491836Y-27901789D01*
X104425951Y-27711736D01*
X103346621Y-27562501D01*
X102254649Y-27454899D01*
X101150836Y-27389741D01*
X100035984Y-27367842D01*
X302780502Y-29078203D02*
X295315925Y-29078203D01*
X85535725Y-55748194D02*
X85554592Y-54866790D01*
X85610588Y-53996957D01*
X85702802Y-53139771D01*
X85830321Y-52296308D01*
X85992235Y-51467645D01*
X86187633Y-50654857D01*
X86415604Y-49859020D01*
X86675237Y-49081211D01*
X86965620Y-48322506D01*
X87285843Y-47583981D01*
X87634995Y-46866713D01*
X88012163Y-46171777D01*
X88416438Y-45500250D01*
X88846908Y-44853208D01*
X89302663Y-44231727D01*
X89782790Y-43636883D01*
X90286379Y-43069752D01*
X90812519Y-42531411D01*
X91360299Y-42022936D01*
X91928808Y-41545403D01*
X92517134Y-41099888D01*
X93124366Y-40687468D01*
X93749594Y-40309218D01*
X94391907Y-39966214D01*
X95050392Y-39659534D01*
X95724140Y-39390253D01*
X96412239Y-39159447D01*
X97113778Y-38968192D01*
X97827845Y-38817565D01*
X98553531Y-38708642D01*
X99289923Y-38642499D01*
X100036111Y-38620213D01*
X295316051Y-60512740D02*
X288795735Y-60512740D01*
X54424772Y-81418207D02*
X54424772Y-65492690D01*
X252403600Y-29078203D02*
X230603334Y-29078203D01*
M02*
