M48
; DRILL file {KiCad (6.0.0)} date Sat May 14 17:25:07 2022
; FORMAT={-:-/ absolute / metric / decimal}
; #@! TF.CreationDate,2022-05-14T17:25:07-07:00
; #@! TF.GenerationSoftware,Kicad,Pcbnew,(6.0.0)
; #@! TF.FileFunction,Plated,1,2,PTH
FMAT,2
METRIC
; #@! TA.AperFunction,Plated,PTH,ViaDrill
T1C0.400
; #@! TA.AperFunction,Plated,PTH,ComponentDrill
T2C0.600
; #@! TA.AperFunction,Plated,PTH,ComponentDrill
T3C0.750
; #@! TA.AperFunction,Plated,PTH,ComponentDrill
T4C0.800
; #@! TA.AperFunction,Plated,PTH,ComponentDrill
T5C1.000
; #@! TA.AperFunction,Plated,PTH,ComponentDrill
T6C1.100
; #@! TA.AperFunction,Plated,PTH,ComponentDrill
T7C1.300
; #@! TA.AperFunction,Plated,PTH,ComponentDrill
T8C1.600
%
G90
G05
T1
X39.96Y-100.293
X45.66Y-102.693
X45.66Y-103.843
X48.46Y-100.293
X52.66Y-101.593
X54.06Y-101.593
X56.96Y-126.793
X56.96Y-127.793
X57.46Y-143.793
X58.96Y-143.793
X67.46Y-97.793
X68.96Y-97.793
X73.46Y-135.293
X73.96Y-133.793
X80.96Y-141.293
X80.96Y-142.793
X84.96Y-98.293
X85.26Y-133.493
X85.26Y-134.493
X85.96Y-98.293
X90.96Y-130.793
X91.71Y-131.543
X95.96Y-126.043
X96.21Y-111.293
X96.71Y-125.293
X97.21Y-111.293
X101.21Y-128.793
X101.21Y-129.793
X103.96Y-100.793
X105.46Y-100.293
X105.96Y-144.043
X108.46Y-144.043
X118.96Y-104.293
X119.71Y-102.293
X119.96Y-100.293
X119.96Y-111.043
X120.905Y-98.438
X120.96Y-93.793
X121.46Y-110.793
X127.21Y-116.293
X127.21Y-118.793
X127.96Y-101.293
X127.96Y-103.793
X127.96Y-106.293
X127.96Y-108.793
X127.96Y-111.293
X127.96Y-113.793
X127.96Y-121.293
X130.21Y-131.293
X132.96Y-130.793
X133.46Y-133.543
X133.71Y-97.793
X134.71Y-97.793
X135.96Y-96.793
X136.96Y-93.293
X137.859Y-98.236
X138.71Y-99.043
X141.41Y-137.493
X144.71Y-116.043
X145.235Y-126.268
X146.11Y-125.393
X146.81Y-132.743
X146.96Y-109.293
X147.96Y-107.293
X147.96Y-132.643
X148.46Y-94.293
X148.46Y-95.793
X148.46Y-97.293
X148.46Y-99.793
X148.46Y-102.293
X148.46Y-104.793
X150.96Y-116.293
X151.46Y-92.293
X151.46Y-94.793
X151.46Y-97.293
X151.46Y-99.793
X151.46Y-102.293
X151.46Y-104.793
X151.46Y-109.293
X151.46Y-140.793
X151.48Y-107.273
X151.71Y-131.043
X154.36Y-138.093
X163.96Y-93.453
X163.96Y-96.453
X163.96Y-99.453
X163.96Y-102.453
X163.96Y-105.453
X163.96Y-108.453
X167.41Y-106.943
X177.96Y-143.793
X178.46Y-119.293
X178.979Y-143.773
X179.96Y-143.793
X180.46Y-142.293
X188.96Y-108.793
X188.96Y-113.293
X190.96Y-113.293
X192.46Y-108.793
X192.46Y-113.293
X192.46Y-114.793
X192.46Y-116.293
X192.46Y-117.793
X192.46Y-119.293
X192.46Y-120.793
X192.46Y-122.293
X192.46Y-123.793
X192.46Y-125.293
X192.46Y-126.793
X193.96Y-108.793
X193.96Y-110.293
X193.96Y-111.793
X193.96Y-117.793
X193.96Y-119.293
X193.96Y-120.793
X193.96Y-122.293
X193.96Y-126.793
X195.46Y-92.293
X195.46Y-93.793
X195.46Y-95.293
X195.46Y-96.793
X195.46Y-111.793
X195.46Y-117.793
X195.46Y-122.293
X196.956Y-92.287
X196.96Y-93.793
X196.96Y-95.293
X196.96Y-96.793
X196.96Y-111.793
X196.96Y-113.293
X196.96Y-114.793
X196.96Y-116.293
X196.96Y-117.793
X196.96Y-122.293
X196.96Y-126.793
X198.482Y-96.792
X199.56Y-121.493
X199.61Y-119.193
X199.76Y-116.443
X199.96Y-96.793
X200.26Y-117.793
X201.26Y-121.793
X201.315Y-116.29
X201.46Y-96.793
X201.86Y-117.593
X202.397Y-115.436
X202.96Y-96.793
X203.46Y-111.793
X203.46Y-117.793
X203.46Y-120.793
X203.96Y-113.293
X203.96Y-114.793
X203.96Y-116.293
X203.96Y-122.293
X203.96Y-123.793
X203.96Y-125.293
X203.96Y-126.793
X203.96Y-128.293
X203.96Y-131.293
X203.96Y-132.793
X203.96Y-134.293
X203.96Y-135.793
X203.96Y-137.293
X203.96Y-138.793
X203.96Y-140.293
X203.96Y-141.793
X203.96Y-143.293
X204.46Y-96.793
X205.46Y-113.293
X205.46Y-114.793
X205.46Y-116.293
X205.46Y-119.293
X205.46Y-122.293
X205.46Y-123.793
X205.46Y-125.293
X205.46Y-126.793
X205.46Y-128.293
X205.46Y-131.293
X205.46Y-132.793
X205.46Y-134.293
X205.46Y-135.793
X205.46Y-137.293
X205.46Y-138.793
X205.46Y-140.293
X205.46Y-141.793
X205.46Y-143.293
X205.96Y-96.793
X206.96Y-123.793
X206.96Y-131.293
X206.96Y-132.793
X206.96Y-141.793
X206.96Y-143.293
X207.46Y-96.793
X208.46Y-123.793
X208.46Y-133.293
X208.96Y-92.293
X208.96Y-96.793
X209.96Y-110.793
X209.96Y-123.793
X209.96Y-133.293
X210.46Y-92.293
X210.46Y-96.793
X211.46Y-110.793
X211.46Y-123.793
X211.46Y-125.293
X211.46Y-126.793
X211.46Y-128.293
X211.96Y-92.293
X211.96Y-96.793
X212.96Y-110.793
X212.96Y-112.293
X212.96Y-113.793
X212.96Y-115.293
X212.96Y-116.793
X212.96Y-118.293
X212.96Y-119.793
X212.96Y-121.293
X212.96Y-123.793
X212.96Y-125.293
X212.96Y-126.793
X212.96Y-128.293
X212.96Y-129.793
X212.96Y-131.293
X212.96Y-132.793
X212.96Y-134.293
X212.96Y-135.793
X212.96Y-137.293
X212.96Y-138.793
X212.96Y-140.293
X212.96Y-141.793
X212.96Y-143.293
X213.46Y-92.293
X213.46Y-96.793
X214.46Y-110.793
X214.46Y-112.293
X214.46Y-113.793
X214.46Y-115.293
X214.46Y-116.793
X214.46Y-118.293
X214.46Y-119.793
X214.46Y-121.293
X214.46Y-123.793
X214.46Y-125.293
X214.46Y-126.793
X214.46Y-128.293
X214.46Y-129.793
X214.46Y-131.293
X214.46Y-132.793
X214.46Y-134.293
X214.46Y-135.793
X214.46Y-137.293
X214.46Y-138.793
X214.46Y-140.293
X214.46Y-141.793
X214.46Y-143.293
X214.96Y-92.293
X214.96Y-96.793
X215.96Y-110.793
X215.96Y-112.293
X215.96Y-113.793
X215.96Y-115.293
X215.96Y-116.793
X215.96Y-118.293
X215.96Y-119.793
X215.96Y-121.293
X215.96Y-123.793
X215.96Y-125.293
X215.96Y-126.793
X215.96Y-128.293
X215.96Y-129.793
X215.96Y-131.293
X215.96Y-132.793
X215.96Y-134.293
X215.96Y-135.793
X215.96Y-137.293
X215.96Y-138.793
X215.96Y-140.293
X215.96Y-141.793
X215.96Y-143.293
T2
X181.46Y-133.293
X182.96Y-133.293
T3
X188.19Y-119.293
X188.19Y-123.793
X189.46Y-119.293
X189.46Y-123.793
X190.73Y-119.293
X190.73Y-123.793
T4
X35.96Y-108.793
X35.96Y-147.793
X52.96Y-108.793
X52.96Y-147.793
X57.96Y-108.793
X57.96Y-147.793
X74.96Y-108.793
X74.96Y-147.793
X79.96Y-108.793
X79.96Y-147.793
X96.96Y-108.793
X96.96Y-147.793
X101.96Y-108.793
X101.96Y-147.793
X118.96Y-108.793
X118.96Y-147.793
X123.355Y-92.193
X123.355Y-94.733
X123.355Y-97.273
X123.355Y-99.813
X123.355Y-102.353
X123.355Y-104.893
X123.355Y-107.433
X123.355Y-109.973
X123.355Y-112.513
X123.355Y-115.053
X123.355Y-117.593
X123.355Y-120.133
X123.355Y-122.673
X123.355Y-125.213
X123.355Y-127.753
X123.355Y-130.293
X125.895Y-92.193
X125.895Y-94.733
X125.895Y-97.273
X125.895Y-99.813
X125.895Y-102.353
X125.895Y-104.893
X125.895Y-107.433
X125.895Y-109.973
X125.895Y-112.513
X125.895Y-115.053
X125.895Y-117.593
X125.895Y-120.133
X125.895Y-122.673
X125.895Y-125.213
X125.895Y-127.753
X125.895Y-130.293
X128.435Y-92.193
X128.435Y-94.733
X130.975Y-92.193
X130.975Y-94.733
X133.515Y-92.193
X133.515Y-94.733
X134.84Y-99.878
X134.84Y-102.418
X134.84Y-104.958
X134.84Y-107.498
X134.84Y-110.038
X134.84Y-112.578
X134.84Y-115.118
X134.84Y-117.658
X134.84Y-120.198
X134.84Y-122.738
X141.135Y-92.193
X141.135Y-94.733
X142.46Y-99.878
X142.46Y-102.418
X142.46Y-104.958
X142.46Y-107.498
X142.46Y-110.038
X142.46Y-112.578
X142.46Y-115.118
X142.46Y-117.658
X142.46Y-120.198
X142.46Y-122.738
X143.675Y-92.193
X143.675Y-94.733
X146.215Y-92.193
X146.215Y-94.733
X156.375Y-92.193
X156.375Y-94.733
X156.375Y-97.273
X156.375Y-99.813
X156.375Y-102.353
X156.375Y-104.893
X156.375Y-107.433
X156.375Y-109.973
X156.375Y-112.513
X156.375Y-115.053
X156.375Y-117.593
X156.375Y-120.133
X156.375Y-122.673
X156.375Y-125.213
X156.375Y-127.753
X156.375Y-130.293
X156.375Y-132.833
X156.375Y-135.373
X156.375Y-137.913
X156.375Y-140.453
X156.375Y-142.993
X158.915Y-92.193
X158.915Y-94.733
X158.915Y-97.273
X158.915Y-99.813
X158.915Y-102.353
X158.915Y-104.893
X158.915Y-107.433
X158.915Y-109.973
X158.915Y-112.513
X158.915Y-115.053
X158.915Y-117.593
X158.915Y-120.133
X158.915Y-122.673
X158.915Y-125.213
X158.915Y-127.753
X158.915Y-130.293
X158.915Y-132.833
X158.915Y-135.373
X158.915Y-137.913
X158.915Y-140.453
X158.915Y-142.993
X186.46Y-137.293
X186.46Y-146.293
X188.46Y-129.793
X189.96Y-137.293
X189.96Y-146.293
X190.46Y-129.793
T5
X137.255Y-129.143
X137.255Y-131.683
X139.795Y-129.143
X139.795Y-131.683
X142.335Y-129.143
X142.335Y-131.683
X196.46Y-119.793
X201.46Y-119.793
T6
X146.92Y-143.023
X149.46Y-143.023
X152.0Y-143.023
X162.46Y-111.953
X162.46Y-122.113
X162.46Y-125.293
X162.46Y-135.453
X162.46Y-138.293
X162.46Y-148.453
X165.96Y-111.933
X165.96Y-122.093
X165.96Y-125.293
X165.96Y-135.453
X165.96Y-138.293
X165.96Y-148.453
X180.96Y-92.793
X180.96Y-102.953
X180.96Y-105.793
X180.96Y-115.953
X180.96Y-119.133
X180.96Y-129.293
X181.96Y-137.713
X181.96Y-147.873
X184.46Y-119.133
X184.46Y-129.293
X184.88Y-114.793
X185.46Y-110.793
X190.54Y-110.793
X195.04Y-114.793
X195.48Y-124.793
X200.56Y-124.793
T7
X37.46Y-97.798
X37.46Y-128.988
X42.46Y-97.798
X42.46Y-128.988
X47.46Y-97.798
X47.46Y-128.988
X54.375Y-97.793
X54.46Y-128.988
X59.455Y-97.793
X59.46Y-128.988
X64.46Y-128.988
X64.535Y-97.793
X71.375Y-97.793
X71.46Y-128.988
X76.455Y-97.793
X76.46Y-128.988
X81.46Y-128.988
X81.535Y-97.793
X88.375Y-97.793
X88.46Y-128.993
X93.455Y-97.793
X93.46Y-128.993
X98.46Y-128.993
X98.535Y-97.793
X105.38Y-97.793
X105.41Y-128.993
X110.41Y-128.993
X110.46Y-97.793
X115.41Y-128.993
X115.54Y-97.793
X129.96Y-141.988
X134.96Y-141.988
X139.96Y-141.988
X173.96Y-94.293
X173.96Y-99.293
X173.96Y-105.293
X173.96Y-110.293
X173.96Y-116.293
X173.96Y-121.293
X173.96Y-127.293
X173.96Y-132.293
X173.96Y-138.293
X173.96Y-143.293
X209.06Y-115.293
X209.06Y-120.293
X209.06Y-126.293
X209.06Y-131.293
X209.06Y-137.293
X209.06Y-142.293
T8
X200.46Y-93.293
X200.46Y-113.293
T4
X210.365Y-94.088G85X210.365Y-95.288
G05
X210.365Y-107.588G85X210.365Y-108.588
G05
X214.365Y-94.088G85X214.365Y-95.288
G05
X214.365Y-107.488G85X214.365Y-108.688
G05
T0
M30
