%TF.GenerationSoftware,KiCad,Pcbnew,(6.0.0)*%
%TF.CreationDate,2022-05-14T17:25:00-07:00*%
%TF.ProjectId,Stencil,5374656e-6369-46c2-9e6b-696361645f70,rev?*%
%TF.SameCoordinates,Original*%
%TF.FileFunction,Copper,L2,Bot*%
%TF.FilePolarity,Positive*%
%FSLAX46Y46*%
G04 Gerber Fmt 4.6, Leading zero omitted, Abs format (unit mm)*
G04 Created by KiCad (PCBNEW (6.0.0)) date 2022-05-14 17:25:00*
%MOMM*%
%LPD*%
G01*
G04 APERTURE LIST*
G04 Aperture macros list*
%AMRoundRect*
0 Rectangle with rounded corners*
0 $1 Rounding radius*
0 $2 $3 $4 $5 $6 $7 $8 $9 X,Y pos of 4 corners*
0 Add a 4 corners polygon primitive as box body*
4,1,4,$2,$3,$4,$5,$6,$7,$8,$9,$2,$3,0*
0 Add four circle primitives for the rounded corners*
1,1,$1+$1,$2,$3*
1,1,$1+$1,$4,$5*
1,1,$1+$1,$6,$7*
1,1,$1+$1,$8,$9*
0 Add four rect primitives between the rounded corners*
20,1,$1+$1,$2,$3,$4,$5,0*
20,1,$1+$1,$4,$5,$6,$7,0*
20,1,$1+$1,$6,$7,$8,$9,0*
20,1,$1+$1,$8,$9,$2,$3,0*%
G04 Aperture macros list end*
%TA.AperFunction,SMDPad,CuDef*%
%ADD10RoundRect,0.250000X0.312500X0.625000X-0.312500X0.625000X-0.312500X-0.625000X0.312500X-0.625000X0*%
%TD*%
%TA.AperFunction,SMDPad,CuDef*%
%ADD11RoundRect,0.250000X0.625000X-0.312500X0.625000X0.312500X-0.625000X0.312500X-0.625000X-0.312500X0*%
%TD*%
%TA.AperFunction,SMDPad,CuDef*%
%ADD12RoundRect,0.250000X-0.312500X-0.625000X0.312500X-0.625000X0.312500X0.625000X-0.312500X0.625000X0*%
%TD*%
%TA.AperFunction,ComponentPad*%
%ADD13R,2.600000X2.600000*%
%TD*%
%TA.AperFunction,ComponentPad*%
%ADD14C,2.600000*%
%TD*%
%TA.AperFunction,SMDPad,CuDef*%
%ADD15RoundRect,0.250000X-0.625000X0.312500X-0.625000X-0.312500X0.625000X-0.312500X0.625000X0.312500X0*%
%TD*%
%TA.AperFunction,SMDPad,CuDef*%
%ADD16R,2.200000X1.200000*%
%TD*%
%TA.AperFunction,SMDPad,CuDef*%
%ADD17R,6.400000X5.800000*%
%TD*%
%TA.AperFunction,ComponentPad*%
%ADD18R,3.000000X3.000000*%
%TD*%
%TA.AperFunction,ComponentPad*%
%ADD19O,3.000000X3.000000*%
%TD*%
%TA.AperFunction,SMDPad,CuDef*%
%ADD20R,1.200000X2.200000*%
%TD*%
%TA.AperFunction,SMDPad,CuDef*%
%ADD21R,5.800000X6.400000*%
%TD*%
%TA.AperFunction,SMDPad,CuDef*%
%ADD22RoundRect,0.150000X0.587500X0.150000X-0.587500X0.150000X-0.587500X-0.150000X0.587500X-0.150000X0*%
%TD*%
%TA.AperFunction,ComponentPad*%
%ADD23R,2.200000X2.200000*%
%TD*%
%TA.AperFunction,ComponentPad*%
%ADD24O,2.200000X2.200000*%
%TD*%
%TA.AperFunction,ComponentPad*%
%ADD25C,2.500000*%
%TD*%
%TA.AperFunction,ComponentPad*%
%ADD26R,1.905000X2.000000*%
%TD*%
%TA.AperFunction,ComponentPad*%
%ADD27O,1.905000X2.000000*%
%TD*%
%TA.AperFunction,ComponentPad*%
%ADD28C,1.676400*%
%TD*%
%TA.AperFunction,ComponentPad*%
%ADD29R,3.200000X3.200000*%
%TD*%
%TA.AperFunction,ComponentPad*%
%ADD30O,3.200000X3.200000*%
%TD*%
%TA.AperFunction,ComponentPad*%
%ADD31C,1.600000*%
%TD*%
%TA.AperFunction,SMDPad,CuDef*%
%ADD32RoundRect,0.150000X-0.587500X-0.150000X0.587500X-0.150000X0.587500X0.150000X-0.587500X0.150000X0*%
%TD*%
%TA.AperFunction,SMDPad,CuDef*%
%ADD33RoundRect,0.150000X0.150000X-0.587500X0.150000X0.587500X-0.150000X0.587500X-0.150000X-0.587500X0*%
%TD*%
%TA.AperFunction,ComponentPad*%
%ADD34R,1.600000X1.600000*%
%TD*%
%TA.AperFunction,ComponentPad*%
%ADD35O,1.600000X1.600000*%
%TD*%
%TA.AperFunction,ComponentPad*%
%ADD36R,1.050000X1.500000*%
%TD*%
%TA.AperFunction,ComponentPad*%
%ADD37O,1.050000X1.500000*%
%TD*%
%TA.AperFunction,ComponentPad*%
%ADD38C,1.200000*%
%TD*%
%TA.AperFunction,ComponentPad*%
%ADD39R,1.700000X1.700000*%
%TD*%
%TA.AperFunction,ComponentPad*%
%ADD40O,1.700000X1.700000*%
%TD*%
%TA.AperFunction,ComponentPad*%
%ADD41R,2.000000X2.500000*%
%TD*%
%TA.AperFunction,ComponentPad*%
%ADD42C,2.000000*%
%TD*%
%TA.AperFunction,ViaPad*%
%ADD43C,0.800000*%
%TD*%
%TA.AperFunction,Conductor*%
%ADD44C,0.300000*%
%TD*%
%TA.AperFunction,Conductor*%
%ADD45C,0.508000*%
%TD*%
%TA.AperFunction,Conductor*%
%ADD46C,0.254000*%
%TD*%
%TA.AperFunction,Conductor*%
%ADD47C,1.000000*%
%TD*%
%TA.AperFunction,Conductor*%
%ADD48C,0.762000*%
%TD*%
%TA.AperFunction,Conductor*%
%ADD49C,1.500000*%
%TD*%
%TA.AperFunction,Conductor*%
%ADD50C,2.000000*%
%TD*%
G04 APERTURE END LIST*
D10*
%TO.P,R107,1*%
%TO.N,N/C*%
X165385000Y-99452976D03*
%TO.P,R107,2*%
X162460000Y-99452976D03*
%TD*%
D11*
%TO.P,R122,1*%
%TO.N,N/C*%
X99730000Y-105985476D03*
%TO.P,R122,2*%
X99730000Y-103060476D03*
%TD*%
D12*
%TO.P,R132,1*%
%TO.N,N/C*%
X163017500Y-130812976D03*
%TO.P,R132,2*%
X165942500Y-130812976D03*
%TD*%
%TO.P,R114,1*%
%TO.N,N/C*%
X95517500Y-113012976D03*
%TO.P,R114,2*%
X98442500Y-113012976D03*
%TD*%
D13*
%TO.P,J27,1,Pin_1*%
%TO.N,N/C*%
X173960000Y-127292976D03*
D14*
%TO.P,J27,2,Pin_2*%
X173960000Y-132292976D03*
%TD*%
D12*
%TO.P,R163,1*%
%TO.N,N/C*%
X129692500Y-107812976D03*
%TO.P,R163,2*%
X132617500Y-107812976D03*
%TD*%
D13*
%TO.P,J13,1,Pin_1*%
%TO.N,N/C*%
X71460000Y-128987976D03*
D14*
%TO.P,J13,2,Pin_2*%
X76460000Y-128987976D03*
%TO.P,J13,3,Pin_3*%
X81460000Y-128987976D03*
%TD*%
D15*
%TO.P,R121,1*%
%TO.N,N/C*%
X85940000Y-108350476D03*
%TO.P,R121,2*%
X85940000Y-111275476D03*
%TD*%
D13*
%TO.P,J16,1,Pin_1*%
%TO.N,N/C*%
X105410000Y-128992976D03*
D14*
%TO.P,J16,2,Pin_2*%
X110410000Y-128992976D03*
%TO.P,J16,3,Pin_3*%
X115410000Y-128992976D03*
%TD*%
D16*
%TO.P,Q11,1,G*%
%TO.N,N/C*%
X70160000Y-109512976D03*
D17*
%TO.P,Q11,2,D*%
X63860000Y-111792976D03*
D16*
%TO.P,Q11,3,S*%
X70160000Y-114072976D03*
%TD*%
%TO.P,Q7,1,G*%
%TO.N,N/C*%
X58235000Y-137512976D03*
D17*
%TO.P,Q7,2,D*%
X51935000Y-139792976D03*
D16*
%TO.P,Q7,3,S*%
X58235000Y-142072976D03*
%TD*%
D13*
%TO.P,J20,1,Pin_1*%
%TO.N,N/C*%
X71375000Y-97792976D03*
D14*
%TO.P,J20,2,Pin_2*%
X76455000Y-97792976D03*
%TO.P,J20,3,Pin_3*%
X81535000Y-97792976D03*
%TD*%
D12*
%TO.P,R161,1*%
%TO.N,N/C*%
X129692500Y-110312976D03*
%TO.P,R161,2*%
X132617500Y-110312976D03*
%TD*%
D11*
%TO.P,R145,1*%
%TO.N,N/C*%
X182480000Y-143235476D03*
%TO.P,R145,2*%
X182480000Y-140310476D03*
%TD*%
D12*
%TO.P,R109,1*%
%TO.N,N/C*%
X45535000Y-106792976D03*
%TO.P,R109,2*%
X48460000Y-106792976D03*
%TD*%
D10*
%TO.P,R99,1*%
%TO.N,N/C*%
X165385000Y-93452976D03*
%TO.P,R99,2*%
X162460000Y-93452976D03*
%TD*%
D12*
%TO.P,R150,1*%
%TO.N,N/C*%
X137192500Y-122812976D03*
%TO.P,R150,2*%
X140117500Y-122812976D03*
%TD*%
D18*
%TO.P,Q41,1,G*%
%TO.N,N/C*%
X185460000Y-110792976D03*
D19*
%TO.P,Q41,3,S*%
X190540000Y-110792976D03*
%TD*%
D10*
%TO.P,R102,1*%
%TO.N,N/C*%
X76202500Y-141772976D03*
%TO.P,R102,2*%
X73277500Y-141772976D03*
%TD*%
D16*
%TO.P,Q5,1,G*%
%TO.N,N/C*%
X43960000Y-138012976D03*
D17*
%TO.P,Q5,2,D*%
X37660000Y-140292976D03*
D16*
%TO.P,Q5,3,S*%
X43960000Y-142572976D03*
%TD*%
D20*
%TO.P,Q19,1,G*%
%TO.N,N/C*%
X100680000Y-112842976D03*
D21*
%TO.P,Q19,2,D*%
X102960000Y-119142976D03*
D20*
%TO.P,Q19,3,S*%
X105240000Y-112842976D03*
%TD*%
D12*
%TO.P,R164,1*%
%TO.N,N/C*%
X137192500Y-105312976D03*
%TO.P,R164,2*%
X140117500Y-105312976D03*
%TD*%
%TO.P,R156,1*%
%TO.N,N/C*%
X137135000Y-115292976D03*
%TO.P,R156,2*%
X140060000Y-115292976D03*
%TD*%
D13*
%TO.P,J22,1,Pin_1*%
%TO.N,N/C*%
X173960000Y-105292976D03*
D14*
%TO.P,J22,2,Pin_2*%
X173960000Y-110292976D03*
%TD*%
D22*
%TO.P,Q22,1,B*%
%TO.N,N/C*%
X93197500Y-111192976D03*
%TO.P,Q22,2,E*%
X93197500Y-113092976D03*
%TO.P,Q22,3,C*%
X91322500Y-112142976D03*
%TD*%
D23*
%TO.P,D194,1,K*%
%TO.N,N/C*%
X162460000Y-135452976D03*
D24*
%TO.P,D194,2,A*%
X162460000Y-125292976D03*
%TD*%
D25*
%TO.P,A4,1,Vin*%
%TO.N,N/C*%
X101960000Y-147792976D03*
%TO.P,A4,2,Vout*%
X101960000Y-108792976D03*
%TO.P,A4,3,GND*%
X118960000Y-147792976D03*
%TO.P,A4,4,GND*%
X118960000Y-108792976D03*
%TD*%
D26*
%TO.P,U2,1,IN*%
%TO.N,N/C*%
X146920000Y-143022976D03*
D27*
%TO.P,U2,2,GND*%
X149460000Y-143022976D03*
%TO.P,U2,3,OUT*%
X152000000Y-143022976D03*
%TD*%
D28*
%TO.P,U1,3V3_1,3V3*%
%TO.N,N/C*%
X158915000Y-135372976D03*
%TO.P,U1,3V3_2,3V3*%
X156375000Y-135372976D03*
%TO.P,U1,5V_1,5V*%
X158915000Y-137912976D03*
%TO.P,U1,5V_2,5V*%
X156375000Y-137912976D03*
%TO.P,U1,5V_3,5V*%
X141135000Y-92192976D03*
%TO.P,U1,A0,A0*%
X123355000Y-130292976D03*
%TO.P,U1,A1,A1*%
X125895000Y-130292976D03*
%TO.P,U1,A2,A2*%
X123355000Y-127752976D03*
%TO.P,U1,A3,A3*%
X125895000Y-127752976D03*
%TO.P,U1,A4,A4*%
X123355000Y-125212976D03*
%TO.P,U1,A5,A5*%
X125895000Y-125212976D03*
%TO.P,U1,A6,A6*%
X123355000Y-122672976D03*
%TO.P,U1,A7,A7*%
X125895000Y-122672976D03*
%TO.P,U1,A8,A8*%
X123355000Y-120132976D03*
%TO.P,U1,A9,A9*%
X125895000Y-120132976D03*
%TO.P,U1,A10,A10*%
X123355000Y-117592976D03*
%TO.P,U1,A11,A11*%
X125895000Y-117592976D03*
%TO.P,U1,A12,A12*%
X123355000Y-115052976D03*
%TO.P,U1,A13,A13*%
X125895000Y-115052976D03*
%TO.P,U1,A14,A14*%
X123355000Y-112512976D03*
%TO.P,U1,A15,A15*%
X125895000Y-112512976D03*
%TO.P,U1,AREF,AREF*%
X156375000Y-132832976D03*
%TO.P,U1,D2,D2*%
X156375000Y-127752976D03*
%TO.P,U1,D3,D3*%
X158915000Y-127752976D03*
%TO.P,U1,D4,D4*%
X156375000Y-125212976D03*
%TO.P,U1,D5,D5*%
X158915000Y-125212976D03*
%TO.P,U1,D6,D6*%
X156375000Y-122672976D03*
%TO.P,U1,D7,D7*%
X158915000Y-122672976D03*
%TO.P,U1,D8,D8*%
X156375000Y-120132976D03*
%TO.P,U1,D9,D9*%
X158915000Y-120132976D03*
%TO.P,U1,D10,D10*%
X156375000Y-117592976D03*
%TO.P,U1,D11,D11*%
X158915000Y-117592976D03*
%TO.P,U1,D12,D12*%
X156375000Y-115052976D03*
%TO.P,U1,D13,D13*%
X158915000Y-115052976D03*
%TO.P,U1,D14,D14*%
X156375000Y-112512976D03*
%TO.P,U1,D15,D15*%
X158915000Y-112512976D03*
%TO.P,U1,D16,D16*%
X156375000Y-109972976D03*
%TO.P,U1,D17,D17*%
X158915000Y-109972976D03*
%TO.P,U1,D18,D18*%
X156375000Y-107432976D03*
%TO.P,U1,D19,D19*%
X158915000Y-107432976D03*
%TO.P,U1,D20,D20*%
X156375000Y-104892976D03*
%TO.P,U1,D21,D21*%
X158915000Y-104892976D03*
%TO.P,U1,D22,D22*%
X156375000Y-102352976D03*
%TO.P,U1,D23,D23*%
X158915000Y-102352976D03*
%TO.P,U1,D24,D24*%
X156375000Y-99812976D03*
%TO.P,U1,D25,D25*%
X158915000Y-99812976D03*
%TO.P,U1,D26,D26*%
X156375000Y-97272976D03*
%TO.P,U1,D27,D27*%
X158915000Y-97272976D03*
%TO.P,U1,D28,D28*%
X156375000Y-94732976D03*
%TO.P,U1,D29,D29*%
X158915000Y-94732976D03*
%TO.P,U1,D30,D30*%
X156375000Y-92192976D03*
%TO.P,U1,D31,D31*%
X158915000Y-92192976D03*
%TO.P,U1,D32,D32*%
X123355000Y-109972976D03*
%TO.P,U1,D33,D33*%
X125895000Y-109972976D03*
%TO.P,U1,D34,D34*%
X123355000Y-107432976D03*
%TO.P,U1,D35,D35*%
X125895000Y-107432976D03*
%TO.P,U1,D36,D36*%
X123355000Y-104892976D03*
%TO.P,U1,D37,D37*%
X125895000Y-104892976D03*
%TO.P,U1,D38,D38*%
X123355000Y-102352976D03*
%TO.P,U1,D39,D39*%
X125895000Y-102352976D03*
%TO.P,U1,D40,D40*%
X123355000Y-99812976D03*
%TO.P,U1,D41,D41*%
X125895000Y-99812976D03*
%TO.P,U1,D42,D42*%
X123355000Y-97272976D03*
%TO.P,U1,D43,D43*%
X125895000Y-97272976D03*
%TO.P,U1,D44,D44*%
X123355000Y-94732976D03*
%TO.P,U1,D45,D45*%
X125895000Y-94732976D03*
%TO.P,U1,D46,D46*%
X123355000Y-92192976D03*
%TO.P,U1,D47,D47*%
X125895000Y-92192976D03*
%TO.P,U1,D48,D48*%
X128435000Y-92192976D03*
%TO.P,U1,D49,D49*%
X128435000Y-94732976D03*
%TO.P,U1,D50,D50*%
X130975000Y-92192976D03*
%TO.P,U1,D51,D51*%
X130975000Y-94732976D03*
%TO.P,U1,D52,D52*%
X133515000Y-92192976D03*
%TO.P,U1,D53,D53*%
X133515000Y-94732976D03*
%TO.P,U1,GND_1,GND*%
X158915000Y-140452976D03*
%TO.P,U1,GND_2,GND*%
X156375000Y-140452976D03*
%TO.P,U1,GND_3,GND*%
X146215000Y-92192976D03*
%TO.P,U1,MISO,MISO*%
X141135000Y-94732976D03*
%TO.P,U1,MOSI,MOSI*%
X143675000Y-92192976D03*
%TO.P,U1,RESET,RESET*%
X146215000Y-94732976D03*
%TO.P,U1,RST,RST*%
X158915000Y-132832976D03*
%TO.P,U1,RX,RX*%
X156375000Y-130292976D03*
%TO.P,U1,SCK,SCK*%
X143675000Y-94732976D03*
%TO.P,U1,TX,TX*%
X158915000Y-130292976D03*
%TO.P,U1,VIN_1,VIN*%
X158915000Y-142992976D03*
%TO.P,U1,VIN_2,VIN*%
X156375000Y-142992976D03*
%TD*%
D18*
%TO.P,Q42,1,G*%
%TO.N,N/C*%
X200560000Y-124792976D03*
D19*
%TO.P,Q42,3,S*%
X195480000Y-124792976D03*
%TD*%
D13*
%TO.P,J29,1,Pin_1*%
%TO.N,N/C*%
X209060000Y-120292976D03*
D14*
%TO.P,J29,2,Pin_2*%
X209060000Y-115292976D03*
%TD*%
D23*
%TO.P,D204,1,K*%
%TO.N,N/C*%
X181960000Y-137712976D03*
D24*
%TO.P,D204,2,A*%
X181960000Y-147872976D03*
%TD*%
D29*
%TO.P,D201,1,A1*%
%TO.N,N/C*%
X200460000Y-93292976D03*
D30*
%TO.P,D201,2,A2*%
X200460000Y-113292976D03*
%TD*%
D31*
%TO.P,C2,1*%
%TO.N,N/C*%
X190460000Y-129792976D03*
%TO.P,C2,2*%
X188460000Y-129792976D03*
%TD*%
D23*
%TO.P,D197,1,K*%
%TO.N,N/C*%
X162460000Y-138292976D03*
D24*
%TO.P,D197,2,A*%
X162460000Y-148452976D03*
%TD*%
D12*
%TO.P,R153,1*%
%TO.N,N/C*%
X129692500Y-120312976D03*
%TO.P,R153,2*%
X132617500Y-120312976D03*
%TD*%
D10*
%TO.P,R118,1*%
%TO.N,N/C*%
X165385000Y-108452976D03*
%TO.P,R118,2*%
X162460000Y-108452976D03*
%TD*%
D12*
%TO.P,R159,1*%
%TO.N,N/C*%
X129692500Y-112792976D03*
%TO.P,R159,2*%
X132617500Y-112792976D03*
%TD*%
D16*
%TO.P,Q6,1,G*%
%TO.N,N/C*%
X70235000Y-138037976D03*
D17*
%TO.P,Q6,2,D*%
X63935000Y-140317976D03*
D16*
%TO.P,Q6,3,S*%
X70235000Y-142597976D03*
%TD*%
D12*
%TO.P,R165,1*%
%TO.N,N/C*%
X129692500Y-105312976D03*
%TO.P,R165,2*%
X132617500Y-105312976D03*
%TD*%
D16*
%TO.P,Q10,1,G*%
%TO.N,N/C*%
X81660000Y-117012976D03*
D17*
%TO.P,Q10,2,D*%
X75360000Y-119292976D03*
D16*
%TO.P,Q10,3,S*%
X81660000Y-121572976D03*
%TD*%
D12*
%TO.P,R167,1*%
%TO.N,N/C*%
X129692500Y-102812976D03*
%TO.P,R167,2*%
X132617500Y-102812976D03*
%TD*%
D13*
%TO.P,J21,1,Pin_1*%
%TO.N,N/C*%
X173960000Y-116292976D03*
D14*
%TO.P,J21,2,Pin_2*%
X173960000Y-121292976D03*
%TD*%
D12*
%TO.P,R168,1*%
%TO.N,N/C*%
X137192500Y-100312976D03*
%TO.P,R168,2*%
X140117500Y-100312976D03*
%TD*%
D10*
%TO.P,R113,1*%
%TO.N,N/C*%
X89152500Y-113522976D03*
%TO.P,R113,2*%
X86227500Y-113522976D03*
%TD*%
D20*
%TO.P,Q18,1,G*%
%TO.N,N/C*%
X108180000Y-112742976D03*
D21*
%TO.P,Q18,2,D*%
X110460000Y-119042976D03*
D20*
%TO.P,Q18,3,S*%
X112740000Y-112742976D03*
%TD*%
D32*
%TO.P,Q12,1,B*%
%TO.N,N/C*%
X73672500Y-114242976D03*
%TO.P,Q12,2,E*%
X73672500Y-112342976D03*
%TO.P,Q12,3,C*%
X75547500Y-113292976D03*
%TD*%
D11*
%TO.P,R147,1*%
%TO.N,N/C*%
X184460000Y-125637976D03*
%TO.P,R147,2*%
X184460000Y-122712976D03*
%TD*%
D16*
%TO.P,Q26,1,G*%
%TO.N,N/C*%
X79160000Y-101012976D03*
D17*
%TO.P,Q26,2,D*%
X72860000Y-103292976D03*
D16*
%TO.P,Q26,3,S*%
X79160000Y-105572976D03*
%TD*%
D22*
%TO.P,Q30,1,B*%
%TO.N,N/C*%
X96997500Y-103142976D03*
%TO.P,Q30,2,E*%
X96997500Y-105042976D03*
%TO.P,Q30,3,C*%
X95122500Y-104092976D03*
%TD*%
D11*
%TO.P,R101,1*%
%TO.N,N/C*%
X46780000Y-140235476D03*
%TO.P,R101,2*%
X46780000Y-137310476D03*
%TD*%
D12*
%TO.P,R166,1*%
%TO.N,N/C*%
X137192500Y-102812976D03*
%TO.P,R166,2*%
X140117500Y-102812976D03*
%TD*%
%TO.P,R155,1*%
%TO.N,N/C*%
X129692500Y-117812976D03*
%TO.P,R155,2*%
X132617500Y-117812976D03*
%TD*%
D13*
%TO.P,J14,1,Pin_1*%
%TO.N,N/C*%
X54460000Y-128987976D03*
D14*
%TO.P,J14,2,Pin_2*%
X59460000Y-128987976D03*
%TO.P,J14,3,Pin_3*%
X64460000Y-128987976D03*
%TD*%
D12*
%TO.P,R133,1*%
%TO.N,N/C*%
X163017500Y-128312976D03*
%TO.P,R133,2*%
X165942500Y-128312976D03*
%TD*%
D16*
%TO.P,Q25,1,G*%
%TO.N,N/C*%
X83510000Y-106072976D03*
D17*
%TO.P,Q25,2,D*%
X89810000Y-103792976D03*
D16*
%TO.P,Q25,3,S*%
X83510000Y-101512976D03*
%TD*%
D13*
%TO.P,J12,1,Pin_1*%
%TO.N,N/C*%
X37460000Y-128987976D03*
D14*
%TO.P,J12,2,Pin_2*%
X42460000Y-128987976D03*
%TO.P,J12,3,Pin_3*%
X47460000Y-128987976D03*
%TD*%
D12*
%TO.P,R157,1*%
%TO.N,N/C*%
X129692500Y-115292976D03*
%TO.P,R157,2*%
X132617500Y-115292976D03*
%TD*%
%TO.P,R110,1*%
%TO.N,N/C*%
X45517500Y-109312976D03*
%TO.P,R110,2*%
X48442500Y-109312976D03*
%TD*%
%TO.P,R169,1*%
%TO.N,N/C*%
X129692500Y-100312976D03*
%TO.P,R169,2*%
X132617500Y-100312976D03*
%TD*%
D33*
%TO.P,Q16,1,B*%
%TO.N,N/C*%
X42160000Y-109330476D03*
%TO.P,Q16,2,E*%
X40260000Y-109330476D03*
%TO.P,Q16,3,C*%
X41210000Y-107455476D03*
%TD*%
D16*
%TO.P,Q17,1,G*%
%TO.N,N/C*%
X97585000Y-116512976D03*
D17*
%TO.P,Q17,2,D*%
X91285000Y-118792976D03*
D16*
%TO.P,Q17,3,S*%
X97585000Y-121072976D03*
%TD*%
D12*
%TO.P,R151,1*%
%TO.N,N/C*%
X129692500Y-122812976D03*
%TO.P,R151,2*%
X132617500Y-122812976D03*
%TD*%
%TO.P,R154,1*%
%TO.N,N/C*%
X137192500Y-117812976D03*
%TO.P,R154,2*%
X140117500Y-117812976D03*
%TD*%
%TO.P,R106,1*%
%TO.N,N/C*%
X78517500Y-114312976D03*
%TO.P,R106,2*%
X81442500Y-114312976D03*
%TD*%
%TO.P,R158,1*%
%TO.N,N/C*%
X137192500Y-112812976D03*
%TO.P,R158,2*%
X140117500Y-112812976D03*
%TD*%
%TO.P,R160,1*%
%TO.N,N/C*%
X137192500Y-110312976D03*
%TO.P,R160,2*%
X140117500Y-110312976D03*
%TD*%
%TO.P,R162,1*%
%TO.N,N/C*%
X137192500Y-107812976D03*
%TO.P,R162,2*%
X140117500Y-107812976D03*
%TD*%
D13*
%TO.P,J24,1,Pin_1*%
%TO.N,N/C*%
X173960000Y-94292976D03*
D14*
%TO.P,J24,2,Pin_2*%
X173960000Y-99292976D03*
%TD*%
D16*
%TO.P,Q9,1,G*%
%TO.N,N/C*%
X70160000Y-117012976D03*
D17*
%TO.P,Q9,2,D*%
X63860000Y-119292976D03*
D16*
%TO.P,Q9,3,S*%
X70160000Y-121572976D03*
%TD*%
D10*
%TO.P,R103,1*%
%TO.N,N/C*%
X165385000Y-96452976D03*
%TO.P,R103,2*%
X162460000Y-96452976D03*
%TD*%
%TO.P,R116,1*%
%TO.N,N/C*%
X165385000Y-105452976D03*
%TO.P,R116,2*%
X162460000Y-105452976D03*
%TD*%
D20*
%TO.P,Q15,1,G*%
%TO.N,N/C*%
X37680000Y-112592976D03*
D21*
%TO.P,Q15,2,D*%
X39960000Y-118892976D03*
D20*
%TO.P,Q15,3,S*%
X42240000Y-112592976D03*
%TD*%
%TO.P,Q13,1,G*%
%TO.N,N/C*%
X45180000Y-112592976D03*
D21*
%TO.P,Q13,2,D*%
X47460000Y-118892976D03*
D20*
%TO.P,Q13,3,S*%
X49740000Y-112592976D03*
%TD*%
%TO.P,Q14,1,G*%
%TO.N,N/C*%
X52655000Y-112667976D03*
D21*
%TO.P,Q14,2,D*%
X54935000Y-118967976D03*
D20*
%TO.P,Q14,3,S*%
X57215000Y-112667976D03*
%TD*%
D12*
%TO.P,R152,1*%
%TO.N,N/C*%
X137192500Y-120312976D03*
%TO.P,R152,2*%
X140117500Y-120312976D03*
%TD*%
%TO.P,R135,1*%
%TO.N,N/C*%
X163017500Y-141812976D03*
%TO.P,R135,2*%
X165942500Y-141812976D03*
%TD*%
%TO.P,R134,1*%
%TO.N,N/C*%
X163017500Y-144312976D03*
%TO.P,R134,2*%
X165942500Y-144312976D03*
%TD*%
D13*
%TO.P,J26,1,Pin_1*%
%TO.N,N/C*%
X173960000Y-138292976D03*
D14*
%TO.P,J26,2,Pin_2*%
X173960000Y-143292976D03*
%TD*%
D32*
%TO.P,Q8,1,B*%
%TO.N,N/C*%
X75122500Y-139292976D03*
%TO.P,Q8,2,E*%
X75122500Y-137392976D03*
%TO.P,Q8,3,C*%
X76997500Y-138342976D03*
%TD*%
D13*
%TO.P,J30,1,Pin_1*%
%TO.N,N/C*%
X129960000Y-141987976D03*
D14*
%TO.P,J30,2,Pin_2*%
X134960000Y-141987976D03*
%TO.P,J30,3,Pin_3*%
X139960000Y-141987976D03*
%TD*%
D10*
%TO.P,R111,1*%
%TO.N,N/C*%
X165385000Y-102452976D03*
%TO.P,R111,2*%
X162460000Y-102452976D03*
%TD*%
D11*
%TO.P,R149,1*%
%TO.N,N/C*%
X180980000Y-125655476D03*
%TO.P,R149,2*%
X180980000Y-122730476D03*
%TD*%
D16*
%TO.P,Q27,1,G*%
%TO.N,N/C*%
X113410000Y-102262976D03*
D17*
%TO.P,Q27,2,D*%
X107110000Y-104542976D03*
D16*
%TO.P,Q27,3,S*%
X113410000Y-106822976D03*
%TD*%
D13*
%TO.P,J15,1,Pin_1*%
%TO.N,N/C*%
X88460000Y-128992976D03*
D14*
%TO.P,J15,2,Pin_2*%
X93460000Y-128992976D03*
%TO.P,J15,3,Pin_3*%
X98460000Y-128992976D03*
%TD*%
D10*
%TO.P,R105,1*%
%TO.N,N/C*%
X63902500Y-106772976D03*
%TO.P,R105,2*%
X60977500Y-106772976D03*
%TD*%
D23*
%TO.P,D205,1,K*%
%TO.N,N/C*%
X184460000Y-129292976D03*
D24*
%TO.P,D205,2,A*%
X184460000Y-119132976D03*
%TD*%
D13*
%TO.P,J25,1,Pin_1*%
%TO.N,N/C*%
X105380000Y-97792976D03*
D14*
%TO.P,J25,2,Pin_2*%
X110460000Y-97792976D03*
%TO.P,J25,3,Pin_3*%
X115540000Y-97792976D03*
%TD*%
D34*
%TO.P,SW1,1*%
%TO.N,N/C*%
X142460000Y-122737976D03*
D35*
%TO.P,SW1,2*%
X142460000Y-120197976D03*
%TO.P,SW1,3*%
X142460000Y-117657976D03*
%TO.P,SW1,4*%
X142460000Y-115117976D03*
%TO.P,SW1,5*%
X142460000Y-112577976D03*
%TO.P,SW1,6*%
X142460000Y-110037976D03*
%TO.P,SW1,7*%
X142460000Y-107497976D03*
%TO.P,SW1,8*%
X142460000Y-104957976D03*
%TO.P,SW1,9*%
X142460000Y-102417976D03*
%TO.P,SW1,10*%
X142460000Y-99877976D03*
%TO.P,SW1,11*%
X134840000Y-99877976D03*
%TO.P,SW1,12*%
X134840000Y-102417976D03*
%TO.P,SW1,13*%
X134840000Y-104957976D03*
%TO.P,SW1,14*%
X134840000Y-107497976D03*
%TO.P,SW1,15*%
X134840000Y-110037976D03*
%TO.P,SW1,16*%
X134840000Y-112577976D03*
%TO.P,SW1,17*%
X134840000Y-115117976D03*
%TO.P,SW1,18*%
X134840000Y-117657976D03*
%TO.P,SW1,19*%
X134840000Y-120197976D03*
%TO.P,SW1,20*%
X134840000Y-122737976D03*
%TD*%
D31*
%TO.P,C5,1*%
%TO.N,N/C*%
X189960000Y-146292976D03*
%TO.P,C5,2*%
X186460000Y-146292976D03*
%TD*%
%TO.P,C4,1*%
%TO.N,N/C*%
X189960000Y-137292976D03*
%TO.P,C4,2*%
X186460000Y-137292976D03*
%TD*%
D36*
%TO.P,Q43,1,C*%
%TO.N,N/C*%
X190730000Y-123792976D03*
D37*
%TO.P,Q43,2,B*%
X189460000Y-123792976D03*
%TO.P,Q43,3,E*%
X188190000Y-123792976D03*
%TD*%
D38*
%TO.P,C3,1*%
%TO.N,N/C*%
X181460000Y-133292976D03*
%TO.P,C3,2*%
X182960000Y-133292976D03*
%TD*%
D23*
%TO.P,D203,1,K*%
%TO.N,N/C*%
X180960000Y-119132976D03*
D24*
%TO.P,D203,2,A*%
X180960000Y-129292976D03*
%TD*%
D13*
%TO.P,J19,1,Pin_1*%
%TO.N,N/C*%
X54375000Y-97792976D03*
D14*
%TO.P,J19,2,Pin_2*%
X59455000Y-97792976D03*
%TO.P,J19,3,Pin_3*%
X64535000Y-97792976D03*
%TD*%
D23*
%TO.P,D196,1,K*%
%TO.N,N/C*%
X165960000Y-138292976D03*
D24*
%TO.P,D196,2,A*%
X165960000Y-148452976D03*
%TD*%
D13*
%TO.P,J11,1,Pin_1*%
%TO.N,N/C*%
X37460000Y-97797976D03*
D14*
%TO.P,J11,2,Pin_2*%
X42460000Y-97797976D03*
%TO.P,J11,3,Pin_3*%
X47460000Y-97797976D03*
%TD*%
D23*
%TO.P,D199,1,K*%
%TO.N,N/C*%
X180960000Y-92792976D03*
D24*
%TO.P,D199,2,A*%
X180960000Y-102952976D03*
%TD*%
D39*
%TO.P,J31,1,Pin_1*%
%TO.N,N/C*%
X142335000Y-129142976D03*
D40*
%TO.P,J31,2,Pin_2*%
X142335000Y-131682976D03*
%TO.P,J31,3,Pin_3*%
X139795000Y-129142976D03*
%TO.P,J31,4,Pin_4*%
X139795000Y-131682976D03*
%TO.P,J31,5,Pin_5*%
X137255000Y-129142976D03*
%TO.P,J31,6,Pin_6*%
X137255000Y-131682976D03*
%TD*%
D23*
%TO.P,D200,1,K*%
%TO.N,N/C*%
X180960000Y-115952976D03*
D24*
%TO.P,D200,2,A*%
X180960000Y-105792976D03*
%TD*%
D23*
%TO.P,D202,1,K*%
%TO.N,N/C*%
X195040000Y-114792976D03*
D24*
%TO.P,D202,2,A*%
X184880000Y-114792976D03*
%TD*%
D23*
%TO.P,D198,1,K*%
%TO.N,N/C*%
X165960000Y-111932976D03*
D24*
%TO.P,D198,2,A*%
X165960000Y-122092976D03*
%TD*%
D23*
%TO.P,D193,1,K*%
%TO.N,N/C*%
X162460000Y-111952976D03*
D24*
%TO.P,D193,2,A*%
X162460000Y-122112976D03*
%TD*%
D41*
%TO.P,F1,1*%
%TO.N,N/C*%
X210365000Y-94687976D03*
X214365000Y-94687976D03*
%TO.P,F1,2*%
X214365000Y-108087976D03*
X210365000Y-108087976D03*
%TD*%
D25*
%TO.P,A3,1,Vin*%
%TO.N,N/C*%
X79960000Y-147792976D03*
%TO.P,A3,2,Vout*%
X79960000Y-108792976D03*
%TO.P,A3,3,GND*%
X96960000Y-147792976D03*
%TO.P,A3,4,GND*%
X96960000Y-108792976D03*
%TD*%
D13*
%TO.P,J18,1,Pin_1*%
%TO.N,N/C*%
X209060000Y-131292976D03*
D14*
%TO.P,J18,2,Pin_2*%
X209060000Y-126292976D03*
%TD*%
D13*
%TO.P,J17,1,Pin_1*%
%TO.N,N/C*%
X209060000Y-142292976D03*
D14*
%TO.P,J17,2,Pin_2*%
X209060000Y-137292976D03*
%TD*%
D13*
%TO.P,J23,1,Pin_1*%
%TO.N,N/C*%
X88375000Y-97792976D03*
D14*
%TO.P,J23,2,Pin_2*%
X93455000Y-97792976D03*
%TO.P,J23,3,Pin_3*%
X98535000Y-97792976D03*
%TD*%
D23*
%TO.P,D195,1,K*%
%TO.N,N/C*%
X165960000Y-135452976D03*
D24*
%TO.P,D195,2,A*%
X165960000Y-125292976D03*
%TD*%
D25*
%TO.P,A2,1,Vin*%
%TO.N,N/C*%
X57960000Y-147792976D03*
%TO.P,A2,2,Vout*%
X57960000Y-108792976D03*
%TO.P,A2,3,GND*%
X74960000Y-147792976D03*
%TO.P,A2,4,GND*%
X74960000Y-108792976D03*
%TD*%
%TO.P,A1,1,Vin*%
%TO.N,N/C*%
X35960000Y-147792976D03*
%TO.P,A1,2,Vout*%
X35960000Y-108792976D03*
%TO.P,A1,3,GND*%
X52960000Y-147792976D03*
%TO.P,A1,4,GND*%
X52960000Y-108792976D03*
%TD*%
D36*
%TO.P,Q44,1,C*%
%TO.N,N/C*%
X188190000Y-119292976D03*
D37*
%TO.P,Q44,2,B*%
X189460000Y-119292976D03*
%TO.P,Q44,3,E*%
X190730000Y-119292976D03*
%TD*%
D42*
%TO.P,C1,1*%
%TO.N,N/C*%
X196460000Y-119792976D03*
%TO.P,C1,2*%
X201460000Y-119792976D03*
%TD*%
D43*
%TO.N,*%
X203960000Y-131292976D03*
X147960000Y-132642976D03*
X205460000Y-138792976D03*
X146810000Y-132742976D03*
X203960000Y-141792976D03*
X206960000Y-131292976D03*
X203960000Y-134292976D03*
X205460000Y-132792976D03*
X205460000Y-134292976D03*
X205460000Y-131292976D03*
X209960000Y-133292976D03*
X215960000Y-143292976D03*
X206960000Y-132792976D03*
X205460000Y-143292976D03*
X203960000Y-135792976D03*
X215960000Y-137292976D03*
X205460000Y-125292976D03*
X85260000Y-134492976D03*
X205460000Y-135792976D03*
X151460000Y-140792975D03*
X203960000Y-116292976D03*
X214460000Y-135792976D03*
X203960000Y-114792976D03*
X206960000Y-143292976D03*
X203960000Y-113292976D03*
X199610000Y-119192976D03*
X205460000Y-141792976D03*
X203960000Y-137292976D03*
X203960000Y-140292976D03*
X205460000Y-140292976D03*
X203960000Y-138792976D03*
X208460000Y-133292976D03*
X203960000Y-132792976D03*
X206960000Y-141792976D03*
X205460000Y-137292976D03*
X203960000Y-143292976D03*
X200260000Y-117792976D03*
X215960000Y-129792976D03*
X127960000Y-103792976D03*
X73460000Y-135292976D03*
X127210000Y-116292976D03*
X151460000Y-99792976D03*
X144710000Y-116042976D03*
X163960000Y-108452976D03*
X163960000Y-99452976D03*
X154360000Y-138092976D03*
X141410000Y-137492976D03*
X151460000Y-94792976D03*
X67460000Y-97792976D03*
X121460000Y-110792976D03*
X127960000Y-101292976D03*
X80960000Y-141292976D03*
X119710000Y-102292976D03*
X163960000Y-102452976D03*
X127210000Y-118792976D03*
X151460000Y-109292976D03*
X148460000Y-97292976D03*
X163960000Y-105452976D03*
X85960000Y-98292976D03*
X54060000Y-101592976D03*
X148460000Y-95792976D03*
X127960000Y-108792976D03*
X163960000Y-96452976D03*
X118960000Y-104292976D03*
X151460000Y-92292976D03*
X103960000Y-100792976D03*
X150960000Y-116292976D03*
X136960000Y-93292976D03*
X130210000Y-131292976D03*
X127960000Y-106292976D03*
X84960000Y-98292976D03*
X148460000Y-99792976D03*
X120904711Y-98437687D03*
X68960000Y-97792976D03*
X119960000Y-100292976D03*
X127960000Y-121292976D03*
X73960000Y-133792976D03*
X146960000Y-109292976D03*
X151460000Y-97292976D03*
X119960000Y-111042976D03*
X80960000Y-142792976D03*
X120960000Y-93792976D03*
X133460000Y-133542976D03*
X52660000Y-101592976D03*
X148460000Y-94292976D03*
X105460000Y-100292976D03*
X163960000Y-93452976D03*
X56960000Y-126792976D03*
X196960000Y-95292976D03*
X215960000Y-119792976D03*
X215960000Y-118292976D03*
X214460000Y-121292976D03*
X195460000Y-95292976D03*
X198481582Y-96792236D03*
X195460000Y-92292976D03*
X214460000Y-119792976D03*
X195460000Y-93792976D03*
X212960000Y-115292976D03*
X212960000Y-121292976D03*
X215960000Y-121292976D03*
X95960000Y-126042976D03*
X215960000Y-115292976D03*
X214460000Y-112292976D03*
X214460000Y-110792976D03*
X201460000Y-96792976D03*
X212960000Y-112292976D03*
X211960000Y-96792976D03*
X212960000Y-110792976D03*
X213460000Y-92292976D03*
X212960000Y-118292976D03*
X215960000Y-110792976D03*
X215960000Y-113792976D03*
X214960000Y-92292976D03*
X151480000Y-107272976D03*
X147960000Y-107292976D03*
X132960000Y-130792976D03*
X127960000Y-113792976D03*
X151710000Y-131042976D03*
X148460000Y-104792976D03*
X151460000Y-104792976D03*
X127960000Y-111292976D03*
X48460000Y-100292976D03*
X101210000Y-129792976D03*
X214460000Y-118292976D03*
X212960000Y-113792976D03*
X215960000Y-116792976D03*
X202960000Y-96792976D03*
X209960000Y-110792976D03*
X214960000Y-96792976D03*
X196955757Y-92286796D03*
X178460000Y-119292976D03*
X180460000Y-142292976D03*
X214460000Y-116792976D03*
X135960000Y-96792976D03*
X56960000Y-127792976D03*
X39960000Y-100292976D03*
X148460000Y-102292976D03*
X151460000Y-102292976D03*
X90960000Y-130792976D03*
X196960000Y-93792976D03*
X214460000Y-113792976D03*
X214460000Y-115292976D03*
X211460000Y-110792976D03*
X210460000Y-96792976D03*
X212960000Y-119792976D03*
X101210000Y-128792976D03*
X212960000Y-116792976D03*
X215960000Y-112292976D03*
X91710000Y-131542976D03*
X96710000Y-125292976D03*
X208960000Y-92292976D03*
X178979489Y-143773487D03*
X192460000Y-119292976D03*
X211460000Y-123792976D03*
X208960000Y-96792976D03*
X192460000Y-114792976D03*
X196960000Y-116292976D03*
X193960000Y-108792976D03*
X193960000Y-111792976D03*
X205460000Y-114792976D03*
X193960000Y-110292976D03*
X193960000Y-120792976D03*
X193960000Y-122292976D03*
X188960000Y-113292976D03*
X145235000Y-126267976D03*
X212960000Y-137292976D03*
X214460000Y-128292976D03*
X192460000Y-120792976D03*
X207460000Y-96792976D03*
X199960000Y-96792976D03*
X214460000Y-126792976D03*
X192460000Y-108792976D03*
X192460000Y-126792976D03*
X133710000Y-97792976D03*
X215960000Y-138792976D03*
X214460000Y-125292976D03*
X210460000Y-92292976D03*
X195460000Y-96792976D03*
X205460000Y-122292976D03*
X137859400Y-98235976D03*
X196960000Y-114792976D03*
X196960000Y-126792976D03*
X211960000Y-92292976D03*
X196960000Y-111792976D03*
X108460000Y-144042976D03*
X196960000Y-96792976D03*
X195460000Y-111792976D03*
X192460000Y-117792976D03*
X192460000Y-116292976D03*
X193960000Y-117792976D03*
X196960000Y-117792976D03*
X201860000Y-117592976D03*
X192460000Y-123792976D03*
X105960000Y-144042976D03*
X203460000Y-117792976D03*
X45660000Y-103842976D03*
X212960000Y-126792976D03*
X188960000Y-108792976D03*
X196960000Y-122292976D03*
X195460000Y-122292976D03*
X195460000Y-117792976D03*
X205960000Y-96792976D03*
X204460000Y-96792976D03*
X213460000Y-96792976D03*
X146110000Y-125392976D03*
X192460000Y-113292976D03*
X167410000Y-106942976D03*
X205460000Y-126792976D03*
X192460000Y-125292976D03*
X196960000Y-113292976D03*
X192460000Y-122292976D03*
X205460000Y-123792976D03*
X193960000Y-126792976D03*
X190960000Y-113292976D03*
X193960000Y-119292976D03*
X214460000Y-137292976D03*
X214460000Y-143292976D03*
X203960000Y-123792976D03*
X96210000Y-111292976D03*
X215960000Y-134292976D03*
X212960000Y-141792976D03*
X215960000Y-126792976D03*
X97210000Y-111292976D03*
X58960000Y-143792976D03*
X215960000Y-125292976D03*
X214460000Y-138792976D03*
X45660000Y-102692976D03*
X134710000Y-97792976D03*
X203960000Y-122292976D03*
X206960000Y-123792976D03*
X214460000Y-129792976D03*
X212960000Y-132792976D03*
X215960000Y-135792976D03*
X212960000Y-129792976D03*
X214460000Y-134292976D03*
X212960000Y-135792976D03*
X215960000Y-132792976D03*
X205460000Y-119292976D03*
X212960000Y-134292976D03*
X203460000Y-111792976D03*
X211460000Y-125292976D03*
X203960000Y-128292976D03*
X212960000Y-125292976D03*
X214460000Y-141792976D03*
X205460000Y-128292976D03*
X215960000Y-128292976D03*
X214460000Y-140292976D03*
X138710000Y-99042976D03*
X215960000Y-141792976D03*
X179960000Y-143792976D03*
X57460000Y-143792976D03*
X85260000Y-133492976D03*
X214460000Y-132792976D03*
X177960000Y-143792976D03*
X203460000Y-120792976D03*
X215960000Y-123792976D03*
X211460000Y-126792976D03*
X214460000Y-123792976D03*
X201314975Y-116289792D03*
X215960000Y-131292976D03*
X212960000Y-131292976D03*
X199760000Y-116442976D03*
X202396978Y-115435579D03*
X211460000Y-128292976D03*
X212960000Y-143292976D03*
X205460000Y-113292976D03*
X215960000Y-140292976D03*
X212960000Y-138792976D03*
X209960000Y-123792976D03*
X205460000Y-116292976D03*
X214460000Y-131292976D03*
X203960000Y-126792976D03*
X201260000Y-121792976D03*
X199560000Y-121492976D03*
X203960000Y-125292976D03*
X212960000Y-123792976D03*
X212960000Y-140292976D03*
X208460000Y-123792976D03*
X212960000Y-128292976D03*
%TD*%
D44*
%TO.N,*%
X157610000Y-129392976D02*
X157960000Y-129042976D01*
X154360000Y-138092976D02*
X155460000Y-139192976D01*
X155460000Y-139192976D02*
X156860000Y-139192976D01*
X159760000Y-129042976D02*
X160410000Y-128392976D01*
X157048901Y-125212976D02*
X156375000Y-125212976D01*
X140670000Y-132557976D02*
X139795000Y-131682976D01*
X140670000Y-132782976D02*
X140670000Y-136752976D01*
X156860000Y-139192976D02*
X157562711Y-138490265D01*
X157562711Y-138490265D02*
X157562711Y-137190265D01*
X157960000Y-129042976D02*
X159760000Y-129042976D01*
X157610000Y-137142976D02*
X157610000Y-129392976D01*
X158236612Y-126400687D02*
X157048901Y-125212976D01*
X140670000Y-136752976D02*
X141410000Y-137492976D01*
X160410000Y-127142976D02*
X159667711Y-126400687D01*
X160410000Y-128392976D02*
X160410000Y-127142976D01*
X157562711Y-137190265D02*
X157610000Y-137142976D01*
X140670000Y-132782976D02*
X140670000Y-132557976D01*
X159667711Y-126400687D02*
X158236612Y-126400687D01*
D45*
X163960000Y-102452976D02*
X165385000Y-102452976D01*
D46*
X87960000Y-133292976D02*
X87960000Y-140792976D01*
X144913520Y-117571496D02*
X142460000Y-115117976D01*
X119960000Y-126792976D02*
X119960000Y-119340825D01*
X85960000Y-131292976D02*
X87960000Y-133292976D01*
D45*
X163960000Y-105452976D02*
X165385000Y-105452976D01*
X163960000Y-93452976D02*
X165385000Y-93452976D01*
D46*
X77210000Y-112292976D02*
X79710000Y-112292976D01*
X145101374Y-121292976D02*
X144913520Y-121105122D01*
X119960000Y-119340825D02*
X122960000Y-116340825D01*
D45*
X163960000Y-108452976D02*
X165385000Y-108452976D01*
D46*
X131460000Y-132868854D02*
X131460000Y-130792976D01*
X123083138Y-129128265D02*
X121247849Y-127292976D01*
X144913520Y-121105122D02*
X144913520Y-117571496D01*
X83210000Y-115042976D02*
X83210000Y-117792976D01*
X122960000Y-116292976D02*
X127210000Y-116292976D01*
X120460000Y-127292976D02*
X119960000Y-126792976D01*
X80210000Y-112792976D02*
X81960000Y-112792976D01*
X121247849Y-127292976D02*
X120460000Y-127292976D01*
X85960000Y-124792976D02*
X85960000Y-131292976D01*
D45*
X163960000Y-99452976D02*
X165385000Y-99452976D01*
X163960000Y-96452976D02*
X165385000Y-96452976D01*
D46*
X87960000Y-140792976D02*
X89099440Y-141932416D01*
X129795289Y-129128265D02*
X123083138Y-129128265D01*
X71940000Y-111292976D02*
X76210000Y-111292976D01*
X83210000Y-117792976D02*
X84494040Y-119077016D01*
X140312500Y-115117976D02*
X140117500Y-115312976D01*
X82460000Y-113292976D02*
X82460000Y-114292976D01*
X122960000Y-116340825D02*
X122960000Y-116292976D01*
X104024080Y-140228896D02*
X124099958Y-140228896D01*
X131460000Y-130792976D02*
X129795289Y-129128265D01*
X89099440Y-141932416D02*
X102320560Y-141932416D01*
X156375000Y-122672976D02*
X153340000Y-122672976D01*
X70160000Y-109512976D02*
X71940000Y-111292976D01*
X124099958Y-140228896D02*
X131460000Y-132868854D01*
X153340000Y-122672976D02*
X151960000Y-121292976D01*
X81960000Y-112792976D02*
X82460000Y-113292976D01*
X84494040Y-119077016D02*
X84494040Y-123327016D01*
X151960000Y-121292976D02*
X145101374Y-121292976D01*
X84494040Y-123327016D02*
X85960000Y-124792976D01*
X102320560Y-141932416D02*
X104024080Y-140228896D01*
X82460000Y-114292976D02*
X83210000Y-115042976D01*
X142460000Y-115117976D02*
X140312500Y-115117976D01*
X76210000Y-111292976D02*
X77210000Y-112292976D01*
X79710000Y-112292976D02*
X80210000Y-112792976D01*
X132772500Y-117657976D02*
X132617500Y-117812976D01*
X153867040Y-113917268D02*
X153867040Y-117792976D01*
X117960000Y-104042976D02*
X117960000Y-104817602D01*
X144837960Y-111670936D02*
X151620708Y-111670936D01*
X107960000Y-98465998D02*
X107960000Y-97292976D01*
D45*
X187206489Y-129046487D02*
X189460000Y-126792976D01*
D46*
X127960000Y-108792976D02*
X122460000Y-108792976D01*
D45*
X184460000Y-138330476D02*
X184460000Y-135292976D01*
X184460000Y-135292976D02*
X187256480Y-132496496D01*
X189460000Y-120550976D02*
X188218000Y-121792976D01*
D46*
X112960000Y-96792976D02*
X112960000Y-99792976D01*
X144460000Y-111292976D02*
X144837960Y-111670936D01*
X155042329Y-118968265D02*
X157750289Y-118968265D01*
X105460000Y-100292976D02*
X106133022Y-100292976D01*
X111960000Y-95792976D02*
X112960000Y-96792976D01*
X134840000Y-117657976D02*
X132772500Y-117657976D01*
D45*
X188218000Y-121792976D02*
X185380000Y-121792976D01*
X189460000Y-126792976D02*
X189460000Y-123792976D01*
D46*
X142460000Y-107497976D02*
X144460000Y-109497976D01*
X113960000Y-100792976D02*
X114710000Y-100792976D01*
X107960000Y-97292976D02*
X109460000Y-95792976D01*
X109460000Y-95792976D02*
X111960000Y-95792976D01*
X132892500Y-110037976D02*
X132617500Y-110312976D01*
X134840000Y-110037976D02*
X132892500Y-110037976D01*
X134840000Y-112577976D02*
X132832500Y-112577976D01*
X134840000Y-115117976D02*
X132792500Y-115117976D01*
X132792500Y-115117976D02*
X132617500Y-115292976D01*
D45*
X187206489Y-132446505D02*
X187206489Y-129046487D01*
X185380000Y-121792976D02*
X184460000Y-122712976D01*
D46*
X119685374Y-106542976D02*
X120210000Y-106542976D01*
X134840000Y-122737976D02*
X132692500Y-122737976D01*
D45*
X189460000Y-119292976D02*
X189460000Y-120550976D01*
X182480000Y-140310476D02*
X184460000Y-138330476D01*
D46*
X117960000Y-104817602D02*
X119685374Y-106542976D01*
X140432500Y-107497976D02*
X140117500Y-107812976D01*
X114710000Y-100792976D02*
X117960000Y-104042976D01*
X122460000Y-108792976D02*
X120210000Y-106542976D01*
X112960000Y-99792976D02*
X113960000Y-100792976D01*
X144460000Y-109497976D02*
X144460000Y-111292976D01*
X132972500Y-104957976D02*
X132617500Y-105312976D01*
X142460000Y-107497976D02*
X140432500Y-107497976D01*
X134840000Y-120197976D02*
X132732500Y-120197976D01*
X157750289Y-118968265D02*
X158915000Y-120132976D01*
D45*
X187256480Y-132496496D02*
X187206489Y-132446505D01*
D46*
X151620708Y-111670936D02*
X153867040Y-113917268D01*
X153867040Y-117792976D02*
X155042329Y-118968265D01*
X133052500Y-99877976D02*
X132617500Y-100312976D01*
X134840000Y-99877976D02*
X133052500Y-99877976D01*
X132932500Y-107497976D02*
X132617500Y-107812976D01*
X132692500Y-122737976D02*
X132617500Y-122812976D01*
X132732500Y-120197976D02*
X132617500Y-120312976D01*
X133012500Y-102417976D02*
X132617500Y-102812976D01*
X134840000Y-102417976D02*
X133012500Y-102417976D01*
X134840000Y-104957976D02*
X132972500Y-104957976D01*
X134840000Y-107497976D02*
X132932500Y-107497976D01*
X132832500Y-112577976D02*
X132617500Y-112792976D01*
X106133022Y-100292976D02*
X107960000Y-98465998D01*
X113460000Y-98792976D02*
X118960000Y-104292976D01*
X149460000Y-94292976D02*
X148460000Y-94292976D01*
X104580498Y-95339456D02*
X112147854Y-95339456D01*
X151460000Y-92292976D02*
X149460000Y-94292976D01*
X113460000Y-96651602D02*
X113460000Y-98792976D01*
X136895289Y-93357687D02*
X121395289Y-93357687D01*
X103753489Y-96166465D02*
X104580498Y-95339456D01*
X103753489Y-100586465D02*
X103753489Y-96166465D01*
X136960000Y-93292976D02*
X136895289Y-93357687D01*
X103960000Y-100792976D02*
X103753489Y-100586465D01*
X121395289Y-93357687D02*
X120960000Y-93792976D01*
X112147854Y-95339456D02*
X113460000Y-96651602D01*
X144913520Y-110746496D02*
X145384440Y-111217416D01*
X151808562Y-111217416D02*
X154320560Y-113729414D01*
X114933195Y-94885936D02*
X86867040Y-94885936D01*
X117960000Y-101792976D02*
X117960000Y-97912741D01*
X154760000Y-117592976D02*
X156375000Y-117592976D01*
X122435289Y-106268265D02*
X117960000Y-101792976D01*
X84960000Y-95292976D02*
X85820560Y-94432416D01*
X142460000Y-104957976D02*
X144913520Y-107411496D01*
X142460000Y-104957976D02*
X140472500Y-104957976D01*
X151460000Y-94792976D02*
X150460000Y-95792976D01*
X85820560Y-94432416D02*
X115121049Y-94432416D01*
X150460000Y-95792976D02*
X148460000Y-95792976D01*
X86867040Y-94885936D02*
X85960000Y-95792976D01*
X117960000Y-97912741D02*
X114933195Y-94885936D01*
X84960000Y-98292976D02*
X84960000Y-95292976D01*
X85960000Y-95792976D02*
X85960000Y-98292976D01*
X127935289Y-106268265D02*
X122435289Y-106268265D01*
X145384440Y-111217416D02*
X151808562Y-111217416D01*
X118460000Y-97771367D02*
X118460000Y-101292976D01*
X127960000Y-106292976D02*
X127935289Y-106268265D01*
X144913520Y-107411496D02*
X144913520Y-110746496D01*
X154320560Y-113729414D02*
X154320560Y-117153536D01*
X154320560Y-117153536D02*
X154760000Y-117592976D01*
X140472500Y-104957976D02*
X140117500Y-105312976D01*
X118460000Y-101292976D02*
X119460000Y-102292976D01*
X115121049Y-94432416D02*
X118460000Y-97771367D01*
X119460000Y-102292976D02*
X119710000Y-102292976D01*
X154960000Y-116292976D02*
X154774080Y-116107056D01*
X154774080Y-113541560D02*
X151996416Y-110763896D01*
X68960000Y-96700954D02*
X71682058Y-93978896D01*
X145960000Y-110763896D02*
X145460000Y-110263896D01*
X142460000Y-102417976D02*
X140512500Y-102417976D01*
X140512500Y-102417976D02*
X140117500Y-102812976D01*
X157615000Y-116292976D02*
X154960000Y-116292976D01*
X145430920Y-110263896D02*
X145367040Y-110200016D01*
X122184711Y-103517687D02*
X127684711Y-103517687D01*
X145367040Y-110200016D02*
X145367040Y-105325016D01*
X158915000Y-117592976D02*
X157615000Y-116292976D01*
X115308903Y-93978896D02*
X118960000Y-97629993D01*
X71682058Y-93978896D02*
X115308903Y-93978896D01*
X145367040Y-105325016D02*
X142460000Y-102417976D01*
X68960000Y-97792976D02*
X68960000Y-96700954D01*
X119460000Y-101292976D02*
X119960000Y-101292976D01*
X118960000Y-100792976D02*
X119460000Y-101292976D01*
X118960000Y-97629993D02*
X118960000Y-100792976D01*
X154774080Y-116107056D02*
X154774080Y-113541560D01*
X127684711Y-103517687D02*
X127960000Y-103792976D01*
X119960000Y-101292976D02*
X122184711Y-103517687D01*
X151996416Y-110763896D02*
X145960000Y-110763896D01*
X145460000Y-110263896D02*
X145430920Y-110263896D01*
X119460000Y-97488619D02*
X119460000Y-99792976D01*
D45*
X99730000Y-105512976D02*
X99730000Y-105985476D01*
D46*
X67460000Y-97792976D02*
X67460000Y-97559580D01*
D45*
X97360000Y-103142976D02*
X99730000Y-105512976D01*
D46*
X148460000Y-97292976D02*
X151460000Y-97292976D01*
X119460000Y-99792976D02*
X119960000Y-100292976D01*
X71494204Y-93525376D02*
X115496757Y-93525376D01*
X67460000Y-97559580D02*
X71494204Y-93525376D01*
D45*
X96997500Y-103142976D02*
X97360000Y-103142976D01*
X96897500Y-103092976D02*
X97260000Y-103092976D01*
D46*
X115496757Y-93525376D02*
X119460000Y-97488619D01*
X103210000Y-105542392D02*
X103210000Y-107542976D01*
D45*
X94817022Y-101792976D02*
X98462500Y-101792976D01*
D46*
X118460000Y-111042976D02*
X119960000Y-111042976D01*
D45*
X80930000Y-101512976D02*
X82210000Y-102792976D01*
D46*
X112210000Y-104792976D02*
X114460000Y-104792976D01*
X114460000Y-104792976D02*
X116710000Y-107042976D01*
D45*
X93317022Y-100292976D02*
X94817022Y-101792976D01*
X85710000Y-100542976D02*
X85960000Y-100292976D01*
X79160000Y-101512976D02*
X80930000Y-101512976D01*
D46*
X100728084Y-103060476D02*
X103210000Y-105542392D01*
X111710000Y-106542976D02*
X111710000Y-105292976D01*
X116710000Y-107042976D02*
X116710000Y-109292976D01*
D45*
X85960000Y-100292976D02*
X93317022Y-100292976D01*
X82210000Y-102792976D02*
X84960000Y-102792976D01*
D46*
X111710000Y-105292976D02*
X112210000Y-104792976D01*
X140192500Y-122737976D02*
X140117500Y-122812976D01*
X151360000Y-122737976D02*
X156375000Y-127752976D01*
X121460000Y-108958976D02*
X121460000Y-110792976D01*
X99730000Y-103060476D02*
X100728084Y-103060476D01*
X113410000Y-102262976D02*
X114764000Y-102262976D01*
X142460000Y-122737976D02*
X151360000Y-122737976D01*
D45*
X85710000Y-102042976D02*
X85710000Y-100542976D01*
D46*
X103710000Y-108042976D02*
X110210000Y-108042976D01*
X110210000Y-108042976D02*
X111710000Y-106542976D01*
X114764000Y-102262976D02*
X121460000Y-108958976D01*
X142460000Y-122737976D02*
X140192500Y-122737976D01*
D45*
X98462500Y-101792976D02*
X99730000Y-103060476D01*
X84960000Y-102792976D02*
X85710000Y-102042976D01*
D46*
X116710000Y-109292976D02*
X118460000Y-111042976D01*
X103210000Y-107542976D02*
X103710000Y-108042976D01*
X52660000Y-101592976D02*
X53386511Y-102319487D01*
X57060000Y-97092976D02*
X61081120Y-93071856D01*
X152166870Y-110292976D02*
X156375000Y-114501106D01*
X140552500Y-99877976D02*
X140117500Y-100312976D01*
X156375000Y-114501106D02*
X156375000Y-115052976D01*
X54360932Y-102319487D02*
X57060000Y-99620419D01*
X120060000Y-97447245D02*
X120060000Y-98992976D01*
X127644711Y-100977687D02*
X127960000Y-101292976D01*
X146460000Y-110292976D02*
X152166870Y-110292976D01*
X142460000Y-99877976D02*
X140552500Y-99877976D01*
X120760000Y-98292976D02*
X120860000Y-98392976D01*
D45*
X93697500Y-111192976D02*
X95517500Y-113012976D01*
D46*
X115847105Y-92592976D02*
X120760000Y-97505871D01*
X76060000Y-92592976D02*
X115847105Y-92592976D01*
D45*
X92259522Y-108350476D02*
X85940000Y-108350476D01*
D46*
X53386511Y-102319487D02*
X54360932Y-102319487D01*
X61081120Y-93071856D02*
X115684611Y-93071856D01*
D45*
X81790000Y-99792976D02*
X77960000Y-99792976D01*
X77460000Y-103872976D02*
X79160000Y-105572976D01*
X77960000Y-99792976D02*
X77460000Y-100292976D01*
X85437520Y-99585456D02*
X95252480Y-99585456D01*
D46*
X60234640Y-92618336D02*
X76034640Y-92618336D01*
D45*
X83510000Y-101512976D02*
X81790000Y-99792976D01*
X83510000Y-101512976D02*
X85437520Y-99585456D01*
X107110000Y-104542976D02*
X103402000Y-104542976D01*
D46*
X57060000Y-99620419D02*
X57060000Y-97092976D01*
X122044711Y-100977687D02*
X127644711Y-100977687D01*
D45*
X93197500Y-111192976D02*
X93697500Y-111192976D01*
D46*
X56560000Y-99092976D02*
X56560000Y-96292976D01*
X145820560Y-103238536D02*
X145820560Y-109653536D01*
X120760000Y-97505871D02*
X120760000Y-98292976D01*
D45*
X77460000Y-100292976D02*
X77460000Y-103872976D01*
D46*
X148460000Y-99792976D02*
X151460000Y-99792976D01*
D45*
X95022500Y-104192976D02*
X95122500Y-104092976D01*
D46*
X120060000Y-98992976D02*
X122044711Y-100977687D01*
X76034640Y-92618336D02*
X76060000Y-92592976D01*
D45*
X95022500Y-105587498D02*
X92259522Y-108350476D01*
D46*
X145820560Y-109653536D02*
X146460000Y-110292976D01*
D45*
X95252480Y-99585456D02*
X96614000Y-100946976D01*
D46*
X142460000Y-99877976D02*
X145820560Y-103238536D01*
D45*
X103402000Y-104542976D02*
X99806000Y-100946976D01*
X96614000Y-100946976D02*
X99806000Y-100946976D01*
X95022500Y-105587498D02*
X95022500Y-104192976D01*
X83510000Y-106072976D02*
X83662500Y-106072976D01*
X83662500Y-106072976D02*
X85940000Y-108350476D01*
D46*
X115684611Y-93071856D02*
X120060000Y-97447245D01*
X56560000Y-96292976D02*
X60234640Y-92618336D01*
X54060000Y-101592976D02*
X56560000Y-99092976D01*
X108180000Y-112742976D02*
X109926480Y-110996496D01*
D45*
X108180000Y-112742976D02*
X108010000Y-112742976D01*
X108010000Y-112742976D02*
X105460000Y-115292976D01*
D46*
X126710000Y-113792976D02*
X121210000Y-113792976D01*
X140232500Y-120197976D02*
X140117500Y-120312976D01*
X155851663Y-126588265D02*
X151547854Y-122284456D01*
X116897854Y-111792976D02*
X115647854Y-110542976D01*
X150210000Y-117042976D02*
X150960000Y-116292976D01*
X120460000Y-131542976D02*
X121460000Y-132542976D01*
X109926480Y-110996496D02*
X115460000Y-110996496D01*
D45*
X105460000Y-115292976D02*
X99210000Y-115292976D01*
X98442500Y-114525476D02*
X98442500Y-113312976D01*
D46*
X127960000Y-115042976D02*
X126710000Y-113792976D01*
X115647854Y-110542976D02*
X105210000Y-110542976D01*
X142460000Y-120197976D02*
X140232500Y-120197976D01*
X121210000Y-113792976D02*
X119210000Y-111792976D01*
X102910000Y-112842976D02*
X100680000Y-112842976D01*
X151547854Y-122284456D02*
X144546480Y-122284456D01*
X148960000Y-117042976D02*
X150210000Y-117042976D01*
X119506480Y-115042976D02*
X119506480Y-128091607D01*
X144710000Y-116042976D02*
X145460000Y-115292976D01*
X145460000Y-115292976D02*
X147210000Y-115292976D01*
X147210000Y-115292976D02*
X148960000Y-117042976D01*
X121460000Y-132542976D02*
X128960000Y-132542976D01*
X115460000Y-110996496D02*
X119506480Y-115042976D01*
X120460000Y-129045127D02*
X120460000Y-131542976D01*
X158915000Y-127752976D02*
X157750289Y-126588265D01*
X144546480Y-122284456D02*
X142460000Y-120197976D01*
X157750289Y-126588265D02*
X155851663Y-126588265D01*
X119210000Y-111792976D02*
X116897854Y-111792976D01*
X127960000Y-121292976D02*
X127960000Y-115042976D01*
X105210000Y-110542976D02*
X102910000Y-112842976D01*
X128960000Y-132542976D02*
X130210000Y-131292976D01*
D45*
X99210000Y-115292976D02*
X98442500Y-114525476D01*
D46*
X119506480Y-128091607D02*
X120460000Y-129045127D01*
X127233489Y-118816465D02*
X127210000Y-118792976D01*
X104975666Y-141135936D02*
X124475666Y-141135936D01*
X134460000Y-131151602D02*
X134460000Y-130292976D01*
X151697748Y-121792976D02*
X144960000Y-121792976D01*
D45*
X36606489Y-122546487D02*
X39352978Y-125292976D01*
D46*
X80960000Y-141292976D02*
X82506480Y-142839456D01*
D45*
X39144874Y-126085456D02*
X49253064Y-126085456D01*
X42160000Y-107792976D02*
X44810000Y-105142976D01*
X37680000Y-113092976D02*
X36606489Y-114166487D01*
X49461168Y-125292976D02*
X51460000Y-127291808D01*
D46*
X144460000Y-119657976D02*
X142460000Y-117657976D01*
X82506480Y-142839456D02*
X103272146Y-142839456D01*
D45*
X52253648Y-134085456D02*
X73667520Y-134085456D01*
D46*
X153953037Y-124048265D02*
X151697748Y-121792976D01*
D45*
X52655000Y-113167976D02*
X51530000Y-114292976D01*
X73667520Y-134085456D02*
X73960000Y-133792976D01*
D46*
X103272146Y-142839456D02*
X104975666Y-141135936D01*
D45*
X48442500Y-113902498D02*
X48442500Y-113275476D01*
D46*
X134460000Y-130292976D02*
X132663520Y-128496496D01*
X140272500Y-117657976D02*
X140117500Y-117812976D01*
D45*
X51460000Y-127291808D02*
X51460000Y-133291808D01*
D46*
X129022146Y-128496496D02*
X127233489Y-126707839D01*
D45*
X97585000Y-116512976D02*
X97180000Y-116512976D01*
X91322500Y-112142976D02*
X91322500Y-112992976D01*
D46*
X144960000Y-121792976D02*
X144460000Y-121292976D01*
D45*
X89152500Y-113522976D02*
X90792500Y-113522976D01*
X42160000Y-109330476D02*
X42160000Y-107792976D01*
X36606489Y-114166487D02*
X36606489Y-122546487D01*
D46*
X124475666Y-141135936D02*
X134460000Y-131151602D01*
D45*
X37680000Y-112592976D02*
X37680000Y-113092976D01*
D46*
X124663520Y-141589456D02*
X131960000Y-134292976D01*
D45*
X102960000Y-119142976D02*
X106810000Y-115292976D01*
X106810000Y-115292976D02*
X110190000Y-115292976D01*
X95710000Y-115042976D02*
X92312500Y-115042976D01*
X97180000Y-116512976D02*
X95710000Y-115042976D01*
X46910000Y-107920476D02*
X45517500Y-109312976D01*
D46*
X132663520Y-128496496D02*
X129022146Y-128496496D01*
D45*
X35898969Y-111854007D02*
X35898969Y-122839551D01*
D46*
X131960000Y-134292976D02*
X132710000Y-134292976D01*
D45*
X101030000Y-121072976D02*
X102960000Y-119142976D01*
X35898969Y-122839551D02*
X39144874Y-126085456D01*
D46*
X158915000Y-125212976D02*
X157750289Y-124048265D01*
D45*
X97585000Y-121072976D02*
X101030000Y-121072976D01*
X91322500Y-112992976D02*
X90792500Y-113522976D01*
X92312500Y-115042976D02*
X90792500Y-113522976D01*
D46*
X142460000Y-117657976D02*
X140272500Y-117657976D01*
D45*
X51460000Y-133291808D02*
X52253648Y-134085456D01*
X46510000Y-105142976D02*
X46910000Y-105542976D01*
D46*
X127233489Y-126707839D02*
X127233489Y-118816465D01*
D45*
X46910000Y-105542976D02*
X46910000Y-107920476D01*
D46*
X157750289Y-124048265D02*
X153953037Y-124048265D01*
D45*
X39352978Y-125292976D02*
X49461168Y-125292976D01*
X110190000Y-115292976D02*
X112740000Y-112742976D01*
X44810000Y-105142976D02*
X46510000Y-105142976D01*
D46*
X144460000Y-121292976D02*
X144460000Y-119657976D01*
X151460000Y-109292976D02*
X146960000Y-109292976D01*
D45*
X81660000Y-114530476D02*
X81442500Y-114312976D01*
X45180000Y-112592976D02*
X43817500Y-111230476D01*
D46*
X132960000Y-132010228D02*
X132960000Y-130792976D01*
X88552960Y-142385936D02*
X102867040Y-142385936D01*
D45*
X54882480Y-115000496D02*
X57215000Y-112667976D01*
X39960000Y-118892976D02*
X43852480Y-115000496D01*
D46*
X87460000Y-133792976D02*
X87460000Y-141292976D01*
D45*
X50667520Y-133499912D02*
X51960584Y-134792976D01*
X49253064Y-126085456D02*
X50667520Y-127499912D01*
X52655000Y-112667976D02*
X52655000Y-113167976D01*
X51530000Y-114292976D02*
X48832978Y-114292976D01*
X78447500Y-114242976D02*
X78517500Y-114312976D01*
X47571489Y-114146487D02*
X40313511Y-114146487D01*
X43817500Y-108510476D02*
X45535000Y-106792976D01*
X51960584Y-134792976D02*
X72960000Y-134792976D01*
D46*
X81460000Y-143292976D02*
X103460000Y-143292976D01*
D45*
X41210000Y-110342976D02*
X41552500Y-110685476D01*
X73672500Y-114242976D02*
X78447500Y-114242976D01*
X48442500Y-113275476D02*
X48442500Y-109312976D01*
X41552500Y-110685476D02*
X43817500Y-110685476D01*
X48832978Y-114292976D02*
X48442500Y-113902498D01*
X41210000Y-107455476D02*
X41210000Y-110342976D01*
X43852480Y-115000496D02*
X54882480Y-115000496D01*
D46*
X87460000Y-141292976D02*
X88552960Y-142385936D01*
D45*
X39460000Y-113292976D02*
X39460000Y-110792976D01*
D46*
X132710000Y-134292976D02*
X133460000Y-133542976D01*
D45*
X43817500Y-111230476D02*
X43817500Y-110685476D01*
X49740000Y-112592976D02*
X51218511Y-111114465D01*
D46*
X80960000Y-142792976D02*
X81460000Y-143292976D01*
D45*
X55661489Y-111114465D02*
X57215000Y-112667976D01*
X40313511Y-114146487D02*
X39460000Y-113292976D01*
X51218511Y-111114465D02*
X55661489Y-111114465D01*
X43817500Y-110685476D02*
X43817500Y-109900476D01*
X39460000Y-110792976D02*
X36960000Y-110792976D01*
X72960000Y-134792976D02*
X73460000Y-135292976D01*
X43817500Y-109900476D02*
X43817500Y-108510476D01*
D46*
X84040520Y-119393496D02*
X84040520Y-123623496D01*
X103460000Y-143292976D02*
X105163520Y-141589456D01*
D45*
X36960000Y-110792976D02*
X35898969Y-111854007D01*
X50667520Y-127499912D02*
X50667520Y-133499912D01*
D46*
X105163520Y-141589456D02*
X124663520Y-141589456D01*
D45*
X48442500Y-113275476D02*
X47571489Y-114146487D01*
X68460000Y-115312976D02*
X70160000Y-117012976D01*
D46*
X157539711Y-121297687D02*
X155892560Y-121297687D01*
X103663520Y-143839456D02*
X105460000Y-142042976D01*
D45*
X67513511Y-118926487D02*
X70160000Y-121572976D01*
X67513511Y-115146487D02*
X67513511Y-118926487D01*
X76202500Y-140372976D02*
X76202500Y-141772976D01*
D46*
X129210000Y-128042976D02*
X128803480Y-127636456D01*
D45*
X65847022Y-106772976D02*
X68460000Y-109385954D01*
X59491031Y-136256945D02*
X71060991Y-136256945D01*
D46*
X85248040Y-124831016D02*
X85248040Y-131581016D01*
X151480000Y-107272976D02*
X151460000Y-107292976D01*
X151460000Y-107292976D02*
X147960000Y-107292976D01*
D45*
X83460000Y-131292976D02*
X79960000Y-131292976D01*
X75122500Y-139292976D02*
X76202500Y-140372976D01*
X72460000Y-124292976D02*
X70160000Y-121992976D01*
X75764416Y-124292976D02*
X72460000Y-124292976D01*
X75547500Y-113292976D02*
X72710000Y-113292976D01*
D46*
X125068626Y-142042976D02*
X129210000Y-137901602D01*
X84040520Y-123623496D02*
X85248040Y-124831016D01*
D45*
X81660000Y-121572976D02*
X81660000Y-124992976D01*
X83960000Y-127292976D02*
X83960000Y-130792976D01*
X81660000Y-124992976D02*
X83960000Y-127292976D01*
X78960000Y-127488560D02*
X75764416Y-124292976D01*
X63860000Y-111792976D02*
X64160000Y-111792976D01*
X63902500Y-106772976D02*
X65847022Y-106772976D01*
X79960000Y-131292976D02*
X78960000Y-130292976D01*
D46*
X152960000Y-118365127D02*
X152960000Y-114292976D01*
D45*
X64160000Y-111792976D02*
X67513511Y-115146487D01*
D46*
X104570560Y-140682416D02*
X124287812Y-140682416D01*
X81660000Y-117012976D02*
X84040520Y-119393496D01*
X102867040Y-142385936D02*
X104570560Y-140682416D01*
D45*
X72060000Y-115142976D02*
X70190000Y-117012976D01*
X81660000Y-117012976D02*
X81660000Y-114530476D01*
D46*
X124287812Y-140682416D02*
X132960000Y-132010228D01*
D45*
X83960000Y-130792976D02*
X83460000Y-131292976D01*
D46*
X142460000Y-112577976D02*
X140352500Y-112577976D01*
D45*
X58235000Y-137512976D02*
X59491031Y-136256945D01*
D46*
X85248040Y-131581016D02*
X87460000Y-133792976D01*
D45*
X68460000Y-109385954D02*
X68460000Y-115312976D01*
X70190000Y-117012976D02*
X70160000Y-117012976D01*
X72060000Y-113942976D02*
X72060000Y-115142976D01*
X78960000Y-130292976D02*
X78960000Y-127488560D01*
X70160000Y-121992976D02*
X70160000Y-121572976D01*
X72710000Y-113292976D02*
X72060000Y-113942976D01*
D46*
X74710000Y-144292976D02*
X103960000Y-144292976D01*
D45*
X70235000Y-142597976D02*
X69735000Y-142597976D01*
D46*
X146560000Y-131392976D02*
X142660000Y-135292976D01*
X155892560Y-121297687D02*
X152960000Y-118365127D01*
D45*
X59562022Y-138792976D02*
X58460000Y-138792976D01*
D46*
X125210000Y-142542976D02*
X128960000Y-138792976D01*
X73277500Y-141931455D02*
X73460000Y-142113955D01*
X134960000Y-129792976D02*
X133210000Y-128042976D01*
X151245000Y-112577976D02*
X142460000Y-112577976D01*
X134960000Y-134292976D02*
X134960000Y-129792976D01*
D45*
X59960000Y-138394998D02*
X59562022Y-138792976D01*
D46*
X158915000Y-122672976D02*
X157539711Y-121297687D01*
D45*
X71960000Y-138292976D02*
X74960000Y-141292976D01*
D46*
X105460000Y-142042976D02*
X125068626Y-142042976D01*
X128803480Y-127636456D02*
X128803480Y-114636456D01*
D45*
X74960000Y-141292976D02*
X74960000Y-142792976D01*
D46*
X73460000Y-142113955D02*
X73460000Y-143042976D01*
X105710000Y-142542976D02*
X125210000Y-142542976D01*
D45*
X43960000Y-142572976D02*
X49155000Y-142572976D01*
D46*
X131351374Y-137901602D02*
X134960000Y-134292976D01*
X73277500Y-141772976D02*
X73277500Y-141931455D01*
X103960000Y-144292976D02*
X105710000Y-142542976D01*
X140352500Y-112577976D02*
X140117500Y-112812976D01*
X128803480Y-114636456D02*
X127960000Y-113792976D01*
X151460000Y-104792976D02*
X148460000Y-104792976D01*
X129210000Y-137901602D02*
X131351374Y-137901602D01*
D45*
X71960000Y-137155954D02*
X71960000Y-138292976D01*
X57460000Y-139792976D02*
X51935000Y-139792976D01*
X68627000Y-138002954D02*
X67588511Y-136964465D01*
X67588511Y-136964465D02*
X60281489Y-136964465D01*
X73277500Y-141772976D02*
X73277500Y-141080476D01*
D46*
X74960000Y-142792976D02*
X76006480Y-143839456D01*
X128960000Y-138792976D02*
X141460000Y-138792976D01*
X142660000Y-137592976D02*
X141460000Y-138792976D01*
X76006480Y-143839456D02*
X103663520Y-143839456D01*
D45*
X68627000Y-141489976D02*
X68627000Y-138002954D01*
D46*
X151360000Y-131392976D02*
X146560000Y-131392976D01*
D45*
X69735000Y-142597976D02*
X68627000Y-141489976D01*
D46*
X142660000Y-135292976D02*
X142660000Y-137592976D01*
X152960000Y-114292976D02*
X151245000Y-112577976D01*
X151710000Y-131042976D02*
X151360000Y-131392976D01*
X73460000Y-143042976D02*
X74710000Y-144292976D01*
D45*
X71060991Y-136256945D02*
X71960000Y-137155954D01*
X73277500Y-141080476D02*
X70235000Y-138037976D01*
D46*
X133210000Y-128042976D02*
X129210000Y-128042976D01*
X56588160Y-92164816D02*
X68960000Y-92164816D01*
X126293672Y-98564497D02*
X128803480Y-101074305D01*
X128803480Y-101074305D02*
X128803480Y-110449496D01*
X153413520Y-118177273D02*
X155369223Y-120132976D01*
X44960000Y-96292976D02*
X49541680Y-91711296D01*
X148460000Y-102292976D02*
X151460000Y-102292976D01*
X128460000Y-96792976D02*
X135960000Y-96792976D01*
X151432854Y-112124456D02*
X153413520Y-114105122D01*
D45*
X73747500Y-137942870D02*
X71354055Y-135549425D01*
X74147606Y-138342976D02*
X73747500Y-137942870D01*
X51716449Y-135549425D02*
X49960000Y-133792976D01*
D46*
X142460000Y-110037976D02*
X140392500Y-110037976D01*
X140392500Y-110037976D02*
X140117500Y-110312976D01*
X155369223Y-120132976D02*
X156375000Y-120132976D01*
X49541680Y-91711296D02*
X66960000Y-91711296D01*
D45*
X41460000Y-126792976D02*
X40460000Y-127792976D01*
D46*
X127775289Y-96108265D02*
X128460000Y-96792976D01*
D45*
X58460000Y-138792976D02*
X57460000Y-139792976D01*
X40460000Y-134512976D02*
X43960000Y-138012976D01*
D46*
X116034959Y-92139456D02*
X122460000Y-98564497D01*
X44960000Y-98792976D02*
X44960000Y-96292976D01*
D45*
X71354055Y-135549425D02*
X51716449Y-135549425D01*
D46*
X68960000Y-92164816D02*
X68985360Y-92139456D01*
X43960000Y-99792976D02*
X44960000Y-98792976D01*
X153413520Y-114105122D02*
X153413520Y-118177273D01*
X120775289Y-96108265D02*
X127775289Y-96108265D01*
X68985360Y-92139456D02*
X116034959Y-92139456D01*
X144546480Y-112124456D02*
X151432854Y-112124456D01*
D45*
X49960000Y-127792976D02*
X48960000Y-126792976D01*
D46*
X48460000Y-100292976D02*
X56588160Y-92164816D01*
X122460000Y-98564497D02*
X126293672Y-98564497D01*
D45*
X60281489Y-136964465D02*
X59960000Y-137285954D01*
X59960000Y-137285954D02*
X59960000Y-138394998D01*
X76997500Y-138342976D02*
X74147606Y-138342976D01*
X40460000Y-127792976D02*
X40460000Y-134512976D01*
D46*
X142460000Y-110037976D02*
X144546480Y-112124456D01*
X128803480Y-110449496D02*
X127960000Y-111292976D01*
D45*
X49155000Y-142572976D02*
X51935000Y-139792976D01*
D46*
X39960000Y-100292976D02*
X40460000Y-99792976D01*
D45*
X49960000Y-133792976D02*
X49960000Y-127792976D01*
X44557500Y-138012976D02*
X46780000Y-140235476D01*
X48960000Y-126792976D02*
X41460000Y-126792976D01*
X43960000Y-138012976D02*
X44557500Y-138012976D01*
D46*
X160860000Y-102610228D02*
X160860000Y-100192976D01*
D45*
X169462500Y-138292976D02*
X165942500Y-141812976D01*
X166962500Y-143292976D02*
X165942500Y-144312976D01*
D46*
X160860000Y-100192976D02*
X161310000Y-99742976D01*
X160465106Y-105355122D02*
X160465106Y-103005122D01*
X158915000Y-106905228D02*
X160465106Y-105355122D01*
X40460000Y-99792976D02*
X43960000Y-99792976D01*
D45*
X173960000Y-143292976D02*
X166962500Y-143292976D01*
X172480000Y-130812976D02*
X165942500Y-130812976D01*
X166962500Y-127292976D02*
X173960000Y-127292976D01*
X173960000Y-132292976D02*
X172480000Y-130812976D01*
X173960000Y-138292976D02*
X169462500Y-138292976D01*
X165942500Y-128312976D02*
X166962500Y-127292976D01*
D46*
X160465106Y-103005122D02*
X160860000Y-102610228D01*
X161310000Y-99742976D02*
X161310000Y-97602976D01*
X161310000Y-97602976D02*
X162460000Y-96452976D01*
X116352960Y-91685936D02*
X120775289Y-96108265D01*
X66985360Y-91685936D02*
X116352960Y-91685936D01*
X66960000Y-91711296D02*
X66985360Y-91685936D01*
X158915000Y-109972976D02*
X160330000Y-109972976D01*
X161106480Y-109196496D02*
X161106480Y-105996496D01*
X161460000Y-105642976D02*
X161460000Y-103292976D01*
X161560000Y-110092976D02*
X161560000Y-106352976D01*
X162300000Y-102452976D02*
X162460000Y-102452976D01*
X161460000Y-103292976D02*
X162300000Y-102452976D01*
X160330000Y-109972976D02*
X161106480Y-109196496D01*
X157539711Y-111348265D02*
X160304711Y-111348265D01*
X161560000Y-106352976D02*
X162460000Y-105452976D01*
X160304711Y-111348265D02*
X161560000Y-110092976D01*
X156375000Y-112512976D02*
X157539711Y-111348265D01*
X161106480Y-105996496D02*
X161460000Y-105642976D01*
X158915000Y-107432976D02*
X158915000Y-106905228D01*
D45*
X87460000Y-124292392D02*
X87460000Y-124542976D01*
X84960000Y-113792976D02*
X84960000Y-116542976D01*
X80547022Y-106792976D02*
X78710000Y-106792976D01*
X85074560Y-122907536D02*
X86540520Y-124373496D01*
X88030980Y-132542976D02*
X111860000Y-132542976D01*
X87460000Y-124542976D02*
X87517022Y-124542976D01*
X81210000Y-106129998D02*
X80547022Y-106792976D01*
X72860000Y-103292976D02*
X76960000Y-107392976D01*
X78210000Y-111542976D02*
X81530980Y-111542976D01*
X83210000Y-103792976D02*
X81210000Y-105792976D01*
X89810000Y-103792976D02*
X83210000Y-103792976D01*
X83790520Y-113802516D02*
X83790520Y-117373496D01*
X98460000Y-128992976D02*
X100660000Y-126792976D01*
X81210000Y-105792976D02*
X81210000Y-106129998D01*
X87517022Y-124542976D02*
X90960000Y-127985954D01*
X81960000Y-110792976D02*
X84960000Y-113792976D01*
X105210000Y-128792976D02*
X105410000Y-128992976D01*
X90960000Y-127985954D02*
X90960000Y-130792976D01*
X97460000Y-124042976D02*
X92210000Y-118792976D01*
X107210000Y-126792976D02*
X110460000Y-123542976D01*
X86210000Y-117792976D02*
X86210000Y-123042392D01*
X81530980Y-111542976D02*
X83790520Y-113802516D01*
X86210000Y-123042392D02*
X87460000Y-124292392D01*
X101210000Y-128792976D02*
X105210000Y-128792976D01*
X84960000Y-116542976D02*
X86210000Y-117792976D01*
X101210000Y-129792976D02*
X101210000Y-128792976D01*
X86540520Y-131052516D02*
X88030980Y-132542976D01*
X86540520Y-124373496D02*
X86540520Y-131052516D01*
X90960000Y-130792976D02*
X91710000Y-131542976D01*
X76960000Y-107392976D02*
X76960000Y-110292976D01*
X77960000Y-109792976D02*
X78960000Y-110792976D01*
X100660000Y-126792976D02*
X107210000Y-126792976D01*
X110460000Y-123542976D02*
X110460000Y-119042976D01*
X85074560Y-118657536D02*
X85074560Y-122907536D01*
X78960000Y-110792976D02*
X81960000Y-110792976D01*
X77960000Y-107542976D02*
X77960000Y-109792976D01*
X83790520Y-117373496D02*
X85074560Y-118657536D01*
X76960000Y-110292976D02*
X78210000Y-111542976D01*
X111860000Y-132542976D02*
X115410000Y-128992976D01*
X78710000Y-106792976D02*
X77960000Y-107542976D01*
X54942022Y-143792976D02*
X55960000Y-142774998D01*
X47460000Y-128987976D02*
X48281489Y-129809465D01*
X42460000Y-143792976D02*
X54942022Y-143792976D01*
X55960000Y-142774998D02*
X55960000Y-141740954D01*
X184460000Y-129292976D02*
X184460000Y-125637976D01*
X182480000Y-143235476D02*
X181402500Y-143235476D01*
X57200458Y-140500496D02*
X63752480Y-140500496D01*
X97460000Y-124542976D02*
X97460000Y-124042976D01*
X96710000Y-125292976D02*
X95960000Y-126042976D01*
X96710000Y-125292976D02*
X97460000Y-124542976D01*
X181402500Y-143235476D02*
X180460000Y-142292976D01*
X92210000Y-118792976D02*
X91285000Y-118792976D01*
X48281489Y-129809465D02*
X48281489Y-141292976D01*
X54935000Y-124767976D02*
X56960000Y-126792976D01*
X75360000Y-119292976D02*
X75360000Y-122887976D01*
X54935000Y-118967976D02*
X54935000Y-124767976D01*
X54460000Y-125892976D02*
X54460000Y-128987976D01*
X42960000Y-140792976D02*
X41960000Y-141792976D01*
X45405073Y-140792976D02*
X42960000Y-140792976D01*
X41960000Y-141792976D02*
X41960000Y-143292976D01*
X63752480Y-140500496D02*
X63935000Y-140317976D01*
X45905073Y-141292976D02*
X45405073Y-140792976D01*
X41960000Y-143292976D02*
X42460000Y-143792976D01*
X71460000Y-126892976D02*
X63860000Y-119292976D01*
X48281489Y-141292976D02*
X45905073Y-141292976D01*
X37460000Y-128987976D02*
X37460000Y-140092976D01*
X55960000Y-141740954D02*
X57200458Y-140500496D01*
X56960000Y-126792976D02*
X56960000Y-127792976D01*
X47460000Y-118892976D02*
X54460000Y-125892976D01*
X37460000Y-140092976D02*
X37660000Y-140292976D01*
X71460000Y-128987976D02*
X71460000Y-126892976D01*
X75360000Y-122887976D02*
X81460000Y-128987976D01*
X186460000Y-116372976D02*
X184880000Y-114792976D01*
X179460000Y-124292976D02*
X181960000Y-124292976D01*
X186460000Y-119792976D02*
X186460000Y-116372976D01*
D46*
X160856480Y-97346496D02*
X161510000Y-96692976D01*
D45*
X178460000Y-123292976D02*
X179460000Y-124292976D01*
D46*
X162450000Y-93452976D02*
X162460000Y-93452976D01*
X161510000Y-94392976D02*
X162450000Y-93452976D01*
X160856480Y-99492976D02*
X160856480Y-97346496D01*
X159860000Y-103542976D02*
X160011586Y-103391390D01*
X161360000Y-100552976D02*
X162460000Y-99452976D01*
D47*
X184880000Y-111372976D02*
X185460000Y-110792976D01*
D46*
X160406480Y-102396496D02*
X160406480Y-99942976D01*
X157555000Y-108792976D02*
X159760000Y-108792976D01*
X160011586Y-102791390D02*
X160406480Y-102396496D01*
D45*
X189865316Y-122589456D02*
X187663520Y-122589456D01*
D46*
X161510000Y-96692976D02*
X161510000Y-94392976D01*
D45*
X183960000Y-132292976D02*
X180960000Y-129292976D01*
X178460000Y-119292976D02*
X178460000Y-123292976D01*
X182960000Y-123292976D02*
X182960000Y-121292976D01*
D46*
X156375000Y-107432976D02*
X157660000Y-106147976D01*
X160652960Y-107900016D02*
X160652960Y-105808642D01*
X157660000Y-104500825D02*
X158617849Y-103542976D01*
X160406480Y-99942976D02*
X160856480Y-99492976D01*
X160652960Y-105808642D02*
X160989313Y-105472289D01*
D45*
X186460000Y-131292976D02*
X185460000Y-132292976D01*
D46*
X158617849Y-103542976D02*
X159860000Y-103542976D01*
D48*
X180960000Y-122710476D02*
X180980000Y-122730476D01*
D46*
X160011586Y-103391390D02*
X160011586Y-102791390D01*
D45*
X185460000Y-120792976D02*
X186460000Y-119792976D01*
X181960000Y-124292976D02*
X182960000Y-123292976D01*
D48*
X180960000Y-119132976D02*
X180960000Y-122710476D01*
D46*
X157660000Y-106147976D02*
X157660000Y-104500825D01*
D45*
X190730000Y-123792976D02*
X190730000Y-123454140D01*
X186460000Y-123792976D02*
X186460000Y-131292976D01*
X183460000Y-120792976D02*
X185460000Y-120792976D01*
X190730000Y-123454140D02*
X189865316Y-122589456D01*
X187663520Y-122589456D02*
X186460000Y-123792976D01*
X185460000Y-132292976D02*
X183960000Y-132292976D01*
X182960000Y-121292976D02*
X183460000Y-120792976D01*
D47*
X184880000Y-114792976D02*
X184880000Y-111372976D01*
D45*
X163017500Y-144312976D02*
X164926480Y-142403996D01*
D46*
X161360000Y-102751602D02*
X161360000Y-100552976D01*
X156375000Y-109972976D02*
X157555000Y-108792976D01*
X160989313Y-105472289D02*
X160989313Y-103122289D01*
D45*
X163017500Y-130812976D02*
X163017500Y-134895476D01*
D46*
X159760000Y-108792976D02*
X160652960Y-107900016D01*
D45*
X164926480Y-142403996D02*
X164926480Y-139326496D01*
X164033520Y-133526496D02*
X165960000Y-135452976D01*
X164926480Y-139326496D02*
X165960000Y-138292976D01*
X164033520Y-129328996D02*
X164033520Y-133526496D01*
X163017500Y-134895476D02*
X162460000Y-135452976D01*
X163017500Y-138850476D02*
X162460000Y-138292976D01*
D46*
X160989313Y-103122289D02*
X161360000Y-102751602D01*
X162460000Y-108452976D02*
X162460000Y-111952976D01*
X161900000Y-112512976D02*
X162460000Y-111952976D01*
D45*
X163017500Y-141812976D02*
X163017500Y-138850476D01*
D46*
X158915000Y-112512976D02*
X161900000Y-112512976D01*
D45*
X163017500Y-128312976D02*
X164033520Y-129328996D01*
D48*
X160333711Y-136494265D02*
X160333711Y-130916687D01*
X161510000Y-129740398D02*
X160333711Y-130916687D01*
X163610000Y-115242976D02*
X166910000Y-115242976D01*
X139210000Y-126292976D02*
X145210000Y-126292976D01*
D49*
X190480000Y-129792976D02*
X195480000Y-124792976D01*
X190460000Y-129792976D02*
X190480000Y-129792976D01*
D48*
X137192500Y-122812976D02*
X137192500Y-124275476D01*
X168910000Y-108442976D02*
X167410000Y-106942976D01*
X160333711Y-118519265D02*
X163610000Y-115242976D01*
X136710000Y-97542976D02*
X137192500Y-97060476D01*
X137192500Y-96135476D02*
X141135000Y-92192976D01*
X147710000Y-123792976D02*
X150460000Y-123792976D01*
X145235000Y-126267976D02*
X146110000Y-125392976D01*
X158915000Y-137912976D02*
X160333711Y-136494265D01*
X166910000Y-115242976D02*
X168910000Y-113242976D01*
X154210000Y-127542976D02*
X154210000Y-135792976D01*
X150460000Y-123792976D02*
X154210000Y-127542976D01*
X136710000Y-99830476D02*
X136710000Y-97542976D01*
X145210000Y-126292976D02*
X145235000Y-126267976D01*
X168910000Y-113242976D02*
X168910000Y-108442976D01*
X137192500Y-97060476D02*
X137192500Y-96135476D01*
X160333711Y-125766687D02*
X160333711Y-118519265D01*
X146110000Y-125392976D02*
X147710000Y-123792976D01*
X137192500Y-100312976D02*
X137192500Y-122812976D01*
X137192500Y-100312976D02*
X136710000Y-99830476D01*
X137192500Y-124275476D02*
X139210000Y-126292976D01*
X154210000Y-135792976D02*
X154255000Y-135792976D01*
X154255000Y-135792976D02*
X156375000Y-137912976D01*
X161510000Y-126942976D02*
X161510000Y-129740398D01*
X160333711Y-125766687D02*
X161510000Y-126942976D01*
X85940000Y-111275476D02*
X85940000Y-111022976D01*
X87504489Y-123037465D02*
X87504489Y-114799965D01*
X92960000Y-128987976D02*
X95265000Y-131292976D01*
X86227500Y-113522976D02*
X86227500Y-111562976D01*
X87504489Y-114799965D02*
X86227500Y-113522976D01*
X95265000Y-131292976D02*
X107155000Y-131292976D01*
X93460000Y-128992976D02*
X87504489Y-123037465D01*
X86227500Y-111562976D02*
X85940000Y-111275476D01*
X107155000Y-131292976D02*
X109460000Y-128987976D01*
D44*
X108460000Y-144042976D02*
X105960000Y-144042976D01*
D48*
X85940000Y-111022976D02*
X83710000Y-108792976D01*
D45*
X110960000Y-109542976D02*
X105389020Y-109542976D01*
D48*
X177979489Y-143773487D02*
X177960000Y-143792976D01*
D45*
X113410000Y-106822976D02*
X112910000Y-106822976D01*
X41860000Y-112592976D02*
X40260000Y-110992976D01*
X59980000Y-106772976D02*
X57960000Y-108792976D01*
D48*
X59460000Y-128987976D02*
X62265000Y-131792976D01*
D45*
X132212500Y-97792976D02*
X129692500Y-100312976D01*
X181960000Y-132292976D02*
X182960000Y-133292976D01*
D48*
X178979489Y-142812465D02*
X178979489Y-142273487D01*
D45*
X111460000Y-109042976D02*
X110960000Y-109542976D01*
X48460000Y-106792976D02*
X55960000Y-106792976D01*
X181960000Y-131792976D02*
X181960000Y-132292976D01*
D48*
X152460000Y-129292976D02*
X153110000Y-129942976D01*
D44*
X97210000Y-113792976D02*
X97210000Y-111292976D01*
D45*
X45660000Y-103842976D02*
X45660000Y-103342976D01*
X179406489Y-130239465D02*
X180460000Y-131292976D01*
X77080500Y-112984456D02*
X79121407Y-112984456D01*
D48*
X178979489Y-143773487D02*
X177979489Y-143773487D01*
X146960000Y-129292976D02*
X152460000Y-129292976D01*
D45*
X129710000Y-126042976D02*
X130960000Y-127292976D01*
X70160000Y-114072976D02*
X70680000Y-114072976D01*
X105240000Y-112842976D02*
X103632000Y-114450976D01*
X85075040Y-133492976D02*
X85260000Y-133492976D01*
X42240000Y-112592976D02*
X41860000Y-112592976D01*
X147606489Y-95439439D02*
X147606489Y-93584465D01*
X96997500Y-105042976D02*
X96997500Y-105330476D01*
D44*
X96563520Y-114439456D02*
X97210000Y-113792976D01*
D45*
X79960000Y-113823049D02*
X79960000Y-118292976D01*
D48*
X178979489Y-142273487D02*
X178979489Y-143773487D01*
D45*
X129710000Y-122830476D02*
X129710000Y-126042976D01*
X99210000Y-111292976D02*
X97210000Y-111292976D01*
X182960000Y-104952976D02*
X180960000Y-102952976D01*
D44*
X93197500Y-113092976D02*
X94543980Y-114439456D01*
D45*
X99458520Y-114041496D02*
X99458520Y-111541496D01*
D48*
X182960000Y-133462472D02*
X179960000Y-136462472D01*
D45*
X105389020Y-109542976D02*
X103889020Y-111042976D01*
X179406489Y-127228987D02*
X179406489Y-130239465D01*
X182960000Y-115792976D02*
X182960000Y-104952976D01*
X79121407Y-112984456D02*
X79960000Y-113823049D01*
X82487022Y-119792976D02*
X83460000Y-120765954D01*
X97210000Y-111292976D02*
X96210000Y-111292976D01*
X103889020Y-111042976D02*
X99460000Y-111042976D01*
X138085000Y-98417976D02*
X138710000Y-99042976D01*
X139460000Y-99042976D02*
X141460000Y-97042976D01*
X180980000Y-125655476D02*
X179406489Y-127228987D01*
X78960000Y-132292976D02*
X75122500Y-136130476D01*
D48*
X73655000Y-131792976D02*
X76460000Y-128987976D01*
D45*
X112910000Y-106822976D02*
X111460000Y-108272976D01*
D48*
X83710000Y-108792976D02*
X79960000Y-108792976D01*
D45*
X58185000Y-143067976D02*
X57460000Y-143792976D01*
D48*
X146960000Y-129292976D02*
X144570000Y-131682976D01*
D45*
X83875040Y-132292976D02*
X78960000Y-132292976D01*
X134710000Y-97792976D02*
X133710000Y-97792976D01*
D48*
X62265000Y-131792976D02*
X73655000Y-131792976D01*
X59460000Y-110292976D02*
X57960000Y-108792976D01*
D45*
X60977500Y-106772976D02*
X59980000Y-106772976D01*
D48*
X153110000Y-129942976D02*
X153110000Y-139372976D01*
X149460000Y-143022976D02*
X149460000Y-142792975D01*
D45*
X55960000Y-106792976D02*
X57960000Y-108792976D01*
X79960000Y-118292976D02*
X81460000Y-119792976D01*
D48*
X178979489Y-142773487D02*
X178979489Y-142273487D01*
X59460000Y-128987976D02*
X59460000Y-110292976D01*
D45*
X146002952Y-97042976D02*
X147606489Y-95439439D01*
X133710000Y-97792976D02*
X132212500Y-97792976D01*
D48*
X179960000Y-136462472D02*
X179960000Y-141292976D01*
D45*
X84667520Y-133085456D02*
X84917520Y-133335456D01*
X147606489Y-93584465D02*
X146215000Y-92192976D01*
D48*
X179960000Y-143792976D02*
X178979489Y-142812465D01*
D45*
X45660000Y-103342976D02*
X45660000Y-102692976D01*
D49*
X188460000Y-129792976D02*
X188460000Y-135292976D01*
D45*
X84917520Y-133335456D02*
X83875040Y-132292976D01*
D49*
X188460000Y-135292976D02*
X186460000Y-137292976D01*
D45*
X96997500Y-105330476D02*
X99460000Y-107792976D01*
X83460000Y-125292976D02*
X84667520Y-126500496D01*
X130960000Y-127292976D02*
X144960000Y-127292976D01*
X58960000Y-143792976D02*
X58235000Y-143067976D01*
X42210000Y-103342976D02*
X40260000Y-105292976D01*
X181460000Y-131292976D02*
X181960000Y-131792976D01*
D48*
X179960000Y-141292976D02*
X178979489Y-142273487D01*
D45*
X75122500Y-136130476D02*
X75122500Y-137392976D01*
X184460000Y-119132976D02*
X184460000Y-117292976D01*
D44*
X94543980Y-114439456D02*
X96563520Y-114439456D01*
D45*
X85260000Y-133492976D02*
X85260000Y-134492976D01*
X40260000Y-110992976D02*
X40260000Y-109330476D01*
X40260000Y-105292976D02*
X40260000Y-109330476D01*
X72460000Y-112292976D02*
X76389020Y-112292976D01*
X138710000Y-99042976D02*
X139460000Y-99042976D01*
X99460000Y-107792976D02*
X99460000Y-111042976D01*
X99460000Y-111042976D02*
X99210000Y-111292976D01*
D48*
X149460000Y-142792975D02*
X151460000Y-140792975D01*
D45*
X184460000Y-117292976D02*
X182960000Y-115792976D01*
X84917520Y-133335456D02*
X85075040Y-133492976D01*
D48*
X144570000Y-131682976D02*
X142335000Y-131682976D01*
D45*
X83460000Y-120765954D02*
X83460000Y-125292976D01*
D48*
X177960000Y-143792976D02*
X178979489Y-142773487D01*
D45*
X144960000Y-127292976D02*
X146960000Y-129292976D01*
X180460000Y-131292976D02*
X181460000Y-131292976D01*
X58235000Y-143067976D02*
X58185000Y-143067976D01*
X81460000Y-119792976D02*
X82487022Y-119792976D01*
D48*
X153110000Y-139372976D02*
X149460000Y-143022976D01*
D45*
X99868000Y-114450976D02*
X99458520Y-114041496D01*
D48*
X182960000Y-133292976D02*
X182960000Y-133462472D01*
D45*
X76389020Y-112292976D02*
X77080500Y-112984456D01*
X70680000Y-114072976D02*
X72460000Y-112292976D01*
X58235000Y-142072976D02*
X58235000Y-143067976D01*
X45660000Y-103342976D02*
X42210000Y-103342976D01*
X99458520Y-111541496D02*
X99210000Y-111292976D01*
X129692500Y-122812976D02*
X129710000Y-122830476D01*
X84667520Y-126500496D02*
X84667520Y-133085456D01*
X103632000Y-114450976D02*
X99868000Y-114450976D01*
X129692500Y-100312976D02*
X129692500Y-122812976D01*
X141460000Y-97042976D02*
X146002952Y-97042976D01*
X111460000Y-108272976D02*
X111460000Y-109042976D01*
D48*
X146920000Y-133682976D02*
X146920000Y-134202976D01*
D45*
X46780000Y-137310476D02*
X42460000Y-132990476D01*
D48*
X146920000Y-134202976D02*
X146920000Y-143022976D01*
D50*
X189960000Y-137292976D02*
X194460000Y-137292976D01*
D48*
X146920000Y-143022976D02*
X146920000Y-145752976D01*
D45*
X42460000Y-132990476D02*
X42460000Y-128987976D01*
D48*
X146810000Y-132742976D02*
X146920000Y-132852976D01*
X146920000Y-145752976D02*
X146960000Y-145792976D01*
D50*
X189960000Y-137292976D02*
X189960000Y-146292976D01*
D48*
X147960000Y-132642976D02*
X146920000Y-133682976D01*
X146920000Y-132852976D02*
X146920000Y-134202976D01*
%TD*%
%TA.AperFunction,NonConductor*%
G36*
X210652121Y-144312978D02*
G01*
X210698614Y-144366634D01*
X210710000Y-144418976D01*
X210710000Y-150166976D01*
X210689998Y-150235097D01*
X210636342Y-150281590D01*
X210584000Y-150292976D01*
X166186664Y-150292976D01*
X166118543Y-150272974D01*
X166072050Y-150219318D01*
X166061946Y-150149044D01*
X166091440Y-150084464D01*
X166151166Y-150046080D01*
X166176778Y-150041364D01*
X166211148Y-150038659D01*
X166215955Y-150037505D01*
X166215961Y-150037504D01*
X166371711Y-150000111D01*
X166456111Y-149979849D01*
X166460684Y-149977955D01*
X166684285Y-149885337D01*
X166684289Y-149885335D01*
X166688859Y-149883442D01*
X166903659Y-149751812D01*
X166907419Y-149748600D01*
X166907424Y-149748597D01*
X167091462Y-149591413D01*
X167095224Y-149588200D01*
X167138868Y-149537100D01*
X167255621Y-149400400D01*
X167255624Y-149400395D01*
X167258836Y-149396635D01*
X167390466Y-149181835D01*
X167393548Y-149174396D01*
X167484979Y-148953660D01*
X167484980Y-148953658D01*
X167486873Y-148949087D01*
X167507135Y-148864687D01*
X167544528Y-148708937D01*
X167544529Y-148708931D01*
X167545683Y-148704124D01*
X167565449Y-148452976D01*
X167545683Y-148201828D01*
X167531548Y-148142948D01*
X167488028Y-147961677D01*
X167486873Y-147956865D01*
X167458339Y-147887977D01*
X167452125Y-147872976D01*
X180354551Y-147872976D01*
X180374317Y-148124124D01*
X180375471Y-148128931D01*
X180375472Y-148128937D01*
X180391816Y-148197015D01*
X180433127Y-148369087D01*
X180435020Y-148373658D01*
X180435021Y-148373660D01*
X180490238Y-148506965D01*
X180529534Y-148601835D01*
X180661164Y-148816635D01*
X180664376Y-148820395D01*
X180664379Y-148820400D01*
X180773286Y-148947913D01*
X180824776Y-149008200D01*
X180828538Y-149011413D01*
X181012576Y-149168597D01*
X181012581Y-149168600D01*
X181016341Y-149171812D01*
X181231141Y-149303442D01*
X181235711Y-149305335D01*
X181235715Y-149305337D01*
X181459316Y-149397955D01*
X181463889Y-149399849D01*
X181482571Y-149404334D01*
X181704039Y-149457504D01*
X181704045Y-149457505D01*
X181708852Y-149458659D01*
X181960000Y-149478425D01*
X182211148Y-149458659D01*
X182215955Y-149457505D01*
X182215961Y-149457504D01*
X182437429Y-149404334D01*
X182456111Y-149399849D01*
X182460684Y-149397955D01*
X182684285Y-149305337D01*
X182684289Y-149305335D01*
X182688859Y-149303442D01*
X182903659Y-149171812D01*
X182907419Y-149168600D01*
X182907424Y-149168597D01*
X183091462Y-149011413D01*
X183095224Y-149008200D01*
X183146714Y-148947913D01*
X183255621Y-148820400D01*
X183255624Y-148820395D01*
X183258836Y-148816635D01*
X183390466Y-148601835D01*
X183429763Y-148506965D01*
X183484979Y-148373660D01*
X183484980Y-148373658D01*
X183486873Y-148369087D01*
X183528184Y-148197015D01*
X183544528Y-148128937D01*
X183544529Y-148128931D01*
X183545683Y-148124124D01*
X183565449Y-147872976D01*
X183545683Y-147621828D01*
X183486873Y-147376865D01*
X183452145Y-147293023D01*
X183392361Y-147148691D01*
X183392359Y-147148687D01*
X183390466Y-147144117D01*
X183258836Y-146929317D01*
X183255624Y-146925557D01*
X183255621Y-146925552D01*
X183098437Y-146741514D01*
X183095224Y-146737752D01*
X182946475Y-146610708D01*
X182907424Y-146577355D01*
X182907419Y-146577352D01*
X182903659Y-146574140D01*
X182688859Y-146442510D01*
X182684289Y-146440617D01*
X182684285Y-146440615D01*
X182460684Y-146347997D01*
X182460682Y-146347996D01*
X182456111Y-146346103D01*
X182371711Y-146325841D01*
X182234821Y-146292976D01*
X185154532Y-146292976D01*
X185174365Y-146519668D01*
X185175789Y-146524981D01*
X185175789Y-146524983D01*
X185188961Y-146574140D01*
X185233261Y-146739472D01*
X185235583Y-146744452D01*
X185235584Y-146744454D01*
X185321788Y-146929317D01*
X185329432Y-146945710D01*
X185459953Y-147132115D01*
X185620861Y-147293023D01*
X185807266Y-147423544D01*
X185812244Y-147425865D01*
X185812247Y-147425867D01*
X186000249Y-147513534D01*
X186013504Y-147519715D01*
X186018812Y-147521137D01*
X186018814Y-147521138D01*
X186227993Y-147577187D01*
X186227995Y-147577187D01*
X186233308Y-147578611D01*
X186460000Y-147598444D01*
X186686692Y-147578611D01*
X186692005Y-147577187D01*
X186692007Y-147577187D01*
X186901186Y-147521138D01*
X186901188Y-147521137D01*
X186906496Y-147519715D01*
X186919751Y-147513534D01*
X187107753Y-147425867D01*
X187107756Y-147425865D01*
X187112734Y-147423544D01*
X187299139Y-147293023D01*
X187460047Y-147132115D01*
X187590568Y-146945710D01*
X187598213Y-146929317D01*
X187684416Y-146744454D01*
X187684417Y-146744452D01*
X187686739Y-146739472D01*
X187731040Y-146574140D01*
X187744211Y-146524983D01*
X187744211Y-146524981D01*
X187745635Y-146519668D01*
X187765468Y-146292976D01*
X187745635Y-146066284D01*
X187686739Y-145846480D01*
X187608449Y-145678587D01*
X187592891Y-145645223D01*
X187592889Y-145645220D01*
X187590568Y-145640242D01*
X187460047Y-145453837D01*
X187299139Y-145292929D01*
X187112734Y-145162408D01*
X187107756Y-145160087D01*
X187107753Y-145160085D01*
X186911478Y-145068560D01*
X186911476Y-145068559D01*
X186906496Y-145066237D01*
X186901188Y-145064815D01*
X186901186Y-145064814D01*
X186692007Y-145008765D01*
X186692005Y-145008765D01*
X186686692Y-145007341D01*
X186460000Y-144987508D01*
X186233308Y-145007341D01*
X186227995Y-145008765D01*
X186227993Y-145008765D01*
X186018814Y-145064814D01*
X186018812Y-145064815D01*
X186013504Y-145066237D01*
X186008524Y-145068559D01*
X186008522Y-145068560D01*
X185812247Y-145160085D01*
X185812244Y-145160087D01*
X185807266Y-145162408D01*
X185620861Y-145292929D01*
X185459953Y-145453837D01*
X185329432Y-145640242D01*
X185327111Y-145645220D01*
X185327109Y-145645223D01*
X185311551Y-145678587D01*
X185233261Y-145846480D01*
X185174365Y-146066284D01*
X185154532Y-146292976D01*
X182234821Y-146292976D01*
X182215961Y-146288448D01*
X182215955Y-146288447D01*
X182211148Y-146287293D01*
X181960000Y-146267527D01*
X181708852Y-146287293D01*
X181704045Y-146288447D01*
X181704039Y-146288448D01*
X181548289Y-146325841D01*
X181463889Y-146346103D01*
X181459318Y-146347996D01*
X181459316Y-146347997D01*
X181235715Y-146440615D01*
X181235711Y-146440617D01*
X181231141Y-146442510D01*
X181016341Y-146574140D01*
X181012581Y-146577352D01*
X181012576Y-146577355D01*
X180973525Y-146610708D01*
X180824776Y-146737752D01*
X180821563Y-146741514D01*
X180664379Y-146925552D01*
X180664376Y-146925557D01*
X180661164Y-146929317D01*
X180529534Y-147144117D01*
X180527641Y-147148687D01*
X180527639Y-147148691D01*
X180467855Y-147293023D01*
X180433127Y-147376865D01*
X180374317Y-147621828D01*
X180354551Y-147872976D01*
X167452125Y-147872976D01*
X167392361Y-147728691D01*
X167392359Y-147728687D01*
X167390466Y-147724117D01*
X167258836Y-147509317D01*
X167255624Y-147505557D01*
X167255621Y-147505552D01*
X167098437Y-147321514D01*
X167095224Y-147317752D01*
X167050722Y-147279744D01*
X166907424Y-147157355D01*
X166907419Y-147157352D01*
X166903659Y-147154140D01*
X166688859Y-147022510D01*
X166684289Y-147020617D01*
X166684285Y-147020615D01*
X166460684Y-146927997D01*
X166460682Y-146927996D01*
X166456111Y-146926103D01*
X166371711Y-146905841D01*
X166215961Y-146868448D01*
X166215955Y-146868447D01*
X166211148Y-146867293D01*
X165960000Y-146847527D01*
X165708852Y-146867293D01*
X165704045Y-146868447D01*
X165704039Y-146868448D01*
X165548289Y-146905841D01*
X165463889Y-146926103D01*
X165459318Y-146927996D01*
X165459316Y-146927997D01*
X165235715Y-147020615D01*
X165235711Y-147020617D01*
X165231141Y-147022510D01*
X165016341Y-147154140D01*
X165012581Y-147157352D01*
X165012576Y-147157355D01*
X164869278Y-147279744D01*
X164824776Y-147317752D01*
X164821563Y-147321514D01*
X164664379Y-147505552D01*
X164664376Y-147505557D01*
X164661164Y-147509317D01*
X164529534Y-147724117D01*
X164527641Y-147728687D01*
X164527639Y-147728691D01*
X164461661Y-147887977D01*
X164433127Y-147956865D01*
X164431972Y-147961677D01*
X164388453Y-148142948D01*
X164374317Y-148201828D01*
X164354551Y-148452976D01*
X164374317Y-148704124D01*
X164375471Y-148708931D01*
X164375472Y-148708937D01*
X164412865Y-148864687D01*
X164433127Y-148949087D01*
X164435020Y-148953658D01*
X164435021Y-148953660D01*
X164526453Y-149174396D01*
X164529534Y-149181835D01*
X164661164Y-149396635D01*
X164664376Y-149400395D01*
X164664379Y-149400400D01*
X164781132Y-149537100D01*
X164824776Y-149588200D01*
X164828538Y-149591413D01*
X165012576Y-149748597D01*
X165012581Y-149748600D01*
X165016341Y-149751812D01*
X165231141Y-149883442D01*
X165235711Y-149885335D01*
X165235715Y-149885337D01*
X165459316Y-149977955D01*
X165463889Y-149979849D01*
X165548289Y-150000111D01*
X165704039Y-150037504D01*
X165704045Y-150037505D01*
X165708852Y-150038659D01*
X165743222Y-150041364D01*
X165809563Y-150066650D01*
X165851703Y-150123788D01*
X165856262Y-150194638D01*
X165821793Y-150256705D01*
X165759239Y-150290285D01*
X165733336Y-150292976D01*
X162686664Y-150292976D01*
X162618543Y-150272974D01*
X162572050Y-150219318D01*
X162561946Y-150149044D01*
X162591440Y-150084464D01*
X162651166Y-150046080D01*
X162676778Y-150041364D01*
X162711148Y-150038659D01*
X162715955Y-150037505D01*
X162715961Y-150037504D01*
X162871711Y-150000111D01*
X162956111Y-149979849D01*
X162960684Y-149977955D01*
X163184285Y-149885337D01*
X163184289Y-149885335D01*
X163188859Y-149883442D01*
X163403659Y-149751812D01*
X163407419Y-149748600D01*
X163407424Y-149748597D01*
X163591462Y-149591413D01*
X163595224Y-149588200D01*
X163638868Y-149537100D01*
X163755621Y-149400400D01*
X163755624Y-149400395D01*
X163758836Y-149396635D01*
X163890466Y-149181835D01*
X163893548Y-149174396D01*
X163984979Y-148953660D01*
X163984980Y-148953658D01*
X163986873Y-148949087D01*
X164007135Y-148864687D01*
X164044528Y-148708937D01*
X164044529Y-148708931D01*
X164045683Y-148704124D01*
X164065449Y-148452976D01*
X164045683Y-148201828D01*
X164031548Y-148142948D01*
X163988028Y-147961677D01*
X163986873Y-147956865D01*
X163958339Y-147887977D01*
X163892361Y-147728691D01*
X163892359Y-147728687D01*
X163890466Y-147724117D01*
X163758836Y-147509317D01*
X163755624Y-147505557D01*
X163755621Y-147505552D01*
X163598437Y-147321514D01*
X163595224Y-147317752D01*
X163550722Y-147279744D01*
X163407424Y-147157355D01*
X163407419Y-147157352D01*
X163403659Y-147154140D01*
X163188859Y-147022510D01*
X163184289Y-147020617D01*
X163184285Y-147020615D01*
X162960684Y-146927997D01*
X162960682Y-146927996D01*
X162956111Y-146926103D01*
X162871711Y-146905841D01*
X162715961Y-146868448D01*
X162715955Y-146868447D01*
X162711148Y-146867293D01*
X162460000Y-146847527D01*
X162208852Y-146867293D01*
X162204045Y-146868447D01*
X162204039Y-146868448D01*
X162048289Y-146905841D01*
X161963889Y-146926103D01*
X161959318Y-146927996D01*
X161959316Y-146927997D01*
X161735715Y-147020615D01*
X161735711Y-147020617D01*
X161731141Y-147022510D01*
X161516341Y-147154140D01*
X161512581Y-147157352D01*
X161512576Y-147157355D01*
X161369278Y-147279744D01*
X161324776Y-147317752D01*
X161321563Y-147321514D01*
X161164379Y-147505552D01*
X161164376Y-147505557D01*
X161161164Y-147509317D01*
X161029534Y-147724117D01*
X161027641Y-147728687D01*
X161027639Y-147728691D01*
X160961661Y-147887977D01*
X160933127Y-147956865D01*
X160931972Y-147961677D01*
X160888453Y-148142948D01*
X160874317Y-148201828D01*
X160854551Y-148452976D01*
X160874317Y-148704124D01*
X160875471Y-148708931D01*
X160875472Y-148708937D01*
X160912865Y-148864687D01*
X160933127Y-148949087D01*
X160935020Y-148953658D01*
X160935021Y-148953660D01*
X161026453Y-149174396D01*
X161029534Y-149181835D01*
X161161164Y-149396635D01*
X161164376Y-149400395D01*
X161164379Y-149400400D01*
X161281132Y-149537100D01*
X161324776Y-149588200D01*
X161328538Y-149591413D01*
X161512576Y-149748597D01*
X161512581Y-149748600D01*
X161516341Y-149751812D01*
X161731141Y-149883442D01*
X161735711Y-149885335D01*
X161735715Y-149885337D01*
X161959316Y-149977955D01*
X161963889Y-149979849D01*
X162048289Y-150000111D01*
X162204039Y-150037504D01*
X162204045Y-150037505D01*
X162208852Y-150038659D01*
X162243222Y-150041364D01*
X162309563Y-150066650D01*
X162351703Y-150123788D01*
X162356262Y-150194638D01*
X162321793Y-150256705D01*
X162259239Y-150290285D01*
X162233336Y-150292976D01*
X34086000Y-150292976D01*
X34017879Y-150272974D01*
X33971386Y-150219318D01*
X33960000Y-150166976D01*
X33960000Y-147747025D01*
X51205194Y-147747025D01*
X51217677Y-148006906D01*
X51268435Y-148262088D01*
X51356355Y-148506965D01*
X51479504Y-148736156D01*
X51482299Y-148739899D01*
X51482301Y-148739902D01*
X51632385Y-148940889D01*
X51632390Y-148940895D01*
X51635177Y-148944627D01*
X51638486Y-148947907D01*
X51638491Y-148947913D01*
X51739503Y-149048047D01*
X51819954Y-149127799D01*
X51823716Y-149130557D01*
X51823719Y-149130560D01*
X51936332Y-149213131D01*
X52029775Y-149281646D01*
X52033910Y-149283822D01*
X52033914Y-149283824D01*
X52159774Y-149350042D01*
X52260033Y-149402791D01*
X52505667Y-149488570D01*
X52510260Y-149489442D01*
X52756693Y-149536229D01*
X52756696Y-149536229D01*
X52761282Y-149537100D01*
X52891273Y-149542208D01*
X53016595Y-149547132D01*
X53016601Y-149547132D01*
X53021263Y-149547315D01*
X53122489Y-149536229D01*
X53275245Y-149519500D01*
X53275250Y-149519499D01*
X53279898Y-149518990D01*
X53284422Y-149517799D01*
X53526982Y-149453938D01*
X53526984Y-149453937D01*
X53531505Y-149452747D01*
X53653346Y-149400400D01*
X53766263Y-149351887D01*
X53766265Y-149351886D01*
X53770557Y-149350042D01*
X53991803Y-149213131D01*
X54023787Y-149186055D01*
X54186809Y-149048047D01*
X54186811Y-149048045D01*
X54190382Y-149045022D01*
X54361931Y-148849407D01*
X54385724Y-148812418D01*
X54500155Y-148634514D01*
X54502683Y-148630584D01*
X54609544Y-148393361D01*
X54617747Y-148364275D01*
X54678898Y-148147452D01*
X54678899Y-148147449D01*
X54680168Y-148142948D01*
X54696891Y-148011494D01*
X54712604Y-147887977D01*
X54712604Y-147887973D01*
X54713002Y-147884847D01*
X54715408Y-147792976D01*
X54711993Y-147747025D01*
X73205194Y-147747025D01*
X73217677Y-148006906D01*
X73268435Y-148262088D01*
X73356355Y-148506965D01*
X73479504Y-148736156D01*
X73482299Y-148739899D01*
X73482301Y-148739902D01*
X73632385Y-148940889D01*
X73632390Y-148940895D01*
X73635177Y-148944627D01*
X73638486Y-148947907D01*
X73638491Y-148947913D01*
X73739503Y-149048047D01*
X73819954Y-149127799D01*
X73823716Y-149130557D01*
X73823719Y-149130560D01*
X73936332Y-149213131D01*
X74029775Y-149281646D01*
X74033910Y-149283822D01*
X74033914Y-149283824D01*
X74159774Y-149350042D01*
X74260033Y-149402791D01*
X74505667Y-149488570D01*
X74510260Y-149489442D01*
X74756693Y-149536229D01*
X74756696Y-149536229D01*
X74761282Y-149537100D01*
X74891273Y-149542208D01*
X75016595Y-149547132D01*
X75016601Y-149547132D01*
X75021263Y-149547315D01*
X75122489Y-149536229D01*
X75275245Y-149519500D01*
X75275250Y-149519499D01*
X75279898Y-149518990D01*
X75284422Y-149517799D01*
X75526982Y-149453938D01*
X75526984Y-149453937D01*
X75531505Y-149452747D01*
X75653346Y-149400400D01*
X75766263Y-149351887D01*
X75766265Y-149351886D01*
X75770557Y-149350042D01*
X75991803Y-149213131D01*
X76023787Y-149186055D01*
X76186809Y-149048047D01*
X76186811Y-149048045D01*
X76190382Y-149045022D01*
X76361931Y-148849407D01*
X76385724Y-148812418D01*
X76500155Y-148634514D01*
X76502683Y-148630584D01*
X76609544Y-148393361D01*
X76617747Y-148364275D01*
X76678898Y-148147452D01*
X76678899Y-148147449D01*
X76680168Y-148142948D01*
X76696891Y-148011494D01*
X76712604Y-147887977D01*
X76712604Y-147887973D01*
X76713002Y-147884847D01*
X76715408Y-147792976D01*
X76711993Y-147747025D01*
X95205194Y-147747025D01*
X95217677Y-148006906D01*
X95268435Y-148262088D01*
X95356355Y-148506965D01*
X95479504Y-148736156D01*
X95482299Y-148739899D01*
X95482301Y-148739902D01*
X95632385Y-148940889D01*
X95632390Y-148940895D01*
X95635177Y-148944627D01*
X95638486Y-148947907D01*
X95638491Y-148947913D01*
X95739503Y-149048047D01*
X95819954Y-149127799D01*
X95823716Y-149130557D01*
X95823719Y-149130560D01*
X95936332Y-149213131D01*
X96029775Y-149281646D01*
X96033910Y-149283822D01*
X96033914Y-149283824D01*
X96159774Y-149350042D01*
X96260033Y-149402791D01*
X96505667Y-149488570D01*
X96510260Y-149489442D01*
X96756693Y-149536229D01*
X96756696Y-149536229D01*
X96761282Y-149537100D01*
X96891273Y-149542208D01*
X97016595Y-149547132D01*
X97016601Y-149547132D01*
X97021263Y-149547315D01*
X97122489Y-149536229D01*
X97275245Y-149519500D01*
X97275250Y-149519499D01*
X97279898Y-149518990D01*
X97284422Y-149517799D01*
X97526982Y-149453938D01*
X97526984Y-149453937D01*
X97531505Y-149452747D01*
X97653346Y-149400400D01*
X97766263Y-149351887D01*
X97766265Y-149351886D01*
X97770557Y-149350042D01*
X97991803Y-149213131D01*
X98023787Y-149186055D01*
X98186809Y-149048047D01*
X98186811Y-149048045D01*
X98190382Y-149045022D01*
X98361931Y-148849407D01*
X98385724Y-148812418D01*
X98500155Y-148634514D01*
X98502683Y-148630584D01*
X98609544Y-148393361D01*
X98617747Y-148364275D01*
X98678898Y-148147452D01*
X98678899Y-148147449D01*
X98680168Y-148142948D01*
X98696891Y-148011494D01*
X98712604Y-147887977D01*
X98712604Y-147887973D01*
X98713002Y-147884847D01*
X98715408Y-147792976D01*
X98711993Y-147747025D01*
X117205194Y-147747025D01*
X117217677Y-148006906D01*
X117268435Y-148262088D01*
X117356355Y-148506965D01*
X117479504Y-148736156D01*
X117482299Y-148739899D01*
X117482301Y-148739902D01*
X117632385Y-148940889D01*
X117632390Y-148940895D01*
X117635177Y-148944627D01*
X117638486Y-148947907D01*
X117638491Y-148947913D01*
X117739503Y-149048047D01*
X117819954Y-149127799D01*
X117823716Y-149130557D01*
X117823719Y-149130560D01*
X117936332Y-149213131D01*
X118029775Y-149281646D01*
X118033910Y-149283822D01*
X118033914Y-149283824D01*
X118159774Y-149350042D01*
X118260033Y-149402791D01*
X118505667Y-149488570D01*
X118510260Y-149489442D01*
X118756693Y-149536229D01*
X118756696Y-149536229D01*
X118761282Y-149537100D01*
X118891273Y-149542208D01*
X119016595Y-149547132D01*
X119016601Y-149547132D01*
X119021263Y-149547315D01*
X119122489Y-149536229D01*
X119275245Y-149519500D01*
X119275250Y-149519499D01*
X119279898Y-149518990D01*
X119284422Y-149517799D01*
X119526982Y-149453938D01*
X119526984Y-149453937D01*
X119531505Y-149452747D01*
X119653346Y-149400400D01*
X119766263Y-149351887D01*
X119766265Y-149351886D01*
X119770557Y-149350042D01*
X119991803Y-149213131D01*
X120023787Y-149186055D01*
X120186809Y-149048047D01*
X120186811Y-149048045D01*
X120190382Y-149045022D01*
X120361931Y-148849407D01*
X120385724Y-148812418D01*
X120500155Y-148634514D01*
X120502683Y-148630584D01*
X120609544Y-148393361D01*
X120617747Y-148364275D01*
X120678898Y-148147452D01*
X120678899Y-148147449D01*
X120680168Y-148142948D01*
X120696891Y-148011494D01*
X120712604Y-147887977D01*
X120712604Y-147887973D01*
X120713002Y-147884847D01*
X120715408Y-147792976D01*
X120696126Y-147533510D01*
X120638705Y-147279744D01*
X120637012Y-147275390D01*
X120546098Y-147041606D01*
X120546097Y-147041604D01*
X120544405Y-147037253D01*
X120415299Y-146811364D01*
X120254223Y-146607040D01*
X120064714Y-146428768D01*
X119876864Y-146298451D01*
X119854779Y-146283130D01*
X119854776Y-146283128D01*
X119850937Y-146280465D01*
X119846747Y-146278399D01*
X119846744Y-146278397D01*
X119621775Y-146167455D01*
X119621772Y-146167454D01*
X119617587Y-146165390D01*
X119369792Y-146086070D01*
X119215665Y-146060969D01*
X119117606Y-146044999D01*
X119117605Y-146044999D01*
X119112994Y-146044248D01*
X118982914Y-146042545D01*
X118857512Y-146040903D01*
X118857509Y-146040903D01*
X118852835Y-146040842D01*
X118595030Y-146075928D01*
X118345243Y-146148734D01*
X118340990Y-146150694D01*
X118340989Y-146150695D01*
X118304634Y-146167455D01*
X118108961Y-146257662D01*
X118105056Y-146260222D01*
X118105051Y-146260225D01*
X117895288Y-146397751D01*
X117895283Y-146397755D01*
X117891375Y-146400317D01*
X117697265Y-146573567D01*
X117530895Y-146773605D01*
X117395920Y-146996037D01*
X117394111Y-147000351D01*
X117394110Y-147000353D01*
X117330706Y-147151556D01*
X117295305Y-147235977D01*
X117294154Y-147240509D01*
X117294153Y-147240512D01*
X117262337Y-147365791D01*
X117231261Y-147488153D01*
X117205194Y-147747025D01*
X98711993Y-147747025D01*
X98696126Y-147533510D01*
X98638705Y-147279744D01*
X98637012Y-147275390D01*
X98546098Y-147041606D01*
X98546097Y-147041604D01*
X98544405Y-147037253D01*
X98415299Y-146811364D01*
X98254223Y-146607040D01*
X98064714Y-146428768D01*
X97876864Y-146298451D01*
X97854779Y-146283130D01*
X97854776Y-146283128D01*
X97850937Y-146280465D01*
X97846747Y-146278399D01*
X97846744Y-146278397D01*
X97621775Y-146167455D01*
X97621772Y-146167454D01*
X97617587Y-146165390D01*
X97369792Y-146086070D01*
X97215665Y-146060969D01*
X97117606Y-146044999D01*
X97117605Y-146044999D01*
X97112994Y-146044248D01*
X96982914Y-146042545D01*
X96857512Y-146040903D01*
X96857509Y-146040903D01*
X96852835Y-146040842D01*
X96595030Y-146075928D01*
X96345243Y-146148734D01*
X96340990Y-146150694D01*
X96340989Y-146150695D01*
X96304634Y-146167455D01*
X96108961Y-146257662D01*
X96105056Y-146260222D01*
X96105051Y-146260225D01*
X95895288Y-146397751D01*
X95895283Y-146397755D01*
X95891375Y-146400317D01*
X95697265Y-146573567D01*
X95530895Y-146773605D01*
X95395920Y-146996037D01*
X95394111Y-147000351D01*
X95394110Y-147000353D01*
X95330706Y-147151556D01*
X95295305Y-147235977D01*
X95294154Y-147240509D01*
X95294153Y-147240512D01*
X95262337Y-147365791D01*
X95231261Y-147488153D01*
X95205194Y-147747025D01*
X76711993Y-147747025D01*
X76696126Y-147533510D01*
X76638705Y-147279744D01*
X76637012Y-147275390D01*
X76546098Y-147041606D01*
X76546097Y-147041604D01*
X76544405Y-147037253D01*
X76415299Y-146811364D01*
X76254223Y-146607040D01*
X76064714Y-146428768D01*
X75876864Y-146298451D01*
X75854779Y-146283130D01*
X75854776Y-146283128D01*
X75850937Y-146280465D01*
X75846747Y-146278399D01*
X75846744Y-146278397D01*
X75621775Y-146167455D01*
X75621772Y-146167454D01*
X75617587Y-146165390D01*
X75369792Y-146086070D01*
X75215665Y-146060969D01*
X75117606Y-146044999D01*
X75117605Y-146044999D01*
X75112994Y-146044248D01*
X74982914Y-146042545D01*
X74857512Y-146040903D01*
X74857509Y-146040903D01*
X74852835Y-146040842D01*
X74595030Y-146075928D01*
X74345243Y-146148734D01*
X74340990Y-146150694D01*
X74340989Y-146150695D01*
X74304634Y-146167455D01*
X74108961Y-146257662D01*
X74105056Y-146260222D01*
X74105051Y-146260225D01*
X73895288Y-146397751D01*
X73895283Y-146397755D01*
X73891375Y-146400317D01*
X73697265Y-146573567D01*
X73530895Y-146773605D01*
X73395920Y-146996037D01*
X73394111Y-147000351D01*
X73394110Y-147000353D01*
X73330706Y-147151556D01*
X73295305Y-147235977D01*
X73294154Y-147240509D01*
X73294153Y-147240512D01*
X73262337Y-147365791D01*
X73231261Y-147488153D01*
X73205194Y-147747025D01*
X54711993Y-147747025D01*
X54696126Y-147533510D01*
X54638705Y-147279744D01*
X54637012Y-147275390D01*
X54546098Y-147041606D01*
X54546097Y-147041604D01*
X54544405Y-147037253D01*
X54415299Y-146811364D01*
X54254223Y-146607040D01*
X54064714Y-146428768D01*
X53876864Y-146298451D01*
X53854779Y-146283130D01*
X53854776Y-146283128D01*
X53850937Y-146280465D01*
X53846747Y-146278399D01*
X53846744Y-146278397D01*
X53621775Y-146167455D01*
X53621772Y-146167454D01*
X53617587Y-146165390D01*
X53369792Y-146086070D01*
X53215665Y-146060969D01*
X53117606Y-146044999D01*
X53117605Y-146044999D01*
X53112994Y-146044248D01*
X52982914Y-146042545D01*
X52857512Y-146040903D01*
X52857509Y-146040903D01*
X52852835Y-146040842D01*
X52595030Y-146075928D01*
X52345243Y-146148734D01*
X52340990Y-146150694D01*
X52340989Y-146150695D01*
X52304634Y-146167455D01*
X52108961Y-146257662D01*
X52105056Y-146260222D01*
X52105051Y-146260225D01*
X51895288Y-146397751D01*
X51895283Y-146397755D01*
X51891375Y-146400317D01*
X51697265Y-146573567D01*
X51530895Y-146773605D01*
X51395920Y-146996037D01*
X51394111Y-147000351D01*
X51394110Y-147000353D01*
X51330706Y-147151556D01*
X51295305Y-147235977D01*
X51294154Y-147240509D01*
X51294153Y-147240512D01*
X51262337Y-147365791D01*
X51231261Y-147488153D01*
X51205194Y-147747025D01*
X33960000Y-147747025D01*
X33960000Y-144918976D01*
X33980002Y-144850855D01*
X34033658Y-144804362D01*
X34086000Y-144792976D01*
X74284612Y-144792976D01*
X74345310Y-144808560D01*
X74355741Y-144814294D01*
X74372256Y-144825142D01*
X74388038Y-144837384D01*
X74395312Y-144840532D01*
X74395314Y-144840533D01*
X74428176Y-144854754D01*
X74438836Y-144859976D01*
X74470222Y-144877231D01*
X74470225Y-144877232D01*
X74477166Y-144881048D01*
X74484840Y-144883018D01*
X74484847Y-144883021D01*
X74496512Y-144886016D01*
X74515217Y-144892420D01*
X74520212Y-144894581D01*
X74533542Y-144900350D01*
X74541376Y-144901591D01*
X74541377Y-144901591D01*
X74576743Y-144907192D01*
X74588368Y-144909600D01*
X74619827Y-144917677D01*
X74630728Y-144920476D01*
X74650698Y-144920476D01*
X74670408Y-144922027D01*
X74690133Y-144925151D01*
X74698024Y-144924405D01*
X74733674Y-144921035D01*
X74745532Y-144920476D01*
X103882027Y-144920476D01*
X103893049Y-144920996D01*
X103900477Y-144922656D01*
X103967886Y-144920538D01*
X103971844Y-144920476D01*
X103999476Y-144920476D01*
X104003402Y-144919980D01*
X104003447Y-144919977D01*
X104015221Y-144919050D01*
X104040537Y-144918255D01*
X104051019Y-144917926D01*
X104051020Y-144917926D01*
X104058943Y-144917677D01*
X104078132Y-144912102D01*
X104097488Y-144908094D01*
X104117293Y-144905592D01*
X104130533Y-144900350D01*
X104157952Y-144889495D01*
X104169179Y-144885651D01*
X104203575Y-144875657D01*
X104203577Y-144875656D01*
X104211191Y-144873444D01*
X104218011Y-144869411D01*
X104218015Y-144869409D01*
X104228382Y-144863278D01*
X104246133Y-144854582D01*
X104257330Y-144850149D01*
X104257335Y-144850146D01*
X104264703Y-144847229D01*
X104271113Y-144842572D01*
X104271120Y-144842568D01*
X104300089Y-144821520D01*
X104310009Y-144815003D01*
X104317584Y-144810523D01*
X104381725Y-144792976D01*
X105419325Y-144792976D01*
X105493384Y-144817039D01*
X105501925Y-144823244D01*
X105507270Y-144827127D01*
X105680197Y-144904120D01*
X105767403Y-144922656D01*
X105858897Y-144942104D01*
X105858901Y-144942104D01*
X105865354Y-144943476D01*
X106054646Y-144943476D01*
X106061099Y-144942104D01*
X106061103Y-144942104D01*
X106152597Y-144922656D01*
X106239803Y-144904120D01*
X106412730Y-144827127D01*
X106418075Y-144823244D01*
X106426616Y-144817039D01*
X106500675Y-144792976D01*
X107919325Y-144792976D01*
X107993384Y-144817039D01*
X108001925Y-144823244D01*
X108007270Y-144827127D01*
X108180197Y-144904120D01*
X108267403Y-144922656D01*
X108358897Y-144942104D01*
X108358901Y-144942104D01*
X108365354Y-144943476D01*
X108554646Y-144943476D01*
X108561099Y-144942104D01*
X108561103Y-144942104D01*
X108652597Y-144922656D01*
X108739803Y-144904120D01*
X108912730Y-144827127D01*
X108918075Y-144823244D01*
X108926616Y-144817039D01*
X109000675Y-144792976D01*
X161828500Y-144792976D01*
X161896621Y-144812978D01*
X161943114Y-144866634D01*
X161954500Y-144918976D01*
X161954500Y-144987842D01*
X161954837Y-144991088D01*
X161954837Y-144991092D01*
X161964515Y-145084359D01*
X161965359Y-145092495D01*
X162020744Y-145258505D01*
X162112834Y-145407321D01*
X162236689Y-145530960D01*
X162385666Y-145622790D01*
X162392614Y-145625095D01*
X162392615Y-145625095D01*
X162545241Y-145675720D01*
X162545243Y-145675721D01*
X162551772Y-145677886D01*
X162655134Y-145688476D01*
X163379866Y-145688476D01*
X163383112Y-145688139D01*
X163383116Y-145688139D01*
X163477661Y-145678329D01*
X163477665Y-145678328D01*
X163484519Y-145677617D01*
X163491055Y-145675436D01*
X163491057Y-145675436D01*
X163643581Y-145624550D01*
X163650529Y-145622232D01*
X163799345Y-145530142D01*
X163922984Y-145406287D01*
X164014814Y-145257310D01*
X164069910Y-145091204D01*
X164080500Y-144987842D01*
X164080500Y-144918976D01*
X164100502Y-144850855D01*
X164154158Y-144804362D01*
X164206500Y-144792976D01*
X164753500Y-144792976D01*
X164821621Y-144812978D01*
X164868114Y-144866634D01*
X164879500Y-144918976D01*
X164879500Y-144987842D01*
X164879837Y-144991088D01*
X164879837Y-144991092D01*
X164889515Y-145084359D01*
X164890359Y-145092495D01*
X164945744Y-145258505D01*
X165037834Y-145407321D01*
X165161689Y-145530960D01*
X165310666Y-145622790D01*
X165317614Y-145625095D01*
X165317615Y-145625095D01*
X165470241Y-145675720D01*
X165470243Y-145675721D01*
X165476772Y-145677886D01*
X165580134Y-145688476D01*
X166304866Y-145688476D01*
X166308112Y-145688139D01*
X166308116Y-145688139D01*
X166402661Y-145678329D01*
X166402665Y-145678328D01*
X166409519Y-145677617D01*
X166416055Y-145675436D01*
X166416057Y-145675436D01*
X166568581Y-145624550D01*
X166575529Y-145622232D01*
X166724345Y-145530142D01*
X166847984Y-145406287D01*
X166939814Y-145257310D01*
X166994910Y-145091204D01*
X167005500Y-144987842D01*
X167005500Y-144918976D01*
X167025502Y-144850855D01*
X167079158Y-144804362D01*
X167131500Y-144792976D01*
X172919421Y-144792976D01*
X172987542Y-144812978D01*
X172993920Y-144817360D01*
X173003205Y-144824168D01*
X173007340Y-144826344D01*
X173007344Y-144826346D01*
X173132930Y-144892420D01*
X173240039Y-144948773D01*
X173244458Y-144950316D01*
X173488273Y-145035460D01*
X173488279Y-145035462D01*
X173492690Y-145037002D01*
X173497283Y-145037874D01*
X173748854Y-145085637D01*
X173755606Y-145086919D01*
X173882616Y-145091909D01*
X174018345Y-145097242D01*
X174018350Y-145097242D01*
X174023013Y-145097425D01*
X174118943Y-145086919D01*
X174284382Y-145068801D01*
X174284387Y-145068800D01*
X174289035Y-145068291D01*
X174404567Y-145037874D01*
X174543309Y-145001346D01*
X174547829Y-145000156D01*
X174682950Y-144942104D01*
X174789407Y-144896367D01*
X174789410Y-144896365D01*
X174793710Y-144894518D01*
X174927329Y-144811832D01*
X174993631Y-144792976D01*
X192960000Y-144792976D01*
X192960000Y-144292976D01*
X210584000Y-144292976D01*
X210652121Y-144312978D01*
G37*
%TD.AperFunction*%
%TA.AperFunction,NonConductor*%
G36*
X193010000Y-144892976D02*
G01*
X183660000Y-144892976D01*
X184386425Y-141987277D01*
X184422352Y-141926042D01*
X184485681Y-141893951D01*
X184507198Y-141891846D01*
X191108256Y-141815089D01*
X193010000Y-141792976D01*
X193010000Y-144892976D01*
G37*
%TD.AperFunction*%
%TA.AperFunction,NonConductor*%
G36*
X216402121Y-91312978D02*
G01*
X216448614Y-91366634D01*
X216460000Y-91418976D01*
X216460000Y-101416976D01*
X216439998Y-101485097D01*
X216386342Y-101531590D01*
X216334000Y-101542976D01*
X183586000Y-101542976D01*
X183517879Y-101522974D01*
X183471386Y-101469318D01*
X183460000Y-101416976D01*
X183460000Y-94132976D01*
X185744671Y-94132976D01*
X185763966Y-94427356D01*
X185821519Y-94716698D01*
X185822845Y-94720604D01*
X185822846Y-94720608D01*
X185909316Y-94975337D01*
X185916348Y-94996053D01*
X185918169Y-94999746D01*
X185918170Y-94999748D01*
X185981173Y-95127504D01*
X186046828Y-95260640D01*
X186210727Y-95505933D01*
X186213441Y-95509027D01*
X186213445Y-95509033D01*
X186402533Y-95724645D01*
X186405242Y-95727734D01*
X186408331Y-95730443D01*
X186623943Y-95919531D01*
X186623949Y-95919535D01*
X186627043Y-95922249D01*
X186630469Y-95924538D01*
X186630474Y-95924542D01*
X186814539Y-96047530D01*
X186872335Y-96086148D01*
X186876034Y-96087972D01*
X186876039Y-96087975D01*
X187133228Y-96214806D01*
X187136923Y-96216628D01*
X187140821Y-96217951D01*
X187140823Y-96217952D01*
X187412368Y-96310130D01*
X187412372Y-96310131D01*
X187416278Y-96311457D01*
X187420322Y-96312261D01*
X187420328Y-96312263D01*
X187701577Y-96368206D01*
X187701580Y-96368206D01*
X187705620Y-96369010D01*
X187709731Y-96369279D01*
X187709735Y-96369280D01*
X187995881Y-96388035D01*
X188000000Y-96388305D01*
X188004119Y-96388035D01*
X188290265Y-96369280D01*
X188290269Y-96369279D01*
X188294380Y-96369010D01*
X188298420Y-96368206D01*
X188298423Y-96368206D01*
X188579672Y-96312263D01*
X188579678Y-96312261D01*
X188583722Y-96311457D01*
X188587628Y-96310131D01*
X188587632Y-96310130D01*
X188859177Y-96217952D01*
X188859179Y-96217951D01*
X188863077Y-96216628D01*
X188866772Y-96214806D01*
X189123961Y-96087975D01*
X189123966Y-96087972D01*
X189127665Y-96086148D01*
X189185461Y-96047530D01*
X189369526Y-95924542D01*
X189369531Y-95924538D01*
X189372957Y-95922249D01*
X189376051Y-95919535D01*
X189376057Y-95919531D01*
X189591669Y-95730443D01*
X189594758Y-95727734D01*
X189597467Y-95724645D01*
X189786555Y-95509033D01*
X189786559Y-95509027D01*
X189789273Y-95505933D01*
X189953172Y-95260640D01*
X190018828Y-95127504D01*
X190081830Y-94999748D01*
X190081831Y-94999746D01*
X190083652Y-94996053D01*
X190090684Y-94975337D01*
X190177154Y-94720608D01*
X190177155Y-94720604D01*
X190178481Y-94716698D01*
X190236034Y-94427356D01*
X190255329Y-94132976D01*
X190236034Y-93838596D01*
X190235230Y-93834553D01*
X190179287Y-93553304D01*
X190179285Y-93553298D01*
X190178481Y-93549254D01*
X190176350Y-93542976D01*
X203854551Y-93542976D01*
X203874317Y-93794124D01*
X203875471Y-93798931D01*
X203875472Y-93798937D01*
X203912865Y-93954687D01*
X203933127Y-94039087D01*
X204029534Y-94271835D01*
X204161164Y-94486635D01*
X204164376Y-94490395D01*
X204164379Y-94490400D01*
X204309256Y-94660028D01*
X204324776Y-94678200D01*
X204328538Y-94681413D01*
X204512576Y-94838597D01*
X204512581Y-94838600D01*
X204516341Y-94841812D01*
X204731141Y-94973442D01*
X204735711Y-94975335D01*
X204735715Y-94975337D01*
X204959316Y-95067955D01*
X204963889Y-95069849D01*
X205048289Y-95090111D01*
X205204039Y-95127504D01*
X205204045Y-95127505D01*
X205208852Y-95128659D01*
X205297149Y-95135608D01*
X205394661Y-95143283D01*
X205394670Y-95143283D01*
X205397118Y-95143476D01*
X205522882Y-95143476D01*
X205525330Y-95143283D01*
X205525339Y-95143283D01*
X205622851Y-95135608D01*
X205711148Y-95128659D01*
X205715955Y-95127505D01*
X205715961Y-95127504D01*
X205871711Y-95090111D01*
X205956111Y-95069849D01*
X205960684Y-95067955D01*
X206184285Y-94975337D01*
X206184289Y-94975335D01*
X206188859Y-94973442D01*
X206403659Y-94841812D01*
X206407419Y-94838600D01*
X206407424Y-94838597D01*
X206591462Y-94681413D01*
X206595224Y-94678200D01*
X206610744Y-94660028D01*
X206755621Y-94490400D01*
X206755624Y-94490395D01*
X206758836Y-94486635D01*
X206890466Y-94271835D01*
X206986873Y-94039087D01*
X207007135Y-93954687D01*
X207044528Y-93798937D01*
X207044529Y-93798931D01*
X207045683Y-93794124D01*
X207065449Y-93542976D01*
X207045683Y-93291828D01*
X207040419Y-93269899D01*
X206988028Y-93051677D01*
X206986873Y-93046865D01*
X206984979Y-93042292D01*
X206892361Y-92818691D01*
X206892359Y-92818687D01*
X206890466Y-92814117D01*
X206758836Y-92599317D01*
X206755624Y-92595557D01*
X206755621Y-92595552D01*
X206598437Y-92411514D01*
X206595224Y-92407752D01*
X206523415Y-92346421D01*
X206407424Y-92247355D01*
X206407419Y-92247352D01*
X206403659Y-92244140D01*
X206188859Y-92112510D01*
X206184289Y-92110617D01*
X206184285Y-92110615D01*
X205960684Y-92017997D01*
X205960682Y-92017996D01*
X205956111Y-92016103D01*
X205871711Y-91995841D01*
X205715961Y-91958448D01*
X205715955Y-91958447D01*
X205711148Y-91957293D01*
X205622851Y-91950344D01*
X205525339Y-91942669D01*
X205525330Y-91942669D01*
X205522882Y-91942476D01*
X205397118Y-91942476D01*
X205394670Y-91942669D01*
X205394661Y-91942669D01*
X205297149Y-91950344D01*
X205208852Y-91957293D01*
X205204045Y-91958447D01*
X205204039Y-91958448D01*
X205048289Y-91995841D01*
X204963889Y-92016103D01*
X204959318Y-92017996D01*
X204959316Y-92017997D01*
X204735715Y-92110615D01*
X204735711Y-92110617D01*
X204731141Y-92112510D01*
X204516341Y-92244140D01*
X204512581Y-92247352D01*
X204512576Y-92247355D01*
X204396585Y-92346421D01*
X204324776Y-92407752D01*
X204321563Y-92411514D01*
X204164379Y-92595552D01*
X204164376Y-92595557D01*
X204161164Y-92599317D01*
X204029534Y-92814117D01*
X204027641Y-92818687D01*
X204027639Y-92818691D01*
X203935021Y-93042292D01*
X203933127Y-93046865D01*
X203931972Y-93051677D01*
X203879582Y-93269899D01*
X203874317Y-93291828D01*
X203854551Y-93542976D01*
X190176350Y-93542976D01*
X190174677Y-93538046D01*
X190084976Y-93273799D01*
X190084975Y-93273797D01*
X190083652Y-93269899D01*
X189953172Y-93005312D01*
X189789273Y-92760019D01*
X189786559Y-92756925D01*
X189786555Y-92756919D01*
X189597467Y-92541307D01*
X189594758Y-92538218D01*
X189591669Y-92535509D01*
X189376057Y-92346421D01*
X189376051Y-92346417D01*
X189372957Y-92343703D01*
X189369527Y-92341411D01*
X189369526Y-92341410D01*
X189131098Y-92182098D01*
X189127665Y-92179804D01*
X189123966Y-92177980D01*
X189123961Y-92177977D01*
X188866772Y-92051146D01*
X188866770Y-92051145D01*
X188863077Y-92049324D01*
X188859177Y-92048000D01*
X188587632Y-91955822D01*
X188587628Y-91955821D01*
X188583722Y-91954495D01*
X188579678Y-91953691D01*
X188579672Y-91953689D01*
X188298423Y-91897746D01*
X188298420Y-91897746D01*
X188294380Y-91896942D01*
X188290269Y-91896673D01*
X188290265Y-91896672D01*
X188004119Y-91877917D01*
X188000000Y-91877647D01*
X187995881Y-91877917D01*
X187709735Y-91896672D01*
X187709731Y-91896673D01*
X187705620Y-91896942D01*
X187701580Y-91897746D01*
X187701577Y-91897746D01*
X187420328Y-91953689D01*
X187420322Y-91953691D01*
X187416278Y-91954495D01*
X187412372Y-91955821D01*
X187412368Y-91955822D01*
X187140823Y-92048000D01*
X187136923Y-92049324D01*
X187133230Y-92051145D01*
X187133228Y-92051146D01*
X186876040Y-92177977D01*
X186876035Y-92177980D01*
X186872336Y-92179804D01*
X186627043Y-92343703D01*
X186623949Y-92346417D01*
X186623943Y-92346421D01*
X186408331Y-92535509D01*
X186405242Y-92538218D01*
X186402533Y-92541307D01*
X186213445Y-92756919D01*
X186213441Y-92756925D01*
X186210727Y-92760019D01*
X186046828Y-93005312D01*
X185916348Y-93269899D01*
X185915025Y-93273797D01*
X185915024Y-93273799D01*
X185825324Y-93538046D01*
X185821519Y-93549254D01*
X185820715Y-93553298D01*
X185820713Y-93553304D01*
X185764770Y-93834553D01*
X185763966Y-93838596D01*
X185744671Y-94132976D01*
X183460000Y-94132976D01*
X183460000Y-91418976D01*
X183480002Y-91350855D01*
X183533658Y-91304362D01*
X183586000Y-91292976D01*
X216334000Y-91292976D01*
X216402121Y-91312978D01*
G37*
%TD.AperFunction*%
%TA.AperFunction,NonConductor*%
G36*
X204402121Y-110812978D02*
G01*
X204448614Y-110866634D01*
X204460000Y-110918976D01*
X204460000Y-112292976D01*
X211334000Y-112292976D01*
X211402121Y-112312978D01*
X211448614Y-112366634D01*
X211460000Y-112418976D01*
X211460000Y-117166976D01*
X211439998Y-117235097D01*
X211386342Y-117281590D01*
X211334000Y-117292976D01*
X206460000Y-117292976D01*
X206460000Y-122792976D01*
X216234571Y-122792976D01*
X216302692Y-122812978D01*
X216349185Y-122866634D01*
X216360570Y-122918403D01*
X216377473Y-126637114D01*
X216459343Y-144648285D01*
X216459425Y-144666403D01*
X216439732Y-144734614D01*
X216386289Y-144781351D01*
X216333426Y-144792976D01*
X211356310Y-144792976D01*
X211288189Y-144772974D01*
X211241696Y-144719318D01*
X211231704Y-144648285D01*
X211957313Y-139810891D01*
X211957313Y-139810890D01*
X211960000Y-139792976D01*
X206586000Y-139792976D01*
X206517879Y-139772974D01*
X206471386Y-139719318D01*
X206460000Y-139666976D01*
X206460000Y-134918976D01*
X206480002Y-134850855D01*
X206533658Y-134804362D01*
X206586000Y-134792976D01*
X211960000Y-134792976D01*
X211960000Y-128792976D01*
X198586000Y-128792976D01*
X198517879Y-128772974D01*
X198471386Y-128719318D01*
X198460000Y-128666976D01*
X198460000Y-126705235D01*
X198480002Y-126637114D01*
X198533658Y-126590621D01*
X198603932Y-126580517D01*
X198668512Y-126610011D01*
X198686823Y-126629666D01*
X198702454Y-126650522D01*
X198709635Y-126655904D01*
X198809994Y-126731120D01*
X198809997Y-126731122D01*
X198817176Y-126736502D01*
X198906561Y-126770010D01*
X198944025Y-126784055D01*
X198944027Y-126784055D01*
X198951420Y-126786827D01*
X198959270Y-126787680D01*
X198959271Y-126787680D01*
X199009217Y-126793106D01*
X199012623Y-126793476D01*
X200559773Y-126793476D01*
X202107376Y-126793475D01*
X202110770Y-126793106D01*
X202110776Y-126793106D01*
X202160722Y-126787681D01*
X202160726Y-126787680D01*
X202168580Y-126786827D01*
X202302824Y-126736502D01*
X202310003Y-126731122D01*
X202310006Y-126731120D01*
X202410365Y-126655904D01*
X202417546Y-126650522D01*
X202462440Y-126590621D01*
X202498144Y-126542982D01*
X202498146Y-126542979D01*
X202503526Y-126535800D01*
X202553851Y-126401556D01*
X202560500Y-126340353D01*
X202560499Y-123245600D01*
X202553851Y-123184396D01*
X202503526Y-123050152D01*
X202498146Y-123042973D01*
X202498144Y-123042970D01*
X202422928Y-122942611D01*
X202417546Y-122935430D01*
X202394827Y-122918403D01*
X202310006Y-122854832D01*
X202310003Y-122854830D01*
X202302824Y-122849450D01*
X202213439Y-122815942D01*
X202175975Y-122801897D01*
X202175973Y-122801897D01*
X202168580Y-122799125D01*
X202160730Y-122798272D01*
X202160729Y-122798272D01*
X202110774Y-122792845D01*
X202110773Y-122792845D01*
X202107377Y-122792476D01*
X200560227Y-122792476D01*
X199012624Y-122792477D01*
X199009230Y-122792846D01*
X199009224Y-122792846D01*
X198959278Y-122798271D01*
X198959274Y-122798272D01*
X198951420Y-122799125D01*
X198817176Y-122849450D01*
X198809997Y-122854830D01*
X198809994Y-122854832D01*
X198725173Y-122918403D01*
X198702454Y-122935430D01*
X198686825Y-122956284D01*
X198629966Y-122998798D01*
X198559147Y-123003822D01*
X198496854Y-122969762D01*
X198462864Y-122907431D01*
X198460000Y-122880717D01*
X198460000Y-110918976D01*
X198480002Y-110850855D01*
X198533658Y-110804362D01*
X198586000Y-110792976D01*
X204334000Y-110792976D01*
X204402121Y-110812978D01*
G37*
%TD.AperFunction*%
%TA.AperFunction,NonConductor*%
G36*
X211402121Y-129312978D02*
G01*
X211448614Y-129366634D01*
X211460000Y-129418976D01*
X211460000Y-134166976D01*
X211439998Y-134235097D01*
X211386342Y-134281590D01*
X211334000Y-134292976D01*
X205960000Y-134292976D01*
X205960000Y-140292976D01*
X211058179Y-140292976D01*
X211126300Y-140312978D01*
X211172793Y-140366634D01*
X211182021Y-140442196D01*
X210583884Y-143632263D01*
X210460000Y-144292976D01*
X192960000Y-144292976D01*
X192960000Y-141452976D01*
X195764671Y-141452976D01*
X195783966Y-141747356D01*
X195841519Y-142036698D01*
X195936348Y-142316053D01*
X196066828Y-142580640D01*
X196230727Y-142825933D01*
X196233441Y-142829027D01*
X196233445Y-142829033D01*
X196422533Y-143044645D01*
X196425242Y-143047734D01*
X196428331Y-143050443D01*
X196643943Y-143239531D01*
X196643949Y-143239535D01*
X196647043Y-143242249D01*
X196650469Y-143244538D01*
X196650474Y-143244542D01*
X196834539Y-143367530D01*
X196892335Y-143406148D01*
X196896034Y-143407972D01*
X196896039Y-143407975D01*
X197153228Y-143534806D01*
X197156923Y-143536628D01*
X197160821Y-143537951D01*
X197160823Y-143537952D01*
X197432368Y-143630130D01*
X197432372Y-143630131D01*
X197436278Y-143631457D01*
X197440322Y-143632261D01*
X197440328Y-143632263D01*
X197721577Y-143688206D01*
X197721580Y-143688206D01*
X197725620Y-143689010D01*
X197729731Y-143689279D01*
X197729735Y-143689280D01*
X198015881Y-143708035D01*
X198020000Y-143708305D01*
X198024119Y-143708035D01*
X198310265Y-143689280D01*
X198310269Y-143689279D01*
X198314380Y-143689010D01*
X198318420Y-143688206D01*
X198318423Y-143688206D01*
X198599672Y-143632263D01*
X198599678Y-143632261D01*
X198603722Y-143631457D01*
X198607628Y-143630131D01*
X198607632Y-143630130D01*
X198879177Y-143537952D01*
X198879179Y-143537951D01*
X198883077Y-143536628D01*
X198886772Y-143534806D01*
X199143961Y-143407975D01*
X199143966Y-143407972D01*
X199147665Y-143406148D01*
X199205461Y-143367530D01*
X199389526Y-143244542D01*
X199389531Y-143244538D01*
X199392957Y-143242249D01*
X199396051Y-143239535D01*
X199396057Y-143239531D01*
X199611669Y-143050443D01*
X199614758Y-143047734D01*
X199617467Y-143044645D01*
X199806555Y-142829033D01*
X199806559Y-142829027D01*
X199809273Y-142825933D01*
X199973172Y-142580640D01*
X200103652Y-142316053D01*
X200198481Y-142036698D01*
X200256034Y-141747356D01*
X200275329Y-141452976D01*
X200256034Y-141158596D01*
X200198481Y-140869254D01*
X200103652Y-140589899D01*
X199973172Y-140325312D01*
X199809273Y-140080019D01*
X199806559Y-140076925D01*
X199806555Y-140076919D01*
X199617467Y-139861307D01*
X199614758Y-139858218D01*
X199611669Y-139855509D01*
X199396057Y-139666421D01*
X199396051Y-139666417D01*
X199392957Y-139663703D01*
X199389527Y-139661411D01*
X199389526Y-139661410D01*
X199151098Y-139502098D01*
X199147665Y-139499804D01*
X199143966Y-139497980D01*
X199143961Y-139497977D01*
X198886772Y-139371146D01*
X198886770Y-139371145D01*
X198883077Y-139369324D01*
X198879177Y-139368000D01*
X198607632Y-139275822D01*
X198607628Y-139275821D01*
X198603722Y-139274495D01*
X198599678Y-139273691D01*
X198599672Y-139273689D01*
X198318423Y-139217746D01*
X198318420Y-139217746D01*
X198314380Y-139216942D01*
X198310269Y-139216673D01*
X198310265Y-139216672D01*
X198024119Y-139197917D01*
X198020000Y-139197647D01*
X198015881Y-139197917D01*
X197729735Y-139216672D01*
X197729731Y-139216673D01*
X197725620Y-139216942D01*
X197721580Y-139217746D01*
X197721577Y-139217746D01*
X197440328Y-139273689D01*
X197440322Y-139273691D01*
X197436278Y-139274495D01*
X197432372Y-139275821D01*
X197432368Y-139275822D01*
X197160823Y-139368000D01*
X197156923Y-139369324D01*
X197153230Y-139371145D01*
X197153228Y-139371146D01*
X196896040Y-139497977D01*
X196896035Y-139497980D01*
X196892336Y-139499804D01*
X196647043Y-139663703D01*
X196643949Y-139666417D01*
X196643943Y-139666421D01*
X196428331Y-139855509D01*
X196425242Y-139858218D01*
X196422533Y-139861307D01*
X196233445Y-140076919D01*
X196233441Y-140076925D01*
X196230727Y-140080019D01*
X196066828Y-140325312D01*
X195936348Y-140589899D01*
X195841519Y-140869254D01*
X195783966Y-141158596D01*
X195764671Y-141452976D01*
X192960000Y-141452976D01*
X192960000Y-129418976D01*
X192980002Y-129350855D01*
X193033658Y-129304362D01*
X193086000Y-129292976D01*
X211334000Y-129292976D01*
X211402121Y-129312978D01*
G37*
%TD.AperFunction*%
%TA.AperFunction,NonConductor*%
G36*
X216402121Y-105812978D02*
G01*
X216448614Y-105866634D01*
X216460000Y-105918976D01*
X216460000Y-122166976D01*
X216439998Y-122235097D01*
X216386342Y-122281590D01*
X216334000Y-122292976D01*
X207086000Y-122292976D01*
X207017879Y-122272974D01*
X206971386Y-122219318D01*
X206960000Y-122166976D01*
X206960000Y-117918976D01*
X206980002Y-117850855D01*
X207033658Y-117804362D01*
X207086000Y-117792976D01*
X211960000Y-117792976D01*
X211960000Y-111792976D01*
X208586000Y-111792976D01*
X208517879Y-111772974D01*
X208471386Y-111719318D01*
X208460000Y-111666976D01*
X208460000Y-105918976D01*
X208480002Y-105850855D01*
X208533658Y-105804362D01*
X208586000Y-105792976D01*
X216334000Y-105792976D01*
X216402121Y-105812978D01*
G37*
%TD.AperFunction*%
%TA.AperFunction,NonConductor*%
G36*
X194902121Y-108312978D02*
G01*
X194948614Y-108366634D01*
X194960000Y-108418976D01*
X194960000Y-110792976D01*
X197834000Y-110792976D01*
X197902121Y-110812978D01*
X197948614Y-110866634D01*
X197960000Y-110918976D01*
X197960000Y-127166976D01*
X197939998Y-127235097D01*
X197886342Y-127281590D01*
X197834000Y-127292976D01*
X192086000Y-127292976D01*
X192017879Y-127272974D01*
X191971386Y-127219318D01*
X191960000Y-127166976D01*
X191960000Y-114292976D01*
X188086000Y-114292976D01*
X188017879Y-114272974D01*
X187971386Y-114219318D01*
X187960000Y-114166976D01*
X187960000Y-108418976D01*
X187980002Y-108350855D01*
X188033658Y-108304362D01*
X188086000Y-108292976D01*
X194834000Y-108292976D01*
X194902121Y-108312978D01*
G37*
%TD.AperFunction*%
M02*
